M48
;GenerationSoftware,Autodesk,EAGLE,9.6.2*%
;CreationDate,2024-03-03T18:43:32Z*%
FMAT,2
ICI,OFF
METRIC,TZ,000.000
T6C0.813
T5C0.900
T4C1.016
T3C1.118
T2C3.000
T1C3.302
%
G90
M71
T1
X-15240Y254
T2
X-27559Y-37719
X-8636Y-37846
X-27940Y5080
X-8890Y5207
T3
X-17780Y-17272
X-15240Y-17272
X-12700Y-17272
T4
X-11684Y-31750
X-16256Y-31750
T5
X-25400Y-29210
X-25400Y-31750
X-25527Y127
X-25527Y-2413
X-25400Y-21590
X-25400Y-19050
X-25400Y-9652
X-25400Y-12192
T6
X-10160Y-24130
X-17780Y-24130
M30