M48
;GenerationSoftware,Autodesk,EAGLE,9.6.2*%
;CreationDate,2024-03-03T18:50:43Z*%
FMAT,2
ICI,OFF
METRIC,TZ,000.000
T7C0.700
T6C0.800
T5C0.813
T4C0.891
T3C0.900
T2C1.778
T1C3.000
%
G90
M71
T1
X-365Y61365
X-254Y19762
X58254Y19873
X58365Y61365
T2
X6350Y57642
X46990Y57642
X46990Y42402
X6350Y42402
T3
X54660Y55310
X52120Y55310
X52152Y47774
X54692Y47774
T4
X36246Y33790
X18964Y19391
X18964Y24590
X18964Y27190
X18964Y29790
X18964Y32390
X18964Y34991
X18964Y37591
X18964Y21990
X23545Y33790
X26085Y33790
X28625Y33790
X31165Y33790
X33706Y33790
T5
X55880Y24830
X53628Y39565
X56168Y39565
X55880Y34990
T6
X8890Y42402
X11430Y42402
X13970Y42402
X29210Y42402
X19050Y42402
X21590Y42402
X24130Y42402
X26670Y42402
X31750Y42402
X34290Y42402
X36830Y42402
X39370Y42402
X41910Y42402
X44450Y42402
X44450Y57642
X39370Y57642
X36830Y57642
X34290Y57642
X8890Y57642
X24130Y57642
X21590Y57642
X16510Y42402
X19050Y57642
X16510Y57642
X13970Y57642
X11430Y57642
X26670Y57642
X41910Y57642
X29210Y57642
X31750Y57642
T7
X45461Y27979
X45461Y40079
X44111Y36579
X44111Y33879
X44111Y31179
X46611Y36579
X46611Y33879
X46611Y31179
M30