G04 EAGLE Gerber RS-274X export*
G75*
%MOMM*%
%FSLAX34Y34*%
%LPD*%
%INBottom Copper*%
%IPPOS*%
%AMOC8*
5,1,8,0,0,1.08239X$1,22.5*%
G01*
%ADD10C,2.235200*%
%ADD11P,1.759533X8X22.500000*%
%ADD12C,1.800000*%
%ADD13P,2.199416X8X202.500000*%
%ADD14P,1.759533X8X202.500000*%
%ADD15C,1.500000*%
%ADD16C,1.500000*%

G36*
X-15778Y-392926D02*
X-15778Y-392926D01*
X-15571Y-392922D01*
X-15462Y-392906D01*
X-15353Y-392899D01*
X-15150Y-392860D01*
X-14945Y-392830D01*
X-14840Y-392801D01*
X-14732Y-392780D01*
X-14535Y-392716D01*
X-14336Y-392660D01*
X-14236Y-392618D01*
X-14131Y-392583D01*
X-13944Y-392495D01*
X-13754Y-392414D01*
X-13660Y-392360D01*
X-13560Y-392313D01*
X-13386Y-392201D01*
X-13207Y-392097D01*
X-13120Y-392031D01*
X-13028Y-391972D01*
X-12869Y-391839D01*
X-12705Y-391714D01*
X-12627Y-391637D01*
X-12543Y-391567D01*
X-12402Y-391415D01*
X-12255Y-391270D01*
X-12187Y-391184D01*
X-12113Y-391103D01*
X-11992Y-390936D01*
X-11864Y-390773D01*
X-11808Y-390679D01*
X-11744Y-390590D01*
X-11646Y-390408D01*
X-11540Y-390230D01*
X-11496Y-390130D01*
X-11444Y-390034D01*
X-11369Y-389841D01*
X-11286Y-389651D01*
X-11256Y-389546D01*
X-11216Y-389444D01*
X-11166Y-389243D01*
X-11108Y-389045D01*
X-11091Y-388936D01*
X-11064Y-388830D01*
X-11041Y-388625D01*
X-11008Y-388421D01*
X-11004Y-388311D01*
X-10991Y-388203D01*
X-10994Y-387996D01*
X-10987Y-387789D01*
X-10997Y-387680D01*
X-10998Y-387570D01*
X-11026Y-387366D01*
X-11046Y-387160D01*
X-11072Y-387037D01*
X-11085Y-386944D01*
X-11117Y-386826D01*
X-11155Y-386646D01*
X-12461Y-381772D01*
X-12461Y-375148D01*
X-10746Y-368748D01*
X-7434Y-363011D01*
X-2749Y-358326D01*
X2988Y-355014D01*
X9388Y-353299D01*
X16012Y-353299D01*
X21646Y-354809D01*
X21849Y-354850D01*
X22050Y-354899D01*
X22158Y-354912D01*
X22266Y-354933D01*
X22472Y-354948D01*
X22677Y-354972D01*
X22787Y-354971D01*
X22896Y-354979D01*
X23103Y-354968D01*
X23310Y-354965D01*
X23418Y-354950D01*
X23527Y-354945D01*
X23731Y-354907D01*
X23936Y-354879D01*
X24041Y-354850D01*
X24149Y-354831D01*
X24346Y-354768D01*
X24546Y-354714D01*
X24647Y-354673D01*
X24752Y-354639D01*
X24939Y-354552D01*
X25130Y-354474D01*
X25226Y-354420D01*
X25325Y-354374D01*
X25500Y-354264D01*
X25680Y-354161D01*
X25768Y-354096D01*
X25860Y-354037D01*
X26020Y-353906D01*
X26186Y-353782D01*
X26264Y-353706D01*
X26349Y-353637D01*
X26491Y-353486D01*
X26640Y-353342D01*
X26708Y-353257D01*
X26783Y-353177D01*
X26905Y-353010D01*
X27034Y-352849D01*
X27091Y-352755D01*
X27156Y-352667D01*
X27256Y-352486D01*
X27364Y-352309D01*
X27408Y-352209D01*
X27461Y-352113D01*
X27537Y-351921D01*
X27622Y-351732D01*
X27654Y-351627D01*
X27694Y-351526D01*
X27746Y-351325D01*
X27806Y-351127D01*
X27824Y-351019D01*
X27851Y-350913D01*
X27877Y-350708D01*
X27912Y-350504D01*
X27918Y-350379D01*
X27930Y-350286D01*
X27930Y-350163D01*
X27939Y-349980D01*
X27939Y23590D01*
X27926Y23796D01*
X27922Y24003D01*
X27906Y24112D01*
X27899Y24221D01*
X27860Y24424D01*
X27830Y24628D01*
X27801Y24734D01*
X27780Y24841D01*
X27716Y25038D01*
X27660Y25237D01*
X27618Y25338D01*
X27583Y25442D01*
X27495Y25629D01*
X27414Y25820D01*
X27360Y25914D01*
X27313Y26013D01*
X27201Y26187D01*
X27097Y26366D01*
X27031Y26453D01*
X26972Y26546D01*
X26839Y26705D01*
X26714Y26869D01*
X26637Y26947D01*
X26567Y27031D01*
X26415Y27171D01*
X26270Y27319D01*
X26184Y27387D01*
X26103Y27461D01*
X25935Y27581D01*
X25773Y27709D01*
X25679Y27765D01*
X25590Y27829D01*
X25408Y27927D01*
X25230Y28034D01*
X25130Y28078D01*
X25034Y28130D01*
X24841Y28204D01*
X24651Y28287D01*
X24546Y28318D01*
X24444Y28358D01*
X24243Y28407D01*
X24045Y28466D01*
X23937Y28483D01*
X23830Y28509D01*
X23625Y28533D01*
X23421Y28566D01*
X23311Y28570D01*
X23203Y28582D01*
X22996Y28580D01*
X22789Y28587D01*
X22680Y28577D01*
X22570Y28575D01*
X22366Y28547D01*
X22160Y28528D01*
X22037Y28502D01*
X21944Y28489D01*
X21826Y28457D01*
X21646Y28419D01*
X16012Y26909D01*
X9388Y26909D01*
X2988Y28624D01*
X-2749Y31936D01*
X-7434Y36621D01*
X-10746Y42358D01*
X-12461Y48758D01*
X-12461Y55382D01*
X-11291Y59746D01*
X-11251Y59949D01*
X-11201Y60150D01*
X-11188Y60258D01*
X-11167Y60366D01*
X-11152Y60572D01*
X-11128Y60777D01*
X-11129Y60887D01*
X-11121Y60996D01*
X-11133Y61203D01*
X-11135Y61410D01*
X-11150Y61518D01*
X-11156Y61627D01*
X-11193Y61831D01*
X-11221Y62036D01*
X-11250Y62142D01*
X-11270Y62249D01*
X-11332Y62446D01*
X-11386Y62646D01*
X-11428Y62747D01*
X-11461Y62852D01*
X-11548Y63039D01*
X-11627Y63230D01*
X-11681Y63326D01*
X-11727Y63425D01*
X-11837Y63600D01*
X-11939Y63780D01*
X-12005Y63868D01*
X-12063Y63960D01*
X-12194Y64120D01*
X-12318Y64286D01*
X-12394Y64364D01*
X-12464Y64449D01*
X-12614Y64591D01*
X-12758Y64740D01*
X-12844Y64808D01*
X-12923Y64883D01*
X-13090Y65005D01*
X-13252Y65134D01*
X-13345Y65191D01*
X-13434Y65256D01*
X-13615Y65356D01*
X-13791Y65464D01*
X-13891Y65508D01*
X-13987Y65561D01*
X-14179Y65638D01*
X-14368Y65722D01*
X-14473Y65754D01*
X-14575Y65794D01*
X-14775Y65846D01*
X-14973Y65906D01*
X-15081Y65924D01*
X-15187Y65951D01*
X-15392Y65977D01*
X-15596Y66012D01*
X-15722Y66018D01*
X-15814Y66030D01*
X-15937Y66030D01*
X-16120Y66039D01*
X-250920Y66039D01*
X-251126Y66026D01*
X-251333Y66022D01*
X-251442Y66006D01*
X-251551Y65999D01*
X-251754Y65960D01*
X-251958Y65930D01*
X-252064Y65901D01*
X-252171Y65880D01*
X-252368Y65816D01*
X-252567Y65760D01*
X-252668Y65718D01*
X-252772Y65683D01*
X-252959Y65595D01*
X-253150Y65514D01*
X-253244Y65460D01*
X-253343Y65413D01*
X-253517Y65301D01*
X-253696Y65197D01*
X-253783Y65131D01*
X-253876Y65072D01*
X-254035Y64939D01*
X-254199Y64814D01*
X-254277Y64737D01*
X-254361Y64667D01*
X-254501Y64515D01*
X-254649Y64370D01*
X-254717Y64284D01*
X-254791Y64203D01*
X-254911Y64035D01*
X-255039Y63873D01*
X-255095Y63779D01*
X-255159Y63690D01*
X-255257Y63508D01*
X-255364Y63330D01*
X-255408Y63230D01*
X-255460Y63134D01*
X-255534Y62941D01*
X-255617Y62751D01*
X-255648Y62646D01*
X-255688Y62544D01*
X-255737Y62343D01*
X-255796Y62145D01*
X-255813Y62037D01*
X-255839Y61930D01*
X-255863Y61725D01*
X-255896Y61521D01*
X-255900Y61411D01*
X-255912Y61303D01*
X-255910Y61096D01*
X-255917Y60889D01*
X-255907Y60780D01*
X-255905Y60670D01*
X-255877Y60466D01*
X-255858Y60260D01*
X-255832Y60137D01*
X-255819Y60044D01*
X-255787Y59926D01*
X-255749Y59746D01*
X-254239Y54112D01*
X-254239Y47488D01*
X-255954Y41088D01*
X-259266Y35351D01*
X-263951Y30666D01*
X-269688Y27354D01*
X-276088Y25639D01*
X-282712Y25639D01*
X-288146Y27095D01*
X-288349Y27136D01*
X-288550Y27186D01*
X-288658Y27198D01*
X-288766Y27220D01*
X-288972Y27235D01*
X-289177Y27259D01*
X-289287Y27257D01*
X-289396Y27265D01*
X-289603Y27254D01*
X-289810Y27252D01*
X-289918Y27237D01*
X-290027Y27231D01*
X-290231Y27194D01*
X-290436Y27165D01*
X-290542Y27137D01*
X-290649Y27117D01*
X-290846Y27055D01*
X-291046Y27001D01*
X-291147Y26959D01*
X-291252Y26926D01*
X-291439Y26839D01*
X-291630Y26760D01*
X-291726Y26706D01*
X-291825Y26660D01*
X-292000Y26550D01*
X-292180Y26448D01*
X-292268Y26382D01*
X-292360Y26324D01*
X-292520Y26193D01*
X-292686Y26069D01*
X-292764Y25992D01*
X-292849Y25923D01*
X-292991Y25773D01*
X-293140Y25629D01*
X-293208Y25543D01*
X-293283Y25464D01*
X-293405Y25297D01*
X-293534Y25135D01*
X-293592Y25041D01*
X-293656Y24953D01*
X-293756Y24772D01*
X-293864Y24595D01*
X-293908Y24495D01*
X-293961Y24400D01*
X-294038Y24207D01*
X-294122Y24019D01*
X-294154Y23914D01*
X-294194Y23812D01*
X-294246Y23612D01*
X-294306Y23414D01*
X-294324Y23306D01*
X-294351Y23200D01*
X-294377Y22994D01*
X-294412Y22791D01*
X-294418Y22665D01*
X-294430Y22573D01*
X-294430Y22449D01*
X-294439Y22266D01*
X-294439Y852D01*
X-294423Y602D01*
X-294414Y350D01*
X-294403Y286D01*
X-294399Y221D01*
X-294352Y-25D01*
X-294311Y-273D01*
X-294292Y-336D01*
X-294280Y-400D01*
X-294202Y-639D01*
X-294130Y-879D01*
X-294104Y-938D01*
X-294083Y-1001D01*
X-293976Y-1228D01*
X-293874Y-1457D01*
X-293841Y-1513D01*
X-293813Y-1572D01*
X-293677Y-1783D01*
X-293548Y-1998D01*
X-293507Y-2049D01*
X-293472Y-2104D01*
X-293311Y-2296D01*
X-293155Y-2493D01*
X-293108Y-2539D01*
X-293067Y-2589D01*
X-292883Y-2760D01*
X-292703Y-2935D01*
X-292651Y-2975D01*
X-292603Y-3019D01*
X-292400Y-3165D01*
X-292199Y-3317D01*
X-292143Y-3350D01*
X-292090Y-3388D01*
X-291869Y-3507D01*
X-291651Y-3632D01*
X-291591Y-3657D01*
X-291534Y-3688D01*
X-291300Y-3778D01*
X-291068Y-3875D01*
X-291005Y-3892D01*
X-290944Y-3916D01*
X-290700Y-3976D01*
X-290458Y-4043D01*
X-290394Y-4052D01*
X-290330Y-4068D01*
X-290082Y-4096D01*
X-289833Y-4132D01*
X-289767Y-4133D01*
X-289703Y-4141D01*
X-289452Y-4138D01*
X-289201Y-4142D01*
X-289136Y-4134D01*
X-289070Y-4134D01*
X-288822Y-4099D01*
X-288572Y-4072D01*
X-288509Y-4056D01*
X-288444Y-4047D01*
X-288202Y-3982D01*
X-287958Y-3923D01*
X-287897Y-3899D01*
X-287834Y-3883D01*
X-287603Y-3787D01*
X-287367Y-3698D01*
X-287310Y-3667D01*
X-287250Y-3642D01*
X-287031Y-3518D01*
X-286810Y-3400D01*
X-286757Y-3362D01*
X-286700Y-3330D01*
X-286499Y-3179D01*
X-286295Y-3034D01*
X-286240Y-2985D01*
X-286194Y-2951D01*
X-286094Y-2853D01*
X-285904Y-2683D01*
X-285823Y-2601D01*
X-271286Y11935D01*
X-266663Y13851D01*
X-262687Y13851D01*
X-262600Y13856D01*
X-262514Y13854D01*
X-262285Y13876D01*
X-262056Y13891D01*
X-261971Y13907D01*
X-261885Y13915D01*
X-261661Y13967D01*
X-261435Y14010D01*
X-261353Y14037D01*
X-261268Y14056D01*
X-260954Y14167D01*
X-260834Y14207D01*
X-260808Y14219D01*
X-260773Y14231D01*
X-258071Y15351D01*
X-252469Y15351D01*
X-247294Y13207D01*
X-243333Y9246D01*
X-241189Y4071D01*
X-241189Y-1531D01*
X-242654Y-5067D01*
X-242714Y-5242D01*
X-242783Y-5413D01*
X-242816Y-5541D01*
X-242858Y-5665D01*
X-242896Y-5846D01*
X-242942Y-6025D01*
X-242959Y-6156D01*
X-242986Y-6284D01*
X-243000Y-6468D01*
X-243024Y-6652D01*
X-243024Y-6783D01*
X-243034Y-6914D01*
X-243025Y-7099D01*
X-243025Y-7284D01*
X-243009Y-7414D01*
X-243002Y-7546D01*
X-242970Y-7728D01*
X-242947Y-7911D01*
X-242914Y-8038D01*
X-242891Y-8168D01*
X-242836Y-8344D01*
X-242790Y-8524D01*
X-242742Y-8646D01*
X-242703Y-8771D01*
X-242626Y-8939D01*
X-242557Y-9111D01*
X-242494Y-9227D01*
X-242439Y-9346D01*
X-242342Y-9502D01*
X-242252Y-9665D01*
X-242175Y-9771D01*
X-242106Y-9883D01*
X-241989Y-10026D01*
X-241880Y-10175D01*
X-241789Y-10271D01*
X-241707Y-10373D01*
X-241573Y-10500D01*
X-241446Y-10635D01*
X-241344Y-10719D01*
X-241249Y-10809D01*
X-241100Y-10919D01*
X-240957Y-11036D01*
X-240846Y-11106D01*
X-240740Y-11184D01*
X-240579Y-11274D01*
X-240422Y-11373D01*
X-240284Y-11439D01*
X-240188Y-11492D01*
X-240087Y-11533D01*
X-239948Y-11599D01*
X-235444Y-13465D01*
X-161353Y-87555D01*
X-161264Y-87634D01*
X-161181Y-87720D01*
X-161027Y-87843D01*
X-160879Y-87973D01*
X-160780Y-88040D01*
X-160687Y-88114D01*
X-160519Y-88217D01*
X-160356Y-88327D01*
X-160249Y-88381D01*
X-160147Y-88444D01*
X-159968Y-88524D01*
X-159792Y-88613D01*
X-159679Y-88653D01*
X-159570Y-88702D01*
X-159382Y-88759D01*
X-159196Y-88826D01*
X-159080Y-88851D01*
X-158966Y-88886D01*
X-158771Y-88919D01*
X-158579Y-88961D01*
X-158460Y-88972D01*
X-158342Y-88992D01*
X-158089Y-89005D01*
X-157949Y-89018D01*
X-157892Y-89015D01*
X-157818Y-89019D01*
X-99097Y-89019D01*
X-94474Y-90935D01*
X-27435Y-157974D01*
X-26628Y-159921D01*
X-26562Y-160056D01*
X-26517Y-160165D01*
X-26498Y-160199D01*
X-26464Y-160276D01*
X-26403Y-160380D01*
X-26350Y-160488D01*
X-26242Y-160652D01*
X-26142Y-160820D01*
X-26068Y-160915D01*
X-26002Y-161016D01*
X-25874Y-161165D01*
X-25754Y-161319D01*
X-25669Y-161404D01*
X-25591Y-161496D01*
X-25445Y-161627D01*
X-25306Y-161765D01*
X-25211Y-161839D01*
X-25122Y-161920D01*
X-24961Y-162032D01*
X-24806Y-162151D01*
X-24702Y-162212D01*
X-24603Y-162281D01*
X-24429Y-162372D01*
X-24261Y-162471D01*
X-24150Y-162518D01*
X-24043Y-162574D01*
X-23859Y-162643D01*
X-23679Y-162720D01*
X-23564Y-162753D01*
X-23451Y-162794D01*
X-23260Y-162839D01*
X-23071Y-162893D01*
X-22952Y-162911D01*
X-22835Y-162938D01*
X-22640Y-162958D01*
X-22446Y-162988D01*
X-22326Y-162990D01*
X-22206Y-163003D01*
X-22010Y-162998D01*
X-21815Y-163003D01*
X-21695Y-162991D01*
X-21574Y-162988D01*
X-21381Y-162958D01*
X-21186Y-162938D01*
X-21069Y-162911D01*
X-20949Y-162893D01*
X-20761Y-162839D01*
X-20570Y-162795D01*
X-20457Y-162753D01*
X-20341Y-162720D01*
X-20161Y-162643D01*
X-19978Y-162575D01*
X-19853Y-162512D01*
X-19760Y-162472D01*
X-19660Y-162413D01*
X-19542Y-162353D01*
X-19529Y-162347D01*
X-19525Y-162345D01*
X-19510Y-162337D01*
X-18780Y-161915D01*
X-17699Y-161468D01*
X-17699Y-185420D01*
X-17699Y-209372D01*
X-18780Y-208925D01*
X-20337Y-208026D01*
X-20368Y-208002D01*
X-20512Y-207905D01*
X-20651Y-207800D01*
X-20775Y-207729D01*
X-20893Y-207649D01*
X-21048Y-207572D01*
X-21199Y-207485D01*
X-21331Y-207430D01*
X-21458Y-207366D01*
X-21622Y-207308D01*
X-21783Y-207241D01*
X-21920Y-207204D01*
X-22054Y-207156D01*
X-22224Y-207120D01*
X-22392Y-207074D01*
X-22533Y-207053D01*
X-22672Y-207024D01*
X-22845Y-207009D01*
X-23018Y-206984D01*
X-23160Y-206982D01*
X-23302Y-206970D01*
X-23476Y-206977D01*
X-23650Y-206974D01*
X-23791Y-206990D01*
X-23933Y-206996D01*
X-24105Y-207025D01*
X-24278Y-207044D01*
X-24416Y-207078D01*
X-24556Y-207102D01*
X-24723Y-207152D01*
X-24892Y-207193D01*
X-25025Y-207244D01*
X-25161Y-207285D01*
X-25320Y-207356D01*
X-25483Y-207418D01*
X-25608Y-207485D01*
X-25738Y-207543D01*
X-25887Y-207634D01*
X-26041Y-207716D01*
X-26157Y-207798D01*
X-26278Y-207872D01*
X-26414Y-207981D01*
X-26556Y-208082D01*
X-26681Y-208194D01*
X-26772Y-208267D01*
X-26843Y-208339D01*
X-26946Y-208433D01*
X-28891Y-210378D01*
X-34866Y-212853D01*
X-41334Y-212853D01*
X-44007Y-211745D01*
X-44213Y-211675D01*
X-44416Y-211596D01*
X-44512Y-211573D01*
X-44605Y-211541D01*
X-44818Y-211497D01*
X-45030Y-211445D01*
X-45128Y-211433D01*
X-45224Y-211414D01*
X-45441Y-211397D01*
X-45657Y-211372D01*
X-45756Y-211373D01*
X-45854Y-211365D01*
X-46072Y-211376D01*
X-46290Y-211379D01*
X-46387Y-211392D01*
X-46486Y-211397D01*
X-46700Y-211435D01*
X-46916Y-211465D01*
X-47011Y-211491D01*
X-47108Y-211508D01*
X-47316Y-211573D01*
X-47526Y-211630D01*
X-47617Y-211667D01*
X-47711Y-211697D01*
X-47909Y-211788D01*
X-48110Y-211870D01*
X-48196Y-211919D01*
X-48286Y-211960D01*
X-48471Y-212075D01*
X-48660Y-212183D01*
X-48739Y-212242D01*
X-48823Y-212294D01*
X-48992Y-212431D01*
X-49166Y-212562D01*
X-49236Y-212630D01*
X-49313Y-212693D01*
X-49463Y-212850D01*
X-49620Y-213002D01*
X-49681Y-213079D01*
X-49749Y-213150D01*
X-49878Y-213325D01*
X-50014Y-213495D01*
X-50066Y-213580D01*
X-50124Y-213659D01*
X-50230Y-213849D01*
X-50344Y-214035D01*
X-50384Y-214125D01*
X-50432Y-214211D01*
X-50513Y-214414D01*
X-50602Y-214612D01*
X-50631Y-214706D01*
X-50667Y-214798D01*
X-50722Y-215008D01*
X-50786Y-215217D01*
X-50802Y-215314D01*
X-50827Y-215409D01*
X-50855Y-215625D01*
X-50892Y-215840D01*
X-50898Y-215952D01*
X-50908Y-216036D01*
X-50909Y-216165D01*
X-50919Y-216364D01*
X-50919Y-229833D01*
X-52835Y-234456D01*
X-62797Y-244419D01*
X-62876Y-244508D01*
X-62962Y-244591D01*
X-63085Y-244745D01*
X-63085Y-244746D01*
X-63133Y-244798D01*
X-63144Y-244813D01*
X-63215Y-244893D01*
X-63282Y-244992D01*
X-63356Y-245085D01*
X-63454Y-245246D01*
X-63501Y-245311D01*
X-63513Y-245334D01*
X-63569Y-245416D01*
X-63623Y-245523D01*
X-63686Y-245625D01*
X-63758Y-245787D01*
X-63802Y-245867D01*
X-63814Y-245899D01*
X-63855Y-245980D01*
X-63895Y-246093D01*
X-63944Y-246202D01*
X-63992Y-246361D01*
X-64030Y-246457D01*
X-64040Y-246498D01*
X-64068Y-246576D01*
X-64068Y-246578D01*
X-71999Y-254509D01*
X-83225Y-254509D01*
X-83311Y-254456D01*
X-83491Y-254376D01*
X-83666Y-254287D01*
X-83779Y-254247D01*
X-83888Y-254198D01*
X-84076Y-254141D01*
X-84262Y-254074D01*
X-84378Y-254049D01*
X-84493Y-254014D01*
X-84687Y-253981D01*
X-84879Y-253939D01*
X-84998Y-253928D01*
X-85116Y-253908D01*
X-85369Y-253895D01*
X-85509Y-253882D01*
X-85567Y-253885D01*
X-85640Y-253881D01*
X-93430Y-253881D01*
X-93549Y-253888D01*
X-93668Y-253886D01*
X-93864Y-253908D01*
X-94061Y-253921D01*
X-94178Y-253943D01*
X-94297Y-253956D01*
X-94488Y-254003D01*
X-94682Y-254040D01*
X-94795Y-254077D01*
X-94911Y-254105D01*
X-95095Y-254175D01*
X-95282Y-254237D01*
X-95390Y-254288D01*
X-95502Y-254330D01*
X-95675Y-254423D01*
X-95853Y-254507D01*
X-95856Y-254509D01*
X-107071Y-254509D01*
X-115125Y-246455D01*
X-115214Y-246376D01*
X-115298Y-246290D01*
X-115452Y-246167D01*
X-115599Y-246037D01*
X-115698Y-245970D01*
X-115791Y-245896D01*
X-115959Y-245793D01*
X-116123Y-245683D01*
X-116229Y-245629D01*
X-116331Y-245566D01*
X-116511Y-245486D01*
X-116686Y-245397D01*
X-116799Y-245357D01*
X-116908Y-245308D01*
X-117096Y-245251D01*
X-117282Y-245184D01*
X-117398Y-245159D01*
X-117513Y-245124D01*
X-117707Y-245091D01*
X-117899Y-245049D01*
X-118018Y-245038D01*
X-118136Y-245018D01*
X-118389Y-245005D01*
X-118529Y-244992D01*
X-118587Y-244995D01*
X-118660Y-244991D01*
X-158712Y-244991D01*
X-161064Y-244017D01*
X-161208Y-243967D01*
X-161349Y-243909D01*
X-161507Y-243865D01*
X-161662Y-243812D01*
X-161811Y-243781D01*
X-161958Y-243741D01*
X-162121Y-243718D01*
X-162281Y-243685D01*
X-162433Y-243673D01*
X-162584Y-243652D01*
X-162748Y-243649D01*
X-162912Y-243636D01*
X-163064Y-243644D01*
X-163216Y-243642D01*
X-163379Y-243660D01*
X-163543Y-243668D01*
X-163693Y-243695D01*
X-163844Y-243712D01*
X-164004Y-243750D01*
X-164165Y-243779D01*
X-164310Y-243825D01*
X-164458Y-243860D01*
X-164612Y-243919D01*
X-164769Y-243968D01*
X-164907Y-244031D01*
X-165049Y-244085D01*
X-165194Y-244163D01*
X-165343Y-244231D01*
X-165473Y-244312D01*
X-165607Y-244383D01*
X-165741Y-244478D01*
X-165880Y-244565D01*
X-165998Y-244661D01*
X-166122Y-244749D01*
X-166270Y-244882D01*
X-166370Y-244964D01*
X-166429Y-245025D01*
X-166512Y-245100D01*
X-172801Y-251388D01*
X-172801Y-241300D01*
X-172812Y-241116D01*
X-172814Y-240931D01*
X-172832Y-240801D01*
X-172841Y-240670D01*
X-172875Y-240488D01*
X-172901Y-240305D01*
X-172935Y-240178D01*
X-172960Y-240049D01*
X-173017Y-239873D01*
X-173066Y-239694D01*
X-173115Y-239573D01*
X-173156Y-239448D01*
X-173236Y-239281D01*
X-173306Y-239110D01*
X-173371Y-238996D01*
X-173427Y-238877D01*
X-173527Y-238721D01*
X-173618Y-238560D01*
X-173697Y-238455D01*
X-173768Y-238345D01*
X-173887Y-238202D01*
X-173998Y-238055D01*
X-174089Y-237960D01*
X-174173Y-237859D01*
X-174174Y-237859D01*
X-174309Y-237733D01*
X-174394Y-237645D01*
X-174438Y-237600D01*
X-174541Y-237518D01*
X-174637Y-237429D01*
X-174787Y-237321D01*
X-174932Y-237206D01*
X-175044Y-237137D01*
X-175151Y-237061D01*
X-175313Y-236973D01*
X-175471Y-236876D01*
X-175591Y-236822D01*
X-175707Y-236760D01*
X-175879Y-236693D01*
X-176048Y-236618D01*
X-176174Y-236580D01*
X-176296Y-236532D01*
X-176476Y-236488D01*
X-176653Y-236434D01*
X-176783Y-236412D01*
X-176910Y-236381D01*
X-177093Y-236359D01*
X-177276Y-236328D01*
X-177430Y-236320D01*
X-177538Y-236307D01*
X-177647Y-236309D01*
X-177800Y-236301D01*
X-187888Y-236301D01*
X-182535Y-230947D01*
X-182413Y-230808D01*
X-182283Y-230676D01*
X-182204Y-230571D01*
X-182117Y-230473D01*
X-182013Y-230320D01*
X-181902Y-230172D01*
X-181836Y-230058D01*
X-181762Y-229949D01*
X-181679Y-229785D01*
X-181587Y-229624D01*
X-181536Y-229503D01*
X-181477Y-229386D01*
X-181414Y-229211D01*
X-181343Y-229041D01*
X-181308Y-228914D01*
X-181264Y-228790D01*
X-181225Y-228610D01*
X-181176Y-228431D01*
X-181157Y-228301D01*
X-181129Y-228173D01*
X-181112Y-227989D01*
X-181086Y-227806D01*
X-181084Y-227674D01*
X-181072Y-227543D01*
X-181079Y-227358D01*
X-181076Y-227174D01*
X-181091Y-227043D01*
X-181096Y-226912D01*
X-181126Y-226729D01*
X-181146Y-226545D01*
X-181177Y-226417D01*
X-181199Y-226288D01*
X-181251Y-226111D01*
X-181295Y-225931D01*
X-181342Y-225808D01*
X-181379Y-225682D01*
X-181454Y-225513D01*
X-181520Y-225340D01*
X-181582Y-225224D01*
X-181635Y-225104D01*
X-181731Y-224946D01*
X-181818Y-224783D01*
X-181894Y-224676D01*
X-181962Y-224563D01*
X-182076Y-224418D01*
X-182184Y-224267D01*
X-182286Y-224153D01*
X-182354Y-224067D01*
X-182432Y-223991D01*
X-182535Y-223877D01*
X-188235Y-218177D01*
X-188374Y-218055D01*
X-188506Y-217925D01*
X-188611Y-217846D01*
X-188709Y-217759D01*
X-188862Y-217655D01*
X-189010Y-217544D01*
X-189124Y-217478D01*
X-189233Y-217404D01*
X-189398Y-217321D01*
X-189558Y-217229D01*
X-189679Y-217178D01*
X-189796Y-217119D01*
X-189971Y-217057D01*
X-190141Y-216985D01*
X-190268Y-216950D01*
X-190392Y-216906D01*
X-190572Y-216867D01*
X-190751Y-216818D01*
X-190881Y-216799D01*
X-191009Y-216771D01*
X-191193Y-216754D01*
X-191376Y-216728D01*
X-191508Y-216726D01*
X-191639Y-216714D01*
X-191824Y-216721D01*
X-192008Y-216718D01*
X-192139Y-216733D01*
X-192270Y-216738D01*
X-192453Y-216768D01*
X-192637Y-216788D01*
X-192764Y-216819D01*
X-192894Y-216841D01*
X-193071Y-216893D01*
X-193251Y-216937D01*
X-193374Y-216984D01*
X-193500Y-217021D01*
X-193669Y-217096D01*
X-193842Y-217162D01*
X-193958Y-217224D01*
X-194078Y-217277D01*
X-194236Y-217373D01*
X-194399Y-217460D01*
X-194506Y-217536D01*
X-194619Y-217604D01*
X-194764Y-217719D01*
X-194915Y-217826D01*
X-195029Y-217928D01*
X-195115Y-217996D01*
X-195191Y-218074D01*
X-195305Y-218177D01*
X-241225Y-264097D01*
X-241304Y-264186D01*
X-241390Y-264269D01*
X-241513Y-264423D01*
X-241643Y-264571D01*
X-241710Y-264670D01*
X-241784Y-264763D01*
X-241887Y-264931D01*
X-241997Y-265094D01*
X-242051Y-265201D01*
X-242114Y-265303D01*
X-242194Y-265482D01*
X-242283Y-265658D01*
X-242323Y-265771D01*
X-242372Y-265880D01*
X-242429Y-266068D01*
X-242496Y-266254D01*
X-242521Y-266370D01*
X-242556Y-266484D01*
X-242589Y-266679D01*
X-242631Y-266871D01*
X-242642Y-266990D01*
X-242662Y-267108D01*
X-242675Y-267361D01*
X-242688Y-267501D01*
X-242685Y-267558D01*
X-242689Y-267632D01*
X-242689Y-281617D01*
X-242684Y-281704D01*
X-242686Y-281790D01*
X-242664Y-282019D01*
X-242649Y-282248D01*
X-242633Y-282333D01*
X-242625Y-282419D01*
X-242573Y-282643D01*
X-242530Y-282869D01*
X-242503Y-282951D01*
X-242484Y-283036D01*
X-242373Y-283349D01*
X-242333Y-283470D01*
X-242321Y-283496D01*
X-242309Y-283530D01*
X-239919Y-289299D01*
X-239919Y-294901D01*
X-241206Y-298007D01*
X-241276Y-298213D01*
X-241355Y-298416D01*
X-241378Y-298512D01*
X-241410Y-298605D01*
X-241454Y-298818D01*
X-241506Y-299030D01*
X-241518Y-299128D01*
X-241538Y-299224D01*
X-241554Y-299441D01*
X-241579Y-299657D01*
X-241578Y-299756D01*
X-241586Y-299854D01*
X-241575Y-300072D01*
X-241573Y-300290D01*
X-241559Y-300387D01*
X-241554Y-300486D01*
X-241516Y-300700D01*
X-241486Y-300916D01*
X-241461Y-301011D01*
X-241443Y-301108D01*
X-241378Y-301316D01*
X-241321Y-301526D01*
X-241284Y-301617D01*
X-241255Y-301711D01*
X-241164Y-301909D01*
X-241081Y-302110D01*
X-241032Y-302196D01*
X-240991Y-302286D01*
X-240876Y-302471D01*
X-240769Y-302660D01*
X-240709Y-302739D01*
X-240657Y-302823D01*
X-240520Y-302992D01*
X-240389Y-303166D01*
X-240321Y-303236D01*
X-240259Y-303313D01*
X-240101Y-303463D01*
X-239950Y-303620D01*
X-239872Y-303681D01*
X-239801Y-303749D01*
X-239626Y-303878D01*
X-239456Y-304014D01*
X-239372Y-304066D01*
X-239292Y-304124D01*
X-239102Y-304230D01*
X-238916Y-304344D01*
X-238826Y-304384D01*
X-238740Y-304432D01*
X-238538Y-304513D01*
X-238339Y-304602D01*
X-238245Y-304631D01*
X-238154Y-304667D01*
X-237943Y-304722D01*
X-237735Y-304786D01*
X-237637Y-304802D01*
X-237542Y-304827D01*
X-237326Y-304855D01*
X-237111Y-304892D01*
X-236999Y-304898D01*
X-236915Y-304908D01*
X-236786Y-304909D01*
X-236587Y-304919D01*
X-173604Y-304919D01*
X-173485Y-304912D01*
X-173365Y-304914D01*
X-173169Y-304892D01*
X-172973Y-304879D01*
X-172856Y-304857D01*
X-172737Y-304844D01*
X-172546Y-304797D01*
X-172352Y-304760D01*
X-172239Y-304723D01*
X-172123Y-304695D01*
X-171939Y-304625D01*
X-171751Y-304563D01*
X-171643Y-304512D01*
X-171532Y-304470D01*
X-171359Y-304377D01*
X-171180Y-304293D01*
X-171080Y-304228D01*
X-170974Y-304172D01*
X-170814Y-304058D01*
X-170648Y-303952D01*
X-170556Y-303875D01*
X-170459Y-303806D01*
X-170270Y-303636D01*
X-170163Y-303547D01*
X-170123Y-303504D01*
X-170069Y-303455D01*
X-168873Y-302259D01*
X-156247Y-302259D01*
X-147319Y-311187D01*
X-147319Y-323813D01*
X-156247Y-332741D01*
X-168873Y-332741D01*
X-170069Y-331545D01*
X-170158Y-331466D01*
X-170241Y-331380D01*
X-170395Y-331257D01*
X-170543Y-331127D01*
X-170642Y-331060D01*
X-170735Y-330986D01*
X-170903Y-330883D01*
X-171066Y-330773D01*
X-171173Y-330719D01*
X-171275Y-330656D01*
X-171454Y-330576D01*
X-171630Y-330487D01*
X-171743Y-330447D01*
X-171851Y-330398D01*
X-172040Y-330341D01*
X-172225Y-330274D01*
X-172342Y-330249D01*
X-172456Y-330214D01*
X-172651Y-330181D01*
X-172843Y-330139D01*
X-172962Y-330128D01*
X-173079Y-330108D01*
X-173333Y-330095D01*
X-173472Y-330082D01*
X-173530Y-330085D01*
X-173604Y-330081D01*
X-246583Y-330081D01*
X-246670Y-330086D01*
X-246756Y-330084D01*
X-246985Y-330106D01*
X-247214Y-330121D01*
X-247299Y-330137D01*
X-247385Y-330145D01*
X-247609Y-330197D01*
X-247835Y-330240D01*
X-247917Y-330267D01*
X-248002Y-330286D01*
X-248316Y-330397D01*
X-248436Y-330437D01*
X-248462Y-330449D01*
X-248497Y-330461D01*
X-251199Y-331581D01*
X-256801Y-331581D01*
X-261976Y-329437D01*
X-265937Y-325476D01*
X-268081Y-320301D01*
X-268081Y-314699D01*
X-265937Y-309524D01*
X-264748Y-308335D01*
X-264626Y-308196D01*
X-264497Y-308064D01*
X-264417Y-307959D01*
X-264330Y-307861D01*
X-264226Y-307707D01*
X-264115Y-307560D01*
X-264050Y-307446D01*
X-263976Y-307337D01*
X-263892Y-307172D01*
X-263800Y-307012D01*
X-263749Y-306891D01*
X-263690Y-306774D01*
X-263628Y-306599D01*
X-263557Y-306429D01*
X-263522Y-306302D01*
X-263478Y-306178D01*
X-263438Y-305998D01*
X-263389Y-305819D01*
X-263370Y-305689D01*
X-263342Y-305561D01*
X-263326Y-305377D01*
X-263299Y-305193D01*
X-263297Y-305062D01*
X-263286Y-304931D01*
X-263292Y-304746D01*
X-263290Y-304561D01*
X-263304Y-304431D01*
X-263309Y-304300D01*
X-263339Y-304117D01*
X-263360Y-303933D01*
X-263391Y-303805D01*
X-263412Y-303676D01*
X-263465Y-303499D01*
X-263508Y-303319D01*
X-263555Y-303196D01*
X-263593Y-303070D01*
X-263667Y-302901D01*
X-263733Y-302728D01*
X-263795Y-302612D01*
X-263848Y-302492D01*
X-263944Y-302334D01*
X-264031Y-302171D01*
X-264107Y-302064D01*
X-264175Y-301951D01*
X-264290Y-301806D01*
X-264397Y-301655D01*
X-264500Y-301541D01*
X-264567Y-301455D01*
X-264645Y-301379D01*
X-264748Y-301265D01*
X-265937Y-300076D01*
X-268081Y-294901D01*
X-268081Y-289222D01*
X-268027Y-289064D01*
X-268009Y-288980D01*
X-267984Y-288897D01*
X-267946Y-288671D01*
X-267899Y-288445D01*
X-267893Y-288359D01*
X-267878Y-288274D01*
X-267861Y-287941D01*
X-267851Y-287815D01*
X-267853Y-287786D01*
X-267851Y-287749D01*
X-267851Y-257847D01*
X-265935Y-253224D01*
X-261694Y-248982D01*
X-261693Y-248981D01*
X-248582Y-235870D01*
X-248409Y-235674D01*
X-248232Y-235481D01*
X-248200Y-235436D01*
X-248164Y-235395D01*
X-248017Y-235179D01*
X-247866Y-234966D01*
X-247840Y-234918D01*
X-247809Y-234872D01*
X-247691Y-234638D01*
X-247568Y-234408D01*
X-247548Y-234357D01*
X-247523Y-234308D01*
X-247435Y-234062D01*
X-247342Y-233818D01*
X-247329Y-233764D01*
X-247311Y-233713D01*
X-247255Y-233458D01*
X-247193Y-233203D01*
X-247187Y-233149D01*
X-247176Y-233096D01*
X-247152Y-232836D01*
X-247123Y-232575D01*
X-247124Y-232521D01*
X-247119Y-232466D01*
X-247129Y-232205D01*
X-247133Y-231943D01*
X-247140Y-231889D01*
X-247142Y-231834D01*
X-247185Y-231576D01*
X-247222Y-231318D01*
X-247236Y-231265D01*
X-247245Y-231211D01*
X-247320Y-230960D01*
X-247389Y-230708D01*
X-247410Y-230657D01*
X-247426Y-230605D01*
X-247532Y-230366D01*
X-247632Y-230125D01*
X-247660Y-230077D01*
X-247682Y-230027D01*
X-247817Y-229803D01*
X-247947Y-229576D01*
X-247980Y-229533D01*
X-248008Y-229486D01*
X-248171Y-229280D01*
X-248329Y-229072D01*
X-248367Y-229033D01*
X-248401Y-228990D01*
X-248588Y-228807D01*
X-248770Y-228620D01*
X-248813Y-228586D01*
X-248853Y-228548D01*
X-249001Y-228436D01*
X-249001Y-220899D01*
X-241463Y-220899D01*
X-241444Y-220923D01*
X-241281Y-221128D01*
X-241242Y-221166D01*
X-241207Y-221208D01*
X-241016Y-221388D01*
X-240829Y-221570D01*
X-240786Y-221603D01*
X-240746Y-221641D01*
X-240534Y-221794D01*
X-240325Y-221952D01*
X-240278Y-221979D01*
X-240234Y-222011D01*
X-240005Y-222136D01*
X-239777Y-222267D01*
X-239727Y-222288D01*
X-239679Y-222314D01*
X-239436Y-222409D01*
X-239194Y-222510D01*
X-239141Y-222524D01*
X-239090Y-222544D01*
X-238837Y-222608D01*
X-238585Y-222678D01*
X-238530Y-222685D01*
X-238477Y-222699D01*
X-238218Y-222730D01*
X-237959Y-222767D01*
X-237904Y-222768D01*
X-237850Y-222775D01*
X-237588Y-222773D01*
X-237327Y-222777D01*
X-237272Y-222771D01*
X-237218Y-222771D01*
X-236958Y-222736D01*
X-236699Y-222707D01*
X-236645Y-222694D01*
X-236591Y-222687D01*
X-236338Y-222620D01*
X-236084Y-222558D01*
X-236033Y-222539D01*
X-235980Y-222525D01*
X-235737Y-222426D01*
X-235494Y-222333D01*
X-235445Y-222308D01*
X-235395Y-222287D01*
X-235166Y-222158D01*
X-234936Y-222035D01*
X-234891Y-222004D01*
X-234844Y-221977D01*
X-234633Y-221821D01*
X-234421Y-221670D01*
X-234375Y-221629D01*
X-234336Y-221600D01*
X-234235Y-221503D01*
X-234030Y-221318D01*
X-196791Y-184079D01*
X-196712Y-183990D01*
X-196626Y-183907D01*
X-196503Y-183753D01*
X-196373Y-183605D01*
X-196306Y-183506D01*
X-196232Y-183413D01*
X-196129Y-183245D01*
X-196019Y-183082D01*
X-195965Y-182975D01*
X-195902Y-182873D01*
X-195822Y-182694D01*
X-195733Y-182518D01*
X-195693Y-182405D01*
X-195644Y-182296D01*
X-195587Y-182108D01*
X-195520Y-181922D01*
X-195495Y-181806D01*
X-195460Y-181692D01*
X-195427Y-181497D01*
X-195385Y-181305D01*
X-195374Y-181186D01*
X-195354Y-181068D01*
X-195341Y-180815D01*
X-195328Y-180675D01*
X-195331Y-180618D01*
X-195327Y-180544D01*
X-195327Y-169740D01*
X-192852Y-163765D01*
X-188279Y-159192D01*
X-182304Y-156717D01*
X-175836Y-156717D01*
X-173163Y-157825D01*
X-172957Y-157895D01*
X-172754Y-157974D01*
X-172658Y-157997D01*
X-172565Y-158029D01*
X-172352Y-158073D01*
X-172140Y-158125D01*
X-172042Y-158137D01*
X-171946Y-158156D01*
X-171729Y-158173D01*
X-171513Y-158198D01*
X-171414Y-158197D01*
X-171316Y-158205D01*
X-171098Y-158194D01*
X-170880Y-158191D01*
X-170783Y-158178D01*
X-170684Y-158173D01*
X-170470Y-158135D01*
X-170254Y-158105D01*
X-170159Y-158079D01*
X-170062Y-158062D01*
X-169854Y-157997D01*
X-169644Y-157940D01*
X-169553Y-157903D01*
X-169459Y-157873D01*
X-169261Y-157782D01*
X-169060Y-157700D01*
X-168974Y-157651D01*
X-168884Y-157610D01*
X-168699Y-157495D01*
X-168510Y-157387D01*
X-168431Y-157328D01*
X-168347Y-157276D01*
X-168178Y-157139D01*
X-168004Y-157008D01*
X-167934Y-156940D01*
X-167857Y-156877D01*
X-167707Y-156720D01*
X-167550Y-156568D01*
X-167489Y-156491D01*
X-167421Y-156420D01*
X-167292Y-156245D01*
X-167156Y-156075D01*
X-167104Y-155990D01*
X-167046Y-155911D01*
X-166940Y-155721D01*
X-166826Y-155535D01*
X-166786Y-155445D01*
X-166738Y-155359D01*
X-166657Y-155157D01*
X-166568Y-154958D01*
X-166539Y-154864D01*
X-166503Y-154772D01*
X-166448Y-154562D01*
X-166384Y-154353D01*
X-166368Y-154256D01*
X-166343Y-154161D01*
X-166315Y-153945D01*
X-166278Y-153730D01*
X-166272Y-153618D01*
X-166262Y-153534D01*
X-166261Y-153405D01*
X-166251Y-153206D01*
X-166251Y-120312D01*
X-166258Y-120193D01*
X-166256Y-120073D01*
X-166278Y-119877D01*
X-166291Y-119681D01*
X-166313Y-119564D01*
X-166326Y-119445D01*
X-166373Y-119254D01*
X-166410Y-119060D01*
X-166447Y-118947D01*
X-166475Y-118831D01*
X-166545Y-118647D01*
X-166607Y-118460D01*
X-166658Y-118352D01*
X-166700Y-118240D01*
X-166793Y-118067D01*
X-166877Y-117888D01*
X-166942Y-117788D01*
X-166998Y-117683D01*
X-167112Y-117522D01*
X-167218Y-117356D01*
X-167295Y-117264D01*
X-167364Y-117167D01*
X-167534Y-116978D01*
X-167623Y-116871D01*
X-167666Y-116832D01*
X-167715Y-116777D01*
X-175197Y-109295D01*
X-175286Y-109216D01*
X-175369Y-109130D01*
X-175523Y-109007D01*
X-175671Y-108877D01*
X-175770Y-108810D01*
X-175863Y-108736D01*
X-176031Y-108633D01*
X-176194Y-108523D01*
X-176301Y-108469D01*
X-176403Y-108406D01*
X-176582Y-108326D01*
X-176758Y-108237D01*
X-176871Y-108197D01*
X-176980Y-108148D01*
X-177168Y-108091D01*
X-177354Y-108024D01*
X-177470Y-107999D01*
X-177584Y-107964D01*
X-177779Y-107931D01*
X-177971Y-107889D01*
X-178090Y-107878D01*
X-178208Y-107858D01*
X-178461Y-107845D01*
X-178601Y-107832D01*
X-178658Y-107835D01*
X-178732Y-107831D01*
X-179408Y-107831D01*
X-179527Y-107838D01*
X-179647Y-107836D01*
X-179843Y-107858D01*
X-180039Y-107871D01*
X-180156Y-107893D01*
X-180275Y-107906D01*
X-180466Y-107953D01*
X-180660Y-107990D01*
X-180773Y-108027D01*
X-180889Y-108055D01*
X-181073Y-108125D01*
X-181260Y-108187D01*
X-181368Y-108238D01*
X-181480Y-108280D01*
X-181653Y-108373D01*
X-181832Y-108457D01*
X-181932Y-108522D01*
X-182037Y-108578D01*
X-182198Y-108692D01*
X-182364Y-108798D01*
X-182456Y-108875D01*
X-182553Y-108944D01*
X-182742Y-109114D01*
X-182849Y-109203D01*
X-182888Y-109246D01*
X-182943Y-109295D01*
X-206234Y-132585D01*
X-210857Y-134501D01*
X-246583Y-134501D01*
X-246670Y-134506D01*
X-246756Y-134504D01*
X-246985Y-134526D01*
X-247214Y-134541D01*
X-247299Y-134557D01*
X-247385Y-134565D01*
X-247609Y-134617D01*
X-247835Y-134660D01*
X-247917Y-134687D01*
X-248002Y-134706D01*
X-248315Y-134817D01*
X-248436Y-134857D01*
X-248462Y-134869D01*
X-248497Y-134881D01*
X-251199Y-136001D01*
X-256801Y-136001D01*
X-259907Y-134714D01*
X-260113Y-134644D01*
X-260316Y-134565D01*
X-260412Y-134542D01*
X-260505Y-134510D01*
X-260718Y-134466D01*
X-260930Y-134414D01*
X-261028Y-134402D01*
X-261124Y-134382D01*
X-261341Y-134366D01*
X-261557Y-134341D01*
X-261656Y-134342D01*
X-261754Y-134334D01*
X-261972Y-134345D01*
X-262190Y-134347D01*
X-262287Y-134361D01*
X-262386Y-134366D01*
X-262600Y-134404D01*
X-262816Y-134434D01*
X-262911Y-134459D01*
X-263008Y-134477D01*
X-263216Y-134542D01*
X-263426Y-134599D01*
X-263517Y-134636D01*
X-263611Y-134665D01*
X-263809Y-134756D01*
X-264010Y-134839D01*
X-264096Y-134888D01*
X-264186Y-134929D01*
X-264371Y-135044D01*
X-264560Y-135151D01*
X-264639Y-135211D01*
X-264723Y-135263D01*
X-264892Y-135400D01*
X-265066Y-135531D01*
X-265136Y-135599D01*
X-265213Y-135661D01*
X-265363Y-135819D01*
X-265520Y-135970D01*
X-265581Y-136048D01*
X-265649Y-136119D01*
X-265778Y-136294D01*
X-265914Y-136464D01*
X-265966Y-136548D01*
X-266024Y-136628D01*
X-266130Y-136818D01*
X-266244Y-137004D01*
X-266284Y-137094D01*
X-266332Y-137180D01*
X-266413Y-137382D01*
X-266502Y-137581D01*
X-266531Y-137675D01*
X-266567Y-137766D01*
X-266622Y-137977D01*
X-266686Y-138185D01*
X-266702Y-138283D01*
X-266727Y-138378D01*
X-266755Y-138594D01*
X-266792Y-138809D01*
X-266798Y-138921D01*
X-266808Y-139005D01*
X-266809Y-139134D01*
X-266819Y-139333D01*
X-266819Y-157818D01*
X-266812Y-157937D01*
X-266814Y-158057D01*
X-266792Y-158253D01*
X-266779Y-158449D01*
X-266757Y-158566D01*
X-266744Y-158685D01*
X-266697Y-158876D01*
X-266660Y-159070D01*
X-266623Y-159183D01*
X-266595Y-159299D01*
X-266525Y-159483D01*
X-266463Y-159670D01*
X-266412Y-159778D01*
X-266370Y-159890D01*
X-266277Y-160063D01*
X-266193Y-160242D01*
X-266128Y-160342D01*
X-266072Y-160447D01*
X-265958Y-160608D01*
X-265852Y-160774D01*
X-265775Y-160866D01*
X-265706Y-160963D01*
X-265536Y-161152D01*
X-265447Y-161259D01*
X-265404Y-161298D01*
X-265355Y-161353D01*
X-250348Y-176360D01*
X-250284Y-176417D01*
X-250224Y-176480D01*
X-250047Y-176626D01*
X-249874Y-176778D01*
X-249802Y-176826D01*
X-249736Y-176881D01*
X-249541Y-177003D01*
X-249351Y-177132D01*
X-249274Y-177171D01*
X-249200Y-177217D01*
X-248900Y-177361D01*
X-248787Y-177418D01*
X-248759Y-177428D01*
X-248727Y-177443D01*
X-246024Y-178563D01*
X-242063Y-182524D01*
X-239919Y-187699D01*
X-239919Y-193301D01*
X-242063Y-198476D01*
X-245051Y-201464D01*
X-245166Y-201595D01*
X-245288Y-201719D01*
X-245375Y-201832D01*
X-245469Y-201939D01*
X-245567Y-202083D01*
X-245672Y-202221D01*
X-245744Y-202344D01*
X-245824Y-202462D01*
X-245902Y-202617D01*
X-245990Y-202768D01*
X-246045Y-202899D01*
X-246109Y-203026D01*
X-246168Y-203189D01*
X-246236Y-203350D01*
X-246274Y-203487D01*
X-246322Y-203621D01*
X-246359Y-203791D01*
X-246406Y-203959D01*
X-246427Y-204100D01*
X-246457Y-204238D01*
X-246473Y-204412D01*
X-246498Y-204584D01*
X-246501Y-204726D01*
X-246514Y-204868D01*
X-246507Y-205042D01*
X-246511Y-205216D01*
X-246496Y-205357D01*
X-246490Y-205500D01*
X-246462Y-205671D01*
X-246443Y-205844D01*
X-246411Y-205983D01*
X-246387Y-206123D01*
X-246338Y-206290D01*
X-246297Y-206459D01*
X-246247Y-206593D01*
X-246207Y-206729D01*
X-246136Y-206888D01*
X-246075Y-207051D01*
X-246009Y-207177D01*
X-245951Y-207307D01*
X-245861Y-207456D01*
X-245780Y-207610D01*
X-245684Y-207749D01*
X-245624Y-207848D01*
X-245561Y-207928D01*
X-245482Y-208043D01*
X-244384Y-209474D01*
X-243627Y-210785D01*
X-243579Y-210901D01*
X-254000Y-210901D01*
X-264421Y-210901D01*
X-264373Y-210785D01*
X-263616Y-209474D01*
X-262518Y-208043D01*
X-262421Y-207898D01*
X-262316Y-207759D01*
X-262244Y-207636D01*
X-262165Y-207518D01*
X-262087Y-207363D01*
X-262001Y-207211D01*
X-261946Y-207080D01*
X-261882Y-206953D01*
X-261824Y-206788D01*
X-261757Y-206628D01*
X-261720Y-206491D01*
X-261672Y-206357D01*
X-261636Y-206186D01*
X-261590Y-206019D01*
X-261569Y-205878D01*
X-261540Y-205739D01*
X-261525Y-205565D01*
X-261500Y-205393D01*
X-261498Y-205250D01*
X-261486Y-205109D01*
X-261493Y-204935D01*
X-261490Y-204761D01*
X-261506Y-204619D01*
X-261512Y-204477D01*
X-261541Y-204306D01*
X-261560Y-204133D01*
X-261594Y-203994D01*
X-261618Y-203854D01*
X-261668Y-203688D01*
X-261709Y-203518D01*
X-261760Y-203385D01*
X-261801Y-203249D01*
X-261872Y-203090D01*
X-261934Y-202928D01*
X-262001Y-202802D01*
X-262059Y-202672D01*
X-262150Y-202523D01*
X-262232Y-202370D01*
X-262314Y-202254D01*
X-262388Y-202132D01*
X-262497Y-201996D01*
X-262598Y-201855D01*
X-262710Y-201729D01*
X-262783Y-201639D01*
X-262855Y-201568D01*
X-262949Y-201464D01*
X-265937Y-198476D01*
X-267057Y-195773D01*
X-267095Y-195696D01*
X-267125Y-195615D01*
X-267234Y-195412D01*
X-267335Y-195206D01*
X-267382Y-195134D01*
X-267423Y-195057D01*
X-267556Y-194870D01*
X-267683Y-194678D01*
X-267739Y-194612D01*
X-267789Y-194542D01*
X-268012Y-194294D01*
X-268094Y-194198D01*
X-268116Y-194179D01*
X-268140Y-194152D01*
X-285905Y-176387D01*
X-286093Y-176221D01*
X-286277Y-176051D01*
X-286330Y-176012D01*
X-286379Y-175969D01*
X-286587Y-175828D01*
X-286790Y-175683D01*
X-286848Y-175651D01*
X-286903Y-175614D01*
X-287127Y-175501D01*
X-287346Y-175382D01*
X-287408Y-175358D01*
X-287466Y-175329D01*
X-287702Y-175244D01*
X-287936Y-175154D01*
X-288000Y-175138D01*
X-288062Y-175116D01*
X-288306Y-175063D01*
X-288550Y-175002D01*
X-288615Y-174995D01*
X-288679Y-174981D01*
X-288929Y-174958D01*
X-289177Y-174929D01*
X-289243Y-174930D01*
X-289309Y-174924D01*
X-289560Y-174934D01*
X-289810Y-174936D01*
X-289874Y-174945D01*
X-289940Y-174948D01*
X-290188Y-174988D01*
X-290436Y-175023D01*
X-290499Y-175040D01*
X-290564Y-175051D01*
X-290804Y-175122D01*
X-291046Y-175188D01*
X-291107Y-175213D01*
X-291170Y-175231D01*
X-291399Y-175333D01*
X-291630Y-175428D01*
X-291688Y-175461D01*
X-291748Y-175487D01*
X-291962Y-175616D01*
X-292180Y-175740D01*
X-292233Y-175780D01*
X-292289Y-175814D01*
X-292485Y-175969D01*
X-292686Y-176119D01*
X-292733Y-176165D01*
X-292785Y-176206D01*
X-292960Y-176385D01*
X-293140Y-176559D01*
X-293181Y-176611D01*
X-293227Y-176658D01*
X-293377Y-176857D01*
X-293534Y-177053D01*
X-293569Y-177109D01*
X-293608Y-177162D01*
X-293733Y-177378D01*
X-293864Y-177593D01*
X-293891Y-177653D01*
X-293923Y-177710D01*
X-294019Y-177941D01*
X-294122Y-178170D01*
X-294141Y-178232D01*
X-294167Y-178293D01*
X-294233Y-178535D01*
X-294306Y-178774D01*
X-294317Y-178839D01*
X-294334Y-178903D01*
X-294370Y-179151D01*
X-294412Y-179397D01*
X-294416Y-179471D01*
X-294424Y-179528D01*
X-294426Y-179668D01*
X-294439Y-179922D01*
X-294439Y-350361D01*
X-294425Y-350589D01*
X-294418Y-350817D01*
X-294405Y-350904D01*
X-294399Y-350991D01*
X-294356Y-351216D01*
X-294321Y-351442D01*
X-294297Y-351526D01*
X-294280Y-351612D01*
X-294209Y-351829D01*
X-294145Y-352049D01*
X-294111Y-352130D01*
X-294083Y-352213D01*
X-293985Y-352420D01*
X-293895Y-352629D01*
X-293850Y-352705D01*
X-293813Y-352784D01*
X-293689Y-352977D01*
X-293573Y-353173D01*
X-293519Y-353243D01*
X-293472Y-353316D01*
X-293325Y-353492D01*
X-293185Y-353672D01*
X-293123Y-353734D01*
X-293067Y-353802D01*
X-292899Y-353957D01*
X-292737Y-354119D01*
X-292668Y-354172D01*
X-292603Y-354232D01*
X-292418Y-354365D01*
X-292236Y-354505D01*
X-292161Y-354549D01*
X-292090Y-354600D01*
X-291889Y-354708D01*
X-291691Y-354824D01*
X-291611Y-354859D01*
X-291534Y-354900D01*
X-291320Y-354983D01*
X-291110Y-355073D01*
X-291026Y-355097D01*
X-290944Y-355128D01*
X-290722Y-355183D01*
X-290502Y-355246D01*
X-290416Y-355259D01*
X-290330Y-355280D01*
X-290103Y-355306D01*
X-289877Y-355341D01*
X-289790Y-355343D01*
X-289703Y-355353D01*
X-289474Y-355350D01*
X-289245Y-355356D01*
X-289158Y-355347D01*
X-289070Y-355346D01*
X-288844Y-355315D01*
X-288616Y-355292D01*
X-288531Y-355272D01*
X-288444Y-355260D01*
X-288223Y-355200D01*
X-288001Y-355148D01*
X-287919Y-355118D01*
X-287834Y-355095D01*
X-287623Y-355008D01*
X-287408Y-354928D01*
X-287320Y-354883D01*
X-287250Y-354854D01*
X-287133Y-354788D01*
X-286940Y-354690D01*
X-285302Y-353744D01*
X-278902Y-352029D01*
X-272278Y-352029D01*
X-265878Y-353744D01*
X-260141Y-357056D01*
X-255456Y-361741D01*
X-252144Y-367478D01*
X-250429Y-373878D01*
X-250429Y-380502D01*
X-252075Y-386646D01*
X-252116Y-386849D01*
X-252166Y-387050D01*
X-252179Y-387158D01*
X-252200Y-387266D01*
X-252215Y-387472D01*
X-252239Y-387677D01*
X-252238Y-387787D01*
X-252246Y-387896D01*
X-252234Y-388103D01*
X-252232Y-388310D01*
X-252217Y-388418D01*
X-252211Y-388527D01*
X-252174Y-388731D01*
X-252146Y-388936D01*
X-252117Y-389041D01*
X-252097Y-389149D01*
X-252035Y-389346D01*
X-251981Y-389546D01*
X-251939Y-389647D01*
X-251906Y-389752D01*
X-251819Y-389939D01*
X-251740Y-390130D01*
X-251686Y-390226D01*
X-251640Y-390325D01*
X-251530Y-390500D01*
X-251428Y-390680D01*
X-251362Y-390768D01*
X-251304Y-390860D01*
X-251173Y-391020D01*
X-251049Y-391186D01*
X-250973Y-391264D01*
X-250903Y-391349D01*
X-250753Y-391491D01*
X-250609Y-391640D01*
X-250523Y-391708D01*
X-250444Y-391783D01*
X-250277Y-391905D01*
X-250115Y-392034D01*
X-250022Y-392091D01*
X-249933Y-392156D01*
X-249752Y-392256D01*
X-249576Y-392364D01*
X-249476Y-392408D01*
X-249380Y-392461D01*
X-249188Y-392537D01*
X-248999Y-392622D01*
X-248894Y-392654D01*
X-248792Y-392694D01*
X-248592Y-392746D01*
X-248394Y-392806D01*
X-248286Y-392824D01*
X-248180Y-392851D01*
X-247975Y-392877D01*
X-247771Y-392912D01*
X-247645Y-392918D01*
X-247553Y-392930D01*
X-247430Y-392930D01*
X-247247Y-392939D01*
X-15984Y-392939D01*
X-15778Y-392926D01*
G37*
G36*
X-85521Y-228712D02*
X-85521Y-228712D01*
X-85402Y-228714D01*
X-85206Y-228692D01*
X-85009Y-228679D01*
X-84892Y-228657D01*
X-84773Y-228644D01*
X-84582Y-228597D01*
X-84388Y-228560D01*
X-84275Y-228523D01*
X-84159Y-228495D01*
X-83975Y-228425D01*
X-83788Y-228363D01*
X-83680Y-228312D01*
X-83568Y-228270D01*
X-83395Y-228177D01*
X-83217Y-228093D01*
X-83116Y-228028D01*
X-83011Y-227972D01*
X-82985Y-227954D01*
X-82872Y-227932D01*
X-82759Y-227895D01*
X-82643Y-227867D01*
X-82459Y-227797D01*
X-82272Y-227735D01*
X-82164Y-227684D01*
X-82052Y-227642D01*
X-81879Y-227549D01*
X-81700Y-227465D01*
X-81600Y-227400D01*
X-81495Y-227344D01*
X-81334Y-227230D01*
X-81168Y-227124D01*
X-81076Y-227047D01*
X-80979Y-226978D01*
X-80790Y-226808D01*
X-80683Y-226719D01*
X-80644Y-226676D01*
X-80589Y-226627D01*
X-77545Y-223583D01*
X-77466Y-223494D01*
X-77380Y-223411D01*
X-77257Y-223257D01*
X-77127Y-223109D01*
X-77060Y-223010D01*
X-76986Y-222917D01*
X-76883Y-222749D01*
X-76773Y-222586D01*
X-76719Y-222479D01*
X-76656Y-222377D01*
X-76576Y-222198D01*
X-76487Y-222022D01*
X-76447Y-221909D01*
X-76398Y-221800D01*
X-76341Y-221612D01*
X-76274Y-221426D01*
X-76249Y-221310D01*
X-76214Y-221196D01*
X-76181Y-221001D01*
X-76139Y-220809D01*
X-76128Y-220690D01*
X-76108Y-220572D01*
X-76095Y-220319D01*
X-76082Y-220179D01*
X-76085Y-220122D01*
X-76081Y-220048D01*
X-76081Y-209077D01*
X-76088Y-208957D01*
X-76086Y-208838D01*
X-76108Y-208642D01*
X-76121Y-208446D01*
X-76143Y-208329D01*
X-76156Y-208210D01*
X-76203Y-208018D01*
X-76240Y-207825D01*
X-76277Y-207711D01*
X-76305Y-207596D01*
X-76375Y-207412D01*
X-76437Y-207224D01*
X-76488Y-207116D01*
X-76530Y-207005D01*
X-76623Y-206831D01*
X-76707Y-206653D01*
X-76772Y-206552D01*
X-76828Y-206447D01*
X-76942Y-206287D01*
X-77048Y-206121D01*
X-77125Y-206029D01*
X-77194Y-205932D01*
X-77259Y-205859D01*
X-79757Y-199830D01*
X-79757Y-171010D01*
X-77282Y-165035D01*
X-72709Y-160462D01*
X-71009Y-159758D01*
X-70813Y-159662D01*
X-70615Y-159574D01*
X-70530Y-159523D01*
X-70442Y-159480D01*
X-70260Y-159360D01*
X-70073Y-159248D01*
X-69996Y-159186D01*
X-69914Y-159132D01*
X-69748Y-158990D01*
X-69578Y-158855D01*
X-69509Y-158785D01*
X-69434Y-158721D01*
X-69288Y-158559D01*
X-69136Y-158404D01*
X-69076Y-158325D01*
X-69010Y-158252D01*
X-68886Y-158073D01*
X-68754Y-157900D01*
X-68705Y-157814D01*
X-68649Y-157733D01*
X-68548Y-157541D01*
X-68439Y-157352D01*
X-68401Y-157261D01*
X-68355Y-157173D01*
X-68280Y-156970D01*
X-68196Y-156768D01*
X-68170Y-156673D01*
X-68135Y-156581D01*
X-68086Y-156369D01*
X-68028Y-156159D01*
X-68014Y-156061D01*
X-67992Y-155965D01*
X-67969Y-155749D01*
X-67939Y-155533D01*
X-67937Y-155434D01*
X-67927Y-155337D01*
X-67932Y-155119D01*
X-67929Y-154901D01*
X-67940Y-154803D01*
X-67942Y-154705D01*
X-67975Y-154490D01*
X-67999Y-154273D01*
X-68022Y-154177D01*
X-68037Y-154080D01*
X-68096Y-153870D01*
X-68147Y-153659D01*
X-68183Y-153567D01*
X-68209Y-153472D01*
X-68295Y-153271D01*
X-68373Y-153068D01*
X-68419Y-152981D01*
X-68458Y-152890D01*
X-68568Y-152702D01*
X-68670Y-152510D01*
X-68727Y-152430D01*
X-68777Y-152345D01*
X-68910Y-152172D01*
X-69036Y-151995D01*
X-69111Y-151911D01*
X-69163Y-151844D01*
X-69254Y-151753D01*
X-69387Y-151605D01*
X-105347Y-115645D01*
X-105436Y-115566D01*
X-105519Y-115480D01*
X-105673Y-115357D01*
X-105821Y-115227D01*
X-105920Y-115160D01*
X-106013Y-115086D01*
X-106181Y-114983D01*
X-106344Y-114873D01*
X-106451Y-114819D01*
X-106553Y-114756D01*
X-106732Y-114676D01*
X-106908Y-114587D01*
X-107021Y-114547D01*
X-107130Y-114498D01*
X-107318Y-114441D01*
X-107504Y-114374D01*
X-107620Y-114349D01*
X-107734Y-114314D01*
X-107929Y-114281D01*
X-108121Y-114239D01*
X-108240Y-114228D01*
X-108358Y-114208D01*
X-108611Y-114195D01*
X-108751Y-114182D01*
X-108808Y-114185D01*
X-108882Y-114181D01*
X-136090Y-114181D01*
X-136275Y-114192D01*
X-136460Y-114194D01*
X-136590Y-114212D01*
X-136721Y-114221D01*
X-136902Y-114256D01*
X-137086Y-114281D01*
X-137212Y-114315D01*
X-137342Y-114340D01*
X-137518Y-114398D01*
X-137696Y-114446D01*
X-137817Y-114496D01*
X-137942Y-114537D01*
X-138110Y-114616D01*
X-138280Y-114686D01*
X-138395Y-114751D01*
X-138513Y-114807D01*
X-138669Y-114907D01*
X-138830Y-114998D01*
X-138935Y-115077D01*
X-139046Y-115148D01*
X-139188Y-115267D01*
X-139336Y-115378D01*
X-139430Y-115469D01*
X-139531Y-115553D01*
X-139657Y-115689D01*
X-139790Y-115818D01*
X-139872Y-115920D01*
X-139961Y-116017D01*
X-140069Y-116167D01*
X-140184Y-116311D01*
X-140253Y-116424D01*
X-140329Y-116530D01*
X-140417Y-116693D01*
X-140514Y-116851D01*
X-140567Y-116971D01*
X-140630Y-117086D01*
X-140696Y-117259D01*
X-140772Y-117428D01*
X-140810Y-117553D01*
X-140858Y-117676D01*
X-140902Y-117856D01*
X-140956Y-118033D01*
X-140978Y-118162D01*
X-141009Y-118290D01*
X-141031Y-118473D01*
X-141062Y-118656D01*
X-141070Y-118809D01*
X-141082Y-118917D01*
X-141081Y-119026D01*
X-141089Y-119180D01*
X-141089Y-155955D01*
X-141075Y-156172D01*
X-141070Y-156390D01*
X-141056Y-156488D01*
X-141049Y-156586D01*
X-141008Y-156800D01*
X-140976Y-157015D01*
X-140949Y-157110D01*
X-140930Y-157207D01*
X-140862Y-157414D01*
X-140803Y-157623D01*
X-140764Y-157714D01*
X-140733Y-157807D01*
X-140640Y-158004D01*
X-140555Y-158205D01*
X-140505Y-158289D01*
X-140463Y-158379D01*
X-140345Y-158562D01*
X-140235Y-158750D01*
X-140175Y-158828D01*
X-140122Y-158911D01*
X-139982Y-159078D01*
X-139849Y-159251D01*
X-139780Y-159320D01*
X-139717Y-159396D01*
X-139557Y-159544D01*
X-139403Y-159699D01*
X-139326Y-159759D01*
X-139253Y-159826D01*
X-139077Y-159953D01*
X-138905Y-160087D01*
X-138820Y-160137D01*
X-138740Y-160194D01*
X-138549Y-160298D01*
X-138361Y-160409D01*
X-138270Y-160448D01*
X-138184Y-160495D01*
X-137980Y-160573D01*
X-137781Y-160660D01*
X-137686Y-160687D01*
X-137594Y-160723D01*
X-137382Y-160775D01*
X-137173Y-160836D01*
X-137076Y-160851D01*
X-136980Y-160874D01*
X-136764Y-160900D01*
X-136549Y-160933D01*
X-136450Y-160936D01*
X-136353Y-160947D01*
X-136135Y-160945D01*
X-135917Y-160951D01*
X-135819Y-160942D01*
X-135720Y-160941D01*
X-135505Y-160911D01*
X-135288Y-160890D01*
X-135192Y-160868D01*
X-135094Y-160854D01*
X-134884Y-160797D01*
X-134672Y-160749D01*
X-134566Y-160712D01*
X-134484Y-160689D01*
X-134365Y-160640D01*
X-134177Y-160574D01*
X-133269Y-160198D01*
X-133269Y-184150D01*
X-133269Y-208102D01*
X-134350Y-207655D01*
X-135907Y-206756D01*
X-135938Y-206732D01*
X-136082Y-206635D01*
X-136221Y-206530D01*
X-136345Y-206459D01*
X-136463Y-206379D01*
X-136618Y-206302D01*
X-136769Y-206215D01*
X-136901Y-206160D01*
X-137028Y-206096D01*
X-137192Y-206038D01*
X-137353Y-205971D01*
X-137490Y-205934D01*
X-137624Y-205886D01*
X-137794Y-205850D01*
X-137962Y-205804D01*
X-138103Y-205783D01*
X-138242Y-205754D01*
X-138415Y-205739D01*
X-138588Y-205714D01*
X-138730Y-205712D01*
X-138872Y-205700D01*
X-139046Y-205707D01*
X-139220Y-205704D01*
X-139361Y-205720D01*
X-139503Y-205726D01*
X-139675Y-205755D01*
X-139848Y-205774D01*
X-139986Y-205808D01*
X-140126Y-205832D01*
X-140293Y-205882D01*
X-140462Y-205923D01*
X-140595Y-205974D01*
X-140731Y-206015D01*
X-140890Y-206086D01*
X-141053Y-206148D01*
X-141178Y-206215D01*
X-141308Y-206273D01*
X-141457Y-206364D01*
X-141611Y-206446D01*
X-141727Y-206528D01*
X-141848Y-206602D01*
X-141984Y-206711D01*
X-142126Y-206812D01*
X-142251Y-206924D01*
X-142342Y-206997D01*
X-142413Y-207069D01*
X-142516Y-207163D01*
X-144461Y-209108D01*
X-147125Y-210211D01*
X-147379Y-210336D01*
X-147636Y-210457D01*
X-147663Y-210475D01*
X-147693Y-210490D01*
X-147929Y-210645D01*
X-148168Y-210798D01*
X-148193Y-210819D01*
X-148221Y-210837D01*
X-148436Y-211022D01*
X-148653Y-211203D01*
X-148676Y-211227D01*
X-148701Y-211249D01*
X-148891Y-211460D01*
X-149083Y-211667D01*
X-149102Y-211693D01*
X-149125Y-211718D01*
X-149287Y-211951D01*
X-149452Y-212180D01*
X-149467Y-212209D01*
X-149486Y-212236D01*
X-149618Y-212488D01*
X-149752Y-212736D01*
X-149764Y-212767D01*
X-149779Y-212796D01*
X-149878Y-213061D01*
X-149980Y-213326D01*
X-149988Y-213358D01*
X-149999Y-213389D01*
X-150064Y-213664D01*
X-150132Y-213940D01*
X-150135Y-213972D01*
X-150143Y-214004D01*
X-150172Y-214287D01*
X-150205Y-214567D01*
X-150204Y-214600D01*
X-150208Y-214633D01*
X-150201Y-214917D01*
X-150198Y-215200D01*
X-150193Y-215232D01*
X-150193Y-215265D01*
X-150150Y-215545D01*
X-150111Y-215826D01*
X-150103Y-215857D01*
X-150098Y-215890D01*
X-150020Y-216163D01*
X-149947Y-216436D01*
X-149934Y-216466D01*
X-149925Y-216498D01*
X-149814Y-216759D01*
X-149706Y-217020D01*
X-149690Y-217049D01*
X-149677Y-217079D01*
X-149534Y-217323D01*
X-149394Y-217570D01*
X-149374Y-217596D01*
X-149358Y-217625D01*
X-149185Y-217849D01*
X-149015Y-218076D01*
X-148992Y-218099D01*
X-148972Y-218125D01*
X-148773Y-218325D01*
X-148575Y-218530D01*
X-148549Y-218550D01*
X-148526Y-218573D01*
X-148303Y-218746D01*
X-148081Y-218924D01*
X-148053Y-218942D01*
X-148027Y-218962D01*
X-147784Y-219105D01*
X-147541Y-219254D01*
X-147511Y-219267D01*
X-147483Y-219284D01*
X-147224Y-219396D01*
X-146965Y-219512D01*
X-146933Y-219522D01*
X-146903Y-219535D01*
X-146631Y-219613D01*
X-146360Y-219696D01*
X-146328Y-219701D01*
X-146296Y-219710D01*
X-146016Y-219754D01*
X-145737Y-219802D01*
X-145700Y-219804D01*
X-145671Y-219808D01*
X-145546Y-219812D01*
X-145212Y-219829D01*
X-107987Y-219829D01*
X-103364Y-221745D01*
X-98481Y-226627D01*
X-98392Y-226706D01*
X-98309Y-226792D01*
X-98155Y-226915D01*
X-98007Y-227045D01*
X-97908Y-227112D01*
X-97815Y-227186D01*
X-97646Y-227289D01*
X-97484Y-227399D01*
X-97377Y-227453D01*
X-97275Y-227516D01*
X-97095Y-227596D01*
X-96920Y-227685D01*
X-96807Y-227725D01*
X-96698Y-227774D01*
X-96510Y-227831D01*
X-96324Y-227898D01*
X-96208Y-227923D01*
X-96094Y-227958D01*
X-96062Y-227963D01*
X-95967Y-228027D01*
X-95861Y-228081D01*
X-95759Y-228144D01*
X-95579Y-228224D01*
X-95404Y-228313D01*
X-95291Y-228353D01*
X-95182Y-228402D01*
X-94994Y-228459D01*
X-94808Y-228526D01*
X-94692Y-228551D01*
X-94577Y-228586D01*
X-94383Y-228619D01*
X-94191Y-228661D01*
X-94072Y-228672D01*
X-93954Y-228692D01*
X-93701Y-228705D01*
X-93561Y-228718D01*
X-93503Y-228715D01*
X-93430Y-228719D01*
X-85640Y-228719D01*
X-85521Y-228712D01*
G37*
%LPC*%
G36*
X-159188Y-50801D02*
X-159188Y-50801D01*
X-169847Y-47945D01*
X-179404Y-42427D01*
X-187207Y-34624D01*
X-192725Y-25067D01*
X-195581Y-14408D01*
X-195581Y-3372D01*
X-192725Y7287D01*
X-187207Y16844D01*
X-179404Y24647D01*
X-169847Y30165D01*
X-159188Y33021D01*
X-148152Y33021D01*
X-137493Y30165D01*
X-127936Y24647D01*
X-120133Y16844D01*
X-114615Y7287D01*
X-111759Y-3372D01*
X-111759Y-14408D01*
X-114615Y-25067D01*
X-120133Y-34624D01*
X-127936Y-42427D01*
X-137493Y-47945D01*
X-148152Y-50801D01*
X-159188Y-50801D01*
G37*
%LPD*%
%LPC*%
G36*
X-43618Y-52071D02*
X-43618Y-52071D01*
X-54277Y-49215D01*
X-63834Y-43697D01*
X-71637Y-35894D01*
X-77155Y-26337D01*
X-80011Y-15678D01*
X-80011Y-4642D01*
X-77155Y6017D01*
X-71637Y15574D01*
X-63834Y23377D01*
X-54277Y28895D01*
X-43618Y31751D01*
X-32582Y31751D01*
X-21923Y28895D01*
X-12366Y23377D01*
X-4563Y15574D01*
X955Y6017D01*
X3811Y-4642D01*
X3811Y-15678D01*
X955Y-26337D01*
X-4563Y-35894D01*
X-12366Y-43697D01*
X-21923Y-49215D01*
X-32582Y-52071D01*
X-43618Y-52071D01*
G37*
%LPD*%
%LPC*%
G36*
X-123271Y-189149D02*
X-123271Y-189149D01*
X-114553Y-189149D01*
X-114553Y-196225D01*
X-114788Y-198008D01*
X-115253Y-199744D01*
X-115941Y-201406D01*
X-116840Y-202963D01*
X-117935Y-204390D01*
X-119206Y-205661D01*
X-120633Y-206756D01*
X-122190Y-207655D01*
X-123271Y-208102D01*
X-123271Y-189149D01*
G37*
%LPD*%
%LPC*%
G36*
X-123271Y-179151D02*
X-123271Y-179151D01*
X-123271Y-160198D01*
X-122190Y-160645D01*
X-120633Y-161544D01*
X-119206Y-162639D01*
X-117935Y-163910D01*
X-116840Y-165337D01*
X-115941Y-166894D01*
X-115253Y-168556D01*
X-114788Y-170292D01*
X-114553Y-172075D01*
X-114553Y-179151D01*
X-123271Y-179151D01*
G37*
%LPD*%
%LPC*%
G36*
X-7701Y-190419D02*
X-7701Y-190419D01*
X1017Y-190419D01*
X1017Y-197495D01*
X782Y-199278D01*
X317Y-201014D01*
X-371Y-202676D01*
X-1271Y-204233D01*
X-2365Y-205660D01*
X-3636Y-206931D01*
X-5063Y-208026D01*
X-6620Y-208925D01*
X-7701Y-209372D01*
X-7701Y-190419D01*
G37*
%LPD*%
%LPC*%
G36*
X-7701Y-180421D02*
X-7701Y-180421D01*
X-7701Y-161468D01*
X-6620Y-161915D01*
X-5063Y-162814D01*
X-3636Y-163909D01*
X-2365Y-165180D01*
X-1271Y-166607D01*
X-371Y-168164D01*
X317Y-169826D01*
X782Y-171562D01*
X1017Y-173345D01*
X1017Y-180421D01*
X-7701Y-180421D01*
G37*
%LPD*%
%LPC*%
G36*
X-122101Y-330201D02*
X-122101Y-330201D01*
X-129541Y-322761D01*
X-129541Y-322499D01*
X-121839Y-322499D01*
X-121839Y-330201D01*
X-122101Y-330201D01*
G37*
%LPD*%
%LPC*%
G36*
X-129541Y-312501D02*
X-129541Y-312501D01*
X-129541Y-312239D01*
X-122101Y-304799D01*
X-121839Y-304799D01*
X-121839Y-312501D01*
X-129541Y-312501D01*
G37*
%LPD*%
%LPC*%
G36*
X-111841Y-330201D02*
X-111841Y-330201D01*
X-111841Y-322499D01*
X-104139Y-322499D01*
X-104139Y-322761D01*
X-111579Y-330201D01*
X-111841Y-330201D01*
G37*
%LPD*%
%LPC*%
G36*
X-111841Y-312501D02*
X-111841Y-312501D01*
X-111841Y-304799D01*
X-111579Y-304799D01*
X-104139Y-312239D01*
X-104139Y-312501D01*
X-111841Y-312501D01*
G37*
%LPD*%
%LPC*%
G36*
X-259115Y-226273D02*
X-259115Y-226273D01*
X-260426Y-225516D01*
X-261626Y-224595D01*
X-262695Y-223526D01*
X-263616Y-222326D01*
X-264373Y-221015D01*
X-264421Y-220899D01*
X-258999Y-220899D01*
X-258999Y-226321D01*
X-259115Y-226273D01*
G37*
%LPD*%
%LPC*%
G36*
X-11358Y-246299D02*
X-11358Y-246299D01*
X-6269Y-246299D01*
X-6269Y-251388D01*
X-11358Y-246299D01*
G37*
%LPD*%
%LPC*%
G36*
X-187888Y-246299D02*
X-187888Y-246299D01*
X-182799Y-246299D01*
X-182799Y-251388D01*
X-187888Y-246299D01*
G37*
%LPD*%
%LPC*%
G36*
X-11358Y-236301D02*
X-11358Y-236301D01*
X-6269Y-231212D01*
X-6269Y-236301D01*
X-11358Y-236301D01*
G37*
%LPD*%
%LPC*%
G36*
X3729Y-246299D02*
X3729Y-246299D01*
X8818Y-246299D01*
X3729Y-251388D01*
X3729Y-246299D01*
G37*
%LPD*%
%LPC*%
G36*
X3729Y-236301D02*
X3729Y-236301D01*
X3729Y-231212D01*
X8818Y-236301D01*
X3729Y-236301D01*
G37*
%LPD*%
D10*
X-179070Y-195326D02*
X-179070Y-172974D01*
X-153670Y-172974D02*
X-153670Y-195326D01*
X-128270Y-195326D02*
X-128270Y-172974D01*
D11*
X-177800Y-241300D03*
X-101600Y-241300D03*
D12*
X-254000Y-292100D03*
X-254000Y-317500D03*
X-255270Y1270D03*
X-255270Y-24130D03*
D13*
X-116840Y-317500D03*
X-162560Y-317500D03*
D12*
X-254000Y-215900D03*
X-254000Y-190500D03*
X-254000Y-96520D03*
X-254000Y-121920D03*
D14*
X-1270Y-241300D03*
X-77470Y-241300D03*
D10*
X-63500Y-196596D02*
X-63500Y-174244D01*
X-38100Y-174244D02*
X-38100Y-196596D01*
X-12700Y-196596D02*
X-12700Y-174244D01*
D15*
X-255270Y1270D02*
X-264160Y1270D01*
X-279400Y-13970D01*
X-260350Y-96520D02*
X-254000Y-96520D01*
X-260350Y-96520D02*
X-279400Y-115570D01*
X-279400Y-165100D01*
X-254000Y-190500D01*
X-254000Y-96520D02*
X-279400Y-71120D01*
X-279400Y-13970D01*
D16*
X-101600Y-152400D03*
X-101600Y-76200D03*
D15*
X-171450Y-95250D02*
X-242570Y-24130D01*
X-255270Y-24130D01*
X-165100Y-101600D02*
X-153670Y-113030D01*
X-213360Y-121920D02*
X-254000Y-121920D01*
X-186690Y-95250D02*
X-171450Y-95250D01*
X-186690Y-95250D02*
X-213360Y-121920D01*
X-171450Y-95250D02*
X-165100Y-101600D01*
X-101600Y-101600D01*
X-38100Y-165100D01*
X-38100Y-185420D01*
X-153670Y-184150D02*
X-153670Y-113030D01*
X-179070Y-184150D02*
X-255270Y-260350D01*
X-255270Y-290830D01*
X-254000Y-292100D01*
X-179070Y-209550D02*
X-179070Y-184150D01*
X-77470Y-241300D02*
X-63500Y-227330D01*
X-63500Y-185420D01*
X-156210Y-232410D02*
X-179070Y-209550D01*
X-101600Y-241300D02*
X-77470Y-241300D01*
X-110490Y-232410D02*
X-156210Y-232410D01*
X-110490Y-232410D02*
X-101600Y-241300D01*
X-162560Y-317500D02*
X-254000Y-317500D01*
M02*
