G04 EAGLE Gerber RS-274X export*
G75*
%MOMM*%
%FSLAX34Y34*%
%LPD*%
%IN*%
%IPPOS*%
%AMOC8*
5,1,8,0,0,1.08239X$1,22.5*%
G01*
%ADD10C,0.254000*%


D10*
X-304600Y-403100D02*
X38100Y-403100D01*
X38100Y76200D01*
X-304600Y76200D01*
X-304600Y-403100D01*
X-260590Y-377726D02*
X-260666Y-378794D01*
X-260819Y-379855D01*
X-261047Y-380902D01*
X-261349Y-381930D01*
X-261723Y-382934D01*
X-262168Y-383909D01*
X-262682Y-384849D01*
X-263261Y-385750D01*
X-263903Y-386608D01*
X-264605Y-387418D01*
X-265362Y-388175D01*
X-266172Y-388877D01*
X-267030Y-389519D01*
X-267931Y-390098D01*
X-268871Y-390612D01*
X-269846Y-391057D01*
X-270850Y-391431D01*
X-271878Y-391733D01*
X-272925Y-391961D01*
X-273986Y-392114D01*
X-275054Y-392190D01*
X-276126Y-392190D01*
X-277194Y-392114D01*
X-278255Y-391961D01*
X-279302Y-391733D01*
X-280330Y-391431D01*
X-281334Y-391057D01*
X-282309Y-390612D01*
X-283249Y-390098D01*
X-284150Y-389519D01*
X-285008Y-388877D01*
X-285818Y-388175D01*
X-286575Y-387418D01*
X-287277Y-386608D01*
X-287919Y-385750D01*
X-288498Y-384849D01*
X-289012Y-383909D01*
X-289457Y-382934D01*
X-289831Y-381930D01*
X-290133Y-380902D01*
X-290361Y-379855D01*
X-290514Y-378794D01*
X-290590Y-377726D01*
X-290590Y-376654D01*
X-290514Y-375586D01*
X-290361Y-374525D01*
X-290133Y-373478D01*
X-289831Y-372450D01*
X-289457Y-371446D01*
X-289012Y-370471D01*
X-288498Y-369531D01*
X-287919Y-368630D01*
X-287277Y-367772D01*
X-286575Y-366962D01*
X-285818Y-366205D01*
X-285008Y-365503D01*
X-284150Y-364861D01*
X-283249Y-364282D01*
X-282309Y-363768D01*
X-281334Y-363323D01*
X-280330Y-362949D01*
X-279302Y-362647D01*
X-278255Y-362419D01*
X-277194Y-362266D01*
X-276126Y-362190D01*
X-275054Y-362190D01*
X-273986Y-362266D01*
X-272925Y-362419D01*
X-271878Y-362647D01*
X-270850Y-362949D01*
X-269846Y-363323D01*
X-268871Y-363768D01*
X-267931Y-364282D01*
X-267030Y-364861D01*
X-266172Y-365503D01*
X-265362Y-366205D01*
X-264605Y-366962D01*
X-263903Y-367772D01*
X-263261Y-368630D01*
X-262682Y-369531D01*
X-262168Y-370471D01*
X-261723Y-371446D01*
X-261349Y-372450D01*
X-261047Y-373478D01*
X-260819Y-374525D01*
X-260666Y-375586D01*
X-260590Y-376654D01*
X-260590Y-377726D01*
X27700Y-378996D02*
X27624Y-380064D01*
X27471Y-381125D01*
X27243Y-382172D01*
X26941Y-383200D01*
X26567Y-384204D01*
X26122Y-385179D01*
X25608Y-386119D01*
X25029Y-387020D01*
X24387Y-387878D01*
X23685Y-388688D01*
X22928Y-389445D01*
X22118Y-390147D01*
X21260Y-390789D01*
X20359Y-391368D01*
X19419Y-391882D01*
X18444Y-392327D01*
X17440Y-392701D01*
X16412Y-393003D01*
X15365Y-393231D01*
X14304Y-393384D01*
X13236Y-393460D01*
X12164Y-393460D01*
X11096Y-393384D01*
X10035Y-393231D01*
X8988Y-393003D01*
X7960Y-392701D01*
X6956Y-392327D01*
X5981Y-391882D01*
X5041Y-391368D01*
X4140Y-390789D01*
X3282Y-390147D01*
X2472Y-389445D01*
X1715Y-388688D01*
X1013Y-387878D01*
X371Y-387020D01*
X-208Y-386119D01*
X-722Y-385179D01*
X-1167Y-384204D01*
X-1541Y-383200D01*
X-1843Y-382172D01*
X-2071Y-381125D01*
X-2224Y-380064D01*
X-2300Y-378996D01*
X-2300Y-377924D01*
X-2224Y-376856D01*
X-2071Y-375795D01*
X-1843Y-374748D01*
X-1541Y-373720D01*
X-1167Y-372716D01*
X-722Y-371741D01*
X-208Y-370801D01*
X371Y-369900D01*
X1013Y-369042D01*
X1715Y-368232D01*
X2472Y-367475D01*
X3282Y-366773D01*
X4140Y-366131D01*
X5041Y-365552D01*
X5981Y-365038D01*
X6956Y-364593D01*
X7960Y-364219D01*
X8988Y-363917D01*
X10035Y-363689D01*
X11096Y-363536D01*
X12164Y-363460D01*
X13236Y-363460D01*
X14304Y-363536D01*
X15365Y-363689D01*
X16412Y-363917D01*
X17440Y-364219D01*
X18444Y-364593D01*
X19419Y-365038D01*
X20359Y-365552D01*
X21260Y-366131D01*
X22118Y-366773D01*
X22928Y-367475D01*
X23685Y-368232D01*
X24387Y-369042D01*
X25029Y-369900D01*
X25608Y-370801D01*
X26122Y-371741D01*
X26567Y-372716D01*
X26941Y-373720D01*
X27243Y-374748D01*
X27471Y-375795D01*
X27624Y-376856D01*
X27700Y-377924D01*
X27700Y-378996D01*
X-264400Y50264D02*
X-264476Y49196D01*
X-264629Y48135D01*
X-264857Y47088D01*
X-265159Y46060D01*
X-265533Y45056D01*
X-265978Y44081D01*
X-266492Y43141D01*
X-267071Y42240D01*
X-267713Y41382D01*
X-268415Y40572D01*
X-269172Y39815D01*
X-269982Y39113D01*
X-270840Y38471D01*
X-271741Y37892D01*
X-272681Y37378D01*
X-273656Y36933D01*
X-274660Y36559D01*
X-275688Y36257D01*
X-276735Y36029D01*
X-277796Y35876D01*
X-278864Y35800D01*
X-279936Y35800D01*
X-281004Y35876D01*
X-282065Y36029D01*
X-283112Y36257D01*
X-284140Y36559D01*
X-285144Y36933D01*
X-286119Y37378D01*
X-287059Y37892D01*
X-287960Y38471D01*
X-288818Y39113D01*
X-289628Y39815D01*
X-290385Y40572D01*
X-291087Y41382D01*
X-291729Y42240D01*
X-292308Y43141D01*
X-292822Y44081D01*
X-293267Y45056D01*
X-293641Y46060D01*
X-293943Y47088D01*
X-294171Y48135D01*
X-294324Y49196D01*
X-294400Y50264D01*
X-294400Y51336D01*
X-294324Y52404D01*
X-294171Y53465D01*
X-293943Y54512D01*
X-293641Y55540D01*
X-293267Y56544D01*
X-292822Y57519D01*
X-292308Y58459D01*
X-291729Y59360D01*
X-291087Y60218D01*
X-290385Y61028D01*
X-289628Y61785D01*
X-288818Y62487D01*
X-287960Y63129D01*
X-287059Y63708D01*
X-286119Y64222D01*
X-285144Y64667D01*
X-284140Y65041D01*
X-283112Y65343D01*
X-282065Y65571D01*
X-281004Y65724D01*
X-279936Y65800D01*
X-278864Y65800D01*
X-277796Y65724D01*
X-276735Y65571D01*
X-275688Y65343D01*
X-274660Y65041D01*
X-273656Y64667D01*
X-272681Y64222D01*
X-271741Y63708D01*
X-270840Y63129D01*
X-269982Y62487D01*
X-269172Y61785D01*
X-268415Y61028D01*
X-267713Y60218D01*
X-267071Y59360D01*
X-266492Y58459D01*
X-265978Y57519D01*
X-265533Y56544D01*
X-265159Y55540D01*
X-264857Y54512D01*
X-264629Y53465D01*
X-264476Y52404D01*
X-264400Y51336D01*
X-264400Y50264D01*
X27700Y51534D02*
X27624Y50466D01*
X27471Y49405D01*
X27243Y48358D01*
X26941Y47330D01*
X26567Y46326D01*
X26122Y45351D01*
X25608Y44411D01*
X25029Y43510D01*
X24387Y42652D01*
X23685Y41842D01*
X22928Y41085D01*
X22118Y40383D01*
X21260Y39741D01*
X20359Y39162D01*
X19419Y38648D01*
X18444Y38203D01*
X17440Y37829D01*
X16412Y37527D01*
X15365Y37299D01*
X14304Y37146D01*
X13236Y37070D01*
X12164Y37070D01*
X11096Y37146D01*
X10035Y37299D01*
X8988Y37527D01*
X7960Y37829D01*
X6956Y38203D01*
X5981Y38648D01*
X5041Y39162D01*
X4140Y39741D01*
X3282Y40383D01*
X2472Y41085D01*
X1715Y41842D01*
X1013Y42652D01*
X371Y43510D01*
X-208Y44411D01*
X-722Y45351D01*
X-1167Y46326D01*
X-1541Y47330D01*
X-1843Y48358D01*
X-2071Y49405D01*
X-2224Y50466D01*
X-2300Y51534D01*
X-2300Y52606D01*
X-2224Y53674D01*
X-2071Y54735D01*
X-1843Y55782D01*
X-1541Y56810D01*
X-1167Y57814D01*
X-722Y58789D01*
X-208Y59729D01*
X371Y60630D01*
X1013Y61488D01*
X1715Y62298D01*
X2472Y63055D01*
X3282Y63757D01*
X4140Y64399D01*
X5041Y64978D01*
X5981Y65492D01*
X6956Y65937D01*
X7960Y66311D01*
X8988Y66613D01*
X10035Y66841D01*
X11096Y66994D01*
X12164Y67070D01*
X13236Y67070D01*
X14304Y66994D01*
X15365Y66841D01*
X16412Y66613D01*
X17440Y66311D01*
X18444Y65937D01*
X19419Y65492D01*
X20359Y64978D01*
X21260Y64399D01*
X22118Y63757D01*
X22928Y63055D01*
X23685Y62298D01*
X24387Y61488D01*
X25029Y60630D01*
X25608Y59729D01*
X26122Y58789D01*
X26567Y57814D01*
X26941Y56810D01*
X27243Y55782D01*
X27471Y54735D01*
X27624Y53674D01*
X27700Y52606D01*
X27700Y51534D01*
X-137160Y-9430D02*
X-137231Y-10509D01*
X-137372Y-11581D01*
X-137583Y-12641D01*
X-137862Y-13685D01*
X-138210Y-14709D01*
X-138624Y-15707D01*
X-139102Y-16677D01*
X-139642Y-17613D01*
X-140243Y-18512D01*
X-140901Y-19369D01*
X-141614Y-20182D01*
X-142378Y-20947D01*
X-143191Y-21659D01*
X-144048Y-22317D01*
X-144947Y-22918D01*
X-145883Y-23458D01*
X-146853Y-23936D01*
X-147851Y-24350D01*
X-148875Y-24698D01*
X-149919Y-24977D01*
X-150979Y-25188D01*
X-152051Y-25329D01*
X-153130Y-25400D01*
X-154210Y-25400D01*
X-155289Y-25329D01*
X-156361Y-25188D01*
X-157421Y-24977D01*
X-158465Y-24698D01*
X-159489Y-24350D01*
X-160487Y-23936D01*
X-161457Y-23458D01*
X-162393Y-22918D01*
X-163292Y-22317D01*
X-164149Y-21659D01*
X-164962Y-20947D01*
X-165727Y-20182D01*
X-166439Y-19369D01*
X-167097Y-18512D01*
X-167698Y-17613D01*
X-168238Y-16677D01*
X-168716Y-15707D01*
X-169130Y-14709D01*
X-169478Y-13685D01*
X-169757Y-12641D01*
X-169968Y-11581D01*
X-170109Y-10509D01*
X-170180Y-9430D01*
X-170180Y-8350D01*
X-170109Y-7271D01*
X-169968Y-6199D01*
X-169757Y-5139D01*
X-169478Y-4095D01*
X-169130Y-3071D01*
X-168716Y-2073D01*
X-168238Y-1103D01*
X-167698Y-167D01*
X-167097Y732D01*
X-166439Y1589D01*
X-165727Y2402D01*
X-164962Y3167D01*
X-164149Y3879D01*
X-163292Y4537D01*
X-162393Y5138D01*
X-161457Y5678D01*
X-160487Y6156D01*
X-159489Y6570D01*
X-158465Y6918D01*
X-157421Y7197D01*
X-156361Y7408D01*
X-155289Y7549D01*
X-154210Y7620D01*
X-153130Y7620D01*
X-152051Y7549D01*
X-150979Y7408D01*
X-149919Y7197D01*
X-148875Y6918D01*
X-147851Y6570D01*
X-146853Y6156D01*
X-145883Y5678D01*
X-144947Y5138D01*
X-144048Y4537D01*
X-143191Y3879D01*
X-142378Y3167D01*
X-141614Y2402D01*
X-140901Y1589D01*
X-140243Y732D01*
X-139642Y-167D01*
X-139102Y-1103D01*
X-138624Y-2073D01*
X-138210Y-3071D01*
X-137862Y-4095D01*
X-137583Y-5139D01*
X-137372Y-6199D01*
X-137231Y-7271D01*
X-137160Y-8350D01*
X-137160Y-9430D01*
X-21590Y-10700D02*
X-21661Y-11779D01*
X-21802Y-12851D01*
X-22013Y-13911D01*
X-22292Y-14955D01*
X-22640Y-15979D01*
X-23054Y-16977D01*
X-23532Y-17947D01*
X-24072Y-18883D01*
X-24673Y-19782D01*
X-25331Y-20639D01*
X-26044Y-21452D01*
X-26808Y-22217D01*
X-27621Y-22929D01*
X-28478Y-23587D01*
X-29377Y-24188D01*
X-30313Y-24728D01*
X-31283Y-25206D01*
X-32281Y-25620D01*
X-33305Y-25968D01*
X-34349Y-26247D01*
X-35409Y-26458D01*
X-36481Y-26599D01*
X-37560Y-26670D01*
X-38640Y-26670D01*
X-39719Y-26599D01*
X-40791Y-26458D01*
X-41851Y-26247D01*
X-42895Y-25968D01*
X-43919Y-25620D01*
X-44917Y-25206D01*
X-45887Y-24728D01*
X-46823Y-24188D01*
X-47722Y-23587D01*
X-48579Y-22929D01*
X-49392Y-22217D01*
X-50157Y-21452D01*
X-50869Y-20639D01*
X-51527Y-19782D01*
X-52128Y-18883D01*
X-52668Y-17947D01*
X-53146Y-16977D01*
X-53560Y-15979D01*
X-53908Y-14955D01*
X-54187Y-13911D01*
X-54398Y-12851D01*
X-54539Y-11779D01*
X-54610Y-10700D01*
X-54610Y-9620D01*
X-54539Y-8541D01*
X-54398Y-7469D01*
X-54187Y-6409D01*
X-53908Y-5365D01*
X-53560Y-4341D01*
X-53146Y-3343D01*
X-52668Y-2373D01*
X-52128Y-1437D01*
X-51527Y-538D01*
X-50869Y319D01*
X-50157Y1132D01*
X-49392Y1897D01*
X-48579Y2609D01*
X-47722Y3267D01*
X-46823Y3868D01*
X-45887Y4408D01*
X-44917Y4886D01*
X-43919Y5300D01*
X-42895Y5648D01*
X-41851Y5927D01*
X-40791Y6138D01*
X-39719Y6279D01*
X-38640Y6350D01*
X-37560Y6350D01*
X-36481Y6279D01*
X-35409Y6138D01*
X-34349Y5927D01*
X-33305Y5648D01*
X-32281Y5300D01*
X-31283Y4886D01*
X-30313Y4408D01*
X-29377Y3868D01*
X-28478Y3267D01*
X-27621Y2609D01*
X-26808Y1897D01*
X-26044Y1132D01*
X-25331Y319D01*
X-24673Y-538D01*
X-24072Y-1437D01*
X-23532Y-2373D01*
X-23054Y-3343D01*
X-22640Y-4341D01*
X-22292Y-5365D01*
X-22013Y-6409D01*
X-21802Y-7469D01*
X-21661Y-8541D01*
X-21590Y-9620D01*
X-21590Y-10700D01*
M02*
