G04 EAGLE Gerber RS-274X export*
G75*
%MOMM*%
%FSLAX34Y34*%
%LPD*%
%INSilkscreen Top*%
%IPPOS*%
%AMOC8*
5,1,8,0,0,1.08239X$1,22.5*%
G01*
%ADD10C,0.127000*%
%ADD11C,0.050800*%
%ADD12R,0.762000X0.635000*%
%ADD13R,1.270000X2.794000*%
%ADD14C,0.177800*%
%ADD15C,0.152400*%
%ADD16R,0.381000X0.508000*%
%ADD17C,0.101600*%


D10*
X-205740Y-133350D02*
X-101600Y-133350D01*
X-101600Y25400D02*
X-205740Y25400D01*
X-101600Y-8890D02*
X-101600Y-133350D01*
X-101600Y-8890D02*
X-110490Y-8890D01*
X-110490Y6350D01*
X-101600Y6350D01*
X-101600Y25400D01*
X-205740Y-8890D02*
X-205740Y-133350D01*
X-205740Y-8890D02*
X-196850Y-8890D01*
X-196850Y6350D01*
X-205740Y6350D01*
X-205740Y25400D01*
D11*
X-199390Y-127000D02*
X-107950Y-127000D01*
X-107950Y-44450D01*
X-199390Y-44450D01*
X-199390Y-127000D01*
D10*
X-171704Y-8890D02*
X-171699Y-8447D01*
X-171682Y-8005D01*
X-171655Y-7563D01*
X-171617Y-7122D01*
X-171568Y-6682D01*
X-171509Y-6244D01*
X-171438Y-5807D01*
X-171357Y-5372D01*
X-171266Y-4939D01*
X-171164Y-4508D01*
X-171051Y-4080D01*
X-170927Y-3655D01*
X-170794Y-3233D01*
X-170650Y-2815D01*
X-170496Y-2400D01*
X-170331Y-1989D01*
X-170157Y-1582D01*
X-169973Y-1179D01*
X-169778Y-782D01*
X-169575Y-389D01*
X-169361Y-1D01*
X-169138Y381D01*
X-168906Y758D01*
X-168665Y1129D01*
X-168414Y1494D01*
X-168155Y1853D01*
X-167887Y2205D01*
X-167610Y2551D01*
X-167326Y2889D01*
X-167032Y3221D01*
X-166731Y3545D01*
X-166422Y3862D01*
X-166105Y4171D01*
X-165781Y4472D01*
X-165449Y4766D01*
X-165111Y5050D01*
X-164765Y5327D01*
X-164413Y5595D01*
X-164054Y5854D01*
X-163689Y6105D01*
X-163318Y6346D01*
X-162941Y6578D01*
X-162559Y6801D01*
X-162171Y7015D01*
X-161778Y7218D01*
X-161381Y7413D01*
X-160978Y7597D01*
X-160571Y7771D01*
X-160160Y7936D01*
X-159745Y8090D01*
X-159327Y8234D01*
X-158905Y8367D01*
X-158480Y8491D01*
X-158052Y8604D01*
X-157621Y8706D01*
X-157188Y8797D01*
X-156753Y8878D01*
X-156316Y8949D01*
X-155878Y9008D01*
X-155438Y9057D01*
X-154997Y9095D01*
X-154555Y9122D01*
X-154113Y9139D01*
X-153670Y9144D01*
X-153227Y9139D01*
X-152785Y9122D01*
X-152343Y9095D01*
X-151902Y9057D01*
X-151462Y9008D01*
X-151024Y8949D01*
X-150587Y8878D01*
X-150152Y8797D01*
X-149719Y8706D01*
X-149288Y8604D01*
X-148860Y8491D01*
X-148435Y8367D01*
X-148013Y8234D01*
X-147595Y8090D01*
X-147180Y7936D01*
X-146769Y7771D01*
X-146362Y7597D01*
X-145959Y7413D01*
X-145562Y7218D01*
X-145169Y7015D01*
X-144781Y6801D01*
X-144399Y6578D01*
X-144022Y6346D01*
X-143651Y6105D01*
X-143286Y5854D01*
X-142927Y5595D01*
X-142575Y5327D01*
X-142229Y5050D01*
X-141891Y4766D01*
X-141559Y4472D01*
X-141235Y4171D01*
X-140918Y3862D01*
X-140609Y3545D01*
X-140308Y3221D01*
X-140014Y2889D01*
X-139730Y2551D01*
X-139453Y2205D01*
X-139185Y1853D01*
X-138926Y1494D01*
X-138675Y1129D01*
X-138434Y758D01*
X-138202Y381D01*
X-137979Y-1D01*
X-137765Y-389D01*
X-137562Y-782D01*
X-137367Y-1179D01*
X-137183Y-1582D01*
X-137009Y-1989D01*
X-136844Y-2400D01*
X-136690Y-2815D01*
X-136546Y-3233D01*
X-136413Y-3655D01*
X-136289Y-4080D01*
X-136176Y-4508D01*
X-136074Y-4939D01*
X-135983Y-5372D01*
X-135902Y-5807D01*
X-135831Y-6244D01*
X-135772Y-6682D01*
X-135723Y-7122D01*
X-135685Y-7563D01*
X-135658Y-8005D01*
X-135641Y-8447D01*
X-135636Y-8890D01*
X-135641Y-9333D01*
X-135658Y-9775D01*
X-135685Y-10217D01*
X-135723Y-10658D01*
X-135772Y-11098D01*
X-135831Y-11536D01*
X-135902Y-11973D01*
X-135983Y-12408D01*
X-136074Y-12841D01*
X-136176Y-13272D01*
X-136289Y-13700D01*
X-136413Y-14125D01*
X-136546Y-14547D01*
X-136690Y-14965D01*
X-136844Y-15380D01*
X-137009Y-15791D01*
X-137183Y-16198D01*
X-137367Y-16601D01*
X-137562Y-16998D01*
X-137765Y-17391D01*
X-137979Y-17779D01*
X-138202Y-18161D01*
X-138434Y-18538D01*
X-138675Y-18909D01*
X-138926Y-19274D01*
X-139185Y-19633D01*
X-139453Y-19985D01*
X-139730Y-20331D01*
X-140014Y-20669D01*
X-140308Y-21001D01*
X-140609Y-21325D01*
X-140918Y-21642D01*
X-141235Y-21951D01*
X-141559Y-22252D01*
X-141891Y-22546D01*
X-142229Y-22830D01*
X-142575Y-23107D01*
X-142927Y-23375D01*
X-143286Y-23634D01*
X-143651Y-23885D01*
X-144022Y-24126D01*
X-144399Y-24358D01*
X-144781Y-24581D01*
X-145169Y-24795D01*
X-145562Y-24998D01*
X-145959Y-25193D01*
X-146362Y-25377D01*
X-146769Y-25551D01*
X-147180Y-25716D01*
X-147595Y-25870D01*
X-148013Y-26014D01*
X-148435Y-26147D01*
X-148860Y-26271D01*
X-149288Y-26384D01*
X-149719Y-26486D01*
X-150152Y-26577D01*
X-150587Y-26658D01*
X-151024Y-26729D01*
X-151462Y-26788D01*
X-151902Y-26837D01*
X-152343Y-26875D01*
X-152785Y-26902D01*
X-153227Y-26919D01*
X-153670Y-26924D01*
X-154113Y-26919D01*
X-154555Y-26902D01*
X-154997Y-26875D01*
X-155438Y-26837D01*
X-155878Y-26788D01*
X-156316Y-26729D01*
X-156753Y-26658D01*
X-157188Y-26577D01*
X-157621Y-26486D01*
X-158052Y-26384D01*
X-158480Y-26271D01*
X-158905Y-26147D01*
X-159327Y-26014D01*
X-159745Y-25870D01*
X-160160Y-25716D01*
X-160571Y-25551D01*
X-160978Y-25377D01*
X-161381Y-25193D01*
X-161778Y-24998D01*
X-162171Y-24795D01*
X-162559Y-24581D01*
X-162941Y-24358D01*
X-163318Y-24126D01*
X-163689Y-23885D01*
X-164054Y-23634D01*
X-164413Y-23375D01*
X-164765Y-23107D01*
X-165111Y-22830D01*
X-165449Y-22546D01*
X-165781Y-22252D01*
X-166105Y-21951D01*
X-166422Y-21642D01*
X-166731Y-21325D01*
X-167032Y-21001D01*
X-167326Y-20669D01*
X-167610Y-20331D01*
X-167887Y-19985D01*
X-168155Y-19633D01*
X-168414Y-19274D01*
X-168665Y-18909D01*
X-168906Y-18538D01*
X-169138Y-18161D01*
X-169361Y-17779D01*
X-169575Y-17391D01*
X-169778Y-16998D01*
X-169973Y-16601D01*
X-170157Y-16198D01*
X-170331Y-15791D01*
X-170496Y-15380D01*
X-170650Y-14965D01*
X-170794Y-14547D01*
X-170927Y-14125D01*
X-171051Y-13700D01*
X-171164Y-13272D01*
X-171266Y-12841D01*
X-171357Y-12408D01*
X-171438Y-11973D01*
X-171509Y-11536D01*
X-171568Y-11098D01*
X-171617Y-10658D01*
X-171655Y-10217D01*
X-171682Y-9775D01*
X-171699Y-9333D01*
X-171704Y-8890D01*
X-194606Y-32639D02*
X-197485Y-41275D01*
X-191728Y-41275D02*
X-194606Y-32639D01*
X-192447Y-39116D02*
X-196765Y-39116D01*
X-188090Y-34558D02*
X-185691Y-32639D01*
X-185691Y-41275D01*
X-188090Y-41275D02*
X-183292Y-41275D01*
X-179174Y-33599D02*
X-179174Y-32639D01*
X-174377Y-32639D01*
X-176776Y-41275D01*
X-170819Y-41275D02*
X-170339Y-41275D01*
X-170819Y-41275D02*
X-170819Y-40795D01*
X-170339Y-40795D01*
X-170339Y-41275D01*
X-171058Y-43194D01*
X-166693Y-41275D02*
X-163814Y-41275D01*
X-163728Y-41273D01*
X-163642Y-41267D01*
X-163556Y-41258D01*
X-163471Y-41244D01*
X-163387Y-41227D01*
X-163303Y-41206D01*
X-163221Y-41181D01*
X-163140Y-41153D01*
X-163060Y-41121D01*
X-162981Y-41085D01*
X-162905Y-41046D01*
X-162830Y-41003D01*
X-162757Y-40958D01*
X-162686Y-40909D01*
X-162618Y-40856D01*
X-162551Y-40801D01*
X-162488Y-40743D01*
X-162427Y-40682D01*
X-162369Y-40619D01*
X-162314Y-40552D01*
X-162262Y-40484D01*
X-162212Y-40413D01*
X-162167Y-40340D01*
X-162124Y-40265D01*
X-162085Y-40189D01*
X-162049Y-40110D01*
X-162017Y-40030D01*
X-161989Y-39949D01*
X-161964Y-39867D01*
X-161943Y-39783D01*
X-161926Y-39699D01*
X-161912Y-39614D01*
X-161903Y-39528D01*
X-161897Y-39442D01*
X-161895Y-39356D01*
X-161895Y-38396D01*
X-161897Y-38310D01*
X-161903Y-38224D01*
X-161912Y-38138D01*
X-161926Y-38053D01*
X-161943Y-37969D01*
X-161964Y-37885D01*
X-161989Y-37803D01*
X-162017Y-37722D01*
X-162049Y-37642D01*
X-162085Y-37563D01*
X-162124Y-37487D01*
X-162167Y-37412D01*
X-162212Y-37339D01*
X-162261Y-37268D01*
X-162314Y-37200D01*
X-162369Y-37133D01*
X-162427Y-37070D01*
X-162488Y-37009D01*
X-162551Y-36951D01*
X-162618Y-36896D01*
X-162686Y-36843D01*
X-162757Y-36794D01*
X-162830Y-36749D01*
X-162905Y-36706D01*
X-162981Y-36667D01*
X-163060Y-36631D01*
X-163140Y-36599D01*
X-163221Y-36571D01*
X-163303Y-36546D01*
X-163387Y-36525D01*
X-163471Y-36508D01*
X-163556Y-36494D01*
X-163642Y-36485D01*
X-163728Y-36479D01*
X-163814Y-36477D01*
X-166693Y-36477D01*
X-166693Y-32639D01*
X-161895Y-32639D01*
X-157366Y-35518D02*
X-157366Y-41275D01*
X-157366Y-35518D02*
X-153048Y-35518D01*
X-152973Y-35520D01*
X-152898Y-35526D01*
X-152823Y-35536D01*
X-152749Y-35549D01*
X-152676Y-35567D01*
X-152603Y-35588D01*
X-152532Y-35614D01*
X-152463Y-35642D01*
X-152395Y-35675D01*
X-152329Y-35711D01*
X-152264Y-35750D01*
X-152202Y-35793D01*
X-152142Y-35839D01*
X-152085Y-35888D01*
X-152030Y-35939D01*
X-151979Y-35994D01*
X-151930Y-36051D01*
X-151884Y-36111D01*
X-151841Y-36173D01*
X-151802Y-36238D01*
X-151766Y-36304D01*
X-151733Y-36372D01*
X-151705Y-36441D01*
X-151679Y-36512D01*
X-151658Y-36585D01*
X-151640Y-36658D01*
X-151627Y-36732D01*
X-151617Y-36807D01*
X-151611Y-36882D01*
X-151609Y-36957D01*
X-151609Y-41275D01*
X-154487Y-41275D02*
X-154487Y-35518D01*
X-146667Y-35518D02*
X-146667Y-41275D01*
X-146667Y-35518D02*
X-142349Y-35518D01*
X-142274Y-35520D01*
X-142199Y-35526D01*
X-142124Y-35536D01*
X-142050Y-35549D01*
X-141977Y-35567D01*
X-141904Y-35588D01*
X-141833Y-35614D01*
X-141764Y-35642D01*
X-141696Y-35675D01*
X-141630Y-35711D01*
X-141565Y-35750D01*
X-141503Y-35793D01*
X-141443Y-35839D01*
X-141386Y-35888D01*
X-141331Y-35939D01*
X-141280Y-35994D01*
X-141231Y-36051D01*
X-141185Y-36111D01*
X-141142Y-36173D01*
X-141103Y-36238D01*
X-141067Y-36304D01*
X-141034Y-36372D01*
X-141006Y-36441D01*
X-140980Y-36512D01*
X-140959Y-36585D01*
X-140941Y-36658D01*
X-140928Y-36732D01*
X-140918Y-36807D01*
X-140912Y-36882D01*
X-140910Y-36957D01*
X-140910Y-41275D01*
X-143789Y-41275D02*
X-143789Y-35518D01*
D12*
X-128270Y-164465D03*
X-153670Y-164465D03*
X-179070Y-164465D03*
D13*
X-179070Y-147320D03*
X-153670Y-147320D03*
X-128270Y-147320D03*
D14*
X-190881Y-63246D02*
X-190881Y-56134D01*
X-190879Y-56002D01*
X-190873Y-55871D01*
X-190863Y-55739D01*
X-190850Y-55608D01*
X-190832Y-55478D01*
X-190811Y-55348D01*
X-190786Y-55218D01*
X-190757Y-55090D01*
X-190724Y-54962D01*
X-190687Y-54836D01*
X-190647Y-54710D01*
X-190603Y-54586D01*
X-190555Y-54463D01*
X-190504Y-54342D01*
X-190449Y-54222D01*
X-190391Y-54104D01*
X-190329Y-53988D01*
X-190263Y-53874D01*
X-190195Y-53761D01*
X-190123Y-53651D01*
X-190048Y-53543D01*
X-189969Y-53437D01*
X-189888Y-53333D01*
X-189803Y-53232D01*
X-189716Y-53134D01*
X-189625Y-53038D01*
X-189532Y-52945D01*
X-189436Y-52854D01*
X-189338Y-52767D01*
X-189237Y-52682D01*
X-189133Y-52601D01*
X-189027Y-52522D01*
X-188919Y-52447D01*
X-188809Y-52375D01*
X-188696Y-52307D01*
X-188582Y-52241D01*
X-188466Y-52179D01*
X-188348Y-52121D01*
X-188228Y-52066D01*
X-188107Y-52015D01*
X-187984Y-51967D01*
X-187860Y-51923D01*
X-187734Y-51883D01*
X-187608Y-51846D01*
X-187480Y-51813D01*
X-187352Y-51784D01*
X-187222Y-51759D01*
X-187092Y-51738D01*
X-186962Y-51720D01*
X-186831Y-51707D01*
X-186699Y-51697D01*
X-186568Y-51691D01*
X-186436Y-51689D01*
X-186304Y-51691D01*
X-186173Y-51697D01*
X-186041Y-51707D01*
X-185910Y-51720D01*
X-185780Y-51738D01*
X-185650Y-51759D01*
X-185520Y-51784D01*
X-185392Y-51813D01*
X-185264Y-51846D01*
X-185138Y-51883D01*
X-185012Y-51923D01*
X-184888Y-51967D01*
X-184765Y-52015D01*
X-184644Y-52066D01*
X-184524Y-52121D01*
X-184406Y-52179D01*
X-184290Y-52241D01*
X-184176Y-52307D01*
X-184063Y-52375D01*
X-183953Y-52447D01*
X-183845Y-52522D01*
X-183739Y-52601D01*
X-183635Y-52682D01*
X-183534Y-52767D01*
X-183436Y-52854D01*
X-183340Y-52945D01*
X-183247Y-53038D01*
X-183156Y-53134D01*
X-183069Y-53232D01*
X-182984Y-53333D01*
X-182903Y-53437D01*
X-182824Y-53543D01*
X-182749Y-53651D01*
X-182677Y-53761D01*
X-182609Y-53874D01*
X-182543Y-53988D01*
X-182481Y-54104D01*
X-182423Y-54222D01*
X-182368Y-54342D01*
X-182317Y-54463D01*
X-182269Y-54586D01*
X-182225Y-54710D01*
X-182185Y-54836D01*
X-182148Y-54962D01*
X-182115Y-55090D01*
X-182086Y-55218D01*
X-182061Y-55348D01*
X-182040Y-55478D01*
X-182022Y-55608D01*
X-182009Y-55739D01*
X-181999Y-55871D01*
X-181993Y-56002D01*
X-181991Y-56134D01*
X-181991Y-63246D01*
X-181993Y-63378D01*
X-181999Y-63509D01*
X-182009Y-63641D01*
X-182022Y-63772D01*
X-182040Y-63902D01*
X-182061Y-64032D01*
X-182086Y-64162D01*
X-182115Y-64290D01*
X-182148Y-64418D01*
X-182185Y-64544D01*
X-182225Y-64670D01*
X-182269Y-64794D01*
X-182317Y-64917D01*
X-182368Y-65038D01*
X-182423Y-65158D01*
X-182481Y-65276D01*
X-182543Y-65392D01*
X-182609Y-65506D01*
X-182677Y-65619D01*
X-182749Y-65729D01*
X-182824Y-65837D01*
X-182903Y-65943D01*
X-182984Y-66047D01*
X-183069Y-66148D01*
X-183156Y-66246D01*
X-183247Y-66342D01*
X-183340Y-66435D01*
X-183436Y-66526D01*
X-183534Y-66613D01*
X-183635Y-66698D01*
X-183739Y-66779D01*
X-183845Y-66858D01*
X-183953Y-66933D01*
X-184063Y-67005D01*
X-184176Y-67073D01*
X-184290Y-67139D01*
X-184406Y-67201D01*
X-184524Y-67259D01*
X-184644Y-67314D01*
X-184765Y-67365D01*
X-184888Y-67413D01*
X-185012Y-67457D01*
X-185138Y-67497D01*
X-185264Y-67534D01*
X-185392Y-67567D01*
X-185520Y-67596D01*
X-185650Y-67621D01*
X-185780Y-67642D01*
X-185910Y-67660D01*
X-186041Y-67673D01*
X-186173Y-67683D01*
X-186304Y-67689D01*
X-186436Y-67691D01*
X-186568Y-67689D01*
X-186699Y-67683D01*
X-186831Y-67673D01*
X-186962Y-67660D01*
X-187092Y-67642D01*
X-187222Y-67621D01*
X-187352Y-67596D01*
X-187480Y-67567D01*
X-187608Y-67534D01*
X-187734Y-67497D01*
X-187860Y-67457D01*
X-187984Y-67413D01*
X-188107Y-67365D01*
X-188228Y-67314D01*
X-188348Y-67259D01*
X-188466Y-67201D01*
X-188582Y-67139D01*
X-188696Y-67073D01*
X-188809Y-67005D01*
X-188919Y-66933D01*
X-189027Y-66858D01*
X-189133Y-66779D01*
X-189237Y-66698D01*
X-189338Y-66613D01*
X-189436Y-66526D01*
X-189532Y-66435D01*
X-189625Y-66342D01*
X-189716Y-66246D01*
X-189803Y-66148D01*
X-189888Y-66047D01*
X-189969Y-65943D01*
X-190048Y-65837D01*
X-190123Y-65729D01*
X-190195Y-65619D01*
X-190263Y-65506D01*
X-190329Y-65392D01*
X-190391Y-65276D01*
X-190449Y-65158D01*
X-190504Y-65038D01*
X-190555Y-64917D01*
X-190603Y-64794D01*
X-190647Y-64670D01*
X-190687Y-64544D01*
X-190724Y-64418D01*
X-190757Y-64290D01*
X-190786Y-64162D01*
X-190811Y-64032D01*
X-190832Y-63902D01*
X-190850Y-63772D01*
X-190863Y-63641D01*
X-190873Y-63509D01*
X-190879Y-63378D01*
X-190881Y-63246D01*
X-183769Y-64135D02*
X-180213Y-67691D01*
X-166759Y-55690D02*
X-166761Y-55564D01*
X-166767Y-55439D01*
X-166777Y-55313D01*
X-166791Y-55189D01*
X-166808Y-55064D01*
X-166830Y-54940D01*
X-166855Y-54817D01*
X-166885Y-54695D01*
X-166918Y-54574D01*
X-166955Y-54454D01*
X-166996Y-54335D01*
X-167040Y-54217D01*
X-167088Y-54101D01*
X-167140Y-53986D01*
X-167195Y-53874D01*
X-167254Y-53763D01*
X-167316Y-53653D01*
X-167382Y-53546D01*
X-167451Y-53441D01*
X-167523Y-53338D01*
X-167599Y-53238D01*
X-167677Y-53140D01*
X-167759Y-53044D01*
X-167843Y-52951D01*
X-167931Y-52861D01*
X-168021Y-52773D01*
X-168114Y-52689D01*
X-168210Y-52607D01*
X-168308Y-52529D01*
X-168408Y-52453D01*
X-168511Y-52381D01*
X-168616Y-52312D01*
X-168723Y-52246D01*
X-168833Y-52184D01*
X-168944Y-52125D01*
X-169056Y-52070D01*
X-169171Y-52018D01*
X-169287Y-51970D01*
X-169405Y-51926D01*
X-169524Y-51885D01*
X-169644Y-51848D01*
X-169765Y-51815D01*
X-169887Y-51785D01*
X-170010Y-51760D01*
X-170134Y-51738D01*
X-170259Y-51721D01*
X-170383Y-51707D01*
X-170509Y-51697D01*
X-170634Y-51691D01*
X-170760Y-51689D01*
X-170901Y-51691D01*
X-171041Y-51697D01*
X-171181Y-51706D01*
X-171321Y-51720D01*
X-171460Y-51737D01*
X-171599Y-51758D01*
X-171738Y-51783D01*
X-171875Y-51811D01*
X-172012Y-51844D01*
X-172148Y-51880D01*
X-172283Y-51920D01*
X-172416Y-51963D01*
X-172549Y-52010D01*
X-172680Y-52061D01*
X-172809Y-52115D01*
X-172937Y-52173D01*
X-173064Y-52234D01*
X-173189Y-52299D01*
X-173311Y-52367D01*
X-173432Y-52438D01*
X-173552Y-52513D01*
X-173668Y-52591D01*
X-173783Y-52672D01*
X-173896Y-52756D01*
X-174006Y-52844D01*
X-174114Y-52934D01*
X-174219Y-53027D01*
X-174321Y-53123D01*
X-174421Y-53222D01*
X-174519Y-53323D01*
X-174613Y-53427D01*
X-174705Y-53534D01*
X-174793Y-53643D01*
X-174879Y-53754D01*
X-174961Y-53868D01*
X-175041Y-53984D01*
X-175117Y-54102D01*
X-175190Y-54222D01*
X-175259Y-54344D01*
X-175326Y-54468D01*
X-175389Y-54594D01*
X-175448Y-54721D01*
X-175504Y-54850D01*
X-175556Y-54980D01*
X-175605Y-55112D01*
X-175650Y-55245D01*
X-168094Y-58802D02*
X-168002Y-58711D01*
X-167912Y-58618D01*
X-167826Y-58523D01*
X-167742Y-58425D01*
X-167662Y-58324D01*
X-167584Y-58221D01*
X-167510Y-58116D01*
X-167439Y-58008D01*
X-167371Y-57899D01*
X-167307Y-57787D01*
X-167245Y-57674D01*
X-167188Y-57559D01*
X-167133Y-57442D01*
X-167082Y-57323D01*
X-167035Y-57203D01*
X-166992Y-57082D01*
X-166952Y-56960D01*
X-166916Y-56836D01*
X-166883Y-56711D01*
X-166854Y-56586D01*
X-166829Y-56459D01*
X-166808Y-56332D01*
X-166791Y-56204D01*
X-166777Y-56076D01*
X-166768Y-55948D01*
X-166762Y-55819D01*
X-166760Y-55690D01*
X-168093Y-58801D02*
X-175650Y-67691D01*
X-166760Y-67691D01*
D15*
X-162560Y-231140D02*
X-162660Y-231142D01*
X-162759Y-231148D01*
X-162859Y-231158D01*
X-162957Y-231171D01*
X-163056Y-231189D01*
X-163153Y-231210D01*
X-163249Y-231235D01*
X-163345Y-231264D01*
X-163439Y-231297D01*
X-163532Y-231333D01*
X-163623Y-231373D01*
X-163713Y-231417D01*
X-163801Y-231464D01*
X-163887Y-231514D01*
X-163971Y-231568D01*
X-164053Y-231625D01*
X-164132Y-231685D01*
X-164210Y-231749D01*
X-164284Y-231815D01*
X-164356Y-231884D01*
X-164425Y-231956D01*
X-164491Y-232030D01*
X-164555Y-232108D01*
X-164615Y-232187D01*
X-164672Y-232269D01*
X-164726Y-232353D01*
X-164776Y-232439D01*
X-164823Y-232527D01*
X-164867Y-232617D01*
X-164907Y-232708D01*
X-164943Y-232801D01*
X-164976Y-232895D01*
X-165005Y-232991D01*
X-165030Y-233087D01*
X-165051Y-233184D01*
X-165069Y-233283D01*
X-165082Y-233381D01*
X-165092Y-233481D01*
X-165098Y-233580D01*
X-165100Y-233680D01*
X-165100Y-248920D02*
X-165098Y-249020D01*
X-165092Y-249119D01*
X-165082Y-249219D01*
X-165069Y-249317D01*
X-165051Y-249416D01*
X-165030Y-249513D01*
X-165005Y-249609D01*
X-164976Y-249705D01*
X-164943Y-249799D01*
X-164907Y-249892D01*
X-164867Y-249983D01*
X-164823Y-250073D01*
X-164776Y-250161D01*
X-164726Y-250247D01*
X-164672Y-250331D01*
X-164615Y-250413D01*
X-164555Y-250492D01*
X-164491Y-250570D01*
X-164425Y-250644D01*
X-164356Y-250716D01*
X-164284Y-250785D01*
X-164210Y-250851D01*
X-164132Y-250915D01*
X-164053Y-250975D01*
X-163971Y-251032D01*
X-163887Y-251086D01*
X-163801Y-251136D01*
X-163713Y-251183D01*
X-163623Y-251227D01*
X-163532Y-251267D01*
X-163439Y-251303D01*
X-163345Y-251336D01*
X-163249Y-251365D01*
X-163153Y-251390D01*
X-163056Y-251411D01*
X-162957Y-251429D01*
X-162859Y-251442D01*
X-162759Y-251452D01*
X-162660Y-251458D01*
X-162560Y-251460D01*
X-116840Y-251460D02*
X-116740Y-251458D01*
X-116641Y-251452D01*
X-116541Y-251442D01*
X-116443Y-251429D01*
X-116344Y-251411D01*
X-116247Y-251390D01*
X-116151Y-251365D01*
X-116055Y-251336D01*
X-115961Y-251303D01*
X-115868Y-251267D01*
X-115777Y-251227D01*
X-115687Y-251183D01*
X-115599Y-251136D01*
X-115513Y-251086D01*
X-115429Y-251032D01*
X-115347Y-250975D01*
X-115268Y-250915D01*
X-115190Y-250851D01*
X-115116Y-250785D01*
X-115044Y-250716D01*
X-114975Y-250644D01*
X-114909Y-250570D01*
X-114845Y-250492D01*
X-114785Y-250413D01*
X-114728Y-250331D01*
X-114674Y-250247D01*
X-114624Y-250161D01*
X-114577Y-250073D01*
X-114533Y-249983D01*
X-114493Y-249892D01*
X-114457Y-249799D01*
X-114424Y-249705D01*
X-114395Y-249609D01*
X-114370Y-249513D01*
X-114349Y-249416D01*
X-114331Y-249317D01*
X-114318Y-249219D01*
X-114308Y-249119D01*
X-114302Y-249020D01*
X-114300Y-248920D01*
X-114300Y-233680D02*
X-114302Y-233580D01*
X-114308Y-233481D01*
X-114318Y-233381D01*
X-114331Y-233283D01*
X-114349Y-233184D01*
X-114370Y-233087D01*
X-114395Y-232991D01*
X-114424Y-232895D01*
X-114457Y-232801D01*
X-114493Y-232708D01*
X-114533Y-232617D01*
X-114577Y-232527D01*
X-114624Y-232439D01*
X-114674Y-232353D01*
X-114728Y-232269D01*
X-114785Y-232187D01*
X-114845Y-232108D01*
X-114909Y-232030D01*
X-114975Y-231956D01*
X-115044Y-231884D01*
X-115116Y-231815D01*
X-115190Y-231749D01*
X-115268Y-231685D01*
X-115347Y-231625D01*
X-115429Y-231568D01*
X-115513Y-231514D01*
X-115599Y-231464D01*
X-115687Y-231417D01*
X-115777Y-231373D01*
X-115868Y-231333D01*
X-115961Y-231297D01*
X-116055Y-231264D01*
X-116151Y-231235D01*
X-116247Y-231210D01*
X-116344Y-231189D01*
X-116443Y-231171D01*
X-116541Y-231158D01*
X-116641Y-231148D01*
X-116740Y-231142D01*
X-116840Y-231140D01*
X-165100Y-233680D02*
X-165100Y-248920D01*
X-162560Y-231140D02*
X-158750Y-231140D01*
X-157480Y-232410D01*
X-158750Y-251460D02*
X-162560Y-251460D01*
X-158750Y-251460D02*
X-157480Y-250190D01*
X-121920Y-232410D02*
X-120650Y-231140D01*
X-121920Y-232410D02*
X-157480Y-232410D01*
X-121920Y-250190D02*
X-120650Y-251460D01*
X-121920Y-250190D02*
X-157480Y-250190D01*
X-120650Y-231140D02*
X-116840Y-231140D01*
X-116840Y-251460D02*
X-120650Y-251460D01*
X-114300Y-248920D02*
X-114300Y-233680D01*
D16*
X-112395Y-241300D03*
X-167005Y-241300D03*
D17*
X-164592Y-227838D02*
X-164592Y-218948D01*
X-162123Y-218948D01*
X-162025Y-218950D01*
X-161927Y-218956D01*
X-161829Y-218966D01*
X-161732Y-218979D01*
X-161635Y-218997D01*
X-161539Y-219018D01*
X-161445Y-219043D01*
X-161351Y-219072D01*
X-161258Y-219104D01*
X-161167Y-219141D01*
X-161077Y-219180D01*
X-160989Y-219224D01*
X-160903Y-219271D01*
X-160818Y-219321D01*
X-160736Y-219374D01*
X-160656Y-219431D01*
X-160578Y-219491D01*
X-160503Y-219554D01*
X-160430Y-219620D01*
X-160360Y-219689D01*
X-160293Y-219760D01*
X-160228Y-219834D01*
X-160167Y-219911D01*
X-160108Y-219990D01*
X-160053Y-220071D01*
X-160001Y-220154D01*
X-159953Y-220240D01*
X-159908Y-220327D01*
X-159866Y-220416D01*
X-159828Y-220506D01*
X-159794Y-220598D01*
X-159763Y-220691D01*
X-159736Y-220786D01*
X-159713Y-220881D01*
X-159693Y-220978D01*
X-159678Y-221074D01*
X-159666Y-221172D01*
X-159658Y-221270D01*
X-159654Y-221368D01*
X-159654Y-221466D01*
X-159658Y-221564D01*
X-159666Y-221662D01*
X-159678Y-221760D01*
X-159693Y-221856D01*
X-159713Y-221953D01*
X-159736Y-222048D01*
X-159763Y-222143D01*
X-159794Y-222236D01*
X-159828Y-222328D01*
X-159866Y-222418D01*
X-159908Y-222507D01*
X-159953Y-222594D01*
X-160001Y-222680D01*
X-160053Y-222763D01*
X-160108Y-222844D01*
X-160167Y-222923D01*
X-160228Y-223000D01*
X-160293Y-223074D01*
X-160360Y-223145D01*
X-160430Y-223214D01*
X-160503Y-223280D01*
X-160578Y-223343D01*
X-160656Y-223403D01*
X-160736Y-223460D01*
X-160818Y-223513D01*
X-160903Y-223563D01*
X-160989Y-223610D01*
X-161077Y-223654D01*
X-161167Y-223693D01*
X-161258Y-223730D01*
X-161351Y-223762D01*
X-161445Y-223791D01*
X-161539Y-223816D01*
X-161635Y-223837D01*
X-161732Y-223855D01*
X-161829Y-223868D01*
X-161927Y-223878D01*
X-162025Y-223884D01*
X-162123Y-223886D01*
X-162123Y-223887D02*
X-164592Y-223887D01*
X-161629Y-223887D02*
X-159653Y-227838D01*
X-155742Y-220924D02*
X-153273Y-218948D01*
X-153273Y-227838D01*
X-155742Y-227838D02*
X-150803Y-227838D01*
D10*
X-228600Y-266700D02*
X-279400Y-266700D01*
X-279400Y-284480D01*
X-279400Y-299720D01*
X-279400Y-309880D02*
X-279400Y-325120D01*
X-279400Y-342900D01*
X-228600Y-342900D01*
X-228600Y-266700D01*
X-274320Y-284480D02*
X-279400Y-284480D01*
X-279400Y-299720D02*
X-274320Y-299720D01*
X-279400Y-299720D02*
X-279400Y-309880D01*
X-274320Y-309880D01*
X-274320Y-325120D02*
X-279400Y-325120D01*
X-274320Y-299720D02*
X-274320Y-284480D01*
X-274320Y-309880D02*
X-274320Y-325120D01*
D11*
X-225806Y-327994D02*
X-221460Y-327994D01*
X-221390Y-327996D01*
X-221321Y-328002D01*
X-221252Y-328012D01*
X-221184Y-328025D01*
X-221116Y-328043D01*
X-221050Y-328064D01*
X-220985Y-328089D01*
X-220921Y-328117D01*
X-220859Y-328149D01*
X-220799Y-328184D01*
X-220741Y-328223D01*
X-220686Y-328265D01*
X-220632Y-328310D01*
X-220582Y-328358D01*
X-220534Y-328408D01*
X-220489Y-328462D01*
X-220447Y-328517D01*
X-220408Y-328575D01*
X-220373Y-328635D01*
X-220341Y-328697D01*
X-220313Y-328761D01*
X-220288Y-328826D01*
X-220267Y-328892D01*
X-220249Y-328960D01*
X-220236Y-329028D01*
X-220226Y-329097D01*
X-220220Y-329166D01*
X-220218Y-329236D01*
X-220218Y-329857D01*
X-220218Y-323772D02*
X-220220Y-323702D01*
X-220226Y-323633D01*
X-220236Y-323564D01*
X-220249Y-323496D01*
X-220267Y-323428D01*
X-220288Y-323362D01*
X-220313Y-323297D01*
X-220341Y-323233D01*
X-220373Y-323171D01*
X-220408Y-323111D01*
X-220447Y-323053D01*
X-220489Y-322998D01*
X-220534Y-322944D01*
X-220582Y-322894D01*
X-220632Y-322846D01*
X-220686Y-322801D01*
X-220741Y-322759D01*
X-220799Y-322720D01*
X-220859Y-322685D01*
X-220921Y-322653D01*
X-220985Y-322625D01*
X-221050Y-322600D01*
X-221116Y-322579D01*
X-221184Y-322561D01*
X-221252Y-322548D01*
X-221321Y-322538D01*
X-221390Y-322532D01*
X-221460Y-322530D01*
X-220218Y-323772D02*
X-220220Y-323871D01*
X-220225Y-323969D01*
X-220235Y-324067D01*
X-220248Y-324165D01*
X-220264Y-324262D01*
X-220284Y-324359D01*
X-220308Y-324454D01*
X-220336Y-324549D01*
X-220367Y-324643D01*
X-220401Y-324735D01*
X-220439Y-324826D01*
X-220480Y-324916D01*
X-220525Y-325004D01*
X-220573Y-325090D01*
X-220624Y-325174D01*
X-220678Y-325256D01*
X-220736Y-325337D01*
X-220796Y-325415D01*
X-220859Y-325490D01*
X-220925Y-325564D01*
X-220994Y-325634D01*
X-224564Y-325480D02*
X-224634Y-325478D01*
X-224703Y-325472D01*
X-224772Y-325462D01*
X-224840Y-325449D01*
X-224908Y-325431D01*
X-224974Y-325410D01*
X-225039Y-325385D01*
X-225103Y-325357D01*
X-225165Y-325325D01*
X-225225Y-325290D01*
X-225283Y-325251D01*
X-225338Y-325209D01*
X-225392Y-325164D01*
X-225442Y-325116D01*
X-225490Y-325066D01*
X-225535Y-325012D01*
X-225577Y-324957D01*
X-225616Y-324899D01*
X-225651Y-324839D01*
X-225683Y-324777D01*
X-225711Y-324713D01*
X-225736Y-324648D01*
X-225757Y-324582D01*
X-225775Y-324514D01*
X-225788Y-324446D01*
X-225798Y-324377D01*
X-225804Y-324308D01*
X-225806Y-324238D01*
X-225804Y-324144D01*
X-225798Y-324051D01*
X-225789Y-323958D01*
X-225776Y-323865D01*
X-225759Y-323773D01*
X-225739Y-323682D01*
X-225714Y-323591D01*
X-225687Y-323502D01*
X-225655Y-323414D01*
X-225620Y-323327D01*
X-225582Y-323241D01*
X-225540Y-323158D01*
X-225495Y-323075D01*
X-225447Y-322995D01*
X-225395Y-322917D01*
X-225340Y-322841D01*
X-223478Y-324859D02*
X-223514Y-324918D01*
X-223554Y-324974D01*
X-223597Y-325028D01*
X-223642Y-325080D01*
X-223691Y-325129D01*
X-223742Y-325175D01*
X-223795Y-325218D01*
X-223851Y-325259D01*
X-223909Y-325296D01*
X-223969Y-325331D01*
X-224030Y-325361D01*
X-224093Y-325389D01*
X-224158Y-325413D01*
X-224224Y-325433D01*
X-224291Y-325450D01*
X-224358Y-325463D01*
X-224426Y-325472D01*
X-224495Y-325478D01*
X-224564Y-325480D01*
X-222546Y-323152D02*
X-222510Y-323093D01*
X-222470Y-323037D01*
X-222427Y-322983D01*
X-222382Y-322931D01*
X-222333Y-322882D01*
X-222282Y-322836D01*
X-222229Y-322793D01*
X-222173Y-322752D01*
X-222115Y-322715D01*
X-222056Y-322680D01*
X-221994Y-322650D01*
X-221931Y-322622D01*
X-221866Y-322598D01*
X-221800Y-322578D01*
X-221733Y-322561D01*
X-221666Y-322548D01*
X-221598Y-322539D01*
X-221529Y-322533D01*
X-221460Y-322531D01*
X-222546Y-323152D02*
X-223478Y-324859D01*
X-225806Y-319145D02*
X-220218Y-319145D01*
X-225806Y-320697D02*
X-225806Y-317593D01*
X-225806Y-310943D02*
X-225804Y-310870D01*
X-225798Y-310797D01*
X-225789Y-310724D01*
X-225775Y-310653D01*
X-225758Y-310581D01*
X-225738Y-310511D01*
X-225713Y-310442D01*
X-225685Y-310375D01*
X-225654Y-310309D01*
X-225619Y-310245D01*
X-225581Y-310182D01*
X-225539Y-310122D01*
X-225495Y-310064D01*
X-225447Y-310008D01*
X-225397Y-309955D01*
X-225344Y-309905D01*
X-225288Y-309857D01*
X-225230Y-309813D01*
X-225170Y-309771D01*
X-225108Y-309733D01*
X-225043Y-309698D01*
X-224977Y-309667D01*
X-224910Y-309639D01*
X-224841Y-309614D01*
X-224771Y-309594D01*
X-224699Y-309577D01*
X-224628Y-309563D01*
X-224555Y-309554D01*
X-224482Y-309548D01*
X-224409Y-309546D01*
X-225806Y-310943D02*
X-225804Y-311027D01*
X-225798Y-311110D01*
X-225789Y-311193D01*
X-225775Y-311275D01*
X-225758Y-311357D01*
X-225736Y-311438D01*
X-225711Y-311518D01*
X-225683Y-311596D01*
X-225651Y-311674D01*
X-225615Y-311749D01*
X-225576Y-311823D01*
X-225533Y-311895D01*
X-225487Y-311965D01*
X-225438Y-312032D01*
X-225385Y-312098D01*
X-225330Y-312160D01*
X-225272Y-312220D01*
X-225211Y-312278D01*
X-225148Y-312332D01*
X-225082Y-312384D01*
X-225014Y-312432D01*
X-224943Y-312477D01*
X-224871Y-312519D01*
X-224796Y-312557D01*
X-224720Y-312592D01*
X-224643Y-312623D01*
X-224564Y-312651D01*
X-223323Y-310013D02*
X-223376Y-309959D01*
X-223433Y-309908D01*
X-223492Y-309860D01*
X-223553Y-309815D01*
X-223616Y-309774D01*
X-223682Y-309735D01*
X-223749Y-309700D01*
X-223818Y-309668D01*
X-223889Y-309640D01*
X-223960Y-309616D01*
X-224033Y-309595D01*
X-224107Y-309578D01*
X-224182Y-309564D01*
X-224257Y-309555D01*
X-224333Y-309549D01*
X-224409Y-309547D01*
X-223322Y-310012D02*
X-220218Y-312651D01*
X-220218Y-309546D01*
X-220218Y-307413D02*
X-220528Y-307413D01*
X-220528Y-307103D01*
X-220218Y-307103D01*
X-220218Y-307413D01*
X-220218Y-304970D02*
X-220218Y-303107D01*
X-220220Y-303037D01*
X-220226Y-302968D01*
X-220236Y-302899D01*
X-220249Y-302831D01*
X-220267Y-302763D01*
X-220288Y-302697D01*
X-220313Y-302632D01*
X-220341Y-302568D01*
X-220373Y-302506D01*
X-220408Y-302446D01*
X-220447Y-302388D01*
X-220489Y-302333D01*
X-220534Y-302279D01*
X-220582Y-302229D01*
X-220632Y-302181D01*
X-220686Y-302136D01*
X-220741Y-302094D01*
X-220799Y-302055D01*
X-220859Y-302020D01*
X-220921Y-301988D01*
X-220985Y-301960D01*
X-221050Y-301935D01*
X-221116Y-301914D01*
X-221184Y-301896D01*
X-221252Y-301883D01*
X-221321Y-301873D01*
X-221390Y-301867D01*
X-221460Y-301865D01*
X-222081Y-301865D01*
X-222151Y-301867D01*
X-222220Y-301873D01*
X-222289Y-301883D01*
X-222357Y-301896D01*
X-222425Y-301914D01*
X-222491Y-301935D01*
X-222556Y-301960D01*
X-222620Y-301988D01*
X-222682Y-302020D01*
X-222742Y-302055D01*
X-222800Y-302094D01*
X-222855Y-302136D01*
X-222909Y-302181D01*
X-222959Y-302229D01*
X-223007Y-302279D01*
X-223052Y-302333D01*
X-223094Y-302388D01*
X-223133Y-302446D01*
X-223168Y-302506D01*
X-223200Y-302568D01*
X-223228Y-302632D01*
X-223253Y-302697D01*
X-223274Y-302763D01*
X-223292Y-302831D01*
X-223305Y-302899D01*
X-223315Y-302968D01*
X-223321Y-303037D01*
X-223323Y-303107D01*
X-223322Y-303107D02*
X-223322Y-304970D01*
X-225806Y-304970D01*
X-225806Y-301865D01*
X-225806Y-298242D02*
X-221460Y-299483D01*
X-221460Y-296379D01*
X-222702Y-297310D02*
X-220218Y-297310D01*
X-220218Y-294307D02*
X-225806Y-290582D01*
X-225806Y-294307D02*
X-220218Y-290582D01*
X-224409Y-285406D02*
X-224482Y-285408D01*
X-224555Y-285414D01*
X-224628Y-285423D01*
X-224699Y-285437D01*
X-224771Y-285454D01*
X-224841Y-285474D01*
X-224910Y-285499D01*
X-224977Y-285527D01*
X-225043Y-285558D01*
X-225108Y-285593D01*
X-225170Y-285631D01*
X-225230Y-285673D01*
X-225288Y-285717D01*
X-225344Y-285765D01*
X-225397Y-285815D01*
X-225447Y-285868D01*
X-225495Y-285924D01*
X-225539Y-285982D01*
X-225581Y-286042D01*
X-225619Y-286105D01*
X-225654Y-286169D01*
X-225685Y-286235D01*
X-225713Y-286302D01*
X-225738Y-286371D01*
X-225758Y-286441D01*
X-225775Y-286513D01*
X-225789Y-286584D01*
X-225798Y-286657D01*
X-225804Y-286730D01*
X-225806Y-286803D01*
X-225804Y-286887D01*
X-225798Y-286970D01*
X-225789Y-287053D01*
X-225775Y-287135D01*
X-225758Y-287217D01*
X-225736Y-287298D01*
X-225711Y-287378D01*
X-225683Y-287456D01*
X-225651Y-287534D01*
X-225615Y-287609D01*
X-225576Y-287683D01*
X-225533Y-287755D01*
X-225487Y-287825D01*
X-225438Y-287892D01*
X-225385Y-287958D01*
X-225330Y-288020D01*
X-225272Y-288080D01*
X-225211Y-288138D01*
X-225148Y-288192D01*
X-225082Y-288244D01*
X-225014Y-288292D01*
X-224943Y-288337D01*
X-224871Y-288379D01*
X-224796Y-288417D01*
X-224720Y-288452D01*
X-224643Y-288483D01*
X-224564Y-288511D01*
X-223323Y-285873D02*
X-223376Y-285819D01*
X-223433Y-285768D01*
X-223492Y-285720D01*
X-223553Y-285675D01*
X-223616Y-285634D01*
X-223682Y-285595D01*
X-223749Y-285560D01*
X-223818Y-285528D01*
X-223889Y-285500D01*
X-223960Y-285476D01*
X-224033Y-285455D01*
X-224107Y-285438D01*
X-224182Y-285424D01*
X-224257Y-285415D01*
X-224333Y-285409D01*
X-224409Y-285407D01*
X-223322Y-285872D02*
X-220218Y-288511D01*
X-220218Y-285406D01*
X-220218Y-282758D02*
X-225806Y-282758D01*
X-225806Y-281206D01*
X-225804Y-281129D01*
X-225798Y-281051D01*
X-225789Y-280975D01*
X-225775Y-280898D01*
X-225758Y-280823D01*
X-225737Y-280749D01*
X-225712Y-280675D01*
X-225684Y-280603D01*
X-225652Y-280533D01*
X-225617Y-280464D01*
X-225578Y-280397D01*
X-225536Y-280332D01*
X-225491Y-280269D01*
X-225443Y-280208D01*
X-225392Y-280150D01*
X-225338Y-280095D01*
X-225281Y-280042D01*
X-225222Y-279993D01*
X-225160Y-279946D01*
X-225096Y-279902D01*
X-225030Y-279862D01*
X-224962Y-279825D01*
X-224892Y-279791D01*
X-224821Y-279761D01*
X-224748Y-279735D01*
X-224674Y-279712D01*
X-224599Y-279693D01*
X-224524Y-279678D01*
X-224447Y-279666D01*
X-224370Y-279658D01*
X-224293Y-279654D01*
X-224215Y-279654D01*
X-224138Y-279658D01*
X-224061Y-279666D01*
X-223984Y-279678D01*
X-223909Y-279693D01*
X-223834Y-279712D01*
X-223760Y-279735D01*
X-223687Y-279761D01*
X-223616Y-279791D01*
X-223546Y-279825D01*
X-223478Y-279862D01*
X-223412Y-279902D01*
X-223348Y-279946D01*
X-223286Y-279993D01*
X-223227Y-280042D01*
X-223170Y-280095D01*
X-223116Y-280150D01*
X-223065Y-280208D01*
X-223017Y-280269D01*
X-222972Y-280332D01*
X-222930Y-280397D01*
X-222891Y-280464D01*
X-222856Y-280533D01*
X-222824Y-280603D01*
X-222796Y-280675D01*
X-222771Y-280749D01*
X-222750Y-280823D01*
X-222733Y-280898D01*
X-222719Y-280975D01*
X-222710Y-281051D01*
X-222704Y-281129D01*
X-222702Y-281206D01*
X-222702Y-282758D01*
D10*
X-229870Y26670D02*
X-280670Y26670D01*
X-280670Y8890D01*
X-280670Y-6350D01*
X-280670Y-16510D02*
X-280670Y-31750D01*
X-280670Y-49530D01*
X-229870Y-49530D01*
X-229870Y26670D01*
X-275590Y8890D02*
X-280670Y8890D01*
X-280670Y-6350D02*
X-275590Y-6350D01*
X-280670Y-6350D02*
X-280670Y-16510D01*
X-275590Y-16510D01*
X-275590Y-31750D02*
X-280670Y-31750D01*
X-275590Y-6350D02*
X-275590Y8890D01*
X-275590Y-16510D02*
X-275590Y-31750D01*
D11*
X-227076Y-34624D02*
X-222730Y-34624D01*
X-222660Y-34626D01*
X-222591Y-34632D01*
X-222522Y-34642D01*
X-222454Y-34655D01*
X-222386Y-34673D01*
X-222320Y-34694D01*
X-222255Y-34719D01*
X-222191Y-34747D01*
X-222129Y-34779D01*
X-222069Y-34814D01*
X-222011Y-34853D01*
X-221956Y-34895D01*
X-221902Y-34940D01*
X-221852Y-34988D01*
X-221804Y-35038D01*
X-221759Y-35092D01*
X-221717Y-35147D01*
X-221678Y-35205D01*
X-221643Y-35265D01*
X-221611Y-35327D01*
X-221583Y-35391D01*
X-221558Y-35456D01*
X-221537Y-35522D01*
X-221519Y-35590D01*
X-221506Y-35658D01*
X-221496Y-35727D01*
X-221490Y-35796D01*
X-221488Y-35866D01*
X-221488Y-36487D01*
X-221488Y-30402D02*
X-221490Y-30332D01*
X-221496Y-30263D01*
X-221506Y-30194D01*
X-221519Y-30126D01*
X-221537Y-30058D01*
X-221558Y-29992D01*
X-221583Y-29927D01*
X-221611Y-29863D01*
X-221643Y-29801D01*
X-221678Y-29741D01*
X-221717Y-29683D01*
X-221759Y-29628D01*
X-221804Y-29574D01*
X-221852Y-29524D01*
X-221902Y-29476D01*
X-221956Y-29431D01*
X-222011Y-29389D01*
X-222069Y-29350D01*
X-222129Y-29315D01*
X-222191Y-29283D01*
X-222255Y-29255D01*
X-222320Y-29230D01*
X-222386Y-29209D01*
X-222454Y-29191D01*
X-222522Y-29178D01*
X-222591Y-29168D01*
X-222660Y-29162D01*
X-222730Y-29160D01*
X-221488Y-30402D02*
X-221490Y-30501D01*
X-221495Y-30599D01*
X-221505Y-30697D01*
X-221518Y-30795D01*
X-221534Y-30892D01*
X-221554Y-30989D01*
X-221578Y-31084D01*
X-221606Y-31179D01*
X-221637Y-31273D01*
X-221671Y-31365D01*
X-221709Y-31456D01*
X-221750Y-31546D01*
X-221795Y-31634D01*
X-221843Y-31720D01*
X-221894Y-31804D01*
X-221948Y-31886D01*
X-222006Y-31967D01*
X-222066Y-32045D01*
X-222129Y-32120D01*
X-222195Y-32194D01*
X-222264Y-32264D01*
X-225834Y-32110D02*
X-225904Y-32108D01*
X-225973Y-32102D01*
X-226042Y-32092D01*
X-226110Y-32079D01*
X-226178Y-32061D01*
X-226244Y-32040D01*
X-226309Y-32015D01*
X-226373Y-31987D01*
X-226435Y-31955D01*
X-226495Y-31920D01*
X-226553Y-31881D01*
X-226608Y-31839D01*
X-226662Y-31794D01*
X-226712Y-31746D01*
X-226760Y-31696D01*
X-226805Y-31642D01*
X-226847Y-31587D01*
X-226886Y-31529D01*
X-226921Y-31469D01*
X-226953Y-31407D01*
X-226981Y-31343D01*
X-227006Y-31278D01*
X-227027Y-31212D01*
X-227045Y-31144D01*
X-227058Y-31076D01*
X-227068Y-31007D01*
X-227074Y-30938D01*
X-227076Y-30868D01*
X-227074Y-30774D01*
X-227068Y-30681D01*
X-227059Y-30588D01*
X-227046Y-30495D01*
X-227029Y-30403D01*
X-227009Y-30312D01*
X-226984Y-30221D01*
X-226957Y-30132D01*
X-226925Y-30044D01*
X-226890Y-29957D01*
X-226852Y-29871D01*
X-226810Y-29788D01*
X-226765Y-29705D01*
X-226717Y-29625D01*
X-226665Y-29547D01*
X-226610Y-29471D01*
X-224748Y-31489D02*
X-224784Y-31548D01*
X-224824Y-31604D01*
X-224867Y-31658D01*
X-224912Y-31710D01*
X-224961Y-31759D01*
X-225012Y-31805D01*
X-225065Y-31848D01*
X-225121Y-31889D01*
X-225179Y-31926D01*
X-225239Y-31961D01*
X-225300Y-31991D01*
X-225363Y-32019D01*
X-225428Y-32043D01*
X-225494Y-32063D01*
X-225561Y-32080D01*
X-225628Y-32093D01*
X-225696Y-32102D01*
X-225765Y-32108D01*
X-225834Y-32110D01*
X-223816Y-29782D02*
X-223780Y-29723D01*
X-223740Y-29667D01*
X-223697Y-29613D01*
X-223652Y-29561D01*
X-223603Y-29512D01*
X-223552Y-29466D01*
X-223499Y-29423D01*
X-223443Y-29382D01*
X-223385Y-29345D01*
X-223326Y-29310D01*
X-223264Y-29280D01*
X-223201Y-29252D01*
X-223136Y-29228D01*
X-223070Y-29208D01*
X-223003Y-29191D01*
X-222936Y-29178D01*
X-222868Y-29169D01*
X-222799Y-29163D01*
X-222730Y-29161D01*
X-223816Y-29782D02*
X-224748Y-31489D01*
X-227076Y-25775D02*
X-221488Y-25775D01*
X-227076Y-27327D02*
X-227076Y-24223D01*
X-227076Y-17573D02*
X-227074Y-17500D01*
X-227068Y-17427D01*
X-227059Y-17354D01*
X-227045Y-17283D01*
X-227028Y-17211D01*
X-227008Y-17141D01*
X-226983Y-17072D01*
X-226955Y-17005D01*
X-226924Y-16939D01*
X-226889Y-16875D01*
X-226851Y-16812D01*
X-226809Y-16752D01*
X-226765Y-16694D01*
X-226717Y-16638D01*
X-226667Y-16585D01*
X-226614Y-16535D01*
X-226558Y-16487D01*
X-226500Y-16443D01*
X-226440Y-16401D01*
X-226378Y-16363D01*
X-226313Y-16328D01*
X-226247Y-16297D01*
X-226180Y-16269D01*
X-226111Y-16244D01*
X-226041Y-16224D01*
X-225969Y-16207D01*
X-225898Y-16193D01*
X-225825Y-16184D01*
X-225752Y-16178D01*
X-225679Y-16176D01*
X-227076Y-17573D02*
X-227074Y-17657D01*
X-227068Y-17740D01*
X-227059Y-17823D01*
X-227045Y-17905D01*
X-227028Y-17987D01*
X-227006Y-18068D01*
X-226981Y-18148D01*
X-226953Y-18226D01*
X-226921Y-18304D01*
X-226885Y-18379D01*
X-226846Y-18453D01*
X-226803Y-18525D01*
X-226757Y-18595D01*
X-226708Y-18662D01*
X-226655Y-18728D01*
X-226600Y-18790D01*
X-226542Y-18850D01*
X-226481Y-18908D01*
X-226418Y-18962D01*
X-226352Y-19014D01*
X-226284Y-19062D01*
X-226213Y-19107D01*
X-226141Y-19149D01*
X-226066Y-19187D01*
X-225990Y-19222D01*
X-225913Y-19253D01*
X-225834Y-19281D01*
X-224593Y-16643D02*
X-224646Y-16589D01*
X-224703Y-16538D01*
X-224762Y-16490D01*
X-224823Y-16445D01*
X-224886Y-16404D01*
X-224952Y-16365D01*
X-225019Y-16330D01*
X-225088Y-16298D01*
X-225159Y-16270D01*
X-225230Y-16246D01*
X-225303Y-16225D01*
X-225377Y-16208D01*
X-225452Y-16194D01*
X-225527Y-16185D01*
X-225603Y-16179D01*
X-225679Y-16177D01*
X-224592Y-16642D02*
X-221488Y-19281D01*
X-221488Y-16176D01*
X-221488Y-14043D02*
X-221798Y-14043D01*
X-221798Y-13733D01*
X-221488Y-13733D01*
X-221488Y-14043D01*
X-221488Y-11600D02*
X-221488Y-9737D01*
X-221490Y-9667D01*
X-221496Y-9598D01*
X-221506Y-9529D01*
X-221519Y-9461D01*
X-221537Y-9393D01*
X-221558Y-9327D01*
X-221583Y-9262D01*
X-221611Y-9198D01*
X-221643Y-9136D01*
X-221678Y-9076D01*
X-221717Y-9018D01*
X-221759Y-8963D01*
X-221804Y-8909D01*
X-221852Y-8859D01*
X-221902Y-8811D01*
X-221956Y-8766D01*
X-222011Y-8724D01*
X-222069Y-8685D01*
X-222129Y-8650D01*
X-222191Y-8618D01*
X-222255Y-8590D01*
X-222320Y-8565D01*
X-222386Y-8544D01*
X-222454Y-8526D01*
X-222522Y-8513D01*
X-222591Y-8503D01*
X-222660Y-8497D01*
X-222730Y-8495D01*
X-223351Y-8495D01*
X-223421Y-8497D01*
X-223490Y-8503D01*
X-223559Y-8513D01*
X-223627Y-8526D01*
X-223695Y-8544D01*
X-223761Y-8565D01*
X-223826Y-8590D01*
X-223890Y-8618D01*
X-223952Y-8650D01*
X-224012Y-8685D01*
X-224070Y-8724D01*
X-224125Y-8766D01*
X-224179Y-8811D01*
X-224229Y-8859D01*
X-224277Y-8909D01*
X-224322Y-8963D01*
X-224364Y-9018D01*
X-224403Y-9076D01*
X-224438Y-9136D01*
X-224470Y-9198D01*
X-224498Y-9262D01*
X-224523Y-9327D01*
X-224544Y-9393D01*
X-224562Y-9461D01*
X-224575Y-9529D01*
X-224585Y-9598D01*
X-224591Y-9667D01*
X-224593Y-9737D01*
X-224592Y-9737D02*
X-224592Y-11600D01*
X-227076Y-11600D01*
X-227076Y-8495D01*
X-227076Y-4872D02*
X-222730Y-6113D01*
X-222730Y-3009D01*
X-223972Y-3940D02*
X-221488Y-3940D01*
X-221488Y-937D02*
X-227076Y2788D01*
X-227076Y-937D02*
X-221488Y2788D01*
X-225679Y7964D02*
X-225752Y7962D01*
X-225825Y7956D01*
X-225898Y7947D01*
X-225969Y7933D01*
X-226041Y7916D01*
X-226111Y7896D01*
X-226180Y7871D01*
X-226247Y7843D01*
X-226313Y7812D01*
X-226378Y7777D01*
X-226440Y7739D01*
X-226500Y7697D01*
X-226558Y7653D01*
X-226614Y7605D01*
X-226667Y7555D01*
X-226717Y7502D01*
X-226765Y7446D01*
X-226809Y7388D01*
X-226851Y7328D01*
X-226889Y7266D01*
X-226924Y7201D01*
X-226955Y7135D01*
X-226983Y7068D01*
X-227008Y6999D01*
X-227028Y6929D01*
X-227045Y6857D01*
X-227059Y6786D01*
X-227068Y6713D01*
X-227074Y6640D01*
X-227076Y6567D01*
X-227074Y6483D01*
X-227068Y6400D01*
X-227059Y6317D01*
X-227045Y6235D01*
X-227028Y6153D01*
X-227006Y6072D01*
X-226981Y5992D01*
X-226953Y5914D01*
X-226921Y5836D01*
X-226885Y5761D01*
X-226846Y5687D01*
X-226803Y5615D01*
X-226757Y5545D01*
X-226708Y5478D01*
X-226655Y5412D01*
X-226600Y5350D01*
X-226542Y5290D01*
X-226481Y5232D01*
X-226418Y5178D01*
X-226352Y5126D01*
X-226284Y5078D01*
X-226213Y5033D01*
X-226141Y4991D01*
X-226066Y4953D01*
X-225990Y4918D01*
X-225913Y4887D01*
X-225834Y4859D01*
X-224593Y7497D02*
X-224646Y7551D01*
X-224703Y7602D01*
X-224762Y7650D01*
X-224823Y7695D01*
X-224886Y7736D01*
X-224952Y7775D01*
X-225019Y7810D01*
X-225088Y7842D01*
X-225159Y7870D01*
X-225230Y7894D01*
X-225303Y7915D01*
X-225377Y7932D01*
X-225452Y7946D01*
X-225527Y7955D01*
X-225603Y7961D01*
X-225679Y7963D01*
X-224592Y7498D02*
X-221488Y4859D01*
X-221488Y7964D01*
X-221488Y10612D02*
X-227076Y10612D01*
X-227076Y12164D01*
X-227074Y12241D01*
X-227068Y12319D01*
X-227059Y12395D01*
X-227045Y12472D01*
X-227028Y12547D01*
X-227007Y12621D01*
X-226982Y12695D01*
X-226954Y12767D01*
X-226922Y12837D01*
X-226887Y12906D01*
X-226848Y12973D01*
X-226806Y13038D01*
X-226761Y13101D01*
X-226713Y13162D01*
X-226662Y13220D01*
X-226608Y13275D01*
X-226551Y13328D01*
X-226492Y13377D01*
X-226430Y13424D01*
X-226366Y13468D01*
X-226300Y13508D01*
X-226232Y13545D01*
X-226162Y13579D01*
X-226091Y13609D01*
X-226018Y13635D01*
X-225944Y13658D01*
X-225869Y13677D01*
X-225794Y13692D01*
X-225717Y13704D01*
X-225640Y13712D01*
X-225563Y13716D01*
X-225485Y13716D01*
X-225408Y13712D01*
X-225331Y13704D01*
X-225254Y13692D01*
X-225179Y13677D01*
X-225104Y13658D01*
X-225030Y13635D01*
X-224957Y13609D01*
X-224886Y13579D01*
X-224816Y13545D01*
X-224748Y13508D01*
X-224682Y13468D01*
X-224618Y13424D01*
X-224556Y13377D01*
X-224497Y13328D01*
X-224440Y13275D01*
X-224386Y13220D01*
X-224335Y13162D01*
X-224287Y13101D01*
X-224242Y13038D01*
X-224200Y12973D01*
X-224161Y12906D01*
X-224126Y12837D01*
X-224094Y12767D01*
X-224066Y12695D01*
X-224041Y12621D01*
X-224020Y12547D01*
X-224003Y12472D01*
X-223989Y12395D01*
X-223980Y12319D01*
X-223974Y12241D01*
X-223972Y12164D01*
X-223972Y10612D01*
D15*
X-196850Y-317500D02*
X-196833Y-316097D01*
X-196781Y-314696D01*
X-196695Y-313296D01*
X-196575Y-311898D01*
X-196420Y-310504D01*
X-196231Y-309114D01*
X-196009Y-307730D01*
X-195752Y-306351D01*
X-195461Y-304978D01*
X-195137Y-303614D01*
X-194780Y-302257D01*
X-194389Y-300910D01*
X-193966Y-299573D01*
X-193509Y-298247D01*
X-193021Y-296932D01*
X-192500Y-295630D01*
X-191947Y-294340D01*
X-191363Y-293065D01*
X-190748Y-291805D01*
X-190102Y-290560D01*
X-189425Y-289331D01*
X-188719Y-288119D01*
X-187983Y-286925D01*
X-187218Y-285749D01*
X-186425Y-284593D01*
X-185603Y-283456D01*
X-184754Y-282340D01*
X-183878Y-281244D01*
X-182974Y-280171D01*
X-182045Y-279120D01*
X-181091Y-278093D01*
X-180111Y-277089D01*
X-179107Y-276109D01*
X-178080Y-275155D01*
X-177029Y-274226D01*
X-175956Y-273322D01*
X-174860Y-272446D01*
X-173744Y-271597D01*
X-172607Y-270775D01*
X-171451Y-269982D01*
X-170275Y-269217D01*
X-169081Y-268481D01*
X-167869Y-267775D01*
X-166640Y-267098D01*
X-165395Y-266452D01*
X-164135Y-265837D01*
X-162860Y-265253D01*
X-161570Y-264700D01*
X-160268Y-264179D01*
X-158953Y-263691D01*
X-157627Y-263234D01*
X-156290Y-262811D01*
X-154943Y-262420D01*
X-153586Y-262063D01*
X-152222Y-261739D01*
X-150849Y-261448D01*
X-149470Y-261191D01*
X-148086Y-260969D01*
X-146696Y-260780D01*
X-145302Y-260625D01*
X-143904Y-260505D01*
X-142504Y-260419D01*
X-141103Y-260367D01*
X-139700Y-260350D01*
X-138297Y-260367D01*
X-136896Y-260419D01*
X-135496Y-260505D01*
X-134098Y-260625D01*
X-132704Y-260780D01*
X-131314Y-260969D01*
X-129930Y-261191D01*
X-128551Y-261448D01*
X-127178Y-261739D01*
X-125814Y-262063D01*
X-124457Y-262420D01*
X-123110Y-262811D01*
X-121773Y-263234D01*
X-120447Y-263691D01*
X-119132Y-264179D01*
X-117830Y-264700D01*
X-116540Y-265253D01*
X-115265Y-265837D01*
X-114005Y-266452D01*
X-112760Y-267098D01*
X-111531Y-267775D01*
X-110319Y-268481D01*
X-109125Y-269217D01*
X-107949Y-269982D01*
X-106793Y-270775D01*
X-105656Y-271597D01*
X-104540Y-272446D01*
X-103444Y-273322D01*
X-102371Y-274226D01*
X-101320Y-275155D01*
X-100293Y-276109D01*
X-99289Y-277089D01*
X-98309Y-278093D01*
X-97355Y-279120D01*
X-96426Y-280171D01*
X-95522Y-281244D01*
X-94646Y-282340D01*
X-93797Y-283456D01*
X-92975Y-284593D01*
X-92182Y-285749D01*
X-91417Y-286925D01*
X-90681Y-288119D01*
X-89975Y-289331D01*
X-89298Y-290560D01*
X-88652Y-291805D01*
X-88037Y-293065D01*
X-87453Y-294340D01*
X-86900Y-295630D01*
X-86379Y-296932D01*
X-85891Y-298247D01*
X-85434Y-299573D01*
X-85011Y-300910D01*
X-84620Y-302257D01*
X-84263Y-303614D01*
X-83939Y-304978D01*
X-83648Y-306351D01*
X-83391Y-307730D01*
X-83169Y-309114D01*
X-82980Y-310504D01*
X-82825Y-311898D01*
X-82705Y-313296D01*
X-82619Y-314696D01*
X-82567Y-316097D01*
X-82550Y-317500D01*
X-82567Y-318903D01*
X-82619Y-320304D01*
X-82705Y-321704D01*
X-82825Y-323102D01*
X-82980Y-324496D01*
X-83169Y-325886D01*
X-83391Y-327270D01*
X-83648Y-328649D01*
X-83939Y-330022D01*
X-84263Y-331386D01*
X-84620Y-332743D01*
X-85011Y-334090D01*
X-85434Y-335427D01*
X-85891Y-336753D01*
X-86379Y-338068D01*
X-86900Y-339370D01*
X-87453Y-340660D01*
X-88037Y-341935D01*
X-88652Y-343195D01*
X-89298Y-344440D01*
X-89975Y-345669D01*
X-90681Y-346881D01*
X-91417Y-348075D01*
X-92182Y-349251D01*
X-92975Y-350407D01*
X-93797Y-351544D01*
X-94646Y-352660D01*
X-95522Y-353756D01*
X-96426Y-354829D01*
X-97355Y-355880D01*
X-98309Y-356907D01*
X-99289Y-357911D01*
X-100293Y-358891D01*
X-101320Y-359845D01*
X-102371Y-360774D01*
X-103444Y-361678D01*
X-104540Y-362554D01*
X-105656Y-363403D01*
X-106793Y-364225D01*
X-107949Y-365018D01*
X-109125Y-365783D01*
X-110319Y-366519D01*
X-111531Y-367225D01*
X-112760Y-367902D01*
X-114005Y-368548D01*
X-115265Y-369163D01*
X-116540Y-369747D01*
X-117830Y-370300D01*
X-119132Y-370821D01*
X-120447Y-371309D01*
X-121773Y-371766D01*
X-123110Y-372189D01*
X-124457Y-372580D01*
X-125814Y-372937D01*
X-127178Y-373261D01*
X-128551Y-373552D01*
X-129930Y-373809D01*
X-131314Y-374031D01*
X-132704Y-374220D01*
X-134098Y-374375D01*
X-135496Y-374495D01*
X-136896Y-374581D01*
X-138297Y-374633D01*
X-139700Y-374650D01*
X-141103Y-374633D01*
X-142504Y-374581D01*
X-143904Y-374495D01*
X-145302Y-374375D01*
X-146696Y-374220D01*
X-148086Y-374031D01*
X-149470Y-373809D01*
X-150849Y-373552D01*
X-152222Y-373261D01*
X-153586Y-372937D01*
X-154943Y-372580D01*
X-156290Y-372189D01*
X-157627Y-371766D01*
X-158953Y-371309D01*
X-160268Y-370821D01*
X-161570Y-370300D01*
X-162860Y-369747D01*
X-164135Y-369163D01*
X-165395Y-368548D01*
X-166640Y-367902D01*
X-167869Y-367225D01*
X-169081Y-366519D01*
X-170275Y-365783D01*
X-171451Y-365018D01*
X-172607Y-364225D01*
X-173744Y-363403D01*
X-174860Y-362554D01*
X-175956Y-361678D01*
X-177029Y-360774D01*
X-178080Y-359845D01*
X-179107Y-358891D01*
X-180111Y-357911D01*
X-181091Y-356907D01*
X-182045Y-355880D01*
X-182974Y-354829D01*
X-183878Y-353756D01*
X-184754Y-352660D01*
X-185603Y-351544D01*
X-186425Y-350407D01*
X-187218Y-349251D01*
X-187983Y-348075D01*
X-188719Y-346881D01*
X-189425Y-345669D01*
X-190102Y-344440D01*
X-190748Y-343195D01*
X-191363Y-341935D01*
X-191947Y-340660D01*
X-192500Y-339370D01*
X-193021Y-338068D01*
X-193509Y-336753D01*
X-193966Y-335427D01*
X-194389Y-334090D01*
X-194780Y-332743D01*
X-195137Y-331386D01*
X-195461Y-330022D01*
X-195752Y-328649D01*
X-196009Y-327270D01*
X-196231Y-325886D01*
X-196420Y-324496D01*
X-196575Y-323102D01*
X-196695Y-321704D01*
X-196781Y-320304D01*
X-196833Y-318903D01*
X-196850Y-317500D01*
X-201930Y-317500D02*
X-201911Y-315973D01*
X-201855Y-314447D01*
X-201761Y-312922D01*
X-201630Y-311400D01*
X-201462Y-309882D01*
X-201256Y-308369D01*
X-201014Y-306861D01*
X-200734Y-305360D01*
X-200418Y-303865D01*
X-200065Y-302379D01*
X-199676Y-300902D01*
X-199250Y-299436D01*
X-198789Y-297980D01*
X-198292Y-296535D01*
X-197760Y-295104D01*
X-197193Y-293686D01*
X-196591Y-292282D01*
X-195955Y-290893D01*
X-195285Y-289521D01*
X-194582Y-288165D01*
X-193846Y-286827D01*
X-193076Y-285507D01*
X-192275Y-284207D01*
X-191442Y-282927D01*
X-190578Y-281667D01*
X-189684Y-280430D01*
X-188759Y-279214D01*
X-187804Y-278022D01*
X-186821Y-276853D01*
X-185809Y-275709D01*
X-184770Y-274590D01*
X-183703Y-273497D01*
X-182610Y-272430D01*
X-181491Y-271391D01*
X-180347Y-270379D01*
X-179178Y-269396D01*
X-177986Y-268441D01*
X-176770Y-267516D01*
X-175533Y-266622D01*
X-174273Y-265758D01*
X-172993Y-264925D01*
X-171693Y-264124D01*
X-170373Y-263354D01*
X-169035Y-262618D01*
X-167679Y-261915D01*
X-166307Y-261245D01*
X-164918Y-260609D01*
X-163514Y-260007D01*
X-162096Y-259440D01*
X-160665Y-258908D01*
X-159220Y-258411D01*
X-157764Y-257950D01*
X-156298Y-257524D01*
X-154821Y-257135D01*
X-153335Y-256782D01*
X-151840Y-256466D01*
X-150339Y-256186D01*
X-148831Y-255944D01*
X-147318Y-255738D01*
X-145800Y-255570D01*
X-144278Y-255439D01*
X-142753Y-255345D01*
X-141227Y-255289D01*
X-139700Y-255270D01*
X-138173Y-255289D01*
X-136647Y-255345D01*
X-135122Y-255439D01*
X-133600Y-255570D01*
X-132082Y-255738D01*
X-130569Y-255944D01*
X-129061Y-256186D01*
X-127560Y-256466D01*
X-126065Y-256782D01*
X-124579Y-257135D01*
X-123102Y-257524D01*
X-121636Y-257950D01*
X-120180Y-258411D01*
X-118735Y-258908D01*
X-117304Y-259440D01*
X-115886Y-260007D01*
X-114482Y-260609D01*
X-113093Y-261245D01*
X-111721Y-261915D01*
X-110365Y-262618D01*
X-109027Y-263354D01*
X-107707Y-264124D01*
X-106407Y-264925D01*
X-105127Y-265758D01*
X-103867Y-266622D01*
X-102630Y-267516D01*
X-101414Y-268441D01*
X-100222Y-269396D01*
X-99053Y-270379D01*
X-97909Y-271391D01*
X-96790Y-272430D01*
X-95697Y-273497D01*
X-94630Y-274590D01*
X-93591Y-275709D01*
X-92579Y-276853D01*
X-91596Y-278022D01*
X-90641Y-279214D01*
X-89716Y-280430D01*
X-88822Y-281667D01*
X-87958Y-282927D01*
X-87125Y-284207D01*
X-86324Y-285507D01*
X-85554Y-286827D01*
X-84818Y-288165D01*
X-84115Y-289521D01*
X-83445Y-290893D01*
X-82809Y-292282D01*
X-82207Y-293686D01*
X-81640Y-295104D01*
X-81108Y-296535D01*
X-80611Y-297980D01*
X-80150Y-299436D01*
X-79724Y-300902D01*
X-79335Y-302379D01*
X-78982Y-303865D01*
X-78666Y-305360D01*
X-78386Y-306861D01*
X-78144Y-308369D01*
X-77938Y-309882D01*
X-77770Y-311400D01*
X-77639Y-312922D01*
X-77545Y-314447D01*
X-77489Y-315973D01*
X-77470Y-317500D01*
X-77489Y-319027D01*
X-77545Y-320553D01*
X-77639Y-322078D01*
X-77770Y-323600D01*
X-77938Y-325118D01*
X-78144Y-326631D01*
X-78386Y-328139D01*
X-78666Y-329640D01*
X-78982Y-331135D01*
X-79335Y-332621D01*
X-79724Y-334098D01*
X-80150Y-335564D01*
X-80611Y-337020D01*
X-81108Y-338465D01*
X-81640Y-339896D01*
X-82207Y-341314D01*
X-82809Y-342718D01*
X-83445Y-344107D01*
X-84115Y-345479D01*
X-84818Y-346835D01*
X-85554Y-348173D01*
X-86324Y-349493D01*
X-87125Y-350793D01*
X-87958Y-352073D01*
X-88822Y-353333D01*
X-89716Y-354570D01*
X-90641Y-355786D01*
X-91596Y-356978D01*
X-92579Y-358147D01*
X-93591Y-359291D01*
X-94630Y-360410D01*
X-95697Y-361503D01*
X-96790Y-362570D01*
X-97909Y-363609D01*
X-99053Y-364621D01*
X-100222Y-365604D01*
X-101414Y-366559D01*
X-102630Y-367484D01*
X-103867Y-368378D01*
X-105127Y-369242D01*
X-106407Y-370075D01*
X-107707Y-370876D01*
X-109027Y-371646D01*
X-110365Y-372382D01*
X-111721Y-373085D01*
X-113093Y-373755D01*
X-114482Y-374391D01*
X-115886Y-374993D01*
X-117304Y-375560D01*
X-118735Y-376092D01*
X-120180Y-376589D01*
X-121636Y-377050D01*
X-123102Y-377476D01*
X-124579Y-377865D01*
X-126065Y-378218D01*
X-127560Y-378534D01*
X-129061Y-378814D01*
X-130569Y-379056D01*
X-132082Y-379262D01*
X-133600Y-379430D01*
X-135122Y-379561D01*
X-136647Y-379655D01*
X-138173Y-379711D01*
X-139700Y-379730D01*
X-141227Y-379711D01*
X-142753Y-379655D01*
X-144278Y-379561D01*
X-145800Y-379430D01*
X-147318Y-379262D01*
X-148831Y-379056D01*
X-150339Y-378814D01*
X-151840Y-378534D01*
X-153335Y-378218D01*
X-154821Y-377865D01*
X-156298Y-377476D01*
X-157764Y-377050D01*
X-159220Y-376589D01*
X-160665Y-376092D01*
X-162096Y-375560D01*
X-163514Y-374993D01*
X-164918Y-374391D01*
X-166307Y-373755D01*
X-167679Y-373085D01*
X-169035Y-372382D01*
X-170373Y-371646D01*
X-171693Y-370876D01*
X-172993Y-370075D01*
X-174273Y-369242D01*
X-175533Y-368378D01*
X-176770Y-367484D01*
X-177986Y-366559D01*
X-179178Y-365604D01*
X-180347Y-364621D01*
X-181491Y-363609D01*
X-182610Y-362570D01*
X-183703Y-361503D01*
X-184770Y-360410D01*
X-185809Y-359291D01*
X-186821Y-358147D01*
X-187804Y-356978D01*
X-188759Y-355786D01*
X-189684Y-354570D01*
X-190578Y-353333D01*
X-191442Y-352073D01*
X-192275Y-350793D01*
X-193076Y-349493D01*
X-193846Y-348173D01*
X-194582Y-346835D01*
X-195285Y-345479D01*
X-195955Y-344107D01*
X-196591Y-342718D01*
X-197193Y-341314D01*
X-197760Y-339896D01*
X-198292Y-338465D01*
X-198789Y-337020D01*
X-199250Y-335564D01*
X-199676Y-334098D01*
X-200065Y-332621D01*
X-200418Y-331135D01*
X-200734Y-329640D01*
X-201014Y-328139D01*
X-201256Y-326631D01*
X-201462Y-325118D01*
X-201630Y-323600D01*
X-201761Y-322078D01*
X-201855Y-320553D01*
X-201911Y-319027D01*
X-201930Y-317500D01*
X-149860Y-317500D02*
X-149857Y-317251D01*
X-149848Y-317001D01*
X-149832Y-316753D01*
X-149811Y-316504D01*
X-149784Y-316256D01*
X-149750Y-316009D01*
X-149710Y-315763D01*
X-149665Y-315518D01*
X-149613Y-315274D01*
X-149556Y-315031D01*
X-149492Y-314790D01*
X-149423Y-314551D01*
X-149347Y-314313D01*
X-149266Y-314077D01*
X-149179Y-313843D01*
X-149087Y-313612D01*
X-148988Y-313383D01*
X-148885Y-313156D01*
X-148775Y-312932D01*
X-148660Y-312711D01*
X-148540Y-312492D01*
X-148415Y-312277D01*
X-148284Y-312064D01*
X-148148Y-311855D01*
X-148007Y-311650D01*
X-147861Y-311448D01*
X-147710Y-311249D01*
X-147554Y-311055D01*
X-147393Y-310864D01*
X-147228Y-310677D01*
X-147058Y-310494D01*
X-146884Y-310316D01*
X-146706Y-310142D01*
X-146523Y-309972D01*
X-146336Y-309807D01*
X-146145Y-309646D01*
X-145951Y-309490D01*
X-145752Y-309339D01*
X-145550Y-309193D01*
X-145345Y-309052D01*
X-145136Y-308916D01*
X-144923Y-308785D01*
X-144708Y-308660D01*
X-144489Y-308540D01*
X-144268Y-308425D01*
X-144044Y-308315D01*
X-143817Y-308212D01*
X-143588Y-308113D01*
X-143357Y-308021D01*
X-143123Y-307934D01*
X-142887Y-307853D01*
X-142649Y-307777D01*
X-142410Y-307708D01*
X-142169Y-307644D01*
X-141926Y-307587D01*
X-141682Y-307535D01*
X-141437Y-307490D01*
X-141191Y-307450D01*
X-140944Y-307416D01*
X-140696Y-307389D01*
X-140447Y-307368D01*
X-140199Y-307352D01*
X-139949Y-307343D01*
X-139700Y-307340D01*
X-139451Y-307343D01*
X-139201Y-307352D01*
X-138953Y-307368D01*
X-138704Y-307389D01*
X-138456Y-307416D01*
X-138209Y-307450D01*
X-137963Y-307490D01*
X-137718Y-307535D01*
X-137474Y-307587D01*
X-137231Y-307644D01*
X-136990Y-307708D01*
X-136751Y-307777D01*
X-136513Y-307853D01*
X-136277Y-307934D01*
X-136043Y-308021D01*
X-135812Y-308113D01*
X-135583Y-308212D01*
X-135356Y-308315D01*
X-135132Y-308425D01*
X-134911Y-308540D01*
X-134692Y-308660D01*
X-134477Y-308785D01*
X-134264Y-308916D01*
X-134055Y-309052D01*
X-133850Y-309193D01*
X-133648Y-309339D01*
X-133449Y-309490D01*
X-133255Y-309646D01*
X-133064Y-309807D01*
X-132877Y-309972D01*
X-132694Y-310142D01*
X-132516Y-310316D01*
X-132342Y-310494D01*
X-132172Y-310677D01*
X-132007Y-310864D01*
X-131846Y-311055D01*
X-131690Y-311249D01*
X-131539Y-311448D01*
X-131393Y-311650D01*
X-131252Y-311855D01*
X-131116Y-312064D01*
X-130985Y-312277D01*
X-130860Y-312492D01*
X-130740Y-312711D01*
X-130625Y-312932D01*
X-130515Y-313156D01*
X-130412Y-313383D01*
X-130313Y-313612D01*
X-130221Y-313843D01*
X-130134Y-314077D01*
X-130053Y-314313D01*
X-129977Y-314551D01*
X-129908Y-314790D01*
X-129844Y-315031D01*
X-129787Y-315274D01*
X-129735Y-315518D01*
X-129690Y-315763D01*
X-129650Y-316009D01*
X-129616Y-316256D01*
X-129589Y-316504D01*
X-129568Y-316753D01*
X-129552Y-317001D01*
X-129543Y-317251D01*
X-129540Y-317500D01*
X-129543Y-317749D01*
X-129552Y-317999D01*
X-129568Y-318247D01*
X-129589Y-318496D01*
X-129616Y-318744D01*
X-129650Y-318991D01*
X-129690Y-319237D01*
X-129735Y-319482D01*
X-129787Y-319726D01*
X-129844Y-319969D01*
X-129908Y-320210D01*
X-129977Y-320449D01*
X-130053Y-320687D01*
X-130134Y-320923D01*
X-130221Y-321157D01*
X-130313Y-321388D01*
X-130412Y-321617D01*
X-130515Y-321844D01*
X-130625Y-322068D01*
X-130740Y-322289D01*
X-130860Y-322508D01*
X-130985Y-322723D01*
X-131116Y-322936D01*
X-131252Y-323145D01*
X-131393Y-323350D01*
X-131539Y-323552D01*
X-131690Y-323751D01*
X-131846Y-323945D01*
X-132007Y-324136D01*
X-132172Y-324323D01*
X-132342Y-324506D01*
X-132516Y-324684D01*
X-132694Y-324858D01*
X-132877Y-325028D01*
X-133064Y-325193D01*
X-133255Y-325354D01*
X-133449Y-325510D01*
X-133648Y-325661D01*
X-133850Y-325807D01*
X-134055Y-325948D01*
X-134264Y-326084D01*
X-134477Y-326215D01*
X-134692Y-326340D01*
X-134911Y-326460D01*
X-135132Y-326575D01*
X-135356Y-326685D01*
X-135583Y-326788D01*
X-135812Y-326887D01*
X-136043Y-326979D01*
X-136277Y-327066D01*
X-136513Y-327147D01*
X-136751Y-327223D01*
X-136990Y-327292D01*
X-137231Y-327356D01*
X-137474Y-327413D01*
X-137718Y-327465D01*
X-137963Y-327510D01*
X-138209Y-327550D01*
X-138456Y-327584D01*
X-138704Y-327611D01*
X-138953Y-327632D01*
X-139201Y-327648D01*
X-139451Y-327657D01*
X-139700Y-327660D01*
X-139949Y-327657D01*
X-140199Y-327648D01*
X-140447Y-327632D01*
X-140696Y-327611D01*
X-140944Y-327584D01*
X-141191Y-327550D01*
X-141437Y-327510D01*
X-141682Y-327465D01*
X-141926Y-327413D01*
X-142169Y-327356D01*
X-142410Y-327292D01*
X-142649Y-327223D01*
X-142887Y-327147D01*
X-143123Y-327066D01*
X-143357Y-326979D01*
X-143588Y-326887D01*
X-143817Y-326788D01*
X-144044Y-326685D01*
X-144268Y-326575D01*
X-144489Y-326460D01*
X-144708Y-326340D01*
X-144923Y-326215D01*
X-145136Y-326084D01*
X-145345Y-325948D01*
X-145550Y-325807D01*
X-145752Y-325661D01*
X-145951Y-325510D01*
X-146145Y-325354D01*
X-146336Y-325193D01*
X-146523Y-325028D01*
X-146706Y-324858D01*
X-146884Y-324684D01*
X-147058Y-324506D01*
X-147228Y-324323D01*
X-147393Y-324136D01*
X-147554Y-323945D01*
X-147710Y-323751D01*
X-147861Y-323552D01*
X-148007Y-323350D01*
X-148148Y-323145D01*
X-148284Y-322936D01*
X-148415Y-322723D01*
X-148540Y-322508D01*
X-148660Y-322289D01*
X-148775Y-322068D01*
X-148885Y-321844D01*
X-148988Y-321617D01*
X-149087Y-321388D01*
X-149179Y-321157D01*
X-149266Y-320923D01*
X-149347Y-320687D01*
X-149423Y-320449D01*
X-149492Y-320210D01*
X-149556Y-319969D01*
X-149613Y-319726D01*
X-149665Y-319482D01*
X-149710Y-319237D01*
X-149750Y-318991D01*
X-149784Y-318744D01*
X-149811Y-318496D01*
X-149832Y-318247D01*
X-149848Y-317999D01*
X-149857Y-317749D01*
X-149860Y-317500D01*
D10*
X-131064Y-390525D02*
X-131066Y-390625D01*
X-131072Y-390724D01*
X-131082Y-390824D01*
X-131095Y-390922D01*
X-131113Y-391021D01*
X-131134Y-391118D01*
X-131159Y-391214D01*
X-131188Y-391310D01*
X-131221Y-391404D01*
X-131257Y-391497D01*
X-131297Y-391588D01*
X-131341Y-391678D01*
X-131388Y-391766D01*
X-131438Y-391852D01*
X-131492Y-391936D01*
X-131549Y-392018D01*
X-131609Y-392097D01*
X-131673Y-392175D01*
X-131739Y-392249D01*
X-131808Y-392321D01*
X-131880Y-392390D01*
X-131954Y-392456D01*
X-132032Y-392520D01*
X-132111Y-392580D01*
X-132193Y-392637D01*
X-132277Y-392691D01*
X-132363Y-392741D01*
X-132451Y-392788D01*
X-132541Y-392832D01*
X-132632Y-392872D01*
X-132725Y-392908D01*
X-132819Y-392941D01*
X-132915Y-392970D01*
X-133011Y-392995D01*
X-133108Y-393016D01*
X-133207Y-393034D01*
X-133305Y-393047D01*
X-133405Y-393057D01*
X-133504Y-393063D01*
X-133604Y-393065D01*
X-133745Y-393063D01*
X-133886Y-393058D01*
X-134027Y-393048D01*
X-134168Y-393035D01*
X-134308Y-393019D01*
X-134448Y-392998D01*
X-134587Y-392974D01*
X-134726Y-392946D01*
X-134863Y-392915D01*
X-135000Y-392880D01*
X-135136Y-392842D01*
X-135271Y-392800D01*
X-135404Y-392754D01*
X-135537Y-392705D01*
X-135668Y-392652D01*
X-135797Y-392596D01*
X-135926Y-392537D01*
X-136052Y-392474D01*
X-136177Y-392408D01*
X-136300Y-392339D01*
X-136421Y-392266D01*
X-136540Y-392190D01*
X-136658Y-392111D01*
X-136773Y-392030D01*
X-136885Y-391945D01*
X-136996Y-391857D01*
X-137104Y-391766D01*
X-137210Y-391673D01*
X-137313Y-391576D01*
X-137414Y-391477D01*
X-137097Y-384175D02*
X-137095Y-384075D01*
X-137089Y-383976D01*
X-137079Y-383876D01*
X-137066Y-383778D01*
X-137048Y-383679D01*
X-137027Y-383582D01*
X-137002Y-383486D01*
X-136973Y-383390D01*
X-136940Y-383296D01*
X-136904Y-383203D01*
X-136864Y-383112D01*
X-136820Y-383022D01*
X-136773Y-382934D01*
X-136723Y-382848D01*
X-136669Y-382764D01*
X-136612Y-382682D01*
X-136552Y-382603D01*
X-136488Y-382525D01*
X-136422Y-382451D01*
X-136353Y-382379D01*
X-136281Y-382310D01*
X-136207Y-382244D01*
X-136129Y-382180D01*
X-136050Y-382120D01*
X-135968Y-382063D01*
X-135884Y-382009D01*
X-135798Y-381959D01*
X-135710Y-381912D01*
X-135620Y-381868D01*
X-135529Y-381828D01*
X-135436Y-381792D01*
X-135342Y-381759D01*
X-135246Y-381730D01*
X-135150Y-381705D01*
X-135053Y-381684D01*
X-134954Y-381666D01*
X-134856Y-381653D01*
X-134756Y-381643D01*
X-134657Y-381637D01*
X-134557Y-381635D01*
X-134424Y-381637D01*
X-134291Y-381642D01*
X-134158Y-381652D01*
X-134025Y-381665D01*
X-133893Y-381682D01*
X-133761Y-381702D01*
X-133630Y-381726D01*
X-133500Y-381754D01*
X-133370Y-381785D01*
X-133242Y-381820D01*
X-133114Y-381859D01*
X-132988Y-381901D01*
X-132863Y-381947D01*
X-132739Y-381996D01*
X-132616Y-382048D01*
X-132495Y-382104D01*
X-132376Y-382164D01*
X-132258Y-382226D01*
X-132143Y-382292D01*
X-132029Y-382361D01*
X-131917Y-382434D01*
X-131807Y-382509D01*
X-131699Y-382588D01*
X-135827Y-386398D02*
X-135911Y-386346D01*
X-135994Y-386291D01*
X-136074Y-386232D01*
X-136152Y-386171D01*
X-136227Y-386107D01*
X-136300Y-386039D01*
X-136371Y-385969D01*
X-136438Y-385897D01*
X-136503Y-385822D01*
X-136565Y-385744D01*
X-136624Y-385664D01*
X-136680Y-385582D01*
X-136732Y-385498D01*
X-136781Y-385412D01*
X-136827Y-385324D01*
X-136870Y-385234D01*
X-136909Y-385143D01*
X-136944Y-385050D01*
X-136976Y-384956D01*
X-137004Y-384861D01*
X-137029Y-384765D01*
X-137049Y-384668D01*
X-137067Y-384570D01*
X-137080Y-384472D01*
X-137089Y-384373D01*
X-137095Y-384274D01*
X-137097Y-384175D01*
X-132334Y-388302D02*
X-132250Y-388354D01*
X-132167Y-388409D01*
X-132087Y-388468D01*
X-132009Y-388529D01*
X-131934Y-388593D01*
X-131861Y-388661D01*
X-131790Y-388731D01*
X-131723Y-388803D01*
X-131658Y-388878D01*
X-131596Y-388956D01*
X-131537Y-389036D01*
X-131481Y-389118D01*
X-131429Y-389202D01*
X-131380Y-389288D01*
X-131334Y-389376D01*
X-131291Y-389466D01*
X-131252Y-389557D01*
X-131217Y-389650D01*
X-131185Y-389744D01*
X-131157Y-389839D01*
X-131132Y-389935D01*
X-131112Y-390032D01*
X-131094Y-390130D01*
X-131081Y-390228D01*
X-131072Y-390327D01*
X-131066Y-390426D01*
X-131064Y-390525D01*
X-132334Y-388303D02*
X-135827Y-386398D01*
X-125794Y-381635D02*
X-125794Y-393065D01*
X-125794Y-381635D02*
X-122619Y-381635D01*
X-122508Y-381637D01*
X-122398Y-381643D01*
X-122287Y-381652D01*
X-122177Y-381666D01*
X-122068Y-381683D01*
X-121959Y-381704D01*
X-121851Y-381729D01*
X-121744Y-381758D01*
X-121638Y-381790D01*
X-121533Y-381826D01*
X-121430Y-381866D01*
X-121328Y-381909D01*
X-121227Y-381956D01*
X-121128Y-382007D01*
X-121031Y-382060D01*
X-120937Y-382117D01*
X-120844Y-382178D01*
X-120753Y-382241D01*
X-120664Y-382308D01*
X-120578Y-382378D01*
X-120495Y-382451D01*
X-120413Y-382526D01*
X-120335Y-382604D01*
X-120260Y-382686D01*
X-120187Y-382769D01*
X-120117Y-382855D01*
X-120050Y-382944D01*
X-119987Y-383035D01*
X-119926Y-383128D01*
X-119869Y-383223D01*
X-119816Y-383319D01*
X-119765Y-383418D01*
X-119718Y-383519D01*
X-119675Y-383621D01*
X-119635Y-383724D01*
X-119599Y-383829D01*
X-119567Y-383935D01*
X-119538Y-384042D01*
X-119513Y-384150D01*
X-119492Y-384259D01*
X-119475Y-384368D01*
X-119461Y-384478D01*
X-119452Y-384589D01*
X-119446Y-384699D01*
X-119444Y-384810D01*
X-119446Y-384921D01*
X-119452Y-385031D01*
X-119461Y-385142D01*
X-119475Y-385252D01*
X-119492Y-385361D01*
X-119513Y-385470D01*
X-119538Y-385578D01*
X-119567Y-385685D01*
X-119599Y-385791D01*
X-119635Y-385896D01*
X-119675Y-385999D01*
X-119718Y-386101D01*
X-119765Y-386202D01*
X-119816Y-386301D01*
X-119869Y-386398D01*
X-119926Y-386492D01*
X-119987Y-386585D01*
X-120050Y-386676D01*
X-120117Y-386765D01*
X-120187Y-386851D01*
X-120260Y-386934D01*
X-120335Y-387016D01*
X-120413Y-387094D01*
X-120495Y-387169D01*
X-120578Y-387242D01*
X-120664Y-387312D01*
X-120753Y-387379D01*
X-120844Y-387442D01*
X-120937Y-387503D01*
X-121032Y-387560D01*
X-121128Y-387613D01*
X-121227Y-387664D01*
X-121328Y-387711D01*
X-121430Y-387754D01*
X-121533Y-387794D01*
X-121638Y-387830D01*
X-121744Y-387862D01*
X-121851Y-387891D01*
X-121959Y-387916D01*
X-122068Y-387937D01*
X-122177Y-387954D01*
X-122287Y-387968D01*
X-122398Y-387977D01*
X-122508Y-387983D01*
X-122619Y-387985D01*
X-125794Y-387985D01*
X-114935Y-384175D02*
X-111760Y-381635D01*
X-111760Y-393065D01*
X-114935Y-393065D02*
X-108585Y-393065D01*
X-228600Y-71120D02*
X-279400Y-71120D01*
X-279400Y-88900D01*
X-279400Y-104140D01*
X-279400Y-114300D02*
X-279400Y-129540D01*
X-279400Y-147320D01*
X-228600Y-147320D01*
X-228600Y-71120D01*
X-274320Y-88900D02*
X-279400Y-88900D01*
X-279400Y-104140D02*
X-274320Y-104140D01*
X-279400Y-104140D02*
X-279400Y-114300D01*
X-274320Y-114300D01*
X-274320Y-129540D02*
X-279400Y-129540D01*
X-274320Y-104140D02*
X-274320Y-88900D01*
X-274320Y-114300D02*
X-274320Y-129540D01*
D11*
X-225806Y-132414D02*
X-221460Y-132414D01*
X-221390Y-132416D01*
X-221321Y-132422D01*
X-221252Y-132432D01*
X-221184Y-132445D01*
X-221116Y-132463D01*
X-221050Y-132484D01*
X-220985Y-132509D01*
X-220921Y-132537D01*
X-220859Y-132569D01*
X-220799Y-132604D01*
X-220741Y-132643D01*
X-220686Y-132685D01*
X-220632Y-132730D01*
X-220582Y-132778D01*
X-220534Y-132828D01*
X-220489Y-132882D01*
X-220447Y-132937D01*
X-220408Y-132995D01*
X-220373Y-133055D01*
X-220341Y-133117D01*
X-220313Y-133181D01*
X-220288Y-133246D01*
X-220267Y-133312D01*
X-220249Y-133380D01*
X-220236Y-133448D01*
X-220226Y-133517D01*
X-220220Y-133586D01*
X-220218Y-133656D01*
X-220218Y-134277D01*
X-220218Y-128192D02*
X-220220Y-128122D01*
X-220226Y-128053D01*
X-220236Y-127984D01*
X-220249Y-127916D01*
X-220267Y-127848D01*
X-220288Y-127782D01*
X-220313Y-127717D01*
X-220341Y-127653D01*
X-220373Y-127591D01*
X-220408Y-127531D01*
X-220447Y-127473D01*
X-220489Y-127418D01*
X-220534Y-127364D01*
X-220582Y-127314D01*
X-220632Y-127266D01*
X-220686Y-127221D01*
X-220741Y-127179D01*
X-220799Y-127140D01*
X-220859Y-127105D01*
X-220921Y-127073D01*
X-220985Y-127045D01*
X-221050Y-127020D01*
X-221116Y-126999D01*
X-221184Y-126981D01*
X-221252Y-126968D01*
X-221321Y-126958D01*
X-221390Y-126952D01*
X-221460Y-126950D01*
X-220218Y-128192D02*
X-220220Y-128291D01*
X-220225Y-128389D01*
X-220235Y-128487D01*
X-220248Y-128585D01*
X-220264Y-128682D01*
X-220284Y-128779D01*
X-220308Y-128874D01*
X-220336Y-128969D01*
X-220367Y-129063D01*
X-220401Y-129155D01*
X-220439Y-129246D01*
X-220480Y-129336D01*
X-220525Y-129424D01*
X-220573Y-129510D01*
X-220624Y-129594D01*
X-220678Y-129676D01*
X-220736Y-129757D01*
X-220796Y-129835D01*
X-220859Y-129910D01*
X-220925Y-129984D01*
X-220994Y-130054D01*
X-224564Y-129900D02*
X-224634Y-129898D01*
X-224703Y-129892D01*
X-224772Y-129882D01*
X-224840Y-129869D01*
X-224908Y-129851D01*
X-224974Y-129830D01*
X-225039Y-129805D01*
X-225103Y-129777D01*
X-225165Y-129745D01*
X-225225Y-129710D01*
X-225283Y-129671D01*
X-225338Y-129629D01*
X-225392Y-129584D01*
X-225442Y-129536D01*
X-225490Y-129486D01*
X-225535Y-129432D01*
X-225577Y-129377D01*
X-225616Y-129319D01*
X-225651Y-129259D01*
X-225683Y-129197D01*
X-225711Y-129133D01*
X-225736Y-129068D01*
X-225757Y-129002D01*
X-225775Y-128934D01*
X-225788Y-128866D01*
X-225798Y-128797D01*
X-225804Y-128728D01*
X-225806Y-128658D01*
X-225804Y-128564D01*
X-225798Y-128471D01*
X-225789Y-128378D01*
X-225776Y-128285D01*
X-225759Y-128193D01*
X-225739Y-128102D01*
X-225714Y-128011D01*
X-225687Y-127922D01*
X-225655Y-127834D01*
X-225620Y-127747D01*
X-225582Y-127661D01*
X-225540Y-127578D01*
X-225495Y-127495D01*
X-225447Y-127415D01*
X-225395Y-127337D01*
X-225340Y-127261D01*
X-223478Y-129279D02*
X-223514Y-129338D01*
X-223554Y-129394D01*
X-223597Y-129448D01*
X-223642Y-129500D01*
X-223691Y-129549D01*
X-223742Y-129595D01*
X-223795Y-129638D01*
X-223851Y-129679D01*
X-223909Y-129716D01*
X-223969Y-129751D01*
X-224030Y-129781D01*
X-224093Y-129809D01*
X-224158Y-129833D01*
X-224224Y-129853D01*
X-224291Y-129870D01*
X-224358Y-129883D01*
X-224426Y-129892D01*
X-224495Y-129898D01*
X-224564Y-129900D01*
X-222546Y-127572D02*
X-222510Y-127513D01*
X-222470Y-127457D01*
X-222427Y-127403D01*
X-222382Y-127351D01*
X-222333Y-127302D01*
X-222282Y-127256D01*
X-222229Y-127213D01*
X-222173Y-127172D01*
X-222115Y-127135D01*
X-222056Y-127100D01*
X-221994Y-127070D01*
X-221931Y-127042D01*
X-221866Y-127018D01*
X-221800Y-126998D01*
X-221733Y-126981D01*
X-221666Y-126968D01*
X-221598Y-126959D01*
X-221529Y-126953D01*
X-221460Y-126951D01*
X-222546Y-127572D02*
X-223478Y-129279D01*
X-225806Y-123565D02*
X-220218Y-123565D01*
X-225806Y-125117D02*
X-225806Y-122013D01*
X-225806Y-115363D02*
X-225804Y-115290D01*
X-225798Y-115217D01*
X-225789Y-115144D01*
X-225775Y-115073D01*
X-225758Y-115001D01*
X-225738Y-114931D01*
X-225713Y-114862D01*
X-225685Y-114795D01*
X-225654Y-114729D01*
X-225619Y-114665D01*
X-225581Y-114602D01*
X-225539Y-114542D01*
X-225495Y-114484D01*
X-225447Y-114428D01*
X-225397Y-114375D01*
X-225344Y-114325D01*
X-225288Y-114277D01*
X-225230Y-114233D01*
X-225170Y-114191D01*
X-225108Y-114153D01*
X-225043Y-114118D01*
X-224977Y-114087D01*
X-224910Y-114059D01*
X-224841Y-114034D01*
X-224771Y-114014D01*
X-224699Y-113997D01*
X-224628Y-113983D01*
X-224555Y-113974D01*
X-224482Y-113968D01*
X-224409Y-113966D01*
X-225806Y-115363D02*
X-225804Y-115447D01*
X-225798Y-115530D01*
X-225789Y-115613D01*
X-225775Y-115695D01*
X-225758Y-115777D01*
X-225736Y-115858D01*
X-225711Y-115938D01*
X-225683Y-116016D01*
X-225651Y-116094D01*
X-225615Y-116169D01*
X-225576Y-116243D01*
X-225533Y-116315D01*
X-225487Y-116385D01*
X-225438Y-116452D01*
X-225385Y-116518D01*
X-225330Y-116580D01*
X-225272Y-116640D01*
X-225211Y-116698D01*
X-225148Y-116752D01*
X-225082Y-116804D01*
X-225014Y-116852D01*
X-224943Y-116897D01*
X-224871Y-116939D01*
X-224796Y-116977D01*
X-224720Y-117012D01*
X-224643Y-117043D01*
X-224564Y-117071D01*
X-223323Y-114433D02*
X-223376Y-114379D01*
X-223433Y-114328D01*
X-223492Y-114280D01*
X-223553Y-114235D01*
X-223616Y-114194D01*
X-223682Y-114155D01*
X-223749Y-114120D01*
X-223818Y-114088D01*
X-223889Y-114060D01*
X-223960Y-114036D01*
X-224033Y-114015D01*
X-224107Y-113998D01*
X-224182Y-113984D01*
X-224257Y-113975D01*
X-224333Y-113969D01*
X-224409Y-113967D01*
X-223322Y-114432D02*
X-220218Y-117071D01*
X-220218Y-113966D01*
X-220218Y-111833D02*
X-220528Y-111833D01*
X-220528Y-111523D01*
X-220218Y-111523D01*
X-220218Y-111833D01*
X-220218Y-109390D02*
X-220218Y-107527D01*
X-220220Y-107457D01*
X-220226Y-107388D01*
X-220236Y-107319D01*
X-220249Y-107251D01*
X-220267Y-107183D01*
X-220288Y-107117D01*
X-220313Y-107052D01*
X-220341Y-106988D01*
X-220373Y-106926D01*
X-220408Y-106866D01*
X-220447Y-106808D01*
X-220489Y-106753D01*
X-220534Y-106699D01*
X-220582Y-106649D01*
X-220632Y-106601D01*
X-220686Y-106556D01*
X-220741Y-106514D01*
X-220799Y-106475D01*
X-220859Y-106440D01*
X-220921Y-106408D01*
X-220985Y-106380D01*
X-221050Y-106355D01*
X-221116Y-106334D01*
X-221184Y-106316D01*
X-221252Y-106303D01*
X-221321Y-106293D01*
X-221390Y-106287D01*
X-221460Y-106285D01*
X-222081Y-106285D01*
X-222151Y-106287D01*
X-222220Y-106293D01*
X-222289Y-106303D01*
X-222357Y-106316D01*
X-222425Y-106334D01*
X-222491Y-106355D01*
X-222556Y-106380D01*
X-222620Y-106408D01*
X-222682Y-106440D01*
X-222742Y-106475D01*
X-222800Y-106514D01*
X-222855Y-106556D01*
X-222909Y-106601D01*
X-222959Y-106649D01*
X-223007Y-106699D01*
X-223052Y-106753D01*
X-223094Y-106808D01*
X-223133Y-106866D01*
X-223168Y-106926D01*
X-223200Y-106988D01*
X-223228Y-107052D01*
X-223253Y-107117D01*
X-223274Y-107183D01*
X-223292Y-107251D01*
X-223305Y-107319D01*
X-223315Y-107388D01*
X-223321Y-107457D01*
X-223323Y-107527D01*
X-223322Y-107527D02*
X-223322Y-109390D01*
X-225806Y-109390D01*
X-225806Y-106285D01*
X-225806Y-102662D02*
X-221460Y-103903D01*
X-221460Y-100799D01*
X-222702Y-101730D02*
X-220218Y-101730D01*
X-220218Y-98727D02*
X-225806Y-95002D01*
X-225806Y-98727D02*
X-220218Y-95002D01*
X-224409Y-89826D02*
X-224482Y-89828D01*
X-224555Y-89834D01*
X-224628Y-89843D01*
X-224699Y-89857D01*
X-224771Y-89874D01*
X-224841Y-89894D01*
X-224910Y-89919D01*
X-224977Y-89947D01*
X-225043Y-89978D01*
X-225108Y-90013D01*
X-225170Y-90051D01*
X-225230Y-90093D01*
X-225288Y-90137D01*
X-225344Y-90185D01*
X-225397Y-90235D01*
X-225447Y-90288D01*
X-225495Y-90344D01*
X-225539Y-90402D01*
X-225581Y-90462D01*
X-225619Y-90525D01*
X-225654Y-90589D01*
X-225685Y-90655D01*
X-225713Y-90722D01*
X-225738Y-90791D01*
X-225758Y-90861D01*
X-225775Y-90933D01*
X-225789Y-91004D01*
X-225798Y-91077D01*
X-225804Y-91150D01*
X-225806Y-91223D01*
X-225804Y-91307D01*
X-225798Y-91390D01*
X-225789Y-91473D01*
X-225775Y-91555D01*
X-225758Y-91637D01*
X-225736Y-91718D01*
X-225711Y-91798D01*
X-225683Y-91876D01*
X-225651Y-91954D01*
X-225615Y-92029D01*
X-225576Y-92103D01*
X-225533Y-92175D01*
X-225487Y-92245D01*
X-225438Y-92312D01*
X-225385Y-92378D01*
X-225330Y-92440D01*
X-225272Y-92500D01*
X-225211Y-92558D01*
X-225148Y-92612D01*
X-225082Y-92664D01*
X-225014Y-92712D01*
X-224943Y-92757D01*
X-224871Y-92799D01*
X-224796Y-92837D01*
X-224720Y-92872D01*
X-224643Y-92903D01*
X-224564Y-92931D01*
X-223323Y-90293D02*
X-223376Y-90239D01*
X-223433Y-90188D01*
X-223492Y-90140D01*
X-223553Y-90095D01*
X-223616Y-90054D01*
X-223682Y-90015D01*
X-223749Y-89980D01*
X-223818Y-89948D01*
X-223889Y-89920D01*
X-223960Y-89896D01*
X-224033Y-89875D01*
X-224107Y-89858D01*
X-224182Y-89844D01*
X-224257Y-89835D01*
X-224333Y-89829D01*
X-224409Y-89827D01*
X-223322Y-90292D02*
X-220218Y-92931D01*
X-220218Y-89826D01*
X-220218Y-87178D02*
X-225806Y-87178D01*
X-225806Y-85626D01*
X-225804Y-85549D01*
X-225798Y-85471D01*
X-225789Y-85395D01*
X-225775Y-85318D01*
X-225758Y-85243D01*
X-225737Y-85169D01*
X-225712Y-85095D01*
X-225684Y-85023D01*
X-225652Y-84953D01*
X-225617Y-84884D01*
X-225578Y-84817D01*
X-225536Y-84752D01*
X-225491Y-84689D01*
X-225443Y-84628D01*
X-225392Y-84570D01*
X-225338Y-84515D01*
X-225281Y-84462D01*
X-225222Y-84413D01*
X-225160Y-84366D01*
X-225096Y-84322D01*
X-225030Y-84282D01*
X-224962Y-84245D01*
X-224892Y-84211D01*
X-224821Y-84181D01*
X-224748Y-84155D01*
X-224674Y-84132D01*
X-224599Y-84113D01*
X-224524Y-84098D01*
X-224447Y-84086D01*
X-224370Y-84078D01*
X-224293Y-84074D01*
X-224215Y-84074D01*
X-224138Y-84078D01*
X-224061Y-84086D01*
X-223984Y-84098D01*
X-223909Y-84113D01*
X-223834Y-84132D01*
X-223760Y-84155D01*
X-223687Y-84181D01*
X-223616Y-84211D01*
X-223546Y-84245D01*
X-223478Y-84282D01*
X-223412Y-84322D01*
X-223348Y-84366D01*
X-223286Y-84413D01*
X-223227Y-84462D01*
X-223170Y-84515D01*
X-223116Y-84570D01*
X-223065Y-84628D01*
X-223017Y-84689D01*
X-222972Y-84752D01*
X-222930Y-84817D01*
X-222891Y-84884D01*
X-222856Y-84953D01*
X-222824Y-85023D01*
X-222796Y-85095D01*
X-222771Y-85169D01*
X-222750Y-85243D01*
X-222733Y-85318D01*
X-222719Y-85395D01*
X-222710Y-85471D01*
X-222704Y-85549D01*
X-222702Y-85626D01*
X-222702Y-87178D01*
D15*
X-16510Y-251460D02*
X-16410Y-251458D01*
X-16311Y-251452D01*
X-16211Y-251442D01*
X-16113Y-251429D01*
X-16014Y-251411D01*
X-15917Y-251390D01*
X-15821Y-251365D01*
X-15725Y-251336D01*
X-15631Y-251303D01*
X-15538Y-251267D01*
X-15447Y-251227D01*
X-15357Y-251183D01*
X-15269Y-251136D01*
X-15183Y-251086D01*
X-15099Y-251032D01*
X-15017Y-250975D01*
X-14938Y-250915D01*
X-14860Y-250851D01*
X-14786Y-250785D01*
X-14714Y-250716D01*
X-14645Y-250644D01*
X-14579Y-250570D01*
X-14515Y-250492D01*
X-14455Y-250413D01*
X-14398Y-250331D01*
X-14344Y-250247D01*
X-14294Y-250161D01*
X-14247Y-250073D01*
X-14203Y-249983D01*
X-14163Y-249892D01*
X-14127Y-249799D01*
X-14094Y-249705D01*
X-14065Y-249609D01*
X-14040Y-249513D01*
X-14019Y-249416D01*
X-14001Y-249317D01*
X-13988Y-249219D01*
X-13978Y-249119D01*
X-13972Y-249020D01*
X-13970Y-248920D01*
X-13970Y-233680D02*
X-13972Y-233580D01*
X-13978Y-233481D01*
X-13988Y-233381D01*
X-14001Y-233283D01*
X-14019Y-233184D01*
X-14040Y-233087D01*
X-14065Y-232991D01*
X-14094Y-232895D01*
X-14127Y-232801D01*
X-14163Y-232708D01*
X-14203Y-232617D01*
X-14247Y-232527D01*
X-14294Y-232439D01*
X-14344Y-232353D01*
X-14398Y-232269D01*
X-14455Y-232187D01*
X-14515Y-232108D01*
X-14579Y-232030D01*
X-14645Y-231956D01*
X-14714Y-231884D01*
X-14786Y-231815D01*
X-14860Y-231749D01*
X-14938Y-231685D01*
X-15017Y-231625D01*
X-15099Y-231568D01*
X-15183Y-231514D01*
X-15269Y-231464D01*
X-15357Y-231417D01*
X-15447Y-231373D01*
X-15538Y-231333D01*
X-15631Y-231297D01*
X-15725Y-231264D01*
X-15821Y-231235D01*
X-15917Y-231210D01*
X-16014Y-231189D01*
X-16113Y-231171D01*
X-16211Y-231158D01*
X-16311Y-231148D01*
X-16410Y-231142D01*
X-16510Y-231140D01*
X-62230Y-231140D02*
X-62330Y-231142D01*
X-62429Y-231148D01*
X-62529Y-231158D01*
X-62627Y-231171D01*
X-62726Y-231189D01*
X-62823Y-231210D01*
X-62919Y-231235D01*
X-63015Y-231264D01*
X-63109Y-231297D01*
X-63202Y-231333D01*
X-63293Y-231373D01*
X-63383Y-231417D01*
X-63471Y-231464D01*
X-63557Y-231514D01*
X-63641Y-231568D01*
X-63723Y-231625D01*
X-63802Y-231685D01*
X-63880Y-231749D01*
X-63954Y-231815D01*
X-64026Y-231884D01*
X-64095Y-231956D01*
X-64161Y-232030D01*
X-64225Y-232108D01*
X-64285Y-232187D01*
X-64342Y-232269D01*
X-64396Y-232353D01*
X-64446Y-232439D01*
X-64493Y-232527D01*
X-64537Y-232617D01*
X-64577Y-232708D01*
X-64613Y-232801D01*
X-64646Y-232895D01*
X-64675Y-232991D01*
X-64700Y-233087D01*
X-64721Y-233184D01*
X-64739Y-233283D01*
X-64752Y-233381D01*
X-64762Y-233481D01*
X-64768Y-233580D01*
X-64770Y-233680D01*
X-64770Y-248920D02*
X-64768Y-249020D01*
X-64762Y-249119D01*
X-64752Y-249219D01*
X-64739Y-249317D01*
X-64721Y-249416D01*
X-64700Y-249513D01*
X-64675Y-249609D01*
X-64646Y-249705D01*
X-64613Y-249799D01*
X-64577Y-249892D01*
X-64537Y-249983D01*
X-64493Y-250073D01*
X-64446Y-250161D01*
X-64396Y-250247D01*
X-64342Y-250331D01*
X-64285Y-250413D01*
X-64225Y-250492D01*
X-64161Y-250570D01*
X-64095Y-250644D01*
X-64026Y-250716D01*
X-63954Y-250785D01*
X-63880Y-250851D01*
X-63802Y-250915D01*
X-63723Y-250975D01*
X-63641Y-251032D01*
X-63557Y-251086D01*
X-63471Y-251136D01*
X-63383Y-251183D01*
X-63293Y-251227D01*
X-63202Y-251267D01*
X-63109Y-251303D01*
X-63015Y-251336D01*
X-62919Y-251365D01*
X-62823Y-251390D01*
X-62726Y-251411D01*
X-62627Y-251429D01*
X-62529Y-251442D01*
X-62429Y-251452D01*
X-62330Y-251458D01*
X-62230Y-251460D01*
X-13970Y-248920D02*
X-13970Y-233680D01*
X-16510Y-251460D02*
X-20320Y-251460D01*
X-21590Y-250190D01*
X-20320Y-231140D02*
X-16510Y-231140D01*
X-20320Y-231140D02*
X-21590Y-232410D01*
X-57150Y-250190D02*
X-58420Y-251460D01*
X-57150Y-250190D02*
X-21590Y-250190D01*
X-57150Y-232410D02*
X-58420Y-231140D01*
X-57150Y-232410D02*
X-21590Y-232410D01*
X-58420Y-251460D02*
X-62230Y-251460D01*
X-62230Y-231140D02*
X-58420Y-231140D01*
X-64770Y-233680D02*
X-64770Y-248920D01*
D16*
X-66675Y-241300D03*
X-12065Y-241300D03*
D17*
X-28267Y-254762D02*
X-28267Y-263652D01*
X-28267Y-254762D02*
X-25797Y-254762D01*
X-25699Y-254764D01*
X-25601Y-254770D01*
X-25503Y-254780D01*
X-25406Y-254793D01*
X-25309Y-254811D01*
X-25213Y-254832D01*
X-25119Y-254857D01*
X-25025Y-254886D01*
X-24932Y-254918D01*
X-24841Y-254955D01*
X-24751Y-254994D01*
X-24663Y-255038D01*
X-24577Y-255085D01*
X-24492Y-255135D01*
X-24410Y-255188D01*
X-24330Y-255245D01*
X-24252Y-255305D01*
X-24177Y-255368D01*
X-24104Y-255434D01*
X-24034Y-255503D01*
X-23967Y-255574D01*
X-23902Y-255648D01*
X-23841Y-255725D01*
X-23782Y-255804D01*
X-23727Y-255885D01*
X-23675Y-255968D01*
X-23627Y-256054D01*
X-23582Y-256141D01*
X-23540Y-256230D01*
X-23502Y-256320D01*
X-23468Y-256412D01*
X-23437Y-256505D01*
X-23410Y-256600D01*
X-23387Y-256695D01*
X-23367Y-256792D01*
X-23352Y-256888D01*
X-23340Y-256986D01*
X-23332Y-257084D01*
X-23328Y-257182D01*
X-23328Y-257280D01*
X-23332Y-257378D01*
X-23340Y-257476D01*
X-23352Y-257574D01*
X-23367Y-257670D01*
X-23387Y-257767D01*
X-23410Y-257862D01*
X-23437Y-257957D01*
X-23468Y-258050D01*
X-23502Y-258142D01*
X-23540Y-258232D01*
X-23582Y-258321D01*
X-23627Y-258408D01*
X-23675Y-258494D01*
X-23727Y-258577D01*
X-23782Y-258658D01*
X-23841Y-258737D01*
X-23902Y-258814D01*
X-23967Y-258888D01*
X-24034Y-258959D01*
X-24104Y-259028D01*
X-24177Y-259094D01*
X-24252Y-259157D01*
X-24330Y-259217D01*
X-24410Y-259274D01*
X-24492Y-259327D01*
X-24577Y-259377D01*
X-24663Y-259424D01*
X-24751Y-259468D01*
X-24841Y-259507D01*
X-24932Y-259544D01*
X-25025Y-259576D01*
X-25119Y-259605D01*
X-25213Y-259630D01*
X-25309Y-259651D01*
X-25406Y-259669D01*
X-25503Y-259682D01*
X-25601Y-259692D01*
X-25699Y-259698D01*
X-25797Y-259700D01*
X-25797Y-259701D02*
X-28267Y-259701D01*
X-25303Y-259701D02*
X-23328Y-263652D01*
X-14478Y-256985D02*
X-14480Y-256893D01*
X-14486Y-256801D01*
X-14495Y-256710D01*
X-14508Y-256619D01*
X-14525Y-256529D01*
X-14546Y-256439D01*
X-14570Y-256351D01*
X-14598Y-256263D01*
X-14630Y-256177D01*
X-14665Y-256092D01*
X-14704Y-256009D01*
X-14746Y-255927D01*
X-14791Y-255847D01*
X-14840Y-255769D01*
X-14892Y-255693D01*
X-14947Y-255620D01*
X-15005Y-255548D01*
X-15065Y-255479D01*
X-15129Y-255413D01*
X-15195Y-255349D01*
X-15264Y-255289D01*
X-15336Y-255231D01*
X-15409Y-255176D01*
X-15485Y-255124D01*
X-15563Y-255075D01*
X-15643Y-255030D01*
X-15725Y-254988D01*
X-15808Y-254949D01*
X-15893Y-254914D01*
X-15979Y-254882D01*
X-16067Y-254854D01*
X-16155Y-254830D01*
X-16245Y-254809D01*
X-16335Y-254792D01*
X-16426Y-254779D01*
X-16517Y-254770D01*
X-16609Y-254764D01*
X-16701Y-254762D01*
X-16807Y-254764D01*
X-16912Y-254770D01*
X-17017Y-254780D01*
X-17122Y-254793D01*
X-17226Y-254811D01*
X-17329Y-254832D01*
X-17432Y-254857D01*
X-17534Y-254886D01*
X-17634Y-254919D01*
X-17733Y-254955D01*
X-17831Y-254995D01*
X-17927Y-255039D01*
X-18022Y-255086D01*
X-18114Y-255136D01*
X-18205Y-255190D01*
X-18294Y-255248D01*
X-18380Y-255308D01*
X-18464Y-255372D01*
X-18546Y-255438D01*
X-18626Y-255508D01*
X-18702Y-255581D01*
X-18776Y-255656D01*
X-18847Y-255734D01*
X-18915Y-255815D01*
X-18981Y-255898D01*
X-19043Y-255984D01*
X-19101Y-256071D01*
X-19157Y-256161D01*
X-19209Y-256253D01*
X-19258Y-256347D01*
X-19303Y-256442D01*
X-19345Y-256539D01*
X-19383Y-256638D01*
X-19417Y-256737D01*
X-15219Y-258714D02*
X-15150Y-258645D01*
X-15084Y-258575D01*
X-15021Y-258501D01*
X-14962Y-258425D01*
X-14905Y-258347D01*
X-14851Y-258267D01*
X-14801Y-258184D01*
X-14754Y-258100D01*
X-14711Y-258013D01*
X-14671Y-257925D01*
X-14635Y-257836D01*
X-14602Y-257745D01*
X-14573Y-257653D01*
X-14548Y-257559D01*
X-14527Y-257465D01*
X-14509Y-257370D01*
X-14496Y-257274D01*
X-14486Y-257178D01*
X-14480Y-257082D01*
X-14478Y-256985D01*
X-15219Y-258713D02*
X-19417Y-263652D01*
X-14478Y-263652D01*
D10*
X13970Y-134620D02*
X-90170Y-134620D01*
X-90170Y24130D02*
X13970Y24130D01*
X13970Y-10160D02*
X13970Y-134620D01*
X13970Y-10160D02*
X5080Y-10160D01*
X5080Y5080D01*
X13970Y5080D01*
X13970Y24130D01*
X-90170Y-10160D02*
X-90170Y-134620D01*
X-90170Y-10160D02*
X-81280Y-10160D01*
X-81280Y5080D01*
X-90170Y5080D01*
X-90170Y24130D01*
D11*
X-83820Y-128270D02*
X7620Y-128270D01*
X7620Y-45720D01*
X-83820Y-45720D01*
X-83820Y-128270D01*
D10*
X-56134Y-10160D02*
X-56129Y-9717D01*
X-56112Y-9275D01*
X-56085Y-8833D01*
X-56047Y-8392D01*
X-55998Y-7952D01*
X-55939Y-7514D01*
X-55868Y-7077D01*
X-55787Y-6642D01*
X-55696Y-6209D01*
X-55594Y-5778D01*
X-55481Y-5350D01*
X-55357Y-4925D01*
X-55224Y-4503D01*
X-55080Y-4085D01*
X-54926Y-3670D01*
X-54761Y-3259D01*
X-54587Y-2852D01*
X-54403Y-2449D01*
X-54208Y-2052D01*
X-54005Y-1659D01*
X-53791Y-1271D01*
X-53568Y-889D01*
X-53336Y-512D01*
X-53095Y-141D01*
X-52844Y224D01*
X-52585Y583D01*
X-52317Y935D01*
X-52040Y1281D01*
X-51756Y1619D01*
X-51462Y1951D01*
X-51161Y2275D01*
X-50852Y2592D01*
X-50535Y2901D01*
X-50211Y3202D01*
X-49879Y3496D01*
X-49541Y3780D01*
X-49195Y4057D01*
X-48843Y4325D01*
X-48484Y4584D01*
X-48119Y4835D01*
X-47748Y5076D01*
X-47371Y5308D01*
X-46989Y5531D01*
X-46601Y5745D01*
X-46208Y5948D01*
X-45811Y6143D01*
X-45408Y6327D01*
X-45001Y6501D01*
X-44590Y6666D01*
X-44175Y6820D01*
X-43757Y6964D01*
X-43335Y7097D01*
X-42910Y7221D01*
X-42482Y7334D01*
X-42051Y7436D01*
X-41618Y7527D01*
X-41183Y7608D01*
X-40746Y7679D01*
X-40308Y7738D01*
X-39868Y7787D01*
X-39427Y7825D01*
X-38985Y7852D01*
X-38543Y7869D01*
X-38100Y7874D01*
X-37657Y7869D01*
X-37215Y7852D01*
X-36773Y7825D01*
X-36332Y7787D01*
X-35892Y7738D01*
X-35454Y7679D01*
X-35017Y7608D01*
X-34582Y7527D01*
X-34149Y7436D01*
X-33718Y7334D01*
X-33290Y7221D01*
X-32865Y7097D01*
X-32443Y6964D01*
X-32025Y6820D01*
X-31610Y6666D01*
X-31199Y6501D01*
X-30792Y6327D01*
X-30389Y6143D01*
X-29992Y5948D01*
X-29599Y5745D01*
X-29211Y5531D01*
X-28829Y5308D01*
X-28452Y5076D01*
X-28081Y4835D01*
X-27716Y4584D01*
X-27357Y4325D01*
X-27005Y4057D01*
X-26659Y3780D01*
X-26321Y3496D01*
X-25989Y3202D01*
X-25665Y2901D01*
X-25348Y2592D01*
X-25039Y2275D01*
X-24738Y1951D01*
X-24444Y1619D01*
X-24160Y1281D01*
X-23883Y935D01*
X-23615Y583D01*
X-23356Y224D01*
X-23105Y-141D01*
X-22864Y-512D01*
X-22632Y-889D01*
X-22409Y-1271D01*
X-22195Y-1659D01*
X-21992Y-2052D01*
X-21797Y-2449D01*
X-21613Y-2852D01*
X-21439Y-3259D01*
X-21274Y-3670D01*
X-21120Y-4085D01*
X-20976Y-4503D01*
X-20843Y-4925D01*
X-20719Y-5350D01*
X-20606Y-5778D01*
X-20504Y-6209D01*
X-20413Y-6642D01*
X-20332Y-7077D01*
X-20261Y-7514D01*
X-20202Y-7952D01*
X-20153Y-8392D01*
X-20115Y-8833D01*
X-20088Y-9275D01*
X-20071Y-9717D01*
X-20066Y-10160D01*
X-20071Y-10603D01*
X-20088Y-11045D01*
X-20115Y-11487D01*
X-20153Y-11928D01*
X-20202Y-12368D01*
X-20261Y-12806D01*
X-20332Y-13243D01*
X-20413Y-13678D01*
X-20504Y-14111D01*
X-20606Y-14542D01*
X-20719Y-14970D01*
X-20843Y-15395D01*
X-20976Y-15817D01*
X-21120Y-16235D01*
X-21274Y-16650D01*
X-21439Y-17061D01*
X-21613Y-17468D01*
X-21797Y-17871D01*
X-21992Y-18268D01*
X-22195Y-18661D01*
X-22409Y-19049D01*
X-22632Y-19431D01*
X-22864Y-19808D01*
X-23105Y-20179D01*
X-23356Y-20544D01*
X-23615Y-20903D01*
X-23883Y-21255D01*
X-24160Y-21601D01*
X-24444Y-21939D01*
X-24738Y-22271D01*
X-25039Y-22595D01*
X-25348Y-22912D01*
X-25665Y-23221D01*
X-25989Y-23522D01*
X-26321Y-23816D01*
X-26659Y-24100D01*
X-27005Y-24377D01*
X-27357Y-24645D01*
X-27716Y-24904D01*
X-28081Y-25155D01*
X-28452Y-25396D01*
X-28829Y-25628D01*
X-29211Y-25851D01*
X-29599Y-26065D01*
X-29992Y-26268D01*
X-30389Y-26463D01*
X-30792Y-26647D01*
X-31199Y-26821D01*
X-31610Y-26986D01*
X-32025Y-27140D01*
X-32443Y-27284D01*
X-32865Y-27417D01*
X-33290Y-27541D01*
X-33718Y-27654D01*
X-34149Y-27756D01*
X-34582Y-27847D01*
X-35017Y-27928D01*
X-35454Y-27999D01*
X-35892Y-28058D01*
X-36332Y-28107D01*
X-36773Y-28145D01*
X-37215Y-28172D01*
X-37657Y-28189D01*
X-38100Y-28194D01*
X-38543Y-28189D01*
X-38985Y-28172D01*
X-39427Y-28145D01*
X-39868Y-28107D01*
X-40308Y-28058D01*
X-40746Y-27999D01*
X-41183Y-27928D01*
X-41618Y-27847D01*
X-42051Y-27756D01*
X-42482Y-27654D01*
X-42910Y-27541D01*
X-43335Y-27417D01*
X-43757Y-27284D01*
X-44175Y-27140D01*
X-44590Y-26986D01*
X-45001Y-26821D01*
X-45408Y-26647D01*
X-45811Y-26463D01*
X-46208Y-26268D01*
X-46601Y-26065D01*
X-46989Y-25851D01*
X-47371Y-25628D01*
X-47748Y-25396D01*
X-48119Y-25155D01*
X-48484Y-24904D01*
X-48843Y-24645D01*
X-49195Y-24377D01*
X-49541Y-24100D01*
X-49879Y-23816D01*
X-50211Y-23522D01*
X-50535Y-23221D01*
X-50852Y-22912D01*
X-51161Y-22595D01*
X-51462Y-22271D01*
X-51756Y-21939D01*
X-52040Y-21601D01*
X-52317Y-21255D01*
X-52585Y-20903D01*
X-52844Y-20544D01*
X-53095Y-20179D01*
X-53336Y-19808D01*
X-53568Y-19431D01*
X-53791Y-19049D01*
X-54005Y-18661D01*
X-54208Y-18268D01*
X-54403Y-17871D01*
X-54587Y-17468D01*
X-54761Y-17061D01*
X-54926Y-16650D01*
X-55080Y-16235D01*
X-55224Y-15817D01*
X-55357Y-15395D01*
X-55481Y-14970D01*
X-55594Y-14542D01*
X-55696Y-14111D01*
X-55787Y-13678D01*
X-55868Y-13243D01*
X-55939Y-12806D01*
X-55998Y-12368D01*
X-56047Y-11928D01*
X-56085Y-11487D01*
X-56112Y-11045D01*
X-56129Y-10603D01*
X-56134Y-10160D01*
X-79036Y-33909D02*
X-81915Y-42545D01*
X-76158Y-42545D02*
X-79036Y-33909D01*
X-76877Y-40386D02*
X-81195Y-40386D01*
X-72520Y-35828D02*
X-70121Y-33909D01*
X-70121Y-42545D01*
X-72520Y-42545D02*
X-67722Y-42545D01*
X-63604Y-34869D02*
X-63604Y-33909D01*
X-58807Y-33909D01*
X-61206Y-42545D01*
X-55249Y-42545D02*
X-54769Y-42545D01*
X-55249Y-42545D02*
X-55249Y-42065D01*
X-54769Y-42065D01*
X-54769Y-42545D01*
X-55488Y-44464D01*
X-51123Y-42545D02*
X-48244Y-42545D01*
X-48158Y-42543D01*
X-48072Y-42537D01*
X-47986Y-42528D01*
X-47901Y-42514D01*
X-47817Y-42497D01*
X-47733Y-42476D01*
X-47651Y-42451D01*
X-47570Y-42423D01*
X-47490Y-42391D01*
X-47411Y-42355D01*
X-47335Y-42316D01*
X-47260Y-42273D01*
X-47187Y-42228D01*
X-47116Y-42179D01*
X-47048Y-42126D01*
X-46981Y-42071D01*
X-46918Y-42013D01*
X-46857Y-41952D01*
X-46799Y-41889D01*
X-46744Y-41822D01*
X-46692Y-41754D01*
X-46642Y-41683D01*
X-46597Y-41610D01*
X-46554Y-41535D01*
X-46515Y-41459D01*
X-46479Y-41380D01*
X-46447Y-41300D01*
X-46419Y-41219D01*
X-46394Y-41137D01*
X-46373Y-41053D01*
X-46356Y-40969D01*
X-46342Y-40884D01*
X-46333Y-40798D01*
X-46327Y-40712D01*
X-46325Y-40626D01*
X-46325Y-39666D01*
X-46327Y-39580D01*
X-46333Y-39494D01*
X-46342Y-39408D01*
X-46356Y-39323D01*
X-46373Y-39239D01*
X-46394Y-39155D01*
X-46419Y-39073D01*
X-46447Y-38992D01*
X-46479Y-38912D01*
X-46515Y-38833D01*
X-46554Y-38757D01*
X-46597Y-38682D01*
X-46642Y-38609D01*
X-46691Y-38538D01*
X-46744Y-38470D01*
X-46799Y-38403D01*
X-46857Y-38340D01*
X-46918Y-38279D01*
X-46981Y-38221D01*
X-47048Y-38166D01*
X-47116Y-38113D01*
X-47187Y-38064D01*
X-47260Y-38019D01*
X-47335Y-37976D01*
X-47411Y-37937D01*
X-47490Y-37901D01*
X-47570Y-37869D01*
X-47651Y-37841D01*
X-47733Y-37816D01*
X-47817Y-37795D01*
X-47901Y-37778D01*
X-47986Y-37764D01*
X-48072Y-37755D01*
X-48158Y-37749D01*
X-48244Y-37747D01*
X-51123Y-37747D01*
X-51123Y-33909D01*
X-46325Y-33909D01*
X-41796Y-36788D02*
X-41796Y-42545D01*
X-41796Y-36788D02*
X-37478Y-36788D01*
X-37403Y-36790D01*
X-37328Y-36796D01*
X-37253Y-36806D01*
X-37179Y-36819D01*
X-37106Y-36837D01*
X-37033Y-36858D01*
X-36962Y-36884D01*
X-36893Y-36912D01*
X-36825Y-36945D01*
X-36759Y-36981D01*
X-36694Y-37020D01*
X-36632Y-37063D01*
X-36572Y-37109D01*
X-36515Y-37158D01*
X-36460Y-37209D01*
X-36409Y-37264D01*
X-36360Y-37321D01*
X-36314Y-37381D01*
X-36271Y-37443D01*
X-36232Y-37508D01*
X-36196Y-37574D01*
X-36163Y-37642D01*
X-36135Y-37711D01*
X-36109Y-37782D01*
X-36088Y-37855D01*
X-36070Y-37928D01*
X-36057Y-38002D01*
X-36047Y-38077D01*
X-36041Y-38152D01*
X-36039Y-38227D01*
X-36039Y-42545D01*
X-38917Y-42545D02*
X-38917Y-36788D01*
X-31097Y-36788D02*
X-31097Y-42545D01*
X-31097Y-36788D02*
X-26779Y-36788D01*
X-26704Y-36790D01*
X-26629Y-36796D01*
X-26554Y-36806D01*
X-26480Y-36819D01*
X-26407Y-36837D01*
X-26334Y-36858D01*
X-26263Y-36884D01*
X-26194Y-36912D01*
X-26126Y-36945D01*
X-26060Y-36981D01*
X-25995Y-37020D01*
X-25933Y-37063D01*
X-25873Y-37109D01*
X-25816Y-37158D01*
X-25761Y-37209D01*
X-25710Y-37264D01*
X-25661Y-37321D01*
X-25615Y-37381D01*
X-25572Y-37443D01*
X-25533Y-37508D01*
X-25497Y-37574D01*
X-25464Y-37642D01*
X-25436Y-37711D01*
X-25410Y-37782D01*
X-25389Y-37855D01*
X-25371Y-37928D01*
X-25358Y-38002D01*
X-25348Y-38077D01*
X-25342Y-38152D01*
X-25340Y-38227D01*
X-25340Y-42545D01*
X-28219Y-42545D02*
X-28219Y-36788D01*
D12*
X-12700Y-165735D03*
X-38100Y-165735D03*
X-63500Y-165735D03*
D13*
X-63500Y-148590D03*
X-38100Y-148590D03*
X-12700Y-148590D03*
D14*
X-75311Y-64516D02*
X-75311Y-57404D01*
X-75309Y-57272D01*
X-75303Y-57141D01*
X-75293Y-57009D01*
X-75280Y-56878D01*
X-75262Y-56748D01*
X-75241Y-56618D01*
X-75216Y-56488D01*
X-75187Y-56360D01*
X-75154Y-56232D01*
X-75117Y-56106D01*
X-75077Y-55980D01*
X-75033Y-55856D01*
X-74985Y-55733D01*
X-74934Y-55612D01*
X-74879Y-55492D01*
X-74821Y-55374D01*
X-74759Y-55258D01*
X-74693Y-55144D01*
X-74625Y-55031D01*
X-74553Y-54921D01*
X-74478Y-54813D01*
X-74399Y-54707D01*
X-74318Y-54603D01*
X-74233Y-54502D01*
X-74146Y-54404D01*
X-74055Y-54308D01*
X-73962Y-54215D01*
X-73866Y-54124D01*
X-73768Y-54037D01*
X-73667Y-53952D01*
X-73563Y-53871D01*
X-73457Y-53792D01*
X-73349Y-53717D01*
X-73239Y-53645D01*
X-73126Y-53577D01*
X-73012Y-53511D01*
X-72896Y-53449D01*
X-72778Y-53391D01*
X-72658Y-53336D01*
X-72537Y-53285D01*
X-72414Y-53237D01*
X-72290Y-53193D01*
X-72164Y-53153D01*
X-72038Y-53116D01*
X-71910Y-53083D01*
X-71782Y-53054D01*
X-71652Y-53029D01*
X-71522Y-53008D01*
X-71392Y-52990D01*
X-71261Y-52977D01*
X-71129Y-52967D01*
X-70998Y-52961D01*
X-70866Y-52959D01*
X-70734Y-52961D01*
X-70603Y-52967D01*
X-70471Y-52977D01*
X-70340Y-52990D01*
X-70210Y-53008D01*
X-70080Y-53029D01*
X-69950Y-53054D01*
X-69822Y-53083D01*
X-69694Y-53116D01*
X-69568Y-53153D01*
X-69442Y-53193D01*
X-69318Y-53237D01*
X-69195Y-53285D01*
X-69074Y-53336D01*
X-68954Y-53391D01*
X-68836Y-53449D01*
X-68720Y-53511D01*
X-68606Y-53577D01*
X-68493Y-53645D01*
X-68383Y-53717D01*
X-68275Y-53792D01*
X-68169Y-53871D01*
X-68065Y-53952D01*
X-67964Y-54037D01*
X-67866Y-54124D01*
X-67770Y-54215D01*
X-67677Y-54308D01*
X-67586Y-54404D01*
X-67499Y-54502D01*
X-67414Y-54603D01*
X-67333Y-54707D01*
X-67254Y-54813D01*
X-67179Y-54921D01*
X-67107Y-55031D01*
X-67039Y-55144D01*
X-66973Y-55258D01*
X-66911Y-55374D01*
X-66853Y-55492D01*
X-66798Y-55612D01*
X-66747Y-55733D01*
X-66699Y-55856D01*
X-66655Y-55980D01*
X-66615Y-56106D01*
X-66578Y-56232D01*
X-66545Y-56360D01*
X-66516Y-56488D01*
X-66491Y-56618D01*
X-66470Y-56748D01*
X-66452Y-56878D01*
X-66439Y-57009D01*
X-66429Y-57141D01*
X-66423Y-57272D01*
X-66421Y-57404D01*
X-66421Y-64516D01*
X-66423Y-64648D01*
X-66429Y-64779D01*
X-66439Y-64911D01*
X-66452Y-65042D01*
X-66470Y-65172D01*
X-66491Y-65302D01*
X-66516Y-65432D01*
X-66545Y-65560D01*
X-66578Y-65688D01*
X-66615Y-65814D01*
X-66655Y-65940D01*
X-66699Y-66064D01*
X-66747Y-66187D01*
X-66798Y-66308D01*
X-66853Y-66428D01*
X-66911Y-66546D01*
X-66973Y-66662D01*
X-67039Y-66776D01*
X-67107Y-66889D01*
X-67179Y-66999D01*
X-67254Y-67107D01*
X-67333Y-67213D01*
X-67414Y-67317D01*
X-67499Y-67418D01*
X-67586Y-67516D01*
X-67677Y-67612D01*
X-67770Y-67705D01*
X-67866Y-67796D01*
X-67964Y-67883D01*
X-68065Y-67968D01*
X-68169Y-68049D01*
X-68275Y-68128D01*
X-68383Y-68203D01*
X-68493Y-68275D01*
X-68606Y-68343D01*
X-68720Y-68409D01*
X-68836Y-68471D01*
X-68954Y-68529D01*
X-69074Y-68584D01*
X-69195Y-68635D01*
X-69318Y-68683D01*
X-69442Y-68727D01*
X-69568Y-68767D01*
X-69694Y-68804D01*
X-69822Y-68837D01*
X-69950Y-68866D01*
X-70080Y-68891D01*
X-70210Y-68912D01*
X-70340Y-68930D01*
X-70471Y-68943D01*
X-70603Y-68953D01*
X-70734Y-68959D01*
X-70866Y-68961D01*
X-70998Y-68959D01*
X-71129Y-68953D01*
X-71261Y-68943D01*
X-71392Y-68930D01*
X-71522Y-68912D01*
X-71652Y-68891D01*
X-71782Y-68866D01*
X-71910Y-68837D01*
X-72038Y-68804D01*
X-72164Y-68767D01*
X-72290Y-68727D01*
X-72414Y-68683D01*
X-72537Y-68635D01*
X-72658Y-68584D01*
X-72778Y-68529D01*
X-72896Y-68471D01*
X-73012Y-68409D01*
X-73126Y-68343D01*
X-73239Y-68275D01*
X-73349Y-68203D01*
X-73457Y-68128D01*
X-73563Y-68049D01*
X-73667Y-67968D01*
X-73768Y-67883D01*
X-73866Y-67796D01*
X-73962Y-67705D01*
X-74055Y-67612D01*
X-74146Y-67516D01*
X-74233Y-67418D01*
X-74318Y-67317D01*
X-74399Y-67213D01*
X-74478Y-67107D01*
X-74553Y-66999D01*
X-74625Y-66889D01*
X-74693Y-66776D01*
X-74759Y-66662D01*
X-74821Y-66546D01*
X-74879Y-66428D01*
X-74934Y-66308D01*
X-74985Y-66187D01*
X-75033Y-66064D01*
X-75077Y-65940D01*
X-75117Y-65814D01*
X-75154Y-65688D01*
X-75187Y-65560D01*
X-75216Y-65432D01*
X-75241Y-65302D01*
X-75262Y-65172D01*
X-75280Y-65042D01*
X-75293Y-64911D01*
X-75303Y-64779D01*
X-75309Y-64648D01*
X-75311Y-64516D01*
X-68199Y-65405D02*
X-64643Y-68961D01*
X-60080Y-56515D02*
X-55635Y-52959D01*
X-55635Y-68961D01*
X-60080Y-68961D02*
X-51190Y-68961D01*
M02*
