G04 EAGLE Gerber RS-274X export*
G75*
%MOMM*%
%FSLAX34Y34*%
%LPD*%
%INBottom Copper*%
%IPPOS*%
%AMOC8*
5,1,8,0,0,1.08239X$1,22.5*%
G01*
%ADD10C,2.235200*%
%ADD11P,1.759533X8X202.500000*%
%ADD12C,1.800000*%
%ADD13P,2.199416X8X202.500000*%
%ADD14C,1.500000*%

G36*
X-114838Y-392926D02*
X-114838Y-392926D01*
X-114631Y-392922D01*
X-114522Y-392906D01*
X-114413Y-392899D01*
X-114210Y-392860D01*
X-114005Y-392830D01*
X-113900Y-392801D01*
X-113792Y-392780D01*
X-113595Y-392716D01*
X-113396Y-392660D01*
X-113296Y-392618D01*
X-113191Y-392583D01*
X-113004Y-392495D01*
X-112814Y-392414D01*
X-112720Y-392360D01*
X-112620Y-392313D01*
X-112446Y-392201D01*
X-112267Y-392097D01*
X-112180Y-392031D01*
X-112088Y-391972D01*
X-111929Y-391839D01*
X-111765Y-391714D01*
X-111687Y-391637D01*
X-111603Y-391567D01*
X-111462Y-391415D01*
X-111315Y-391270D01*
X-111247Y-391184D01*
X-111173Y-391103D01*
X-111052Y-390936D01*
X-110924Y-390773D01*
X-110868Y-390679D01*
X-110804Y-390590D01*
X-110706Y-390408D01*
X-110600Y-390230D01*
X-110556Y-390130D01*
X-110504Y-390034D01*
X-110429Y-389841D01*
X-110346Y-389651D01*
X-110316Y-389546D01*
X-110276Y-389444D01*
X-110226Y-389243D01*
X-110168Y-389045D01*
X-110151Y-388936D01*
X-110124Y-388830D01*
X-110101Y-388625D01*
X-110068Y-388421D01*
X-110064Y-388311D01*
X-110051Y-388203D01*
X-110054Y-387996D01*
X-110047Y-387789D01*
X-110057Y-387680D01*
X-110058Y-387570D01*
X-110086Y-387366D01*
X-110106Y-387160D01*
X-110132Y-387037D01*
X-110145Y-386944D01*
X-110177Y-386826D01*
X-110215Y-386646D01*
X-111521Y-381772D01*
X-111521Y-375148D01*
X-109806Y-368748D01*
X-106494Y-363011D01*
X-101809Y-358326D01*
X-96072Y-355014D01*
X-89672Y-353299D01*
X-83048Y-353299D01*
X-79954Y-354128D01*
X-79751Y-354169D01*
X-79550Y-354219D01*
X-79442Y-354231D01*
X-79334Y-354253D01*
X-79128Y-354268D01*
X-78923Y-354292D01*
X-78813Y-354290D01*
X-78704Y-354298D01*
X-78497Y-354287D01*
X-78290Y-354285D01*
X-78182Y-354270D01*
X-78073Y-354264D01*
X-77869Y-354227D01*
X-77664Y-354198D01*
X-77559Y-354170D01*
X-77451Y-354150D01*
X-77253Y-354087D01*
X-77054Y-354034D01*
X-76953Y-353992D01*
X-76848Y-353959D01*
X-76661Y-353872D01*
X-76470Y-353793D01*
X-76374Y-353739D01*
X-76275Y-353693D01*
X-76100Y-353583D01*
X-75920Y-353481D01*
X-75832Y-353415D01*
X-75740Y-353357D01*
X-75579Y-353225D01*
X-75414Y-353102D01*
X-75336Y-353026D01*
X-75251Y-352956D01*
X-75109Y-352806D01*
X-74960Y-352662D01*
X-74892Y-352576D01*
X-74817Y-352497D01*
X-74695Y-352330D01*
X-74566Y-352168D01*
X-74509Y-352074D01*
X-74444Y-351986D01*
X-74344Y-351805D01*
X-74236Y-351628D01*
X-74192Y-351528D01*
X-74139Y-351433D01*
X-74062Y-351240D01*
X-73978Y-351052D01*
X-73946Y-350947D01*
X-73906Y-350845D01*
X-73854Y-350645D01*
X-73794Y-350447D01*
X-73776Y-350339D01*
X-73749Y-350233D01*
X-73723Y-350027D01*
X-73688Y-349824D01*
X-73682Y-349698D01*
X-73670Y-349606D01*
X-73670Y-349482D01*
X-73661Y-349299D01*
X-73661Y23590D01*
X-73674Y23796D01*
X-73678Y24003D01*
X-73694Y24112D01*
X-73701Y24221D01*
X-73740Y24424D01*
X-73770Y24628D01*
X-73799Y24734D01*
X-73820Y24841D01*
X-73884Y25038D01*
X-73940Y25237D01*
X-73982Y25338D01*
X-74017Y25442D01*
X-74105Y25629D01*
X-74186Y25820D01*
X-74240Y25914D01*
X-74287Y26013D01*
X-74399Y26187D01*
X-74503Y26366D01*
X-74569Y26453D01*
X-74628Y26546D01*
X-74761Y26705D01*
X-74886Y26869D01*
X-74963Y26947D01*
X-75033Y27031D01*
X-75185Y27171D01*
X-75330Y27319D01*
X-75416Y27387D01*
X-75497Y27461D01*
X-75665Y27581D01*
X-75827Y27709D01*
X-75921Y27765D01*
X-76010Y27829D01*
X-76192Y27927D01*
X-76370Y28034D01*
X-76470Y28078D01*
X-76566Y28130D01*
X-76759Y28204D01*
X-76949Y28287D01*
X-77054Y28318D01*
X-77156Y28358D01*
X-77357Y28407D01*
X-77555Y28466D01*
X-77663Y28483D01*
X-77770Y28509D01*
X-77975Y28533D01*
X-78179Y28566D01*
X-78289Y28570D01*
X-78397Y28582D01*
X-78604Y28580D01*
X-78811Y28587D01*
X-78920Y28577D01*
X-79030Y28575D01*
X-79234Y28547D01*
X-79440Y28528D01*
X-79563Y28502D01*
X-79656Y28489D01*
X-79774Y28457D01*
X-79954Y28419D01*
X-85588Y26909D01*
X-92212Y26909D01*
X-98612Y28624D01*
X-104349Y31936D01*
X-109034Y36621D01*
X-112346Y42358D01*
X-114061Y48758D01*
X-114061Y55382D01*
X-112891Y59746D01*
X-112851Y59949D01*
X-112801Y60150D01*
X-112788Y60258D01*
X-112767Y60366D01*
X-112752Y60572D01*
X-112728Y60777D01*
X-112729Y60887D01*
X-112721Y60996D01*
X-112733Y61203D01*
X-112735Y61410D01*
X-112750Y61518D01*
X-112756Y61627D01*
X-112793Y61831D01*
X-112821Y62036D01*
X-112850Y62142D01*
X-112870Y62249D01*
X-112932Y62446D01*
X-112986Y62646D01*
X-113028Y62747D01*
X-113061Y62852D01*
X-113148Y63039D01*
X-113227Y63230D01*
X-113281Y63326D01*
X-113327Y63425D01*
X-113437Y63600D01*
X-113539Y63780D01*
X-113605Y63868D01*
X-113663Y63960D01*
X-113794Y64120D01*
X-113918Y64286D01*
X-113994Y64364D01*
X-114064Y64449D01*
X-114214Y64591D01*
X-114358Y64740D01*
X-114444Y64808D01*
X-114523Y64883D01*
X-114690Y65005D01*
X-114852Y65134D01*
X-114945Y65191D01*
X-115034Y65256D01*
X-115215Y65356D01*
X-115391Y65464D01*
X-115491Y65508D01*
X-115587Y65561D01*
X-115779Y65638D01*
X-115968Y65722D01*
X-116073Y65754D01*
X-116175Y65794D01*
X-116375Y65846D01*
X-116573Y65906D01*
X-116681Y65924D01*
X-116787Y65951D01*
X-116992Y65977D01*
X-117196Y66012D01*
X-117322Y66018D01*
X-117414Y66030D01*
X-117537Y66030D01*
X-117720Y66039D01*
X-250920Y66039D01*
X-251126Y66026D01*
X-251333Y66022D01*
X-251442Y66006D01*
X-251551Y65999D01*
X-251754Y65960D01*
X-251958Y65930D01*
X-252064Y65901D01*
X-252171Y65880D01*
X-252368Y65816D01*
X-252567Y65760D01*
X-252668Y65718D01*
X-252772Y65683D01*
X-252959Y65595D01*
X-253150Y65514D01*
X-253244Y65460D01*
X-253343Y65413D01*
X-253517Y65301D01*
X-253696Y65197D01*
X-253783Y65131D01*
X-253876Y65072D01*
X-254035Y64939D01*
X-254199Y64814D01*
X-254277Y64737D01*
X-254361Y64667D01*
X-254501Y64515D01*
X-254649Y64370D01*
X-254717Y64284D01*
X-254791Y64203D01*
X-254911Y64035D01*
X-255039Y63873D01*
X-255095Y63779D01*
X-255159Y63690D01*
X-255257Y63508D01*
X-255364Y63330D01*
X-255408Y63230D01*
X-255460Y63134D01*
X-255534Y62941D01*
X-255617Y62751D01*
X-255648Y62646D01*
X-255688Y62544D01*
X-255737Y62343D01*
X-255796Y62145D01*
X-255813Y62037D01*
X-255839Y61930D01*
X-255863Y61725D01*
X-255896Y61521D01*
X-255900Y61411D01*
X-255912Y61303D01*
X-255910Y61096D01*
X-255917Y60889D01*
X-255907Y60780D01*
X-255905Y60670D01*
X-255877Y60466D01*
X-255858Y60260D01*
X-255832Y60137D01*
X-255819Y60044D01*
X-255787Y59926D01*
X-255749Y59746D01*
X-254239Y54112D01*
X-254239Y47488D01*
X-255954Y41088D01*
X-259266Y35351D01*
X-263951Y30666D01*
X-269688Y27354D01*
X-276088Y25639D01*
X-282712Y25639D01*
X-288146Y27095D01*
X-288349Y27136D01*
X-288550Y27186D01*
X-288658Y27198D01*
X-288766Y27220D01*
X-288972Y27235D01*
X-289177Y27259D01*
X-289287Y27257D01*
X-289396Y27265D01*
X-289603Y27254D01*
X-289810Y27252D01*
X-289918Y27237D01*
X-290027Y27231D01*
X-290231Y27194D01*
X-290436Y27165D01*
X-290542Y27137D01*
X-290649Y27117D01*
X-290846Y27055D01*
X-291046Y27001D01*
X-291147Y26959D01*
X-291252Y26926D01*
X-291439Y26839D01*
X-291630Y26760D01*
X-291726Y26706D01*
X-291825Y26660D01*
X-292000Y26550D01*
X-292180Y26448D01*
X-292268Y26382D01*
X-292360Y26324D01*
X-292520Y26193D01*
X-292686Y26069D01*
X-292764Y25992D01*
X-292849Y25923D01*
X-292991Y25773D01*
X-293140Y25629D01*
X-293208Y25543D01*
X-293283Y25464D01*
X-293405Y25297D01*
X-293534Y25135D01*
X-293592Y25041D01*
X-293656Y24953D01*
X-293756Y24772D01*
X-293864Y24595D01*
X-293908Y24495D01*
X-293961Y24400D01*
X-294038Y24207D01*
X-294122Y24019D01*
X-294154Y23914D01*
X-294194Y23812D01*
X-294246Y23612D01*
X-294306Y23414D01*
X-294324Y23306D01*
X-294351Y23200D01*
X-294377Y22994D01*
X-294412Y22791D01*
X-294418Y22665D01*
X-294430Y22573D01*
X-294430Y22449D01*
X-294439Y22266D01*
X-294439Y852D01*
X-294423Y602D01*
X-294414Y350D01*
X-294403Y286D01*
X-294399Y221D01*
X-294352Y-25D01*
X-294311Y-273D01*
X-294292Y-336D01*
X-294280Y-400D01*
X-294202Y-639D01*
X-294130Y-879D01*
X-294104Y-938D01*
X-294083Y-1001D01*
X-293976Y-1228D01*
X-293874Y-1457D01*
X-293841Y-1513D01*
X-293813Y-1572D01*
X-293677Y-1783D01*
X-293548Y-1998D01*
X-293507Y-2049D01*
X-293472Y-2104D01*
X-293311Y-2296D01*
X-293155Y-2493D01*
X-293108Y-2539D01*
X-293067Y-2589D01*
X-292883Y-2760D01*
X-292703Y-2935D01*
X-292651Y-2975D01*
X-292603Y-3019D01*
X-292400Y-3165D01*
X-292199Y-3317D01*
X-292143Y-3350D01*
X-292090Y-3388D01*
X-291869Y-3507D01*
X-291651Y-3632D01*
X-291591Y-3657D01*
X-291534Y-3688D01*
X-291300Y-3778D01*
X-291068Y-3875D01*
X-291005Y-3892D01*
X-290944Y-3916D01*
X-290700Y-3976D01*
X-290458Y-4043D01*
X-290394Y-4052D01*
X-290330Y-4068D01*
X-290082Y-4096D01*
X-289833Y-4132D01*
X-289767Y-4133D01*
X-289703Y-4141D01*
X-289452Y-4138D01*
X-289201Y-4142D01*
X-289136Y-4134D01*
X-289070Y-4134D01*
X-288822Y-4099D01*
X-288572Y-4072D01*
X-288509Y-4056D01*
X-288444Y-4047D01*
X-288202Y-3982D01*
X-287958Y-3923D01*
X-287897Y-3899D01*
X-287834Y-3883D01*
X-287603Y-3787D01*
X-287367Y-3698D01*
X-287310Y-3667D01*
X-287250Y-3642D01*
X-287031Y-3518D01*
X-286810Y-3400D01*
X-286757Y-3362D01*
X-286700Y-3330D01*
X-286499Y-3179D01*
X-286295Y-3034D01*
X-286240Y-2985D01*
X-286194Y-2951D01*
X-286094Y-2853D01*
X-285904Y-2683D01*
X-285824Y-2602D01*
X-285823Y-2601D01*
X-271286Y11935D01*
X-266663Y13851D01*
X-262687Y13851D01*
X-262600Y13856D01*
X-262514Y13854D01*
X-262285Y13876D01*
X-262056Y13891D01*
X-261971Y13907D01*
X-261885Y13915D01*
X-261661Y13967D01*
X-261435Y14010D01*
X-261353Y14037D01*
X-261268Y14056D01*
X-260954Y14167D01*
X-260834Y14207D01*
X-260808Y14219D01*
X-260773Y14231D01*
X-258071Y15351D01*
X-252469Y15351D01*
X-247294Y13207D01*
X-243333Y9246D01*
X-241189Y4071D01*
X-241189Y-1531D01*
X-242654Y-5067D01*
X-242714Y-5242D01*
X-242783Y-5413D01*
X-242816Y-5541D01*
X-242858Y-5665D01*
X-242896Y-5846D01*
X-242942Y-6025D01*
X-242959Y-6156D01*
X-242986Y-6284D01*
X-243000Y-6468D01*
X-243024Y-6652D01*
X-243024Y-6783D01*
X-243034Y-6914D01*
X-243025Y-7099D01*
X-243025Y-7284D01*
X-243009Y-7414D01*
X-243002Y-7546D01*
X-242970Y-7728D01*
X-242947Y-7911D01*
X-242914Y-8038D01*
X-242891Y-8168D01*
X-242836Y-8344D01*
X-242790Y-8524D01*
X-242742Y-8646D01*
X-242703Y-8771D01*
X-242626Y-8939D01*
X-242557Y-9111D01*
X-242494Y-9227D01*
X-242439Y-9346D01*
X-242342Y-9502D01*
X-242252Y-9665D01*
X-242175Y-9771D01*
X-242106Y-9883D01*
X-241989Y-10026D01*
X-241880Y-10175D01*
X-241789Y-10271D01*
X-241707Y-10373D01*
X-241573Y-10500D01*
X-241446Y-10635D01*
X-241344Y-10719D01*
X-241249Y-10809D01*
X-241100Y-10919D01*
X-240957Y-11036D01*
X-240846Y-11106D01*
X-240740Y-11184D01*
X-240579Y-11274D01*
X-240422Y-11373D01*
X-240284Y-11439D01*
X-240188Y-11492D01*
X-240087Y-11533D01*
X-239948Y-11599D01*
X-235444Y-13465D01*
X-141735Y-107174D01*
X-139819Y-111797D01*
X-139819Y-144525D01*
X-139805Y-144742D01*
X-139800Y-144960D01*
X-139786Y-145058D01*
X-139779Y-145156D01*
X-139738Y-145370D01*
X-139706Y-145585D01*
X-139679Y-145680D01*
X-139660Y-145777D01*
X-139592Y-145984D01*
X-139533Y-146193D01*
X-139494Y-146284D01*
X-139463Y-146377D01*
X-139370Y-146574D01*
X-139285Y-146775D01*
X-139235Y-146859D01*
X-139193Y-146949D01*
X-139075Y-147132D01*
X-138965Y-147320D01*
X-138905Y-147398D01*
X-138852Y-147481D01*
X-138712Y-147648D01*
X-138579Y-147821D01*
X-138510Y-147890D01*
X-138447Y-147966D01*
X-138287Y-148114D01*
X-138133Y-148269D01*
X-138056Y-148329D01*
X-137983Y-148396D01*
X-137807Y-148523D01*
X-137635Y-148657D01*
X-137550Y-148707D01*
X-137470Y-148764D01*
X-137279Y-148868D01*
X-137091Y-148979D01*
X-137000Y-149018D01*
X-136914Y-149065D01*
X-136710Y-149143D01*
X-136511Y-149230D01*
X-136416Y-149257D01*
X-136324Y-149293D01*
X-136112Y-149345D01*
X-135903Y-149406D01*
X-135806Y-149421D01*
X-135710Y-149444D01*
X-135494Y-149470D01*
X-135279Y-149503D01*
X-135180Y-149506D01*
X-135083Y-149517D01*
X-134865Y-149515D01*
X-134647Y-149521D01*
X-134549Y-149512D01*
X-134450Y-149511D01*
X-134235Y-149481D01*
X-134018Y-149460D01*
X-133922Y-149438D01*
X-133824Y-149424D01*
X-133614Y-149367D01*
X-133402Y-149319D01*
X-133296Y-149282D01*
X-133214Y-149259D01*
X-133095Y-149210D01*
X-132907Y-149144D01*
X-131999Y-148768D01*
X-131999Y-172720D01*
X-131999Y-196672D01*
X-133080Y-196225D01*
X-134637Y-195326D01*
X-134668Y-195302D01*
X-134812Y-195205D01*
X-134951Y-195100D01*
X-135075Y-195029D01*
X-135193Y-194949D01*
X-135348Y-194872D01*
X-135499Y-194785D01*
X-135631Y-194730D01*
X-135758Y-194666D01*
X-135922Y-194608D01*
X-136083Y-194541D01*
X-136220Y-194504D01*
X-136354Y-194456D01*
X-136524Y-194420D01*
X-136692Y-194374D01*
X-136833Y-194353D01*
X-136972Y-194324D01*
X-137145Y-194309D01*
X-137318Y-194284D01*
X-137460Y-194282D01*
X-137602Y-194270D01*
X-137776Y-194277D01*
X-137950Y-194274D01*
X-138091Y-194290D01*
X-138233Y-194296D01*
X-138405Y-194325D01*
X-138578Y-194344D01*
X-138716Y-194378D01*
X-138856Y-194402D01*
X-139023Y-194452D01*
X-139192Y-194493D01*
X-139325Y-194544D01*
X-139461Y-194585D01*
X-139620Y-194656D01*
X-139783Y-194718D01*
X-139908Y-194785D01*
X-140038Y-194843D01*
X-140187Y-194934D01*
X-140341Y-195016D01*
X-140457Y-195098D01*
X-140578Y-195172D01*
X-140714Y-195281D01*
X-140856Y-195382D01*
X-140981Y-195494D01*
X-141072Y-195567D01*
X-141143Y-195639D01*
X-141246Y-195733D01*
X-143191Y-197678D01*
X-149166Y-200153D01*
X-155634Y-200153D01*
X-158307Y-199045D01*
X-158513Y-198975D01*
X-158716Y-198896D01*
X-158812Y-198873D01*
X-158905Y-198841D01*
X-159118Y-198797D01*
X-159330Y-198745D01*
X-159428Y-198733D01*
X-159524Y-198714D01*
X-159741Y-198697D01*
X-159957Y-198672D01*
X-160056Y-198673D01*
X-160154Y-198665D01*
X-160372Y-198676D01*
X-160590Y-198679D01*
X-160687Y-198692D01*
X-160786Y-198697D01*
X-161000Y-198735D01*
X-161216Y-198765D01*
X-161311Y-198791D01*
X-161408Y-198808D01*
X-161616Y-198873D01*
X-161826Y-198930D01*
X-161917Y-198967D01*
X-162011Y-198997D01*
X-162209Y-199088D01*
X-162410Y-199170D01*
X-162496Y-199219D01*
X-162586Y-199260D01*
X-162771Y-199375D01*
X-162960Y-199483D01*
X-163039Y-199542D01*
X-163123Y-199594D01*
X-163292Y-199731D01*
X-163466Y-199862D01*
X-163536Y-199930D01*
X-163613Y-199993D01*
X-163763Y-200150D01*
X-163920Y-200302D01*
X-163981Y-200379D01*
X-164049Y-200450D01*
X-164178Y-200625D01*
X-164314Y-200795D01*
X-164366Y-200880D01*
X-164424Y-200959D01*
X-164530Y-201149D01*
X-164644Y-201335D01*
X-164684Y-201425D01*
X-164732Y-201511D01*
X-164813Y-201713D01*
X-164902Y-201912D01*
X-164931Y-202006D01*
X-164967Y-202098D01*
X-165022Y-202308D01*
X-165086Y-202517D01*
X-165102Y-202614D01*
X-165127Y-202709D01*
X-165155Y-202925D01*
X-165192Y-203140D01*
X-165198Y-203252D01*
X-165208Y-203336D01*
X-165209Y-203465D01*
X-165219Y-203664D01*
X-165219Y-233130D01*
X-165212Y-233249D01*
X-165214Y-233368D01*
X-165192Y-233564D01*
X-165179Y-233761D01*
X-165157Y-233878D01*
X-165144Y-233997D01*
X-165097Y-234188D01*
X-165060Y-234382D01*
X-165023Y-234495D01*
X-164995Y-234611D01*
X-164925Y-234795D01*
X-164863Y-234982D01*
X-164812Y-235090D01*
X-164770Y-235202D01*
X-164677Y-235375D01*
X-164593Y-235553D01*
X-164591Y-235556D01*
X-164591Y-246771D01*
X-172329Y-254509D01*
X-183271Y-254509D01*
X-191009Y-246771D01*
X-191009Y-235545D01*
X-190956Y-235459D01*
X-190876Y-235279D01*
X-190787Y-235104D01*
X-190747Y-234991D01*
X-190698Y-234882D01*
X-190641Y-234694D01*
X-190574Y-234508D01*
X-190549Y-234392D01*
X-190514Y-234277D01*
X-190481Y-234083D01*
X-190439Y-233891D01*
X-190428Y-233772D01*
X-190408Y-233654D01*
X-190395Y-233401D01*
X-190382Y-233261D01*
X-190385Y-233203D01*
X-190381Y-233130D01*
X-190381Y-215162D01*
X-190397Y-214912D01*
X-190406Y-214661D01*
X-190417Y-214596D01*
X-190421Y-214531D01*
X-190468Y-214285D01*
X-190509Y-214038D01*
X-190528Y-213975D01*
X-190540Y-213910D01*
X-190618Y-213672D01*
X-190690Y-213432D01*
X-190716Y-213372D01*
X-190737Y-213309D01*
X-190844Y-213083D01*
X-190945Y-212854D01*
X-190979Y-212798D01*
X-191007Y-212738D01*
X-191143Y-212527D01*
X-191272Y-212313D01*
X-191313Y-212261D01*
X-191348Y-212206D01*
X-191509Y-212014D01*
X-191664Y-211817D01*
X-191711Y-211771D01*
X-191753Y-211721D01*
X-191937Y-211550D01*
X-192116Y-211375D01*
X-192168Y-211335D01*
X-192217Y-211291D01*
X-192420Y-211145D01*
X-192620Y-210994D01*
X-192677Y-210961D01*
X-192730Y-210923D01*
X-192950Y-210804D01*
X-193168Y-210679D01*
X-193229Y-210653D01*
X-193286Y-210622D01*
X-193520Y-210532D01*
X-193751Y-210435D01*
X-193815Y-210418D01*
X-193876Y-210394D01*
X-194119Y-210334D01*
X-194361Y-210268D01*
X-194426Y-210258D01*
X-194490Y-210242D01*
X-194738Y-210214D01*
X-194986Y-210178D01*
X-195052Y-210177D01*
X-195117Y-210169D01*
X-195367Y-210172D01*
X-195618Y-210168D01*
X-195684Y-210176D01*
X-195750Y-210176D01*
X-195997Y-210210D01*
X-196247Y-210238D01*
X-196311Y-210254D01*
X-196376Y-210263D01*
X-196617Y-210328D01*
X-196861Y-210387D01*
X-196923Y-210410D01*
X-196986Y-210428D01*
X-197218Y-210523D01*
X-197452Y-210612D01*
X-197510Y-210643D01*
X-197570Y-210668D01*
X-197789Y-210792D01*
X-198009Y-210910D01*
X-198063Y-210948D01*
X-198120Y-210980D01*
X-198321Y-211131D01*
X-198525Y-211276D01*
X-198579Y-211325D01*
X-198626Y-211359D01*
X-198726Y-211457D01*
X-198915Y-211627D01*
X-239955Y-252667D01*
X-240034Y-252756D01*
X-240120Y-252839D01*
X-240243Y-252993D01*
X-240373Y-253141D01*
X-240440Y-253240D01*
X-240514Y-253333D01*
X-240617Y-253501D01*
X-240727Y-253664D01*
X-240781Y-253771D01*
X-240844Y-253873D01*
X-240924Y-254052D01*
X-241013Y-254228D01*
X-241053Y-254341D01*
X-241102Y-254450D01*
X-241159Y-254638D01*
X-241226Y-254824D01*
X-241251Y-254940D01*
X-241286Y-255054D01*
X-241319Y-255249D01*
X-241361Y-255441D01*
X-241372Y-255560D01*
X-241392Y-255678D01*
X-241405Y-255931D01*
X-241418Y-256071D01*
X-241415Y-256128D01*
X-241419Y-256202D01*
X-241419Y-284683D01*
X-241414Y-284770D01*
X-241416Y-284856D01*
X-241394Y-285085D01*
X-241379Y-285314D01*
X-241363Y-285399D01*
X-241355Y-285485D01*
X-241303Y-285709D01*
X-241260Y-285935D01*
X-241233Y-286017D01*
X-241214Y-286102D01*
X-241103Y-286416D01*
X-241063Y-286536D01*
X-241051Y-286562D01*
X-241039Y-286597D01*
X-239919Y-289299D01*
X-239919Y-294901D01*
X-241206Y-298007D01*
X-241276Y-298213D01*
X-241355Y-298416D01*
X-241378Y-298512D01*
X-241410Y-298605D01*
X-241454Y-298818D01*
X-241506Y-299030D01*
X-241518Y-299128D01*
X-241538Y-299224D01*
X-241554Y-299441D01*
X-241579Y-299657D01*
X-241578Y-299756D01*
X-241586Y-299854D01*
X-241575Y-300072D01*
X-241573Y-300290D01*
X-241559Y-300387D01*
X-241554Y-300486D01*
X-241516Y-300700D01*
X-241486Y-300916D01*
X-241461Y-301011D01*
X-241443Y-301108D01*
X-241378Y-301316D01*
X-241321Y-301526D01*
X-241284Y-301617D01*
X-241255Y-301711D01*
X-241164Y-301909D01*
X-241081Y-302110D01*
X-241032Y-302196D01*
X-240991Y-302286D01*
X-240876Y-302471D01*
X-240769Y-302660D01*
X-240709Y-302739D01*
X-240657Y-302823D01*
X-240520Y-302992D01*
X-240389Y-303166D01*
X-240321Y-303236D01*
X-240259Y-303313D01*
X-240101Y-303463D01*
X-239950Y-303620D01*
X-239872Y-303681D01*
X-239801Y-303749D01*
X-239626Y-303878D01*
X-239456Y-304014D01*
X-239372Y-304066D01*
X-239292Y-304124D01*
X-239102Y-304230D01*
X-238916Y-304344D01*
X-238826Y-304384D01*
X-238740Y-304432D01*
X-238538Y-304513D01*
X-238339Y-304602D01*
X-238245Y-304631D01*
X-238154Y-304667D01*
X-237943Y-304722D01*
X-237735Y-304786D01*
X-237637Y-304802D01*
X-237542Y-304827D01*
X-237326Y-304855D01*
X-237111Y-304892D01*
X-236999Y-304898D01*
X-236915Y-304908D01*
X-236786Y-304909D01*
X-236587Y-304919D01*
X-173604Y-304919D01*
X-173485Y-304912D01*
X-173365Y-304914D01*
X-173169Y-304892D01*
X-172973Y-304879D01*
X-172856Y-304857D01*
X-172737Y-304844D01*
X-172546Y-304797D01*
X-172352Y-304760D01*
X-172239Y-304723D01*
X-172123Y-304695D01*
X-171939Y-304625D01*
X-171751Y-304563D01*
X-171643Y-304512D01*
X-171532Y-304470D01*
X-171359Y-304377D01*
X-171180Y-304293D01*
X-171080Y-304228D01*
X-170974Y-304172D01*
X-170814Y-304058D01*
X-170648Y-303952D01*
X-170556Y-303875D01*
X-170459Y-303806D01*
X-170270Y-303636D01*
X-170163Y-303547D01*
X-170123Y-303504D01*
X-170069Y-303455D01*
X-168873Y-302259D01*
X-156247Y-302259D01*
X-147319Y-311187D01*
X-147319Y-323813D01*
X-156247Y-332741D01*
X-168873Y-332741D01*
X-170069Y-331545D01*
X-170158Y-331466D01*
X-170241Y-331380D01*
X-170395Y-331257D01*
X-170543Y-331127D01*
X-170642Y-331060D01*
X-170735Y-330986D01*
X-170903Y-330883D01*
X-171066Y-330773D01*
X-171173Y-330719D01*
X-171275Y-330656D01*
X-171454Y-330576D01*
X-171630Y-330487D01*
X-171743Y-330447D01*
X-171851Y-330398D01*
X-172040Y-330341D01*
X-172225Y-330274D01*
X-172342Y-330249D01*
X-172456Y-330214D01*
X-172651Y-330181D01*
X-172843Y-330139D01*
X-172962Y-330128D01*
X-173079Y-330108D01*
X-173333Y-330095D01*
X-173472Y-330082D01*
X-173530Y-330085D01*
X-173604Y-330081D01*
X-246583Y-330081D01*
X-246670Y-330086D01*
X-246756Y-330084D01*
X-246985Y-330106D01*
X-247214Y-330121D01*
X-247299Y-330137D01*
X-247385Y-330145D01*
X-247609Y-330197D01*
X-247835Y-330240D01*
X-247917Y-330267D01*
X-248002Y-330286D01*
X-248316Y-330397D01*
X-248436Y-330437D01*
X-248462Y-330449D01*
X-248497Y-330461D01*
X-251199Y-331581D01*
X-256801Y-331581D01*
X-261976Y-329437D01*
X-265937Y-325476D01*
X-268081Y-320301D01*
X-268081Y-314699D01*
X-265937Y-309524D01*
X-264748Y-308335D01*
X-264626Y-308196D01*
X-264497Y-308064D01*
X-264417Y-307959D01*
X-264330Y-307861D01*
X-264226Y-307707D01*
X-264115Y-307560D01*
X-264050Y-307446D01*
X-263976Y-307337D01*
X-263892Y-307172D01*
X-263800Y-307012D01*
X-263749Y-306891D01*
X-263690Y-306774D01*
X-263628Y-306599D01*
X-263557Y-306429D01*
X-263522Y-306302D01*
X-263478Y-306178D01*
X-263438Y-305998D01*
X-263389Y-305819D01*
X-263370Y-305689D01*
X-263342Y-305561D01*
X-263326Y-305377D01*
X-263299Y-305193D01*
X-263297Y-305062D01*
X-263286Y-304931D01*
X-263292Y-304746D01*
X-263290Y-304561D01*
X-263304Y-304431D01*
X-263309Y-304300D01*
X-263339Y-304117D01*
X-263360Y-303933D01*
X-263391Y-303805D01*
X-263412Y-303676D01*
X-263465Y-303499D01*
X-263508Y-303319D01*
X-263555Y-303196D01*
X-263593Y-303070D01*
X-263667Y-302901D01*
X-263733Y-302728D01*
X-263795Y-302612D01*
X-263848Y-302492D01*
X-263944Y-302334D01*
X-264031Y-302171D01*
X-264107Y-302064D01*
X-264175Y-301951D01*
X-264290Y-301806D01*
X-264397Y-301655D01*
X-264500Y-301541D01*
X-264567Y-301455D01*
X-264645Y-301379D01*
X-264748Y-301265D01*
X-265937Y-300076D01*
X-268081Y-294901D01*
X-268081Y-289299D01*
X-266961Y-286597D01*
X-266933Y-286515D01*
X-266898Y-286436D01*
X-266831Y-286216D01*
X-266757Y-285998D01*
X-266739Y-285914D01*
X-266714Y-285831D01*
X-266676Y-285604D01*
X-266629Y-285379D01*
X-266623Y-285293D01*
X-266608Y-285208D01*
X-266591Y-284875D01*
X-266581Y-284749D01*
X-266583Y-284720D01*
X-266581Y-284683D01*
X-266581Y-246417D01*
X-264665Y-241794D01*
X-260424Y-237552D01*
X-260423Y-237551D01*
X-257355Y-234484D01*
X-257211Y-234320D01*
X-257061Y-234162D01*
X-257003Y-234083D01*
X-256938Y-234009D01*
X-256816Y-233829D01*
X-256686Y-233654D01*
X-256638Y-233567D01*
X-256583Y-233486D01*
X-256485Y-233292D01*
X-256378Y-233101D01*
X-256342Y-233010D01*
X-256297Y-232922D01*
X-256224Y-232717D01*
X-256143Y-232515D01*
X-256118Y-232420D01*
X-256085Y-232327D01*
X-256038Y-232114D01*
X-255983Y-231903D01*
X-255970Y-231806D01*
X-255949Y-231710D01*
X-255930Y-231493D01*
X-255902Y-231276D01*
X-255902Y-231178D01*
X-255893Y-231080D01*
X-255901Y-230862D01*
X-255900Y-230644D01*
X-255913Y-230547D01*
X-255916Y-230448D01*
X-255952Y-230233D01*
X-255979Y-230017D01*
X-256003Y-229922D01*
X-256019Y-229825D01*
X-256082Y-229616D01*
X-256136Y-229405D01*
X-256172Y-229313D01*
X-256200Y-229219D01*
X-256288Y-229019D01*
X-256368Y-228817D01*
X-256416Y-228731D01*
X-256456Y-228641D01*
X-256568Y-228454D01*
X-256673Y-228264D01*
X-256731Y-228184D01*
X-256782Y-228100D01*
X-256917Y-227929D01*
X-257046Y-227753D01*
X-257114Y-227681D01*
X-257175Y-227604D01*
X-257330Y-227452D01*
X-257480Y-227293D01*
X-257556Y-227231D01*
X-257626Y-227162D01*
X-257800Y-227030D01*
X-257968Y-226892D01*
X-258052Y-226840D01*
X-258130Y-226780D01*
X-258319Y-226672D01*
X-258504Y-226556D01*
X-258605Y-226508D01*
X-258678Y-226465D01*
X-258797Y-226416D01*
X-258977Y-226330D01*
X-259115Y-226273D01*
X-260426Y-225516D01*
X-261626Y-224595D01*
X-262695Y-223526D01*
X-263616Y-222326D01*
X-264373Y-221015D01*
X-264421Y-220899D01*
X-254000Y-220899D01*
X-253816Y-220888D01*
X-253631Y-220886D01*
X-253501Y-220868D01*
X-253370Y-220859D01*
X-253188Y-220825D01*
X-253005Y-220799D01*
X-252878Y-220765D01*
X-252749Y-220740D01*
X-252573Y-220683D01*
X-252394Y-220634D01*
X-252273Y-220585D01*
X-252148Y-220544D01*
X-251981Y-220464D01*
X-251810Y-220394D01*
X-251696Y-220329D01*
X-251577Y-220273D01*
X-251421Y-220173D01*
X-251260Y-220082D01*
X-251155Y-220003D01*
X-251045Y-219932D01*
X-250902Y-219813D01*
X-250755Y-219702D01*
X-250660Y-219611D01*
X-250559Y-219527D01*
X-250434Y-219391D01*
X-250301Y-219263D01*
X-250219Y-219160D01*
X-250129Y-219064D01*
X-250022Y-218913D01*
X-249906Y-218769D01*
X-249837Y-218656D01*
X-249761Y-218550D01*
X-249673Y-218387D01*
X-249577Y-218229D01*
X-249523Y-218109D01*
X-249461Y-217994D01*
X-249394Y-217821D01*
X-249318Y-217652D01*
X-249280Y-217527D01*
X-249233Y-217404D01*
X-249188Y-217225D01*
X-249135Y-217048D01*
X-249113Y-216918D01*
X-249081Y-216791D01*
X-249060Y-216607D01*
X-249029Y-216424D01*
X-249021Y-216271D01*
X-249008Y-216163D01*
X-249008Y-216162D01*
X-249009Y-216054D01*
X-249001Y-215900D01*
X-249013Y-215715D01*
X-249015Y-215530D01*
X-249033Y-215400D01*
X-249041Y-215269D01*
X-249076Y-215087D01*
X-249101Y-214904D01*
X-249135Y-214777D01*
X-249160Y-214648D01*
X-249218Y-214472D01*
X-249266Y-214294D01*
X-249316Y-214173D01*
X-249357Y-214048D01*
X-249436Y-213880D01*
X-249507Y-213709D01*
X-249571Y-213595D01*
X-249628Y-213476D01*
X-249728Y-213320D01*
X-249819Y-213160D01*
X-249898Y-213055D01*
X-249968Y-212944D01*
X-250087Y-212802D01*
X-250198Y-212654D01*
X-250289Y-212560D01*
X-250374Y-212459D01*
X-250509Y-212333D01*
X-250638Y-212200D01*
X-250741Y-212118D01*
X-250837Y-212029D01*
X-250987Y-211921D01*
X-251132Y-211806D01*
X-251244Y-211737D01*
X-251351Y-211661D01*
X-251513Y-211573D01*
X-251671Y-211476D01*
X-251791Y-211422D01*
X-251907Y-211360D01*
X-252079Y-211293D01*
X-252248Y-211218D01*
X-252374Y-211180D01*
X-252496Y-211132D01*
X-252676Y-211088D01*
X-252853Y-211034D01*
X-252983Y-211012D01*
X-253110Y-210981D01*
X-253293Y-210959D01*
X-253476Y-210928D01*
X-253630Y-210920D01*
X-253738Y-210907D01*
X-253847Y-210909D01*
X-254000Y-210901D01*
X-264421Y-210901D01*
X-264373Y-210785D01*
X-263616Y-209474D01*
X-262518Y-208043D01*
X-262421Y-207898D01*
X-262316Y-207759D01*
X-262244Y-207636D01*
X-262165Y-207518D01*
X-262087Y-207363D01*
X-262001Y-207211D01*
X-261946Y-207080D01*
X-261882Y-206953D01*
X-261824Y-206788D01*
X-261757Y-206628D01*
X-261720Y-206491D01*
X-261672Y-206357D01*
X-261636Y-206186D01*
X-261590Y-206019D01*
X-261569Y-205878D01*
X-261540Y-205739D01*
X-261525Y-205565D01*
X-261500Y-205393D01*
X-261498Y-205250D01*
X-261486Y-205109D01*
X-261493Y-204935D01*
X-261490Y-204761D01*
X-261506Y-204619D01*
X-261512Y-204477D01*
X-261541Y-204306D01*
X-261560Y-204133D01*
X-261594Y-203994D01*
X-261618Y-203854D01*
X-261668Y-203688D01*
X-261709Y-203518D01*
X-261760Y-203385D01*
X-261801Y-203249D01*
X-261872Y-203090D01*
X-261934Y-202928D01*
X-262001Y-202802D01*
X-262059Y-202672D01*
X-262150Y-202523D01*
X-262232Y-202370D01*
X-262314Y-202254D01*
X-262388Y-202132D01*
X-262497Y-201996D01*
X-262598Y-201855D01*
X-262710Y-201729D01*
X-262783Y-201639D01*
X-262855Y-201568D01*
X-262949Y-201464D01*
X-265937Y-198476D01*
X-267057Y-195773D01*
X-267095Y-195696D01*
X-267125Y-195615D01*
X-267233Y-195413D01*
X-267335Y-195206D01*
X-267383Y-195134D01*
X-267423Y-195057D01*
X-267556Y-194870D01*
X-267683Y-194678D01*
X-267739Y-194612D01*
X-267789Y-194542D01*
X-268011Y-194295D01*
X-268094Y-194198D01*
X-268116Y-194178D01*
X-268140Y-194152D01*
X-285905Y-176387D01*
X-286093Y-176221D01*
X-286277Y-176051D01*
X-286330Y-176012D01*
X-286379Y-175969D01*
X-286587Y-175828D01*
X-286790Y-175683D01*
X-286848Y-175651D01*
X-286903Y-175614D01*
X-287127Y-175501D01*
X-287346Y-175382D01*
X-287408Y-175358D01*
X-287466Y-175329D01*
X-287702Y-175244D01*
X-287936Y-175154D01*
X-288000Y-175138D01*
X-288062Y-175116D01*
X-288306Y-175063D01*
X-288550Y-175002D01*
X-288615Y-174995D01*
X-288679Y-174981D01*
X-288929Y-174958D01*
X-289177Y-174929D01*
X-289243Y-174930D01*
X-289309Y-174924D01*
X-289560Y-174934D01*
X-289810Y-174936D01*
X-289874Y-174945D01*
X-289940Y-174948D01*
X-290188Y-174988D01*
X-290436Y-175023D01*
X-290499Y-175040D01*
X-290564Y-175051D01*
X-290804Y-175122D01*
X-291046Y-175188D01*
X-291107Y-175213D01*
X-291170Y-175231D01*
X-291399Y-175333D01*
X-291630Y-175428D01*
X-291688Y-175461D01*
X-291748Y-175487D01*
X-291962Y-175617D01*
X-292180Y-175740D01*
X-292233Y-175780D01*
X-292289Y-175814D01*
X-292486Y-175969D01*
X-292686Y-176119D01*
X-292733Y-176165D01*
X-292785Y-176206D01*
X-292960Y-176385D01*
X-293140Y-176559D01*
X-293181Y-176611D01*
X-293227Y-176658D01*
X-293378Y-176857D01*
X-293534Y-177053D01*
X-293569Y-177109D01*
X-293608Y-177162D01*
X-293733Y-177379D01*
X-293864Y-177593D01*
X-293890Y-177653D01*
X-293923Y-177710D01*
X-294020Y-177941D01*
X-294122Y-178170D01*
X-294141Y-178232D01*
X-294167Y-178293D01*
X-294233Y-178535D01*
X-294306Y-178774D01*
X-294317Y-178839D01*
X-294334Y-178903D01*
X-294370Y-179151D01*
X-294412Y-179397D01*
X-294416Y-179471D01*
X-294424Y-179528D01*
X-294426Y-179668D01*
X-294439Y-179922D01*
X-294439Y-350361D01*
X-294425Y-350589D01*
X-294418Y-350817D01*
X-294405Y-350904D01*
X-294399Y-350991D01*
X-294356Y-351216D01*
X-294321Y-351442D01*
X-294297Y-351526D01*
X-294280Y-351612D01*
X-294209Y-351829D01*
X-294145Y-352049D01*
X-294111Y-352130D01*
X-294083Y-352213D01*
X-293985Y-352420D01*
X-293895Y-352629D01*
X-293850Y-352705D01*
X-293813Y-352784D01*
X-293689Y-352977D01*
X-293573Y-353173D01*
X-293519Y-353243D01*
X-293472Y-353316D01*
X-293325Y-353492D01*
X-293185Y-353672D01*
X-293123Y-353734D01*
X-293067Y-353802D01*
X-292899Y-353957D01*
X-292737Y-354119D01*
X-292668Y-354172D01*
X-292603Y-354232D01*
X-292418Y-354365D01*
X-292236Y-354505D01*
X-292161Y-354549D01*
X-292090Y-354600D01*
X-291889Y-354708D01*
X-291691Y-354824D01*
X-291611Y-354859D01*
X-291534Y-354900D01*
X-291320Y-354983D01*
X-291110Y-355073D01*
X-291026Y-355097D01*
X-290944Y-355128D01*
X-290722Y-355183D01*
X-290502Y-355246D01*
X-290416Y-355259D01*
X-290330Y-355280D01*
X-290103Y-355306D01*
X-289877Y-355341D01*
X-289790Y-355343D01*
X-289703Y-355353D01*
X-289474Y-355350D01*
X-289245Y-355356D01*
X-289158Y-355347D01*
X-289070Y-355346D01*
X-288844Y-355315D01*
X-288616Y-355292D01*
X-288531Y-355272D01*
X-288444Y-355260D01*
X-288223Y-355200D01*
X-288001Y-355148D01*
X-287919Y-355118D01*
X-287834Y-355095D01*
X-287623Y-355008D01*
X-287408Y-354928D01*
X-287320Y-354883D01*
X-287250Y-354854D01*
X-287133Y-354788D01*
X-286940Y-354690D01*
X-285302Y-353744D01*
X-278902Y-352029D01*
X-272278Y-352029D01*
X-265878Y-353744D01*
X-260141Y-357056D01*
X-255456Y-361741D01*
X-252144Y-367478D01*
X-250429Y-373878D01*
X-250429Y-380502D01*
X-252075Y-386646D01*
X-252116Y-386849D01*
X-252166Y-387050D01*
X-252179Y-387158D01*
X-252200Y-387266D01*
X-252215Y-387472D01*
X-252239Y-387677D01*
X-252238Y-387787D01*
X-252246Y-387896D01*
X-252234Y-388103D01*
X-252232Y-388310D01*
X-252217Y-388418D01*
X-252211Y-388527D01*
X-252174Y-388731D01*
X-252146Y-388936D01*
X-252117Y-389041D01*
X-252097Y-389149D01*
X-252035Y-389346D01*
X-251981Y-389546D01*
X-251939Y-389647D01*
X-251906Y-389752D01*
X-251819Y-389939D01*
X-251740Y-390130D01*
X-251686Y-390226D01*
X-251640Y-390325D01*
X-251530Y-390500D01*
X-251428Y-390680D01*
X-251362Y-390768D01*
X-251304Y-390860D01*
X-251173Y-391020D01*
X-251049Y-391186D01*
X-250973Y-391264D01*
X-250903Y-391349D01*
X-250753Y-391491D01*
X-250609Y-391640D01*
X-250523Y-391708D01*
X-250444Y-391783D01*
X-250277Y-391905D01*
X-250115Y-392034D01*
X-250022Y-392091D01*
X-249933Y-392156D01*
X-249752Y-392256D01*
X-249576Y-392364D01*
X-249476Y-392408D01*
X-249380Y-392461D01*
X-249188Y-392537D01*
X-248999Y-392622D01*
X-248894Y-392654D01*
X-248792Y-392694D01*
X-248592Y-392746D01*
X-248394Y-392806D01*
X-248286Y-392824D01*
X-248180Y-392851D01*
X-247975Y-392877D01*
X-247771Y-392912D01*
X-247645Y-392918D01*
X-247553Y-392930D01*
X-247430Y-392930D01*
X-247247Y-392939D01*
X-115044Y-392939D01*
X-114838Y-392926D01*
G37*
%LPC*%
G36*
X-157918Y-39371D02*
X-157918Y-39371D01*
X-168577Y-36515D01*
X-178134Y-30997D01*
X-185937Y-23194D01*
X-191455Y-13637D01*
X-194311Y-2978D01*
X-194311Y8058D01*
X-191455Y18717D01*
X-185937Y28274D01*
X-178134Y36077D01*
X-168577Y41595D01*
X-157918Y44451D01*
X-146882Y44451D01*
X-136223Y41595D01*
X-126666Y36077D01*
X-118863Y28274D01*
X-113345Y18717D01*
X-110489Y8058D01*
X-110489Y-2978D01*
X-113345Y-13637D01*
X-118863Y-23194D01*
X-126666Y-30997D01*
X-136223Y-36515D01*
X-146882Y-39371D01*
X-157918Y-39371D01*
G37*
%LPD*%
%LPC*%
G36*
X-122001Y-177719D02*
X-122001Y-177719D01*
X-113283Y-177719D01*
X-113283Y-184795D01*
X-113518Y-186578D01*
X-113983Y-188314D01*
X-114671Y-189976D01*
X-115570Y-191533D01*
X-116665Y-192960D01*
X-117936Y-194231D01*
X-119363Y-195326D01*
X-120920Y-196225D01*
X-122001Y-196672D01*
X-122001Y-177719D01*
G37*
%LPD*%
%LPC*%
G36*
X-122001Y-167721D02*
X-122001Y-167721D01*
X-122001Y-148768D01*
X-120920Y-149215D01*
X-119363Y-150114D01*
X-117936Y-151209D01*
X-116665Y-152480D01*
X-115570Y-153907D01*
X-114671Y-155464D01*
X-113983Y-157126D01*
X-113518Y-158862D01*
X-113283Y-160645D01*
X-113283Y-167721D01*
X-122001Y-167721D01*
G37*
%LPD*%
%LPC*%
G36*
X-122101Y-330201D02*
X-122101Y-330201D01*
X-129541Y-322761D01*
X-129541Y-322499D01*
X-121839Y-322499D01*
X-121839Y-330201D01*
X-122101Y-330201D01*
G37*
%LPD*%
%LPC*%
G36*
X-129541Y-312501D02*
X-129541Y-312501D01*
X-129541Y-312239D01*
X-122101Y-304799D01*
X-121839Y-304799D01*
X-121839Y-312501D01*
X-129541Y-312501D01*
G37*
%LPD*%
%LPC*%
G36*
X-111841Y-330201D02*
X-111841Y-330201D01*
X-111841Y-322499D01*
X-104139Y-322499D01*
X-104139Y-322761D01*
X-111579Y-330201D01*
X-111841Y-330201D01*
G37*
%LPD*%
%LPC*%
G36*
X-111841Y-312501D02*
X-111841Y-312501D01*
X-111841Y-304799D01*
X-111579Y-304799D01*
X-104139Y-312239D01*
X-104139Y-312501D01*
X-111841Y-312501D01*
G37*
%LPD*%
%LPC*%
G36*
X-111688Y-246299D02*
X-111688Y-246299D01*
X-106599Y-246299D01*
X-106599Y-251388D01*
X-111688Y-246299D01*
G37*
%LPD*%
%LPC*%
G36*
X-111688Y-236301D02*
X-111688Y-236301D01*
X-106599Y-231212D01*
X-106599Y-236301D01*
X-111688Y-236301D01*
G37*
%LPD*%
%LPC*%
G36*
X-96601Y-246299D02*
X-96601Y-246299D01*
X-91512Y-246299D01*
X-96601Y-251388D01*
X-96601Y-246299D01*
G37*
%LPD*%
%LPC*%
G36*
X-96601Y-236301D02*
X-96601Y-236301D01*
X-96601Y-231212D01*
X-91512Y-236301D01*
X-96601Y-236301D01*
G37*
%LPD*%
D10*
X-177800Y-183896D02*
X-177800Y-161544D01*
X-152400Y-161544D02*
X-152400Y-183896D01*
X-127000Y-183896D02*
X-127000Y-161544D01*
D11*
X-101600Y-241300D03*
X-177800Y-241300D03*
D12*
X-254000Y-292100D03*
X-254000Y-317500D03*
X-255270Y1270D03*
X-255270Y-24130D03*
D13*
X-116840Y-317500D03*
X-162560Y-317500D03*
D12*
X-254000Y-215900D03*
X-254000Y-190500D03*
X-254000Y-96520D03*
X-254000Y-121920D03*
D14*
X-177800Y-172720D02*
X-177800Y-241300D01*
X-177800Y-172720D02*
X-254000Y-248920D01*
X-254000Y-292100D01*
X-255270Y1270D02*
X-264160Y1270D01*
X-279400Y-13970D01*
X-262890Y-96520D02*
X-254000Y-96520D01*
X-262890Y-96520D02*
X-279400Y-113030D01*
X-279400Y-165100D01*
X-254000Y-190500D01*
X-254000Y-96520D02*
X-279400Y-71120D01*
X-279400Y-13970D01*
X-254000Y-317500D02*
X-162560Y-317500D01*
X-171450Y-95250D02*
X-242570Y-24130D01*
X-255270Y-24130D01*
X-171450Y-95250D02*
X-152400Y-114300D01*
X-152400Y-172720D01*
X-213360Y-121920D02*
X-254000Y-121920D01*
X-186690Y-95250D02*
X-171450Y-95250D01*
X-186690Y-95250D02*
X-213360Y-121920D01*
M02*
