G04 EAGLE Gerber RS-274X export*
G75*
%MOMM*%
%FSLAX34Y34*%
%LPD*%
%IN*%
%IPPOS*%
%AMOC8*
5,1,8,0,0,1.08239X$1,22.5*%
G01*
%ADD10C,0.254000*%


D10*
X-304600Y-403100D02*
X-63500Y-403100D01*
X-63500Y76200D01*
X-304600Y76200D01*
X-304600Y-403100D01*
X-260590Y-377726D02*
X-260666Y-378794D01*
X-260819Y-379855D01*
X-261047Y-380902D01*
X-261349Y-381930D01*
X-261723Y-382934D01*
X-262168Y-383909D01*
X-262682Y-384849D01*
X-263261Y-385750D01*
X-263903Y-386608D01*
X-264605Y-387418D01*
X-265362Y-388175D01*
X-266172Y-388877D01*
X-267030Y-389519D01*
X-267931Y-390098D01*
X-268871Y-390612D01*
X-269846Y-391057D01*
X-270850Y-391431D01*
X-271878Y-391733D01*
X-272925Y-391961D01*
X-273986Y-392114D01*
X-275054Y-392190D01*
X-276126Y-392190D01*
X-277194Y-392114D01*
X-278255Y-391961D01*
X-279302Y-391733D01*
X-280330Y-391431D01*
X-281334Y-391057D01*
X-282309Y-390612D01*
X-283249Y-390098D01*
X-284150Y-389519D01*
X-285008Y-388877D01*
X-285818Y-388175D01*
X-286575Y-387418D01*
X-287277Y-386608D01*
X-287919Y-385750D01*
X-288498Y-384849D01*
X-289012Y-383909D01*
X-289457Y-382934D01*
X-289831Y-381930D01*
X-290133Y-380902D01*
X-290361Y-379855D01*
X-290514Y-378794D01*
X-290590Y-377726D01*
X-290590Y-376654D01*
X-290514Y-375586D01*
X-290361Y-374525D01*
X-290133Y-373478D01*
X-289831Y-372450D01*
X-289457Y-371446D01*
X-289012Y-370471D01*
X-288498Y-369531D01*
X-287919Y-368630D01*
X-287277Y-367772D01*
X-286575Y-366962D01*
X-285818Y-366205D01*
X-285008Y-365503D01*
X-284150Y-364861D01*
X-283249Y-364282D01*
X-282309Y-363768D01*
X-281334Y-363323D01*
X-280330Y-362949D01*
X-279302Y-362647D01*
X-278255Y-362419D01*
X-277194Y-362266D01*
X-276126Y-362190D01*
X-275054Y-362190D01*
X-273986Y-362266D01*
X-272925Y-362419D01*
X-271878Y-362647D01*
X-270850Y-362949D01*
X-269846Y-363323D01*
X-268871Y-363768D01*
X-267931Y-364282D01*
X-267030Y-364861D01*
X-266172Y-365503D01*
X-265362Y-366205D01*
X-264605Y-366962D01*
X-263903Y-367772D01*
X-263261Y-368630D01*
X-262682Y-369531D01*
X-262168Y-370471D01*
X-261723Y-371446D01*
X-261349Y-372450D01*
X-261047Y-373478D01*
X-260819Y-374525D01*
X-260666Y-375586D01*
X-260590Y-376654D01*
X-260590Y-377726D01*
X-71360Y-378996D02*
X-71436Y-380064D01*
X-71589Y-381125D01*
X-71817Y-382172D01*
X-72119Y-383200D01*
X-72493Y-384204D01*
X-72938Y-385179D01*
X-73452Y-386119D01*
X-74031Y-387020D01*
X-74673Y-387878D01*
X-75375Y-388688D01*
X-76132Y-389445D01*
X-76942Y-390147D01*
X-77800Y-390789D01*
X-78701Y-391368D01*
X-79641Y-391882D01*
X-80616Y-392327D01*
X-81620Y-392701D01*
X-82648Y-393003D01*
X-83695Y-393231D01*
X-84756Y-393384D01*
X-85824Y-393460D01*
X-86896Y-393460D01*
X-87964Y-393384D01*
X-89025Y-393231D01*
X-90072Y-393003D01*
X-91100Y-392701D01*
X-92104Y-392327D01*
X-93079Y-391882D01*
X-94019Y-391368D01*
X-94920Y-390789D01*
X-95778Y-390147D01*
X-96588Y-389445D01*
X-97345Y-388688D01*
X-98047Y-387878D01*
X-98689Y-387020D01*
X-99268Y-386119D01*
X-99782Y-385179D01*
X-100227Y-384204D01*
X-100601Y-383200D01*
X-100903Y-382172D01*
X-101131Y-381125D01*
X-101284Y-380064D01*
X-101360Y-378996D01*
X-101360Y-377924D01*
X-101284Y-376856D01*
X-101131Y-375795D01*
X-100903Y-374748D01*
X-100601Y-373720D01*
X-100227Y-372716D01*
X-99782Y-371741D01*
X-99268Y-370801D01*
X-98689Y-369900D01*
X-98047Y-369042D01*
X-97345Y-368232D01*
X-96588Y-367475D01*
X-95778Y-366773D01*
X-94920Y-366131D01*
X-94019Y-365552D01*
X-93079Y-365038D01*
X-92104Y-364593D01*
X-91100Y-364219D01*
X-90072Y-363917D01*
X-89025Y-363689D01*
X-87964Y-363536D01*
X-86896Y-363460D01*
X-85824Y-363460D01*
X-84756Y-363536D01*
X-83695Y-363689D01*
X-82648Y-363917D01*
X-81620Y-364219D01*
X-80616Y-364593D01*
X-79641Y-365038D01*
X-78701Y-365552D01*
X-77800Y-366131D01*
X-76942Y-366773D01*
X-76132Y-367475D01*
X-75375Y-368232D01*
X-74673Y-369042D01*
X-74031Y-369900D01*
X-73452Y-370801D01*
X-72938Y-371741D01*
X-72493Y-372716D01*
X-72119Y-373720D01*
X-71817Y-374748D01*
X-71589Y-375795D01*
X-71436Y-376856D01*
X-71360Y-377924D01*
X-71360Y-378996D01*
X-264400Y50264D02*
X-264476Y49196D01*
X-264629Y48135D01*
X-264857Y47088D01*
X-265159Y46060D01*
X-265533Y45056D01*
X-265978Y44081D01*
X-266492Y43141D01*
X-267071Y42240D01*
X-267713Y41382D01*
X-268415Y40572D01*
X-269172Y39815D01*
X-269982Y39113D01*
X-270840Y38471D01*
X-271741Y37892D01*
X-272681Y37378D01*
X-273656Y36933D01*
X-274660Y36559D01*
X-275688Y36257D01*
X-276735Y36029D01*
X-277796Y35876D01*
X-278864Y35800D01*
X-279936Y35800D01*
X-281004Y35876D01*
X-282065Y36029D01*
X-283112Y36257D01*
X-284140Y36559D01*
X-285144Y36933D01*
X-286119Y37378D01*
X-287059Y37892D01*
X-287960Y38471D01*
X-288818Y39113D01*
X-289628Y39815D01*
X-290385Y40572D01*
X-291087Y41382D01*
X-291729Y42240D01*
X-292308Y43141D01*
X-292822Y44081D01*
X-293267Y45056D01*
X-293641Y46060D01*
X-293943Y47088D01*
X-294171Y48135D01*
X-294324Y49196D01*
X-294400Y50264D01*
X-294400Y51336D01*
X-294324Y52404D01*
X-294171Y53465D01*
X-293943Y54512D01*
X-293641Y55540D01*
X-293267Y56544D01*
X-292822Y57519D01*
X-292308Y58459D01*
X-291729Y59360D01*
X-291087Y60218D01*
X-290385Y61028D01*
X-289628Y61785D01*
X-288818Y62487D01*
X-287960Y63129D01*
X-287059Y63708D01*
X-286119Y64222D01*
X-285144Y64667D01*
X-284140Y65041D01*
X-283112Y65343D01*
X-282065Y65571D01*
X-281004Y65724D01*
X-279936Y65800D01*
X-278864Y65800D01*
X-277796Y65724D01*
X-276735Y65571D01*
X-275688Y65343D01*
X-274660Y65041D01*
X-273656Y64667D01*
X-272681Y64222D01*
X-271741Y63708D01*
X-270840Y63129D01*
X-269982Y62487D01*
X-269172Y61785D01*
X-268415Y61028D01*
X-267713Y60218D01*
X-267071Y59360D01*
X-266492Y58459D01*
X-265978Y57519D01*
X-265533Y56544D01*
X-265159Y55540D01*
X-264857Y54512D01*
X-264629Y53465D01*
X-264476Y52404D01*
X-264400Y51336D01*
X-264400Y50264D01*
X-73900Y51534D02*
X-73976Y50466D01*
X-74129Y49405D01*
X-74357Y48358D01*
X-74659Y47330D01*
X-75033Y46326D01*
X-75478Y45351D01*
X-75992Y44411D01*
X-76571Y43510D01*
X-77213Y42652D01*
X-77915Y41842D01*
X-78672Y41085D01*
X-79482Y40383D01*
X-80340Y39741D01*
X-81241Y39162D01*
X-82181Y38648D01*
X-83156Y38203D01*
X-84160Y37829D01*
X-85188Y37527D01*
X-86235Y37299D01*
X-87296Y37146D01*
X-88364Y37070D01*
X-89436Y37070D01*
X-90504Y37146D01*
X-91565Y37299D01*
X-92612Y37527D01*
X-93640Y37829D01*
X-94644Y38203D01*
X-95619Y38648D01*
X-96559Y39162D01*
X-97460Y39741D01*
X-98318Y40383D01*
X-99128Y41085D01*
X-99885Y41842D01*
X-100587Y42652D01*
X-101229Y43510D01*
X-101808Y44411D01*
X-102322Y45351D01*
X-102767Y46326D01*
X-103141Y47330D01*
X-103443Y48358D01*
X-103671Y49405D01*
X-103824Y50466D01*
X-103900Y51534D01*
X-103900Y52606D01*
X-103824Y53674D01*
X-103671Y54735D01*
X-103443Y55782D01*
X-103141Y56810D01*
X-102767Y57814D01*
X-102322Y58789D01*
X-101808Y59729D01*
X-101229Y60630D01*
X-100587Y61488D01*
X-99885Y62298D01*
X-99128Y63055D01*
X-98318Y63757D01*
X-97460Y64399D01*
X-96559Y64978D01*
X-95619Y65492D01*
X-94644Y65937D01*
X-93640Y66311D01*
X-92612Y66613D01*
X-91565Y66841D01*
X-90504Y66994D01*
X-89436Y67070D01*
X-88364Y67070D01*
X-87296Y66994D01*
X-86235Y66841D01*
X-85188Y66613D01*
X-84160Y66311D01*
X-83156Y65937D01*
X-82181Y65492D01*
X-81241Y64978D01*
X-80340Y64399D01*
X-79482Y63757D01*
X-78672Y63055D01*
X-77915Y62298D01*
X-77213Y61488D01*
X-76571Y60630D01*
X-75992Y59729D01*
X-75478Y58789D01*
X-75033Y57814D01*
X-74659Y56810D01*
X-74357Y55782D01*
X-74129Y54735D01*
X-73976Y53674D01*
X-73900Y52606D01*
X-73900Y51534D01*
X-135890Y2000D02*
X-135961Y921D01*
X-136102Y-151D01*
X-136313Y-1211D01*
X-136592Y-2255D01*
X-136940Y-3279D01*
X-137354Y-4277D01*
X-137832Y-5247D01*
X-138372Y-6183D01*
X-138973Y-7082D01*
X-139631Y-7939D01*
X-140344Y-8752D01*
X-141108Y-9517D01*
X-141921Y-10229D01*
X-142778Y-10887D01*
X-143677Y-11488D01*
X-144613Y-12028D01*
X-145583Y-12506D01*
X-146581Y-12920D01*
X-147605Y-13268D01*
X-148649Y-13547D01*
X-149709Y-13758D01*
X-150781Y-13899D01*
X-151860Y-13970D01*
X-152940Y-13970D01*
X-154019Y-13899D01*
X-155091Y-13758D01*
X-156151Y-13547D01*
X-157195Y-13268D01*
X-158219Y-12920D01*
X-159217Y-12506D01*
X-160187Y-12028D01*
X-161123Y-11488D01*
X-162022Y-10887D01*
X-162879Y-10229D01*
X-163692Y-9517D01*
X-164457Y-8752D01*
X-165169Y-7939D01*
X-165827Y-7082D01*
X-166428Y-6183D01*
X-166968Y-5247D01*
X-167446Y-4277D01*
X-167860Y-3279D01*
X-168208Y-2255D01*
X-168487Y-1211D01*
X-168698Y-151D01*
X-168839Y921D01*
X-168910Y2000D01*
X-168910Y3080D01*
X-168839Y4159D01*
X-168698Y5231D01*
X-168487Y6291D01*
X-168208Y7335D01*
X-167860Y8359D01*
X-167446Y9357D01*
X-166968Y10327D01*
X-166428Y11263D01*
X-165827Y12162D01*
X-165169Y13019D01*
X-164457Y13832D01*
X-163692Y14597D01*
X-162879Y15309D01*
X-162022Y15967D01*
X-161123Y16568D01*
X-160187Y17108D01*
X-159217Y17586D01*
X-158219Y18000D01*
X-157195Y18348D01*
X-156151Y18627D01*
X-155091Y18838D01*
X-154019Y18979D01*
X-152940Y19050D01*
X-151860Y19050D01*
X-150781Y18979D01*
X-149709Y18838D01*
X-148649Y18627D01*
X-147605Y18348D01*
X-146581Y18000D01*
X-145583Y17586D01*
X-144613Y17108D01*
X-143677Y16568D01*
X-142778Y15967D01*
X-141921Y15309D01*
X-141108Y14597D01*
X-140344Y13832D01*
X-139631Y13019D01*
X-138973Y12162D01*
X-138372Y11263D01*
X-137832Y10327D01*
X-137354Y9357D01*
X-136940Y8359D01*
X-136592Y7335D01*
X-136313Y6291D01*
X-136102Y5231D01*
X-135961Y4159D01*
X-135890Y3080D01*
X-135890Y2000D01*
M02*
