G04 EAGLE Gerber RS-274X export*
G75*
%MOMM*%
%FSLAX34Y34*%
%LPD*%
%INSilkscreen Bottom*%
%IPPOS*%
%AMOC8*
5,1,8,0,0,1.08239X$1,22.5*%
G01*
%ADD10C,0.152400*%
%ADD11R,0.381000X0.508000*%
%ADD12C,0.101600*%
%ADD13C,0.127000*%
%ADD14C,0.050800*%


D10*
X-114300Y-233680D02*
X-114302Y-233580D01*
X-114308Y-233481D01*
X-114318Y-233381D01*
X-114331Y-233283D01*
X-114349Y-233184D01*
X-114370Y-233087D01*
X-114395Y-232991D01*
X-114424Y-232895D01*
X-114457Y-232801D01*
X-114493Y-232708D01*
X-114533Y-232617D01*
X-114577Y-232527D01*
X-114624Y-232439D01*
X-114674Y-232353D01*
X-114728Y-232269D01*
X-114785Y-232187D01*
X-114845Y-232108D01*
X-114909Y-232030D01*
X-114975Y-231956D01*
X-115044Y-231884D01*
X-115116Y-231815D01*
X-115190Y-231749D01*
X-115268Y-231685D01*
X-115347Y-231625D01*
X-115429Y-231568D01*
X-115513Y-231514D01*
X-115599Y-231464D01*
X-115687Y-231417D01*
X-115777Y-231373D01*
X-115868Y-231333D01*
X-115961Y-231297D01*
X-116055Y-231264D01*
X-116151Y-231235D01*
X-116247Y-231210D01*
X-116344Y-231189D01*
X-116443Y-231171D01*
X-116541Y-231158D01*
X-116641Y-231148D01*
X-116740Y-231142D01*
X-116840Y-231140D01*
X-114300Y-248920D02*
X-114302Y-249020D01*
X-114308Y-249119D01*
X-114318Y-249219D01*
X-114331Y-249317D01*
X-114349Y-249416D01*
X-114370Y-249513D01*
X-114395Y-249609D01*
X-114424Y-249705D01*
X-114457Y-249799D01*
X-114493Y-249892D01*
X-114533Y-249983D01*
X-114577Y-250073D01*
X-114624Y-250161D01*
X-114674Y-250247D01*
X-114728Y-250331D01*
X-114785Y-250413D01*
X-114845Y-250492D01*
X-114909Y-250570D01*
X-114975Y-250644D01*
X-115044Y-250716D01*
X-115116Y-250785D01*
X-115190Y-250851D01*
X-115268Y-250915D01*
X-115347Y-250975D01*
X-115429Y-251032D01*
X-115513Y-251086D01*
X-115599Y-251136D01*
X-115687Y-251183D01*
X-115777Y-251227D01*
X-115868Y-251267D01*
X-115961Y-251303D01*
X-116055Y-251336D01*
X-116151Y-251365D01*
X-116247Y-251390D01*
X-116344Y-251411D01*
X-116443Y-251429D01*
X-116541Y-251442D01*
X-116641Y-251452D01*
X-116740Y-251458D01*
X-116840Y-251460D01*
X-162560Y-251460D02*
X-162660Y-251458D01*
X-162759Y-251452D01*
X-162859Y-251442D01*
X-162957Y-251429D01*
X-163056Y-251411D01*
X-163153Y-251390D01*
X-163249Y-251365D01*
X-163345Y-251336D01*
X-163439Y-251303D01*
X-163532Y-251267D01*
X-163623Y-251227D01*
X-163713Y-251183D01*
X-163801Y-251136D01*
X-163887Y-251086D01*
X-163971Y-251032D01*
X-164053Y-250975D01*
X-164132Y-250915D01*
X-164210Y-250851D01*
X-164284Y-250785D01*
X-164356Y-250716D01*
X-164425Y-250644D01*
X-164491Y-250570D01*
X-164555Y-250492D01*
X-164615Y-250413D01*
X-164672Y-250331D01*
X-164726Y-250247D01*
X-164776Y-250161D01*
X-164823Y-250073D01*
X-164867Y-249983D01*
X-164907Y-249892D01*
X-164943Y-249799D01*
X-164976Y-249705D01*
X-165005Y-249609D01*
X-165030Y-249513D01*
X-165051Y-249416D01*
X-165069Y-249317D01*
X-165082Y-249219D01*
X-165092Y-249119D01*
X-165098Y-249020D01*
X-165100Y-248920D01*
X-165100Y-233680D02*
X-165098Y-233580D01*
X-165092Y-233481D01*
X-165082Y-233381D01*
X-165069Y-233283D01*
X-165051Y-233184D01*
X-165030Y-233087D01*
X-165005Y-232991D01*
X-164976Y-232895D01*
X-164943Y-232801D01*
X-164907Y-232708D01*
X-164867Y-232617D01*
X-164823Y-232527D01*
X-164776Y-232439D01*
X-164726Y-232353D01*
X-164672Y-232269D01*
X-164615Y-232187D01*
X-164555Y-232108D01*
X-164491Y-232030D01*
X-164425Y-231956D01*
X-164356Y-231884D01*
X-164284Y-231815D01*
X-164210Y-231749D01*
X-164132Y-231685D01*
X-164053Y-231625D01*
X-163971Y-231568D01*
X-163887Y-231514D01*
X-163801Y-231464D01*
X-163713Y-231417D01*
X-163623Y-231373D01*
X-163532Y-231333D01*
X-163439Y-231297D01*
X-163345Y-231264D01*
X-163249Y-231235D01*
X-163153Y-231210D01*
X-163056Y-231189D01*
X-162957Y-231171D01*
X-162859Y-231158D01*
X-162759Y-231148D01*
X-162660Y-231142D01*
X-162560Y-231140D01*
X-114300Y-233680D02*
X-114300Y-248920D01*
X-116840Y-231140D02*
X-120650Y-231140D01*
X-121920Y-232410D01*
X-120650Y-251460D02*
X-116840Y-251460D01*
X-120650Y-251460D02*
X-121920Y-250190D01*
X-157480Y-232410D02*
X-158750Y-231140D01*
X-157480Y-232410D02*
X-121920Y-232410D01*
X-157480Y-250190D02*
X-158750Y-251460D01*
X-157480Y-250190D02*
X-121920Y-250190D01*
X-158750Y-231140D02*
X-162560Y-231140D01*
X-162560Y-251460D02*
X-158750Y-251460D01*
X-165100Y-248920D02*
X-165100Y-233680D01*
D11*
X-167005Y-241300D03*
X-112395Y-241300D03*
D12*
X-114808Y-227838D02*
X-114808Y-218948D01*
X-117277Y-218948D01*
X-117375Y-218950D01*
X-117473Y-218956D01*
X-117571Y-218966D01*
X-117668Y-218979D01*
X-117765Y-218997D01*
X-117861Y-219018D01*
X-117955Y-219043D01*
X-118049Y-219072D01*
X-118142Y-219104D01*
X-118233Y-219141D01*
X-118323Y-219180D01*
X-118411Y-219224D01*
X-118497Y-219271D01*
X-118582Y-219321D01*
X-118664Y-219374D01*
X-118744Y-219431D01*
X-118822Y-219491D01*
X-118897Y-219554D01*
X-118970Y-219620D01*
X-119040Y-219689D01*
X-119107Y-219760D01*
X-119172Y-219834D01*
X-119233Y-219911D01*
X-119292Y-219990D01*
X-119347Y-220071D01*
X-119399Y-220154D01*
X-119447Y-220240D01*
X-119492Y-220327D01*
X-119534Y-220416D01*
X-119572Y-220506D01*
X-119606Y-220598D01*
X-119637Y-220691D01*
X-119664Y-220786D01*
X-119687Y-220881D01*
X-119707Y-220978D01*
X-119722Y-221074D01*
X-119734Y-221172D01*
X-119742Y-221270D01*
X-119746Y-221368D01*
X-119746Y-221466D01*
X-119742Y-221564D01*
X-119734Y-221662D01*
X-119722Y-221760D01*
X-119707Y-221856D01*
X-119687Y-221953D01*
X-119664Y-222048D01*
X-119637Y-222143D01*
X-119606Y-222236D01*
X-119572Y-222328D01*
X-119534Y-222418D01*
X-119492Y-222507D01*
X-119447Y-222594D01*
X-119399Y-222680D01*
X-119347Y-222763D01*
X-119292Y-222844D01*
X-119233Y-222923D01*
X-119172Y-223000D01*
X-119107Y-223074D01*
X-119040Y-223145D01*
X-118970Y-223214D01*
X-118897Y-223280D01*
X-118822Y-223343D01*
X-118744Y-223403D01*
X-118664Y-223460D01*
X-118582Y-223513D01*
X-118497Y-223563D01*
X-118411Y-223610D01*
X-118323Y-223654D01*
X-118233Y-223693D01*
X-118142Y-223730D01*
X-118049Y-223762D01*
X-117955Y-223791D01*
X-117861Y-223816D01*
X-117765Y-223837D01*
X-117668Y-223855D01*
X-117571Y-223868D01*
X-117473Y-223878D01*
X-117375Y-223884D01*
X-117277Y-223886D01*
X-117277Y-223887D02*
X-114808Y-223887D01*
X-117771Y-223887D02*
X-119747Y-227838D01*
X-123658Y-220924D02*
X-126127Y-218948D01*
X-126127Y-227838D01*
X-123658Y-227838D02*
X-128597Y-227838D01*
D13*
X-228600Y-241300D02*
X-279400Y-241300D01*
X-279400Y-223520D01*
X-279400Y-208280D01*
X-279400Y-198120D02*
X-279400Y-182880D01*
X-279400Y-165100D01*
X-228600Y-165100D01*
X-228600Y-241300D01*
X-274320Y-223520D02*
X-279400Y-223520D01*
X-279400Y-208280D02*
X-274320Y-208280D01*
X-279400Y-208280D02*
X-279400Y-198120D01*
X-274320Y-198120D01*
X-274320Y-182880D02*
X-279400Y-182880D01*
X-274320Y-208280D02*
X-274320Y-223520D01*
X-274320Y-198120D02*
X-274320Y-182880D01*
D14*
X-224564Y-226483D02*
X-220218Y-226483D01*
X-224564Y-226483D02*
X-224634Y-226485D01*
X-224703Y-226491D01*
X-224772Y-226501D01*
X-224840Y-226514D01*
X-224908Y-226532D01*
X-224974Y-226553D01*
X-225039Y-226578D01*
X-225103Y-226606D01*
X-225165Y-226638D01*
X-225225Y-226673D01*
X-225283Y-226712D01*
X-225338Y-226754D01*
X-225392Y-226799D01*
X-225442Y-226847D01*
X-225490Y-226897D01*
X-225535Y-226951D01*
X-225577Y-227006D01*
X-225616Y-227064D01*
X-225651Y-227124D01*
X-225683Y-227186D01*
X-225711Y-227250D01*
X-225736Y-227315D01*
X-225757Y-227381D01*
X-225775Y-227449D01*
X-225788Y-227517D01*
X-225798Y-227586D01*
X-225804Y-227655D01*
X-225806Y-227725D01*
X-225806Y-228346D01*
X-225806Y-222262D02*
X-225804Y-222192D01*
X-225798Y-222123D01*
X-225788Y-222054D01*
X-225775Y-221986D01*
X-225757Y-221918D01*
X-225736Y-221852D01*
X-225711Y-221787D01*
X-225683Y-221723D01*
X-225651Y-221661D01*
X-225616Y-221601D01*
X-225577Y-221543D01*
X-225535Y-221488D01*
X-225490Y-221434D01*
X-225442Y-221384D01*
X-225392Y-221336D01*
X-225338Y-221291D01*
X-225283Y-221249D01*
X-225225Y-221210D01*
X-225165Y-221175D01*
X-225103Y-221143D01*
X-225039Y-221115D01*
X-224974Y-221090D01*
X-224908Y-221069D01*
X-224840Y-221051D01*
X-224772Y-221038D01*
X-224703Y-221028D01*
X-224634Y-221022D01*
X-224564Y-221020D01*
X-225806Y-222261D02*
X-225804Y-222360D01*
X-225799Y-222458D01*
X-225789Y-222556D01*
X-225776Y-222654D01*
X-225760Y-222751D01*
X-225740Y-222848D01*
X-225716Y-222943D01*
X-225688Y-223038D01*
X-225657Y-223132D01*
X-225623Y-223224D01*
X-225585Y-223315D01*
X-225544Y-223405D01*
X-225499Y-223493D01*
X-225451Y-223579D01*
X-225400Y-223663D01*
X-225346Y-223745D01*
X-225288Y-223826D01*
X-225228Y-223904D01*
X-225165Y-223979D01*
X-225099Y-224053D01*
X-225030Y-224123D01*
X-221460Y-223969D02*
X-221390Y-223967D01*
X-221321Y-223961D01*
X-221252Y-223951D01*
X-221184Y-223938D01*
X-221116Y-223920D01*
X-221050Y-223899D01*
X-220985Y-223874D01*
X-220921Y-223846D01*
X-220859Y-223814D01*
X-220799Y-223779D01*
X-220741Y-223740D01*
X-220686Y-223698D01*
X-220632Y-223653D01*
X-220582Y-223605D01*
X-220534Y-223555D01*
X-220489Y-223501D01*
X-220447Y-223446D01*
X-220408Y-223388D01*
X-220373Y-223328D01*
X-220341Y-223266D01*
X-220313Y-223202D01*
X-220288Y-223137D01*
X-220267Y-223071D01*
X-220249Y-223003D01*
X-220236Y-222935D01*
X-220226Y-222866D01*
X-220220Y-222797D01*
X-220218Y-222727D01*
X-220220Y-222633D01*
X-220226Y-222540D01*
X-220235Y-222447D01*
X-220248Y-222354D01*
X-220265Y-222262D01*
X-220285Y-222171D01*
X-220310Y-222080D01*
X-220337Y-221991D01*
X-220369Y-221903D01*
X-220404Y-221816D01*
X-220442Y-221730D01*
X-220484Y-221646D01*
X-220529Y-221564D01*
X-220577Y-221484D01*
X-220629Y-221406D01*
X-220684Y-221330D01*
X-222546Y-223348D02*
X-222510Y-223407D01*
X-222470Y-223463D01*
X-222427Y-223517D01*
X-222382Y-223569D01*
X-222333Y-223618D01*
X-222282Y-223664D01*
X-222229Y-223707D01*
X-222173Y-223748D01*
X-222115Y-223785D01*
X-222055Y-223820D01*
X-221994Y-223850D01*
X-221931Y-223878D01*
X-221866Y-223902D01*
X-221800Y-223922D01*
X-221733Y-223939D01*
X-221666Y-223952D01*
X-221598Y-223961D01*
X-221529Y-223967D01*
X-221460Y-223969D01*
X-223478Y-221641D02*
X-223514Y-221582D01*
X-223554Y-221526D01*
X-223597Y-221472D01*
X-223642Y-221420D01*
X-223691Y-221371D01*
X-223742Y-221325D01*
X-223795Y-221282D01*
X-223851Y-221241D01*
X-223909Y-221204D01*
X-223968Y-221169D01*
X-224030Y-221139D01*
X-224093Y-221111D01*
X-224158Y-221087D01*
X-224224Y-221067D01*
X-224291Y-221050D01*
X-224358Y-221037D01*
X-224426Y-221028D01*
X-224495Y-221022D01*
X-224564Y-221020D01*
X-223478Y-221641D02*
X-222546Y-223348D01*
X-220218Y-217634D02*
X-225806Y-217634D01*
X-220218Y-219186D02*
X-220218Y-216082D01*
X-220218Y-209432D02*
X-220220Y-209359D01*
X-220226Y-209286D01*
X-220235Y-209213D01*
X-220249Y-209142D01*
X-220266Y-209070D01*
X-220286Y-209000D01*
X-220311Y-208931D01*
X-220339Y-208864D01*
X-220370Y-208798D01*
X-220405Y-208734D01*
X-220443Y-208671D01*
X-220485Y-208611D01*
X-220529Y-208553D01*
X-220577Y-208497D01*
X-220627Y-208444D01*
X-220680Y-208394D01*
X-220736Y-208346D01*
X-220794Y-208302D01*
X-220854Y-208260D01*
X-220917Y-208222D01*
X-220981Y-208187D01*
X-221047Y-208156D01*
X-221114Y-208128D01*
X-221183Y-208103D01*
X-221253Y-208083D01*
X-221325Y-208066D01*
X-221396Y-208052D01*
X-221469Y-208043D01*
X-221542Y-208037D01*
X-221615Y-208035D01*
X-220218Y-209432D02*
X-220220Y-209516D01*
X-220226Y-209599D01*
X-220235Y-209682D01*
X-220249Y-209765D01*
X-220266Y-209846D01*
X-220288Y-209927D01*
X-220313Y-210007D01*
X-220341Y-210085D01*
X-220373Y-210163D01*
X-220409Y-210238D01*
X-220448Y-210312D01*
X-220491Y-210384D01*
X-220537Y-210454D01*
X-220586Y-210521D01*
X-220639Y-210587D01*
X-220694Y-210649D01*
X-220752Y-210709D01*
X-220813Y-210767D01*
X-220876Y-210821D01*
X-220942Y-210873D01*
X-221010Y-210921D01*
X-221081Y-210966D01*
X-221153Y-211008D01*
X-221228Y-211046D01*
X-221304Y-211081D01*
X-221381Y-211112D01*
X-221460Y-211140D01*
X-222701Y-208502D02*
X-222648Y-208448D01*
X-222591Y-208397D01*
X-222532Y-208349D01*
X-222471Y-208304D01*
X-222408Y-208263D01*
X-222342Y-208224D01*
X-222275Y-208189D01*
X-222206Y-208157D01*
X-222135Y-208129D01*
X-222064Y-208105D01*
X-221991Y-208084D01*
X-221917Y-208067D01*
X-221842Y-208053D01*
X-221767Y-208044D01*
X-221691Y-208038D01*
X-221615Y-208036D01*
X-222702Y-208501D02*
X-225806Y-211140D01*
X-225806Y-208035D01*
X-225806Y-205902D02*
X-225496Y-205902D01*
X-225496Y-205592D01*
X-225806Y-205592D01*
X-225806Y-205902D01*
X-225806Y-203459D02*
X-225806Y-201596D01*
X-225804Y-201526D01*
X-225798Y-201457D01*
X-225788Y-201388D01*
X-225775Y-201320D01*
X-225757Y-201252D01*
X-225736Y-201186D01*
X-225711Y-201121D01*
X-225683Y-201057D01*
X-225651Y-200995D01*
X-225616Y-200935D01*
X-225577Y-200877D01*
X-225535Y-200822D01*
X-225490Y-200768D01*
X-225442Y-200718D01*
X-225392Y-200670D01*
X-225338Y-200625D01*
X-225283Y-200583D01*
X-225225Y-200544D01*
X-225165Y-200509D01*
X-225103Y-200477D01*
X-225039Y-200449D01*
X-224974Y-200424D01*
X-224908Y-200403D01*
X-224840Y-200385D01*
X-224772Y-200372D01*
X-224703Y-200362D01*
X-224634Y-200356D01*
X-224564Y-200354D01*
X-223943Y-200354D01*
X-223873Y-200356D01*
X-223804Y-200362D01*
X-223735Y-200372D01*
X-223667Y-200385D01*
X-223599Y-200403D01*
X-223533Y-200424D01*
X-223468Y-200449D01*
X-223404Y-200477D01*
X-223342Y-200509D01*
X-223282Y-200544D01*
X-223224Y-200583D01*
X-223169Y-200625D01*
X-223115Y-200670D01*
X-223065Y-200718D01*
X-223017Y-200768D01*
X-222972Y-200822D01*
X-222930Y-200877D01*
X-222891Y-200935D01*
X-222856Y-200995D01*
X-222824Y-201057D01*
X-222796Y-201121D01*
X-222771Y-201186D01*
X-222750Y-201252D01*
X-222732Y-201320D01*
X-222719Y-201388D01*
X-222709Y-201457D01*
X-222703Y-201526D01*
X-222701Y-201596D01*
X-222702Y-201596D02*
X-222702Y-203459D01*
X-220218Y-203459D01*
X-220218Y-200354D01*
X-220218Y-196731D02*
X-224564Y-197973D01*
X-224564Y-194868D01*
X-223322Y-195799D02*
X-225806Y-195799D01*
X-225806Y-192797D02*
X-220218Y-189071D01*
X-220218Y-192797D02*
X-225806Y-189071D01*
X-221615Y-183895D02*
X-221542Y-183897D01*
X-221469Y-183903D01*
X-221396Y-183912D01*
X-221325Y-183926D01*
X-221253Y-183943D01*
X-221183Y-183963D01*
X-221114Y-183988D01*
X-221047Y-184016D01*
X-220981Y-184047D01*
X-220917Y-184082D01*
X-220854Y-184120D01*
X-220794Y-184162D01*
X-220736Y-184206D01*
X-220680Y-184254D01*
X-220627Y-184304D01*
X-220577Y-184357D01*
X-220529Y-184413D01*
X-220485Y-184471D01*
X-220443Y-184531D01*
X-220405Y-184594D01*
X-220370Y-184658D01*
X-220339Y-184724D01*
X-220311Y-184791D01*
X-220286Y-184860D01*
X-220266Y-184930D01*
X-220249Y-185002D01*
X-220235Y-185073D01*
X-220226Y-185146D01*
X-220220Y-185219D01*
X-220218Y-185292D01*
X-220220Y-185376D01*
X-220226Y-185459D01*
X-220235Y-185542D01*
X-220249Y-185625D01*
X-220266Y-185706D01*
X-220288Y-185787D01*
X-220313Y-185867D01*
X-220341Y-185945D01*
X-220373Y-186023D01*
X-220409Y-186098D01*
X-220448Y-186172D01*
X-220491Y-186244D01*
X-220537Y-186314D01*
X-220586Y-186381D01*
X-220639Y-186447D01*
X-220694Y-186509D01*
X-220752Y-186569D01*
X-220813Y-186627D01*
X-220876Y-186681D01*
X-220942Y-186733D01*
X-221010Y-186781D01*
X-221081Y-186826D01*
X-221153Y-186868D01*
X-221228Y-186906D01*
X-221304Y-186941D01*
X-221381Y-186972D01*
X-221460Y-187000D01*
X-222701Y-184362D02*
X-222648Y-184308D01*
X-222591Y-184257D01*
X-222532Y-184209D01*
X-222471Y-184164D01*
X-222408Y-184123D01*
X-222342Y-184084D01*
X-222275Y-184049D01*
X-222206Y-184017D01*
X-222135Y-183989D01*
X-222064Y-183965D01*
X-221991Y-183944D01*
X-221917Y-183927D01*
X-221842Y-183913D01*
X-221767Y-183904D01*
X-221691Y-183898D01*
X-221615Y-183896D01*
X-222702Y-184361D02*
X-225806Y-187000D01*
X-225806Y-183895D01*
X-225806Y-181248D02*
X-220218Y-181248D01*
X-220218Y-179695D01*
X-220220Y-179618D01*
X-220226Y-179540D01*
X-220235Y-179464D01*
X-220249Y-179387D01*
X-220266Y-179312D01*
X-220287Y-179238D01*
X-220312Y-179164D01*
X-220340Y-179092D01*
X-220372Y-179022D01*
X-220407Y-178953D01*
X-220446Y-178886D01*
X-220488Y-178821D01*
X-220533Y-178758D01*
X-220581Y-178697D01*
X-220632Y-178639D01*
X-220686Y-178584D01*
X-220743Y-178531D01*
X-220802Y-178482D01*
X-220864Y-178435D01*
X-220928Y-178391D01*
X-220994Y-178351D01*
X-221062Y-178314D01*
X-221132Y-178280D01*
X-221203Y-178250D01*
X-221276Y-178224D01*
X-221350Y-178201D01*
X-221425Y-178182D01*
X-221500Y-178167D01*
X-221577Y-178155D01*
X-221654Y-178147D01*
X-221731Y-178143D01*
X-221809Y-178143D01*
X-221886Y-178147D01*
X-221963Y-178155D01*
X-222040Y-178167D01*
X-222115Y-178182D01*
X-222190Y-178201D01*
X-222264Y-178224D01*
X-222337Y-178250D01*
X-222408Y-178280D01*
X-222478Y-178314D01*
X-222546Y-178351D01*
X-222612Y-178391D01*
X-222676Y-178435D01*
X-222738Y-178482D01*
X-222797Y-178531D01*
X-222854Y-178584D01*
X-222908Y-178639D01*
X-222959Y-178697D01*
X-223007Y-178758D01*
X-223052Y-178821D01*
X-223094Y-178886D01*
X-223133Y-178953D01*
X-223168Y-179022D01*
X-223200Y-179092D01*
X-223228Y-179164D01*
X-223253Y-179238D01*
X-223274Y-179312D01*
X-223291Y-179387D01*
X-223305Y-179464D01*
X-223314Y-179540D01*
X-223320Y-179618D01*
X-223322Y-179695D01*
X-223322Y-181248D01*
M02*
