G04 EAGLE Gerber RS-274X export*
G75*
%MOMM*%
%FSLAX34Y34*%
%LPD*%
%INSilkscreen Top*%
%IPPOS*%
%AMOC8*
5,1,8,0,0,1.08239X$1,22.5*%
G01*
%ADD10C,0.127000*%
%ADD11C,0.050800*%
%ADD12R,0.762000X0.635000*%
%ADD13R,1.270000X2.794000*%
%ADD14C,0.177800*%
%ADD15C,0.152400*%


D10*
X-204470Y-121920D02*
X-100330Y-121920D01*
X-100330Y36830D02*
X-204470Y36830D01*
X-100330Y2540D02*
X-100330Y-121920D01*
X-100330Y2540D02*
X-109220Y2540D01*
X-109220Y17780D01*
X-100330Y17780D01*
X-100330Y36830D01*
X-204470Y2540D02*
X-204470Y-121920D01*
X-204470Y2540D02*
X-195580Y2540D01*
X-195580Y17780D01*
X-204470Y17780D01*
X-204470Y36830D01*
D11*
X-198120Y-115570D02*
X-106680Y-115570D01*
X-106680Y-33020D01*
X-198120Y-33020D01*
X-198120Y-115570D01*
D10*
X-170434Y2540D02*
X-170429Y2983D01*
X-170412Y3425D01*
X-170385Y3867D01*
X-170347Y4308D01*
X-170298Y4748D01*
X-170239Y5186D01*
X-170168Y5623D01*
X-170087Y6058D01*
X-169996Y6491D01*
X-169894Y6922D01*
X-169781Y7350D01*
X-169657Y7775D01*
X-169524Y8197D01*
X-169380Y8615D01*
X-169226Y9030D01*
X-169061Y9441D01*
X-168887Y9848D01*
X-168703Y10251D01*
X-168508Y10648D01*
X-168305Y11041D01*
X-168091Y11429D01*
X-167868Y11811D01*
X-167636Y12188D01*
X-167395Y12559D01*
X-167144Y12924D01*
X-166885Y13283D01*
X-166617Y13635D01*
X-166340Y13981D01*
X-166056Y14319D01*
X-165762Y14651D01*
X-165461Y14975D01*
X-165152Y15292D01*
X-164835Y15601D01*
X-164511Y15902D01*
X-164179Y16196D01*
X-163841Y16480D01*
X-163495Y16757D01*
X-163143Y17025D01*
X-162784Y17284D01*
X-162419Y17535D01*
X-162048Y17776D01*
X-161671Y18008D01*
X-161289Y18231D01*
X-160901Y18445D01*
X-160508Y18648D01*
X-160111Y18843D01*
X-159708Y19027D01*
X-159301Y19201D01*
X-158890Y19366D01*
X-158475Y19520D01*
X-158057Y19664D01*
X-157635Y19797D01*
X-157210Y19921D01*
X-156782Y20034D01*
X-156351Y20136D01*
X-155918Y20227D01*
X-155483Y20308D01*
X-155046Y20379D01*
X-154608Y20438D01*
X-154168Y20487D01*
X-153727Y20525D01*
X-153285Y20552D01*
X-152843Y20569D01*
X-152400Y20574D01*
X-151957Y20569D01*
X-151515Y20552D01*
X-151073Y20525D01*
X-150632Y20487D01*
X-150192Y20438D01*
X-149754Y20379D01*
X-149317Y20308D01*
X-148882Y20227D01*
X-148449Y20136D01*
X-148018Y20034D01*
X-147590Y19921D01*
X-147165Y19797D01*
X-146743Y19664D01*
X-146325Y19520D01*
X-145910Y19366D01*
X-145499Y19201D01*
X-145092Y19027D01*
X-144689Y18843D01*
X-144292Y18648D01*
X-143899Y18445D01*
X-143511Y18231D01*
X-143129Y18008D01*
X-142752Y17776D01*
X-142381Y17535D01*
X-142016Y17284D01*
X-141657Y17025D01*
X-141305Y16757D01*
X-140959Y16480D01*
X-140621Y16196D01*
X-140289Y15902D01*
X-139965Y15601D01*
X-139648Y15292D01*
X-139339Y14975D01*
X-139038Y14651D01*
X-138744Y14319D01*
X-138460Y13981D01*
X-138183Y13635D01*
X-137915Y13283D01*
X-137656Y12924D01*
X-137405Y12559D01*
X-137164Y12188D01*
X-136932Y11811D01*
X-136709Y11429D01*
X-136495Y11041D01*
X-136292Y10648D01*
X-136097Y10251D01*
X-135913Y9848D01*
X-135739Y9441D01*
X-135574Y9030D01*
X-135420Y8615D01*
X-135276Y8197D01*
X-135143Y7775D01*
X-135019Y7350D01*
X-134906Y6922D01*
X-134804Y6491D01*
X-134713Y6058D01*
X-134632Y5623D01*
X-134561Y5186D01*
X-134502Y4748D01*
X-134453Y4308D01*
X-134415Y3867D01*
X-134388Y3425D01*
X-134371Y2983D01*
X-134366Y2540D01*
X-134371Y2097D01*
X-134388Y1655D01*
X-134415Y1213D01*
X-134453Y772D01*
X-134502Y332D01*
X-134561Y-106D01*
X-134632Y-543D01*
X-134713Y-978D01*
X-134804Y-1411D01*
X-134906Y-1842D01*
X-135019Y-2270D01*
X-135143Y-2695D01*
X-135276Y-3117D01*
X-135420Y-3535D01*
X-135574Y-3950D01*
X-135739Y-4361D01*
X-135913Y-4768D01*
X-136097Y-5171D01*
X-136292Y-5568D01*
X-136495Y-5961D01*
X-136709Y-6349D01*
X-136932Y-6731D01*
X-137164Y-7108D01*
X-137405Y-7479D01*
X-137656Y-7844D01*
X-137915Y-8203D01*
X-138183Y-8555D01*
X-138460Y-8901D01*
X-138744Y-9239D01*
X-139038Y-9571D01*
X-139339Y-9895D01*
X-139648Y-10212D01*
X-139965Y-10521D01*
X-140289Y-10822D01*
X-140621Y-11116D01*
X-140959Y-11400D01*
X-141305Y-11677D01*
X-141657Y-11945D01*
X-142016Y-12204D01*
X-142381Y-12455D01*
X-142752Y-12696D01*
X-143129Y-12928D01*
X-143511Y-13151D01*
X-143899Y-13365D01*
X-144292Y-13568D01*
X-144689Y-13763D01*
X-145092Y-13947D01*
X-145499Y-14121D01*
X-145910Y-14286D01*
X-146325Y-14440D01*
X-146743Y-14584D01*
X-147165Y-14717D01*
X-147590Y-14841D01*
X-148018Y-14954D01*
X-148449Y-15056D01*
X-148882Y-15147D01*
X-149317Y-15228D01*
X-149754Y-15299D01*
X-150192Y-15358D01*
X-150632Y-15407D01*
X-151073Y-15445D01*
X-151515Y-15472D01*
X-151957Y-15489D01*
X-152400Y-15494D01*
X-152843Y-15489D01*
X-153285Y-15472D01*
X-153727Y-15445D01*
X-154168Y-15407D01*
X-154608Y-15358D01*
X-155046Y-15299D01*
X-155483Y-15228D01*
X-155918Y-15147D01*
X-156351Y-15056D01*
X-156782Y-14954D01*
X-157210Y-14841D01*
X-157635Y-14717D01*
X-158057Y-14584D01*
X-158475Y-14440D01*
X-158890Y-14286D01*
X-159301Y-14121D01*
X-159708Y-13947D01*
X-160111Y-13763D01*
X-160508Y-13568D01*
X-160901Y-13365D01*
X-161289Y-13151D01*
X-161671Y-12928D01*
X-162048Y-12696D01*
X-162419Y-12455D01*
X-162784Y-12204D01*
X-163143Y-11945D01*
X-163495Y-11677D01*
X-163841Y-11400D01*
X-164179Y-11116D01*
X-164511Y-10822D01*
X-164835Y-10521D01*
X-165152Y-10212D01*
X-165461Y-9895D01*
X-165762Y-9571D01*
X-166056Y-9239D01*
X-166340Y-8901D01*
X-166617Y-8555D01*
X-166885Y-8203D01*
X-167144Y-7844D01*
X-167395Y-7479D01*
X-167636Y-7108D01*
X-167868Y-6731D01*
X-168091Y-6349D01*
X-168305Y-5961D01*
X-168508Y-5568D01*
X-168703Y-5171D01*
X-168887Y-4768D01*
X-169061Y-4361D01*
X-169226Y-3950D01*
X-169380Y-3535D01*
X-169524Y-3117D01*
X-169657Y-2695D01*
X-169781Y-2270D01*
X-169894Y-1842D01*
X-169996Y-1411D01*
X-170087Y-978D01*
X-170168Y-543D01*
X-170239Y-106D01*
X-170298Y332D01*
X-170347Y772D01*
X-170385Y1213D01*
X-170412Y1655D01*
X-170429Y2097D01*
X-170434Y2540D01*
X-193336Y-21209D02*
X-196215Y-29845D01*
X-190458Y-29845D02*
X-193336Y-21209D01*
X-191177Y-27686D02*
X-195495Y-27686D01*
X-186820Y-23128D02*
X-184421Y-21209D01*
X-184421Y-29845D01*
X-186820Y-29845D02*
X-182022Y-29845D01*
X-177904Y-22169D02*
X-177904Y-21209D01*
X-173107Y-21209D01*
X-175506Y-29845D01*
X-169549Y-29845D02*
X-169069Y-29845D01*
X-169549Y-29845D02*
X-169549Y-29365D01*
X-169069Y-29365D01*
X-169069Y-29845D01*
X-169788Y-31764D01*
X-165423Y-29845D02*
X-162544Y-29845D01*
X-162458Y-29843D01*
X-162372Y-29837D01*
X-162286Y-29828D01*
X-162201Y-29814D01*
X-162117Y-29797D01*
X-162033Y-29776D01*
X-161951Y-29751D01*
X-161870Y-29723D01*
X-161790Y-29691D01*
X-161711Y-29655D01*
X-161635Y-29616D01*
X-161560Y-29573D01*
X-161487Y-29528D01*
X-161416Y-29479D01*
X-161348Y-29426D01*
X-161281Y-29371D01*
X-161218Y-29313D01*
X-161157Y-29252D01*
X-161099Y-29189D01*
X-161044Y-29122D01*
X-160992Y-29054D01*
X-160942Y-28983D01*
X-160897Y-28910D01*
X-160854Y-28835D01*
X-160815Y-28759D01*
X-160779Y-28680D01*
X-160747Y-28600D01*
X-160719Y-28519D01*
X-160694Y-28437D01*
X-160673Y-28353D01*
X-160656Y-28269D01*
X-160642Y-28184D01*
X-160633Y-28098D01*
X-160627Y-28012D01*
X-160625Y-27926D01*
X-160625Y-26966D01*
X-160627Y-26880D01*
X-160633Y-26794D01*
X-160642Y-26708D01*
X-160656Y-26623D01*
X-160673Y-26539D01*
X-160694Y-26455D01*
X-160719Y-26373D01*
X-160747Y-26292D01*
X-160779Y-26212D01*
X-160815Y-26133D01*
X-160854Y-26057D01*
X-160897Y-25982D01*
X-160942Y-25909D01*
X-160991Y-25838D01*
X-161044Y-25770D01*
X-161099Y-25703D01*
X-161157Y-25640D01*
X-161218Y-25579D01*
X-161281Y-25521D01*
X-161348Y-25466D01*
X-161416Y-25413D01*
X-161487Y-25364D01*
X-161560Y-25319D01*
X-161635Y-25276D01*
X-161711Y-25237D01*
X-161790Y-25201D01*
X-161870Y-25169D01*
X-161951Y-25141D01*
X-162033Y-25116D01*
X-162117Y-25095D01*
X-162201Y-25078D01*
X-162286Y-25064D01*
X-162372Y-25055D01*
X-162458Y-25049D01*
X-162544Y-25047D01*
X-165423Y-25047D01*
X-165423Y-21209D01*
X-160625Y-21209D01*
X-156096Y-24088D02*
X-156096Y-29845D01*
X-156096Y-24088D02*
X-151778Y-24088D01*
X-151703Y-24090D01*
X-151628Y-24096D01*
X-151553Y-24106D01*
X-151479Y-24119D01*
X-151406Y-24137D01*
X-151333Y-24158D01*
X-151262Y-24184D01*
X-151193Y-24212D01*
X-151125Y-24245D01*
X-151059Y-24281D01*
X-150994Y-24320D01*
X-150932Y-24363D01*
X-150872Y-24409D01*
X-150815Y-24458D01*
X-150760Y-24509D01*
X-150709Y-24564D01*
X-150660Y-24621D01*
X-150614Y-24681D01*
X-150571Y-24743D01*
X-150532Y-24808D01*
X-150496Y-24874D01*
X-150463Y-24942D01*
X-150435Y-25011D01*
X-150409Y-25082D01*
X-150388Y-25155D01*
X-150370Y-25228D01*
X-150357Y-25302D01*
X-150347Y-25377D01*
X-150341Y-25452D01*
X-150339Y-25527D01*
X-150339Y-29845D01*
X-153217Y-29845D02*
X-153217Y-24088D01*
X-145397Y-24088D02*
X-145397Y-29845D01*
X-145397Y-24088D02*
X-141079Y-24088D01*
X-141004Y-24090D01*
X-140929Y-24096D01*
X-140854Y-24106D01*
X-140780Y-24119D01*
X-140707Y-24137D01*
X-140634Y-24158D01*
X-140563Y-24184D01*
X-140494Y-24212D01*
X-140426Y-24245D01*
X-140360Y-24281D01*
X-140295Y-24320D01*
X-140233Y-24363D01*
X-140173Y-24409D01*
X-140116Y-24458D01*
X-140061Y-24509D01*
X-140010Y-24564D01*
X-139961Y-24621D01*
X-139915Y-24681D01*
X-139872Y-24743D01*
X-139833Y-24808D01*
X-139797Y-24874D01*
X-139764Y-24942D01*
X-139736Y-25011D01*
X-139710Y-25082D01*
X-139689Y-25155D01*
X-139671Y-25228D01*
X-139658Y-25302D01*
X-139648Y-25377D01*
X-139642Y-25452D01*
X-139640Y-25527D01*
X-139640Y-29845D01*
X-142519Y-29845D02*
X-142519Y-24088D01*
D12*
X-127000Y-153035D03*
X-152400Y-153035D03*
X-177800Y-153035D03*
D13*
X-177800Y-135890D03*
X-152400Y-135890D03*
X-127000Y-135890D03*
D14*
X-189611Y-51816D02*
X-189611Y-44704D01*
X-189609Y-44572D01*
X-189603Y-44441D01*
X-189593Y-44309D01*
X-189580Y-44178D01*
X-189562Y-44048D01*
X-189541Y-43918D01*
X-189516Y-43788D01*
X-189487Y-43660D01*
X-189454Y-43532D01*
X-189417Y-43406D01*
X-189377Y-43280D01*
X-189333Y-43156D01*
X-189285Y-43033D01*
X-189234Y-42912D01*
X-189179Y-42792D01*
X-189121Y-42674D01*
X-189059Y-42558D01*
X-188993Y-42444D01*
X-188925Y-42331D01*
X-188853Y-42221D01*
X-188778Y-42113D01*
X-188699Y-42007D01*
X-188618Y-41903D01*
X-188533Y-41802D01*
X-188446Y-41704D01*
X-188355Y-41608D01*
X-188262Y-41515D01*
X-188166Y-41424D01*
X-188068Y-41337D01*
X-187967Y-41252D01*
X-187863Y-41171D01*
X-187757Y-41092D01*
X-187649Y-41017D01*
X-187539Y-40945D01*
X-187426Y-40877D01*
X-187312Y-40811D01*
X-187196Y-40749D01*
X-187078Y-40691D01*
X-186958Y-40636D01*
X-186837Y-40585D01*
X-186714Y-40537D01*
X-186590Y-40493D01*
X-186464Y-40453D01*
X-186338Y-40416D01*
X-186210Y-40383D01*
X-186082Y-40354D01*
X-185952Y-40329D01*
X-185822Y-40308D01*
X-185692Y-40290D01*
X-185561Y-40277D01*
X-185429Y-40267D01*
X-185298Y-40261D01*
X-185166Y-40259D01*
X-185034Y-40261D01*
X-184903Y-40267D01*
X-184771Y-40277D01*
X-184640Y-40290D01*
X-184510Y-40308D01*
X-184380Y-40329D01*
X-184250Y-40354D01*
X-184122Y-40383D01*
X-183994Y-40416D01*
X-183868Y-40453D01*
X-183742Y-40493D01*
X-183618Y-40537D01*
X-183495Y-40585D01*
X-183374Y-40636D01*
X-183254Y-40691D01*
X-183136Y-40749D01*
X-183020Y-40811D01*
X-182906Y-40877D01*
X-182793Y-40945D01*
X-182683Y-41017D01*
X-182575Y-41092D01*
X-182469Y-41171D01*
X-182365Y-41252D01*
X-182264Y-41337D01*
X-182166Y-41424D01*
X-182070Y-41515D01*
X-181977Y-41608D01*
X-181886Y-41704D01*
X-181799Y-41802D01*
X-181714Y-41903D01*
X-181633Y-42007D01*
X-181554Y-42113D01*
X-181479Y-42221D01*
X-181407Y-42331D01*
X-181339Y-42444D01*
X-181273Y-42558D01*
X-181211Y-42674D01*
X-181153Y-42792D01*
X-181098Y-42912D01*
X-181047Y-43033D01*
X-180999Y-43156D01*
X-180955Y-43280D01*
X-180915Y-43406D01*
X-180878Y-43532D01*
X-180845Y-43660D01*
X-180816Y-43788D01*
X-180791Y-43918D01*
X-180770Y-44048D01*
X-180752Y-44178D01*
X-180739Y-44309D01*
X-180729Y-44441D01*
X-180723Y-44572D01*
X-180721Y-44704D01*
X-180721Y-51816D01*
X-180723Y-51948D01*
X-180729Y-52079D01*
X-180739Y-52211D01*
X-180752Y-52342D01*
X-180770Y-52472D01*
X-180791Y-52602D01*
X-180816Y-52732D01*
X-180845Y-52860D01*
X-180878Y-52988D01*
X-180915Y-53114D01*
X-180955Y-53240D01*
X-180999Y-53364D01*
X-181047Y-53487D01*
X-181098Y-53608D01*
X-181153Y-53728D01*
X-181211Y-53846D01*
X-181273Y-53962D01*
X-181339Y-54076D01*
X-181407Y-54189D01*
X-181479Y-54299D01*
X-181554Y-54407D01*
X-181633Y-54513D01*
X-181714Y-54617D01*
X-181799Y-54718D01*
X-181886Y-54816D01*
X-181977Y-54912D01*
X-182070Y-55005D01*
X-182166Y-55096D01*
X-182264Y-55183D01*
X-182365Y-55268D01*
X-182469Y-55349D01*
X-182575Y-55428D01*
X-182683Y-55503D01*
X-182793Y-55575D01*
X-182906Y-55643D01*
X-183020Y-55709D01*
X-183136Y-55771D01*
X-183254Y-55829D01*
X-183374Y-55884D01*
X-183495Y-55935D01*
X-183618Y-55983D01*
X-183742Y-56027D01*
X-183868Y-56067D01*
X-183994Y-56104D01*
X-184122Y-56137D01*
X-184250Y-56166D01*
X-184380Y-56191D01*
X-184510Y-56212D01*
X-184640Y-56230D01*
X-184771Y-56243D01*
X-184903Y-56253D01*
X-185034Y-56259D01*
X-185166Y-56261D01*
X-185298Y-56259D01*
X-185429Y-56253D01*
X-185561Y-56243D01*
X-185692Y-56230D01*
X-185822Y-56212D01*
X-185952Y-56191D01*
X-186082Y-56166D01*
X-186210Y-56137D01*
X-186338Y-56104D01*
X-186464Y-56067D01*
X-186590Y-56027D01*
X-186714Y-55983D01*
X-186837Y-55935D01*
X-186958Y-55884D01*
X-187078Y-55829D01*
X-187196Y-55771D01*
X-187312Y-55709D01*
X-187426Y-55643D01*
X-187539Y-55575D01*
X-187649Y-55503D01*
X-187757Y-55428D01*
X-187863Y-55349D01*
X-187967Y-55268D01*
X-188068Y-55183D01*
X-188166Y-55096D01*
X-188262Y-55005D01*
X-188355Y-54912D01*
X-188446Y-54816D01*
X-188533Y-54718D01*
X-188618Y-54617D01*
X-188699Y-54513D01*
X-188778Y-54407D01*
X-188853Y-54299D01*
X-188925Y-54189D01*
X-188993Y-54076D01*
X-189059Y-53962D01*
X-189121Y-53846D01*
X-189179Y-53728D01*
X-189234Y-53608D01*
X-189285Y-53487D01*
X-189333Y-53364D01*
X-189377Y-53240D01*
X-189417Y-53114D01*
X-189454Y-52988D01*
X-189487Y-52860D01*
X-189516Y-52732D01*
X-189541Y-52602D01*
X-189562Y-52472D01*
X-189580Y-52342D01*
X-189593Y-52211D01*
X-189603Y-52079D01*
X-189609Y-51948D01*
X-189611Y-51816D01*
X-182499Y-52705D02*
X-178943Y-56261D01*
X-165489Y-44260D02*
X-165491Y-44134D01*
X-165497Y-44009D01*
X-165507Y-43883D01*
X-165521Y-43759D01*
X-165538Y-43634D01*
X-165560Y-43510D01*
X-165585Y-43387D01*
X-165615Y-43265D01*
X-165648Y-43144D01*
X-165685Y-43024D01*
X-165726Y-42905D01*
X-165770Y-42787D01*
X-165818Y-42671D01*
X-165870Y-42556D01*
X-165925Y-42444D01*
X-165984Y-42333D01*
X-166046Y-42223D01*
X-166112Y-42116D01*
X-166181Y-42011D01*
X-166253Y-41908D01*
X-166329Y-41808D01*
X-166407Y-41710D01*
X-166489Y-41614D01*
X-166573Y-41521D01*
X-166661Y-41431D01*
X-166751Y-41343D01*
X-166844Y-41259D01*
X-166940Y-41177D01*
X-167038Y-41099D01*
X-167138Y-41023D01*
X-167241Y-40951D01*
X-167346Y-40882D01*
X-167453Y-40816D01*
X-167563Y-40754D01*
X-167674Y-40695D01*
X-167786Y-40640D01*
X-167901Y-40588D01*
X-168017Y-40540D01*
X-168135Y-40496D01*
X-168254Y-40455D01*
X-168374Y-40418D01*
X-168495Y-40385D01*
X-168617Y-40355D01*
X-168740Y-40330D01*
X-168864Y-40308D01*
X-168989Y-40291D01*
X-169113Y-40277D01*
X-169239Y-40267D01*
X-169364Y-40261D01*
X-169490Y-40259D01*
X-169631Y-40261D01*
X-169771Y-40267D01*
X-169911Y-40276D01*
X-170051Y-40290D01*
X-170190Y-40307D01*
X-170329Y-40328D01*
X-170468Y-40353D01*
X-170605Y-40381D01*
X-170742Y-40414D01*
X-170878Y-40450D01*
X-171013Y-40490D01*
X-171146Y-40533D01*
X-171279Y-40580D01*
X-171410Y-40631D01*
X-171539Y-40685D01*
X-171667Y-40743D01*
X-171794Y-40804D01*
X-171919Y-40869D01*
X-172041Y-40937D01*
X-172162Y-41008D01*
X-172282Y-41083D01*
X-172398Y-41161D01*
X-172513Y-41242D01*
X-172626Y-41326D01*
X-172736Y-41414D01*
X-172844Y-41504D01*
X-172949Y-41597D01*
X-173051Y-41693D01*
X-173151Y-41792D01*
X-173249Y-41893D01*
X-173343Y-41997D01*
X-173435Y-42104D01*
X-173523Y-42213D01*
X-173609Y-42324D01*
X-173691Y-42438D01*
X-173771Y-42554D01*
X-173847Y-42672D01*
X-173920Y-42792D01*
X-173989Y-42914D01*
X-174056Y-43038D01*
X-174119Y-43164D01*
X-174178Y-43291D01*
X-174234Y-43420D01*
X-174286Y-43550D01*
X-174335Y-43682D01*
X-174380Y-43815D01*
X-166824Y-47372D02*
X-166732Y-47281D01*
X-166642Y-47188D01*
X-166556Y-47093D01*
X-166472Y-46995D01*
X-166392Y-46894D01*
X-166314Y-46791D01*
X-166240Y-46686D01*
X-166169Y-46578D01*
X-166101Y-46469D01*
X-166037Y-46357D01*
X-165975Y-46244D01*
X-165918Y-46129D01*
X-165863Y-46012D01*
X-165812Y-45893D01*
X-165765Y-45773D01*
X-165722Y-45652D01*
X-165682Y-45530D01*
X-165646Y-45406D01*
X-165613Y-45281D01*
X-165584Y-45156D01*
X-165559Y-45029D01*
X-165538Y-44902D01*
X-165521Y-44774D01*
X-165507Y-44646D01*
X-165498Y-44518D01*
X-165492Y-44389D01*
X-165490Y-44260D01*
X-166823Y-47371D02*
X-174380Y-56261D01*
X-165490Y-56261D01*
D10*
X-228600Y-266700D02*
X-279400Y-266700D01*
X-279400Y-284480D01*
X-279400Y-299720D01*
X-279400Y-309880D02*
X-279400Y-325120D01*
X-279400Y-342900D01*
X-228600Y-342900D01*
X-228600Y-266700D01*
X-274320Y-284480D02*
X-279400Y-284480D01*
X-279400Y-299720D02*
X-274320Y-299720D01*
X-279400Y-299720D02*
X-279400Y-309880D01*
X-274320Y-309880D01*
X-274320Y-325120D02*
X-279400Y-325120D01*
X-274320Y-299720D02*
X-274320Y-284480D01*
X-274320Y-309880D02*
X-274320Y-325120D01*
D11*
X-225806Y-327994D02*
X-221460Y-327994D01*
X-221390Y-327996D01*
X-221321Y-328002D01*
X-221252Y-328012D01*
X-221184Y-328025D01*
X-221116Y-328043D01*
X-221050Y-328064D01*
X-220985Y-328089D01*
X-220921Y-328117D01*
X-220859Y-328149D01*
X-220799Y-328184D01*
X-220741Y-328223D01*
X-220686Y-328265D01*
X-220632Y-328310D01*
X-220582Y-328358D01*
X-220534Y-328408D01*
X-220489Y-328462D01*
X-220447Y-328517D01*
X-220408Y-328575D01*
X-220373Y-328635D01*
X-220341Y-328697D01*
X-220313Y-328761D01*
X-220288Y-328826D01*
X-220267Y-328892D01*
X-220249Y-328960D01*
X-220236Y-329028D01*
X-220226Y-329097D01*
X-220220Y-329166D01*
X-220218Y-329236D01*
X-220218Y-329857D01*
X-220218Y-323772D02*
X-220220Y-323702D01*
X-220226Y-323633D01*
X-220236Y-323564D01*
X-220249Y-323496D01*
X-220267Y-323428D01*
X-220288Y-323362D01*
X-220313Y-323297D01*
X-220341Y-323233D01*
X-220373Y-323171D01*
X-220408Y-323111D01*
X-220447Y-323053D01*
X-220489Y-322998D01*
X-220534Y-322944D01*
X-220582Y-322894D01*
X-220632Y-322846D01*
X-220686Y-322801D01*
X-220741Y-322759D01*
X-220799Y-322720D01*
X-220859Y-322685D01*
X-220921Y-322653D01*
X-220985Y-322625D01*
X-221050Y-322600D01*
X-221116Y-322579D01*
X-221184Y-322561D01*
X-221252Y-322548D01*
X-221321Y-322538D01*
X-221390Y-322532D01*
X-221460Y-322530D01*
X-220218Y-323772D02*
X-220220Y-323871D01*
X-220225Y-323969D01*
X-220235Y-324067D01*
X-220248Y-324165D01*
X-220264Y-324262D01*
X-220284Y-324359D01*
X-220308Y-324454D01*
X-220336Y-324549D01*
X-220367Y-324643D01*
X-220401Y-324735D01*
X-220439Y-324826D01*
X-220480Y-324916D01*
X-220525Y-325004D01*
X-220573Y-325090D01*
X-220624Y-325174D01*
X-220678Y-325256D01*
X-220736Y-325337D01*
X-220796Y-325415D01*
X-220859Y-325490D01*
X-220925Y-325564D01*
X-220994Y-325634D01*
X-224564Y-325480D02*
X-224634Y-325478D01*
X-224703Y-325472D01*
X-224772Y-325462D01*
X-224840Y-325449D01*
X-224908Y-325431D01*
X-224974Y-325410D01*
X-225039Y-325385D01*
X-225103Y-325357D01*
X-225165Y-325325D01*
X-225225Y-325290D01*
X-225283Y-325251D01*
X-225338Y-325209D01*
X-225392Y-325164D01*
X-225442Y-325116D01*
X-225490Y-325066D01*
X-225535Y-325012D01*
X-225577Y-324957D01*
X-225616Y-324899D01*
X-225651Y-324839D01*
X-225683Y-324777D01*
X-225711Y-324713D01*
X-225736Y-324648D01*
X-225757Y-324582D01*
X-225775Y-324514D01*
X-225788Y-324446D01*
X-225798Y-324377D01*
X-225804Y-324308D01*
X-225806Y-324238D01*
X-225804Y-324144D01*
X-225798Y-324051D01*
X-225789Y-323958D01*
X-225776Y-323865D01*
X-225759Y-323773D01*
X-225739Y-323682D01*
X-225714Y-323591D01*
X-225687Y-323502D01*
X-225655Y-323414D01*
X-225620Y-323327D01*
X-225582Y-323241D01*
X-225540Y-323158D01*
X-225495Y-323075D01*
X-225447Y-322995D01*
X-225395Y-322917D01*
X-225340Y-322841D01*
X-223478Y-324859D02*
X-223514Y-324918D01*
X-223554Y-324974D01*
X-223597Y-325028D01*
X-223642Y-325080D01*
X-223691Y-325129D01*
X-223742Y-325175D01*
X-223795Y-325218D01*
X-223851Y-325259D01*
X-223909Y-325296D01*
X-223969Y-325331D01*
X-224030Y-325361D01*
X-224093Y-325389D01*
X-224158Y-325413D01*
X-224224Y-325433D01*
X-224291Y-325450D01*
X-224358Y-325463D01*
X-224426Y-325472D01*
X-224495Y-325478D01*
X-224564Y-325480D01*
X-222546Y-323152D02*
X-222510Y-323093D01*
X-222470Y-323037D01*
X-222427Y-322983D01*
X-222382Y-322931D01*
X-222333Y-322882D01*
X-222282Y-322836D01*
X-222229Y-322793D01*
X-222173Y-322752D01*
X-222115Y-322715D01*
X-222056Y-322680D01*
X-221994Y-322650D01*
X-221931Y-322622D01*
X-221866Y-322598D01*
X-221800Y-322578D01*
X-221733Y-322561D01*
X-221666Y-322548D01*
X-221598Y-322539D01*
X-221529Y-322533D01*
X-221460Y-322531D01*
X-222546Y-323152D02*
X-223478Y-324859D01*
X-225806Y-319145D02*
X-220218Y-319145D01*
X-225806Y-320697D02*
X-225806Y-317593D01*
X-225806Y-310943D02*
X-225804Y-310870D01*
X-225798Y-310797D01*
X-225789Y-310724D01*
X-225775Y-310653D01*
X-225758Y-310581D01*
X-225738Y-310511D01*
X-225713Y-310442D01*
X-225685Y-310375D01*
X-225654Y-310309D01*
X-225619Y-310245D01*
X-225581Y-310182D01*
X-225539Y-310122D01*
X-225495Y-310064D01*
X-225447Y-310008D01*
X-225397Y-309955D01*
X-225344Y-309905D01*
X-225288Y-309857D01*
X-225230Y-309813D01*
X-225170Y-309771D01*
X-225108Y-309733D01*
X-225043Y-309698D01*
X-224977Y-309667D01*
X-224910Y-309639D01*
X-224841Y-309614D01*
X-224771Y-309594D01*
X-224699Y-309577D01*
X-224628Y-309563D01*
X-224555Y-309554D01*
X-224482Y-309548D01*
X-224409Y-309546D01*
X-225806Y-310943D02*
X-225804Y-311027D01*
X-225798Y-311110D01*
X-225789Y-311193D01*
X-225775Y-311275D01*
X-225758Y-311357D01*
X-225736Y-311438D01*
X-225711Y-311518D01*
X-225683Y-311596D01*
X-225651Y-311674D01*
X-225615Y-311749D01*
X-225576Y-311823D01*
X-225533Y-311895D01*
X-225487Y-311965D01*
X-225438Y-312032D01*
X-225385Y-312098D01*
X-225330Y-312160D01*
X-225272Y-312220D01*
X-225211Y-312278D01*
X-225148Y-312332D01*
X-225082Y-312384D01*
X-225014Y-312432D01*
X-224943Y-312477D01*
X-224871Y-312519D01*
X-224796Y-312557D01*
X-224720Y-312592D01*
X-224643Y-312623D01*
X-224564Y-312651D01*
X-223323Y-310013D02*
X-223376Y-309959D01*
X-223433Y-309908D01*
X-223492Y-309860D01*
X-223553Y-309815D01*
X-223616Y-309774D01*
X-223682Y-309735D01*
X-223749Y-309700D01*
X-223818Y-309668D01*
X-223889Y-309640D01*
X-223960Y-309616D01*
X-224033Y-309595D01*
X-224107Y-309578D01*
X-224182Y-309564D01*
X-224257Y-309555D01*
X-224333Y-309549D01*
X-224409Y-309547D01*
X-223322Y-310012D02*
X-220218Y-312651D01*
X-220218Y-309546D01*
X-220218Y-307413D02*
X-220528Y-307413D01*
X-220528Y-307103D01*
X-220218Y-307103D01*
X-220218Y-307413D01*
X-220218Y-304970D02*
X-220218Y-303107D01*
X-220220Y-303037D01*
X-220226Y-302968D01*
X-220236Y-302899D01*
X-220249Y-302831D01*
X-220267Y-302763D01*
X-220288Y-302697D01*
X-220313Y-302632D01*
X-220341Y-302568D01*
X-220373Y-302506D01*
X-220408Y-302446D01*
X-220447Y-302388D01*
X-220489Y-302333D01*
X-220534Y-302279D01*
X-220582Y-302229D01*
X-220632Y-302181D01*
X-220686Y-302136D01*
X-220741Y-302094D01*
X-220799Y-302055D01*
X-220859Y-302020D01*
X-220921Y-301988D01*
X-220985Y-301960D01*
X-221050Y-301935D01*
X-221116Y-301914D01*
X-221184Y-301896D01*
X-221252Y-301883D01*
X-221321Y-301873D01*
X-221390Y-301867D01*
X-221460Y-301865D01*
X-222081Y-301865D01*
X-222151Y-301867D01*
X-222220Y-301873D01*
X-222289Y-301883D01*
X-222357Y-301896D01*
X-222425Y-301914D01*
X-222491Y-301935D01*
X-222556Y-301960D01*
X-222620Y-301988D01*
X-222682Y-302020D01*
X-222742Y-302055D01*
X-222800Y-302094D01*
X-222855Y-302136D01*
X-222909Y-302181D01*
X-222959Y-302229D01*
X-223007Y-302279D01*
X-223052Y-302333D01*
X-223094Y-302388D01*
X-223133Y-302446D01*
X-223168Y-302506D01*
X-223200Y-302568D01*
X-223228Y-302632D01*
X-223253Y-302697D01*
X-223274Y-302763D01*
X-223292Y-302831D01*
X-223305Y-302899D01*
X-223315Y-302968D01*
X-223321Y-303037D01*
X-223323Y-303107D01*
X-223322Y-303107D02*
X-223322Y-304970D01*
X-225806Y-304970D01*
X-225806Y-301865D01*
X-225806Y-298242D02*
X-221460Y-299483D01*
X-221460Y-296379D01*
X-222702Y-297310D02*
X-220218Y-297310D01*
X-220218Y-294307D02*
X-225806Y-290582D01*
X-225806Y-294307D02*
X-220218Y-290582D01*
X-224409Y-285406D02*
X-224482Y-285408D01*
X-224555Y-285414D01*
X-224628Y-285423D01*
X-224699Y-285437D01*
X-224771Y-285454D01*
X-224841Y-285474D01*
X-224910Y-285499D01*
X-224977Y-285527D01*
X-225043Y-285558D01*
X-225108Y-285593D01*
X-225170Y-285631D01*
X-225230Y-285673D01*
X-225288Y-285717D01*
X-225344Y-285765D01*
X-225397Y-285815D01*
X-225447Y-285868D01*
X-225495Y-285924D01*
X-225539Y-285982D01*
X-225581Y-286042D01*
X-225619Y-286105D01*
X-225654Y-286169D01*
X-225685Y-286235D01*
X-225713Y-286302D01*
X-225738Y-286371D01*
X-225758Y-286441D01*
X-225775Y-286513D01*
X-225789Y-286584D01*
X-225798Y-286657D01*
X-225804Y-286730D01*
X-225806Y-286803D01*
X-225804Y-286887D01*
X-225798Y-286970D01*
X-225789Y-287053D01*
X-225775Y-287135D01*
X-225758Y-287217D01*
X-225736Y-287298D01*
X-225711Y-287378D01*
X-225683Y-287456D01*
X-225651Y-287534D01*
X-225615Y-287609D01*
X-225576Y-287683D01*
X-225533Y-287755D01*
X-225487Y-287825D01*
X-225438Y-287892D01*
X-225385Y-287958D01*
X-225330Y-288020D01*
X-225272Y-288080D01*
X-225211Y-288138D01*
X-225148Y-288192D01*
X-225082Y-288244D01*
X-225014Y-288292D01*
X-224943Y-288337D01*
X-224871Y-288379D01*
X-224796Y-288417D01*
X-224720Y-288452D01*
X-224643Y-288483D01*
X-224564Y-288511D01*
X-223323Y-285873D02*
X-223376Y-285819D01*
X-223433Y-285768D01*
X-223492Y-285720D01*
X-223553Y-285675D01*
X-223616Y-285634D01*
X-223682Y-285595D01*
X-223749Y-285560D01*
X-223818Y-285528D01*
X-223889Y-285500D01*
X-223960Y-285476D01*
X-224033Y-285455D01*
X-224107Y-285438D01*
X-224182Y-285424D01*
X-224257Y-285415D01*
X-224333Y-285409D01*
X-224409Y-285407D01*
X-223322Y-285872D02*
X-220218Y-288511D01*
X-220218Y-285406D01*
X-220218Y-282758D02*
X-225806Y-282758D01*
X-225806Y-281206D01*
X-225804Y-281129D01*
X-225798Y-281051D01*
X-225789Y-280975D01*
X-225775Y-280898D01*
X-225758Y-280823D01*
X-225737Y-280749D01*
X-225712Y-280675D01*
X-225684Y-280603D01*
X-225652Y-280533D01*
X-225617Y-280464D01*
X-225578Y-280397D01*
X-225536Y-280332D01*
X-225491Y-280269D01*
X-225443Y-280208D01*
X-225392Y-280150D01*
X-225338Y-280095D01*
X-225281Y-280042D01*
X-225222Y-279993D01*
X-225160Y-279946D01*
X-225096Y-279902D01*
X-225030Y-279862D01*
X-224962Y-279825D01*
X-224892Y-279791D01*
X-224821Y-279761D01*
X-224748Y-279735D01*
X-224674Y-279712D01*
X-224599Y-279693D01*
X-224524Y-279678D01*
X-224447Y-279666D01*
X-224370Y-279658D01*
X-224293Y-279654D01*
X-224215Y-279654D01*
X-224138Y-279658D01*
X-224061Y-279666D01*
X-223984Y-279678D01*
X-223909Y-279693D01*
X-223834Y-279712D01*
X-223760Y-279735D01*
X-223687Y-279761D01*
X-223616Y-279791D01*
X-223546Y-279825D01*
X-223478Y-279862D01*
X-223412Y-279902D01*
X-223348Y-279946D01*
X-223286Y-279993D01*
X-223227Y-280042D01*
X-223170Y-280095D01*
X-223116Y-280150D01*
X-223065Y-280208D01*
X-223017Y-280269D01*
X-222972Y-280332D01*
X-222930Y-280397D01*
X-222891Y-280464D01*
X-222856Y-280533D01*
X-222824Y-280603D01*
X-222796Y-280675D01*
X-222771Y-280749D01*
X-222750Y-280823D01*
X-222733Y-280898D01*
X-222719Y-280975D01*
X-222710Y-281051D01*
X-222704Y-281129D01*
X-222702Y-281206D01*
X-222702Y-282758D01*
D10*
X-229870Y26670D02*
X-280670Y26670D01*
X-280670Y8890D01*
X-280670Y-6350D01*
X-280670Y-16510D02*
X-280670Y-31750D01*
X-280670Y-49530D01*
X-229870Y-49530D01*
X-229870Y26670D01*
X-275590Y8890D02*
X-280670Y8890D01*
X-280670Y-6350D02*
X-275590Y-6350D01*
X-280670Y-6350D02*
X-280670Y-16510D01*
X-275590Y-16510D01*
X-275590Y-31750D02*
X-280670Y-31750D01*
X-275590Y-6350D02*
X-275590Y8890D01*
X-275590Y-16510D02*
X-275590Y-31750D01*
D11*
X-227076Y-34624D02*
X-222730Y-34624D01*
X-222660Y-34626D01*
X-222591Y-34632D01*
X-222522Y-34642D01*
X-222454Y-34655D01*
X-222386Y-34673D01*
X-222320Y-34694D01*
X-222255Y-34719D01*
X-222191Y-34747D01*
X-222129Y-34779D01*
X-222069Y-34814D01*
X-222011Y-34853D01*
X-221956Y-34895D01*
X-221902Y-34940D01*
X-221852Y-34988D01*
X-221804Y-35038D01*
X-221759Y-35092D01*
X-221717Y-35147D01*
X-221678Y-35205D01*
X-221643Y-35265D01*
X-221611Y-35327D01*
X-221583Y-35391D01*
X-221558Y-35456D01*
X-221537Y-35522D01*
X-221519Y-35590D01*
X-221506Y-35658D01*
X-221496Y-35727D01*
X-221490Y-35796D01*
X-221488Y-35866D01*
X-221488Y-36487D01*
X-221488Y-30402D02*
X-221490Y-30332D01*
X-221496Y-30263D01*
X-221506Y-30194D01*
X-221519Y-30126D01*
X-221537Y-30058D01*
X-221558Y-29992D01*
X-221583Y-29927D01*
X-221611Y-29863D01*
X-221643Y-29801D01*
X-221678Y-29741D01*
X-221717Y-29683D01*
X-221759Y-29628D01*
X-221804Y-29574D01*
X-221852Y-29524D01*
X-221902Y-29476D01*
X-221956Y-29431D01*
X-222011Y-29389D01*
X-222069Y-29350D01*
X-222129Y-29315D01*
X-222191Y-29283D01*
X-222255Y-29255D01*
X-222320Y-29230D01*
X-222386Y-29209D01*
X-222454Y-29191D01*
X-222522Y-29178D01*
X-222591Y-29168D01*
X-222660Y-29162D01*
X-222730Y-29160D01*
X-221488Y-30402D02*
X-221490Y-30501D01*
X-221495Y-30599D01*
X-221505Y-30697D01*
X-221518Y-30795D01*
X-221534Y-30892D01*
X-221554Y-30989D01*
X-221578Y-31084D01*
X-221606Y-31179D01*
X-221637Y-31273D01*
X-221671Y-31365D01*
X-221709Y-31456D01*
X-221750Y-31546D01*
X-221795Y-31634D01*
X-221843Y-31720D01*
X-221894Y-31804D01*
X-221948Y-31886D01*
X-222006Y-31967D01*
X-222066Y-32045D01*
X-222129Y-32120D01*
X-222195Y-32194D01*
X-222264Y-32264D01*
X-225834Y-32110D02*
X-225904Y-32108D01*
X-225973Y-32102D01*
X-226042Y-32092D01*
X-226110Y-32079D01*
X-226178Y-32061D01*
X-226244Y-32040D01*
X-226309Y-32015D01*
X-226373Y-31987D01*
X-226435Y-31955D01*
X-226495Y-31920D01*
X-226553Y-31881D01*
X-226608Y-31839D01*
X-226662Y-31794D01*
X-226712Y-31746D01*
X-226760Y-31696D01*
X-226805Y-31642D01*
X-226847Y-31587D01*
X-226886Y-31529D01*
X-226921Y-31469D01*
X-226953Y-31407D01*
X-226981Y-31343D01*
X-227006Y-31278D01*
X-227027Y-31212D01*
X-227045Y-31144D01*
X-227058Y-31076D01*
X-227068Y-31007D01*
X-227074Y-30938D01*
X-227076Y-30868D01*
X-227074Y-30774D01*
X-227068Y-30681D01*
X-227059Y-30588D01*
X-227046Y-30495D01*
X-227029Y-30403D01*
X-227009Y-30312D01*
X-226984Y-30221D01*
X-226957Y-30132D01*
X-226925Y-30044D01*
X-226890Y-29957D01*
X-226852Y-29871D01*
X-226810Y-29788D01*
X-226765Y-29705D01*
X-226717Y-29625D01*
X-226665Y-29547D01*
X-226610Y-29471D01*
X-224748Y-31489D02*
X-224784Y-31548D01*
X-224824Y-31604D01*
X-224867Y-31658D01*
X-224912Y-31710D01*
X-224961Y-31759D01*
X-225012Y-31805D01*
X-225065Y-31848D01*
X-225121Y-31889D01*
X-225179Y-31926D01*
X-225239Y-31961D01*
X-225300Y-31991D01*
X-225363Y-32019D01*
X-225428Y-32043D01*
X-225494Y-32063D01*
X-225561Y-32080D01*
X-225628Y-32093D01*
X-225696Y-32102D01*
X-225765Y-32108D01*
X-225834Y-32110D01*
X-223816Y-29782D02*
X-223780Y-29723D01*
X-223740Y-29667D01*
X-223697Y-29613D01*
X-223652Y-29561D01*
X-223603Y-29512D01*
X-223552Y-29466D01*
X-223499Y-29423D01*
X-223443Y-29382D01*
X-223385Y-29345D01*
X-223326Y-29310D01*
X-223264Y-29280D01*
X-223201Y-29252D01*
X-223136Y-29228D01*
X-223070Y-29208D01*
X-223003Y-29191D01*
X-222936Y-29178D01*
X-222868Y-29169D01*
X-222799Y-29163D01*
X-222730Y-29161D01*
X-223816Y-29782D02*
X-224748Y-31489D01*
X-227076Y-25775D02*
X-221488Y-25775D01*
X-227076Y-27327D02*
X-227076Y-24223D01*
X-227076Y-17573D02*
X-227074Y-17500D01*
X-227068Y-17427D01*
X-227059Y-17354D01*
X-227045Y-17283D01*
X-227028Y-17211D01*
X-227008Y-17141D01*
X-226983Y-17072D01*
X-226955Y-17005D01*
X-226924Y-16939D01*
X-226889Y-16875D01*
X-226851Y-16812D01*
X-226809Y-16752D01*
X-226765Y-16694D01*
X-226717Y-16638D01*
X-226667Y-16585D01*
X-226614Y-16535D01*
X-226558Y-16487D01*
X-226500Y-16443D01*
X-226440Y-16401D01*
X-226378Y-16363D01*
X-226313Y-16328D01*
X-226247Y-16297D01*
X-226180Y-16269D01*
X-226111Y-16244D01*
X-226041Y-16224D01*
X-225969Y-16207D01*
X-225898Y-16193D01*
X-225825Y-16184D01*
X-225752Y-16178D01*
X-225679Y-16176D01*
X-227076Y-17573D02*
X-227074Y-17657D01*
X-227068Y-17740D01*
X-227059Y-17823D01*
X-227045Y-17905D01*
X-227028Y-17987D01*
X-227006Y-18068D01*
X-226981Y-18148D01*
X-226953Y-18226D01*
X-226921Y-18304D01*
X-226885Y-18379D01*
X-226846Y-18453D01*
X-226803Y-18525D01*
X-226757Y-18595D01*
X-226708Y-18662D01*
X-226655Y-18728D01*
X-226600Y-18790D01*
X-226542Y-18850D01*
X-226481Y-18908D01*
X-226418Y-18962D01*
X-226352Y-19014D01*
X-226284Y-19062D01*
X-226213Y-19107D01*
X-226141Y-19149D01*
X-226066Y-19187D01*
X-225990Y-19222D01*
X-225913Y-19253D01*
X-225834Y-19281D01*
X-224593Y-16643D02*
X-224646Y-16589D01*
X-224703Y-16538D01*
X-224762Y-16490D01*
X-224823Y-16445D01*
X-224886Y-16404D01*
X-224952Y-16365D01*
X-225019Y-16330D01*
X-225088Y-16298D01*
X-225159Y-16270D01*
X-225230Y-16246D01*
X-225303Y-16225D01*
X-225377Y-16208D01*
X-225452Y-16194D01*
X-225527Y-16185D01*
X-225603Y-16179D01*
X-225679Y-16177D01*
X-224592Y-16642D02*
X-221488Y-19281D01*
X-221488Y-16176D01*
X-221488Y-14043D02*
X-221798Y-14043D01*
X-221798Y-13733D01*
X-221488Y-13733D01*
X-221488Y-14043D01*
X-221488Y-11600D02*
X-221488Y-9737D01*
X-221490Y-9667D01*
X-221496Y-9598D01*
X-221506Y-9529D01*
X-221519Y-9461D01*
X-221537Y-9393D01*
X-221558Y-9327D01*
X-221583Y-9262D01*
X-221611Y-9198D01*
X-221643Y-9136D01*
X-221678Y-9076D01*
X-221717Y-9018D01*
X-221759Y-8963D01*
X-221804Y-8909D01*
X-221852Y-8859D01*
X-221902Y-8811D01*
X-221956Y-8766D01*
X-222011Y-8724D01*
X-222069Y-8685D01*
X-222129Y-8650D01*
X-222191Y-8618D01*
X-222255Y-8590D01*
X-222320Y-8565D01*
X-222386Y-8544D01*
X-222454Y-8526D01*
X-222522Y-8513D01*
X-222591Y-8503D01*
X-222660Y-8497D01*
X-222730Y-8495D01*
X-223351Y-8495D01*
X-223421Y-8497D01*
X-223490Y-8503D01*
X-223559Y-8513D01*
X-223627Y-8526D01*
X-223695Y-8544D01*
X-223761Y-8565D01*
X-223826Y-8590D01*
X-223890Y-8618D01*
X-223952Y-8650D01*
X-224012Y-8685D01*
X-224070Y-8724D01*
X-224125Y-8766D01*
X-224179Y-8811D01*
X-224229Y-8859D01*
X-224277Y-8909D01*
X-224322Y-8963D01*
X-224364Y-9018D01*
X-224403Y-9076D01*
X-224438Y-9136D01*
X-224470Y-9198D01*
X-224498Y-9262D01*
X-224523Y-9327D01*
X-224544Y-9393D01*
X-224562Y-9461D01*
X-224575Y-9529D01*
X-224585Y-9598D01*
X-224591Y-9667D01*
X-224593Y-9737D01*
X-224592Y-9737D02*
X-224592Y-11600D01*
X-227076Y-11600D01*
X-227076Y-8495D01*
X-227076Y-4872D02*
X-222730Y-6113D01*
X-222730Y-3009D01*
X-223972Y-3940D02*
X-221488Y-3940D01*
X-221488Y-937D02*
X-227076Y2788D01*
X-227076Y-937D02*
X-221488Y2788D01*
X-225679Y7964D02*
X-225752Y7962D01*
X-225825Y7956D01*
X-225898Y7947D01*
X-225969Y7933D01*
X-226041Y7916D01*
X-226111Y7896D01*
X-226180Y7871D01*
X-226247Y7843D01*
X-226313Y7812D01*
X-226378Y7777D01*
X-226440Y7739D01*
X-226500Y7697D01*
X-226558Y7653D01*
X-226614Y7605D01*
X-226667Y7555D01*
X-226717Y7502D01*
X-226765Y7446D01*
X-226809Y7388D01*
X-226851Y7328D01*
X-226889Y7266D01*
X-226924Y7201D01*
X-226955Y7135D01*
X-226983Y7068D01*
X-227008Y6999D01*
X-227028Y6929D01*
X-227045Y6857D01*
X-227059Y6786D01*
X-227068Y6713D01*
X-227074Y6640D01*
X-227076Y6567D01*
X-227074Y6483D01*
X-227068Y6400D01*
X-227059Y6317D01*
X-227045Y6235D01*
X-227028Y6153D01*
X-227006Y6072D01*
X-226981Y5992D01*
X-226953Y5914D01*
X-226921Y5836D01*
X-226885Y5761D01*
X-226846Y5687D01*
X-226803Y5615D01*
X-226757Y5545D01*
X-226708Y5478D01*
X-226655Y5412D01*
X-226600Y5350D01*
X-226542Y5290D01*
X-226481Y5232D01*
X-226418Y5178D01*
X-226352Y5126D01*
X-226284Y5078D01*
X-226213Y5033D01*
X-226141Y4991D01*
X-226066Y4953D01*
X-225990Y4918D01*
X-225913Y4887D01*
X-225834Y4859D01*
X-224593Y7497D02*
X-224646Y7551D01*
X-224703Y7602D01*
X-224762Y7650D01*
X-224823Y7695D01*
X-224886Y7736D01*
X-224952Y7775D01*
X-225019Y7810D01*
X-225088Y7842D01*
X-225159Y7870D01*
X-225230Y7894D01*
X-225303Y7915D01*
X-225377Y7932D01*
X-225452Y7946D01*
X-225527Y7955D01*
X-225603Y7961D01*
X-225679Y7963D01*
X-224592Y7498D02*
X-221488Y4859D01*
X-221488Y7964D01*
X-221488Y10612D02*
X-227076Y10612D01*
X-227076Y12164D01*
X-227074Y12241D01*
X-227068Y12319D01*
X-227059Y12395D01*
X-227045Y12472D01*
X-227028Y12547D01*
X-227007Y12621D01*
X-226982Y12695D01*
X-226954Y12767D01*
X-226922Y12837D01*
X-226887Y12906D01*
X-226848Y12973D01*
X-226806Y13038D01*
X-226761Y13101D01*
X-226713Y13162D01*
X-226662Y13220D01*
X-226608Y13275D01*
X-226551Y13328D01*
X-226492Y13377D01*
X-226430Y13424D01*
X-226366Y13468D01*
X-226300Y13508D01*
X-226232Y13545D01*
X-226162Y13579D01*
X-226091Y13609D01*
X-226018Y13635D01*
X-225944Y13658D01*
X-225869Y13677D01*
X-225794Y13692D01*
X-225717Y13704D01*
X-225640Y13712D01*
X-225563Y13716D01*
X-225485Y13716D01*
X-225408Y13712D01*
X-225331Y13704D01*
X-225254Y13692D01*
X-225179Y13677D01*
X-225104Y13658D01*
X-225030Y13635D01*
X-224957Y13609D01*
X-224886Y13579D01*
X-224816Y13545D01*
X-224748Y13508D01*
X-224682Y13468D01*
X-224618Y13424D01*
X-224556Y13377D01*
X-224497Y13328D01*
X-224440Y13275D01*
X-224386Y13220D01*
X-224335Y13162D01*
X-224287Y13101D01*
X-224242Y13038D01*
X-224200Y12973D01*
X-224161Y12906D01*
X-224126Y12837D01*
X-224094Y12767D01*
X-224066Y12695D01*
X-224041Y12621D01*
X-224020Y12547D01*
X-224003Y12472D01*
X-223989Y12395D01*
X-223980Y12319D01*
X-223974Y12241D01*
X-223972Y12164D01*
X-223972Y10612D01*
D15*
X-196850Y-317500D02*
X-196833Y-316097D01*
X-196781Y-314696D01*
X-196695Y-313296D01*
X-196575Y-311898D01*
X-196420Y-310504D01*
X-196231Y-309114D01*
X-196009Y-307730D01*
X-195752Y-306351D01*
X-195461Y-304978D01*
X-195137Y-303614D01*
X-194780Y-302257D01*
X-194389Y-300910D01*
X-193966Y-299573D01*
X-193509Y-298247D01*
X-193021Y-296932D01*
X-192500Y-295630D01*
X-191947Y-294340D01*
X-191363Y-293065D01*
X-190748Y-291805D01*
X-190102Y-290560D01*
X-189425Y-289331D01*
X-188719Y-288119D01*
X-187983Y-286925D01*
X-187218Y-285749D01*
X-186425Y-284593D01*
X-185603Y-283456D01*
X-184754Y-282340D01*
X-183878Y-281244D01*
X-182974Y-280171D01*
X-182045Y-279120D01*
X-181091Y-278093D01*
X-180111Y-277089D01*
X-179107Y-276109D01*
X-178080Y-275155D01*
X-177029Y-274226D01*
X-175956Y-273322D01*
X-174860Y-272446D01*
X-173744Y-271597D01*
X-172607Y-270775D01*
X-171451Y-269982D01*
X-170275Y-269217D01*
X-169081Y-268481D01*
X-167869Y-267775D01*
X-166640Y-267098D01*
X-165395Y-266452D01*
X-164135Y-265837D01*
X-162860Y-265253D01*
X-161570Y-264700D01*
X-160268Y-264179D01*
X-158953Y-263691D01*
X-157627Y-263234D01*
X-156290Y-262811D01*
X-154943Y-262420D01*
X-153586Y-262063D01*
X-152222Y-261739D01*
X-150849Y-261448D01*
X-149470Y-261191D01*
X-148086Y-260969D01*
X-146696Y-260780D01*
X-145302Y-260625D01*
X-143904Y-260505D01*
X-142504Y-260419D01*
X-141103Y-260367D01*
X-139700Y-260350D01*
X-138297Y-260367D01*
X-136896Y-260419D01*
X-135496Y-260505D01*
X-134098Y-260625D01*
X-132704Y-260780D01*
X-131314Y-260969D01*
X-129930Y-261191D01*
X-128551Y-261448D01*
X-127178Y-261739D01*
X-125814Y-262063D01*
X-124457Y-262420D01*
X-123110Y-262811D01*
X-121773Y-263234D01*
X-120447Y-263691D01*
X-119132Y-264179D01*
X-117830Y-264700D01*
X-116540Y-265253D01*
X-115265Y-265837D01*
X-114005Y-266452D01*
X-112760Y-267098D01*
X-111531Y-267775D01*
X-110319Y-268481D01*
X-109125Y-269217D01*
X-107949Y-269982D01*
X-106793Y-270775D01*
X-105656Y-271597D01*
X-104540Y-272446D01*
X-103444Y-273322D01*
X-102371Y-274226D01*
X-101320Y-275155D01*
X-100293Y-276109D01*
X-99289Y-277089D01*
X-98309Y-278093D01*
X-97355Y-279120D01*
X-96426Y-280171D01*
X-95522Y-281244D01*
X-94646Y-282340D01*
X-93797Y-283456D01*
X-92975Y-284593D01*
X-92182Y-285749D01*
X-91417Y-286925D01*
X-90681Y-288119D01*
X-89975Y-289331D01*
X-89298Y-290560D01*
X-88652Y-291805D01*
X-88037Y-293065D01*
X-87453Y-294340D01*
X-86900Y-295630D01*
X-86379Y-296932D01*
X-85891Y-298247D01*
X-85434Y-299573D01*
X-85011Y-300910D01*
X-84620Y-302257D01*
X-84263Y-303614D01*
X-83939Y-304978D01*
X-83648Y-306351D01*
X-83391Y-307730D01*
X-83169Y-309114D01*
X-82980Y-310504D01*
X-82825Y-311898D01*
X-82705Y-313296D01*
X-82619Y-314696D01*
X-82567Y-316097D01*
X-82550Y-317500D01*
X-82567Y-318903D01*
X-82619Y-320304D01*
X-82705Y-321704D01*
X-82825Y-323102D01*
X-82980Y-324496D01*
X-83169Y-325886D01*
X-83391Y-327270D01*
X-83648Y-328649D01*
X-83939Y-330022D01*
X-84263Y-331386D01*
X-84620Y-332743D01*
X-85011Y-334090D01*
X-85434Y-335427D01*
X-85891Y-336753D01*
X-86379Y-338068D01*
X-86900Y-339370D01*
X-87453Y-340660D01*
X-88037Y-341935D01*
X-88652Y-343195D01*
X-89298Y-344440D01*
X-89975Y-345669D01*
X-90681Y-346881D01*
X-91417Y-348075D01*
X-92182Y-349251D01*
X-92975Y-350407D01*
X-93797Y-351544D01*
X-94646Y-352660D01*
X-95522Y-353756D01*
X-96426Y-354829D01*
X-97355Y-355880D01*
X-98309Y-356907D01*
X-99289Y-357911D01*
X-100293Y-358891D01*
X-101320Y-359845D01*
X-102371Y-360774D01*
X-103444Y-361678D01*
X-104540Y-362554D01*
X-105656Y-363403D01*
X-106793Y-364225D01*
X-107949Y-365018D01*
X-109125Y-365783D01*
X-110319Y-366519D01*
X-111531Y-367225D01*
X-112760Y-367902D01*
X-114005Y-368548D01*
X-115265Y-369163D01*
X-116540Y-369747D01*
X-117830Y-370300D01*
X-119132Y-370821D01*
X-120447Y-371309D01*
X-121773Y-371766D01*
X-123110Y-372189D01*
X-124457Y-372580D01*
X-125814Y-372937D01*
X-127178Y-373261D01*
X-128551Y-373552D01*
X-129930Y-373809D01*
X-131314Y-374031D01*
X-132704Y-374220D01*
X-134098Y-374375D01*
X-135496Y-374495D01*
X-136896Y-374581D01*
X-138297Y-374633D01*
X-139700Y-374650D01*
X-141103Y-374633D01*
X-142504Y-374581D01*
X-143904Y-374495D01*
X-145302Y-374375D01*
X-146696Y-374220D01*
X-148086Y-374031D01*
X-149470Y-373809D01*
X-150849Y-373552D01*
X-152222Y-373261D01*
X-153586Y-372937D01*
X-154943Y-372580D01*
X-156290Y-372189D01*
X-157627Y-371766D01*
X-158953Y-371309D01*
X-160268Y-370821D01*
X-161570Y-370300D01*
X-162860Y-369747D01*
X-164135Y-369163D01*
X-165395Y-368548D01*
X-166640Y-367902D01*
X-167869Y-367225D01*
X-169081Y-366519D01*
X-170275Y-365783D01*
X-171451Y-365018D01*
X-172607Y-364225D01*
X-173744Y-363403D01*
X-174860Y-362554D01*
X-175956Y-361678D01*
X-177029Y-360774D01*
X-178080Y-359845D01*
X-179107Y-358891D01*
X-180111Y-357911D01*
X-181091Y-356907D01*
X-182045Y-355880D01*
X-182974Y-354829D01*
X-183878Y-353756D01*
X-184754Y-352660D01*
X-185603Y-351544D01*
X-186425Y-350407D01*
X-187218Y-349251D01*
X-187983Y-348075D01*
X-188719Y-346881D01*
X-189425Y-345669D01*
X-190102Y-344440D01*
X-190748Y-343195D01*
X-191363Y-341935D01*
X-191947Y-340660D01*
X-192500Y-339370D01*
X-193021Y-338068D01*
X-193509Y-336753D01*
X-193966Y-335427D01*
X-194389Y-334090D01*
X-194780Y-332743D01*
X-195137Y-331386D01*
X-195461Y-330022D01*
X-195752Y-328649D01*
X-196009Y-327270D01*
X-196231Y-325886D01*
X-196420Y-324496D01*
X-196575Y-323102D01*
X-196695Y-321704D01*
X-196781Y-320304D01*
X-196833Y-318903D01*
X-196850Y-317500D01*
X-201930Y-317500D02*
X-201911Y-315973D01*
X-201855Y-314447D01*
X-201761Y-312922D01*
X-201630Y-311400D01*
X-201462Y-309882D01*
X-201256Y-308369D01*
X-201014Y-306861D01*
X-200734Y-305360D01*
X-200418Y-303865D01*
X-200065Y-302379D01*
X-199676Y-300902D01*
X-199250Y-299436D01*
X-198789Y-297980D01*
X-198292Y-296535D01*
X-197760Y-295104D01*
X-197193Y-293686D01*
X-196591Y-292282D01*
X-195955Y-290893D01*
X-195285Y-289521D01*
X-194582Y-288165D01*
X-193846Y-286827D01*
X-193076Y-285507D01*
X-192275Y-284207D01*
X-191442Y-282927D01*
X-190578Y-281667D01*
X-189684Y-280430D01*
X-188759Y-279214D01*
X-187804Y-278022D01*
X-186821Y-276853D01*
X-185809Y-275709D01*
X-184770Y-274590D01*
X-183703Y-273497D01*
X-182610Y-272430D01*
X-181491Y-271391D01*
X-180347Y-270379D01*
X-179178Y-269396D01*
X-177986Y-268441D01*
X-176770Y-267516D01*
X-175533Y-266622D01*
X-174273Y-265758D01*
X-172993Y-264925D01*
X-171693Y-264124D01*
X-170373Y-263354D01*
X-169035Y-262618D01*
X-167679Y-261915D01*
X-166307Y-261245D01*
X-164918Y-260609D01*
X-163514Y-260007D01*
X-162096Y-259440D01*
X-160665Y-258908D01*
X-159220Y-258411D01*
X-157764Y-257950D01*
X-156298Y-257524D01*
X-154821Y-257135D01*
X-153335Y-256782D01*
X-151840Y-256466D01*
X-150339Y-256186D01*
X-148831Y-255944D01*
X-147318Y-255738D01*
X-145800Y-255570D01*
X-144278Y-255439D01*
X-142753Y-255345D01*
X-141227Y-255289D01*
X-139700Y-255270D01*
X-138173Y-255289D01*
X-136647Y-255345D01*
X-135122Y-255439D01*
X-133600Y-255570D01*
X-132082Y-255738D01*
X-130569Y-255944D01*
X-129061Y-256186D01*
X-127560Y-256466D01*
X-126065Y-256782D01*
X-124579Y-257135D01*
X-123102Y-257524D01*
X-121636Y-257950D01*
X-120180Y-258411D01*
X-118735Y-258908D01*
X-117304Y-259440D01*
X-115886Y-260007D01*
X-114482Y-260609D01*
X-113093Y-261245D01*
X-111721Y-261915D01*
X-110365Y-262618D01*
X-109027Y-263354D01*
X-107707Y-264124D01*
X-106407Y-264925D01*
X-105127Y-265758D01*
X-103867Y-266622D01*
X-102630Y-267516D01*
X-101414Y-268441D01*
X-100222Y-269396D01*
X-99053Y-270379D01*
X-97909Y-271391D01*
X-96790Y-272430D01*
X-95697Y-273497D01*
X-94630Y-274590D01*
X-93591Y-275709D01*
X-92579Y-276853D01*
X-91596Y-278022D01*
X-90641Y-279214D01*
X-89716Y-280430D01*
X-88822Y-281667D01*
X-87958Y-282927D01*
X-87125Y-284207D01*
X-86324Y-285507D01*
X-85554Y-286827D01*
X-84818Y-288165D01*
X-84115Y-289521D01*
X-83445Y-290893D01*
X-82809Y-292282D01*
X-82207Y-293686D01*
X-81640Y-295104D01*
X-81108Y-296535D01*
X-80611Y-297980D01*
X-80150Y-299436D01*
X-79724Y-300902D01*
X-79335Y-302379D01*
X-78982Y-303865D01*
X-78666Y-305360D01*
X-78386Y-306861D01*
X-78144Y-308369D01*
X-77938Y-309882D01*
X-77770Y-311400D01*
X-77639Y-312922D01*
X-77545Y-314447D01*
X-77489Y-315973D01*
X-77470Y-317500D01*
X-77489Y-319027D01*
X-77545Y-320553D01*
X-77639Y-322078D01*
X-77770Y-323600D01*
X-77938Y-325118D01*
X-78144Y-326631D01*
X-78386Y-328139D01*
X-78666Y-329640D01*
X-78982Y-331135D01*
X-79335Y-332621D01*
X-79724Y-334098D01*
X-80150Y-335564D01*
X-80611Y-337020D01*
X-81108Y-338465D01*
X-81640Y-339896D01*
X-82207Y-341314D01*
X-82809Y-342718D01*
X-83445Y-344107D01*
X-84115Y-345479D01*
X-84818Y-346835D01*
X-85554Y-348173D01*
X-86324Y-349493D01*
X-87125Y-350793D01*
X-87958Y-352073D01*
X-88822Y-353333D01*
X-89716Y-354570D01*
X-90641Y-355786D01*
X-91596Y-356978D01*
X-92579Y-358147D01*
X-93591Y-359291D01*
X-94630Y-360410D01*
X-95697Y-361503D01*
X-96790Y-362570D01*
X-97909Y-363609D01*
X-99053Y-364621D01*
X-100222Y-365604D01*
X-101414Y-366559D01*
X-102630Y-367484D01*
X-103867Y-368378D01*
X-105127Y-369242D01*
X-106407Y-370075D01*
X-107707Y-370876D01*
X-109027Y-371646D01*
X-110365Y-372382D01*
X-111721Y-373085D01*
X-113093Y-373755D01*
X-114482Y-374391D01*
X-115886Y-374993D01*
X-117304Y-375560D01*
X-118735Y-376092D01*
X-120180Y-376589D01*
X-121636Y-377050D01*
X-123102Y-377476D01*
X-124579Y-377865D01*
X-126065Y-378218D01*
X-127560Y-378534D01*
X-129061Y-378814D01*
X-130569Y-379056D01*
X-132082Y-379262D01*
X-133600Y-379430D01*
X-135122Y-379561D01*
X-136647Y-379655D01*
X-138173Y-379711D01*
X-139700Y-379730D01*
X-141227Y-379711D01*
X-142753Y-379655D01*
X-144278Y-379561D01*
X-145800Y-379430D01*
X-147318Y-379262D01*
X-148831Y-379056D01*
X-150339Y-378814D01*
X-151840Y-378534D01*
X-153335Y-378218D01*
X-154821Y-377865D01*
X-156298Y-377476D01*
X-157764Y-377050D01*
X-159220Y-376589D01*
X-160665Y-376092D01*
X-162096Y-375560D01*
X-163514Y-374993D01*
X-164918Y-374391D01*
X-166307Y-373755D01*
X-167679Y-373085D01*
X-169035Y-372382D01*
X-170373Y-371646D01*
X-171693Y-370876D01*
X-172993Y-370075D01*
X-174273Y-369242D01*
X-175533Y-368378D01*
X-176770Y-367484D01*
X-177986Y-366559D01*
X-179178Y-365604D01*
X-180347Y-364621D01*
X-181491Y-363609D01*
X-182610Y-362570D01*
X-183703Y-361503D01*
X-184770Y-360410D01*
X-185809Y-359291D01*
X-186821Y-358147D01*
X-187804Y-356978D01*
X-188759Y-355786D01*
X-189684Y-354570D01*
X-190578Y-353333D01*
X-191442Y-352073D01*
X-192275Y-350793D01*
X-193076Y-349493D01*
X-193846Y-348173D01*
X-194582Y-346835D01*
X-195285Y-345479D01*
X-195955Y-344107D01*
X-196591Y-342718D01*
X-197193Y-341314D01*
X-197760Y-339896D01*
X-198292Y-338465D01*
X-198789Y-337020D01*
X-199250Y-335564D01*
X-199676Y-334098D01*
X-200065Y-332621D01*
X-200418Y-331135D01*
X-200734Y-329640D01*
X-201014Y-328139D01*
X-201256Y-326631D01*
X-201462Y-325118D01*
X-201630Y-323600D01*
X-201761Y-322078D01*
X-201855Y-320553D01*
X-201911Y-319027D01*
X-201930Y-317500D01*
X-149860Y-317500D02*
X-149857Y-317251D01*
X-149848Y-317001D01*
X-149832Y-316753D01*
X-149811Y-316504D01*
X-149784Y-316256D01*
X-149750Y-316009D01*
X-149710Y-315763D01*
X-149665Y-315518D01*
X-149613Y-315274D01*
X-149556Y-315031D01*
X-149492Y-314790D01*
X-149423Y-314551D01*
X-149347Y-314313D01*
X-149266Y-314077D01*
X-149179Y-313843D01*
X-149087Y-313612D01*
X-148988Y-313383D01*
X-148885Y-313156D01*
X-148775Y-312932D01*
X-148660Y-312711D01*
X-148540Y-312492D01*
X-148415Y-312277D01*
X-148284Y-312064D01*
X-148148Y-311855D01*
X-148007Y-311650D01*
X-147861Y-311448D01*
X-147710Y-311249D01*
X-147554Y-311055D01*
X-147393Y-310864D01*
X-147228Y-310677D01*
X-147058Y-310494D01*
X-146884Y-310316D01*
X-146706Y-310142D01*
X-146523Y-309972D01*
X-146336Y-309807D01*
X-146145Y-309646D01*
X-145951Y-309490D01*
X-145752Y-309339D01*
X-145550Y-309193D01*
X-145345Y-309052D01*
X-145136Y-308916D01*
X-144923Y-308785D01*
X-144708Y-308660D01*
X-144489Y-308540D01*
X-144268Y-308425D01*
X-144044Y-308315D01*
X-143817Y-308212D01*
X-143588Y-308113D01*
X-143357Y-308021D01*
X-143123Y-307934D01*
X-142887Y-307853D01*
X-142649Y-307777D01*
X-142410Y-307708D01*
X-142169Y-307644D01*
X-141926Y-307587D01*
X-141682Y-307535D01*
X-141437Y-307490D01*
X-141191Y-307450D01*
X-140944Y-307416D01*
X-140696Y-307389D01*
X-140447Y-307368D01*
X-140199Y-307352D01*
X-139949Y-307343D01*
X-139700Y-307340D01*
X-139451Y-307343D01*
X-139201Y-307352D01*
X-138953Y-307368D01*
X-138704Y-307389D01*
X-138456Y-307416D01*
X-138209Y-307450D01*
X-137963Y-307490D01*
X-137718Y-307535D01*
X-137474Y-307587D01*
X-137231Y-307644D01*
X-136990Y-307708D01*
X-136751Y-307777D01*
X-136513Y-307853D01*
X-136277Y-307934D01*
X-136043Y-308021D01*
X-135812Y-308113D01*
X-135583Y-308212D01*
X-135356Y-308315D01*
X-135132Y-308425D01*
X-134911Y-308540D01*
X-134692Y-308660D01*
X-134477Y-308785D01*
X-134264Y-308916D01*
X-134055Y-309052D01*
X-133850Y-309193D01*
X-133648Y-309339D01*
X-133449Y-309490D01*
X-133255Y-309646D01*
X-133064Y-309807D01*
X-132877Y-309972D01*
X-132694Y-310142D01*
X-132516Y-310316D01*
X-132342Y-310494D01*
X-132172Y-310677D01*
X-132007Y-310864D01*
X-131846Y-311055D01*
X-131690Y-311249D01*
X-131539Y-311448D01*
X-131393Y-311650D01*
X-131252Y-311855D01*
X-131116Y-312064D01*
X-130985Y-312277D01*
X-130860Y-312492D01*
X-130740Y-312711D01*
X-130625Y-312932D01*
X-130515Y-313156D01*
X-130412Y-313383D01*
X-130313Y-313612D01*
X-130221Y-313843D01*
X-130134Y-314077D01*
X-130053Y-314313D01*
X-129977Y-314551D01*
X-129908Y-314790D01*
X-129844Y-315031D01*
X-129787Y-315274D01*
X-129735Y-315518D01*
X-129690Y-315763D01*
X-129650Y-316009D01*
X-129616Y-316256D01*
X-129589Y-316504D01*
X-129568Y-316753D01*
X-129552Y-317001D01*
X-129543Y-317251D01*
X-129540Y-317500D01*
X-129543Y-317749D01*
X-129552Y-317999D01*
X-129568Y-318247D01*
X-129589Y-318496D01*
X-129616Y-318744D01*
X-129650Y-318991D01*
X-129690Y-319237D01*
X-129735Y-319482D01*
X-129787Y-319726D01*
X-129844Y-319969D01*
X-129908Y-320210D01*
X-129977Y-320449D01*
X-130053Y-320687D01*
X-130134Y-320923D01*
X-130221Y-321157D01*
X-130313Y-321388D01*
X-130412Y-321617D01*
X-130515Y-321844D01*
X-130625Y-322068D01*
X-130740Y-322289D01*
X-130860Y-322508D01*
X-130985Y-322723D01*
X-131116Y-322936D01*
X-131252Y-323145D01*
X-131393Y-323350D01*
X-131539Y-323552D01*
X-131690Y-323751D01*
X-131846Y-323945D01*
X-132007Y-324136D01*
X-132172Y-324323D01*
X-132342Y-324506D01*
X-132516Y-324684D01*
X-132694Y-324858D01*
X-132877Y-325028D01*
X-133064Y-325193D01*
X-133255Y-325354D01*
X-133449Y-325510D01*
X-133648Y-325661D01*
X-133850Y-325807D01*
X-134055Y-325948D01*
X-134264Y-326084D01*
X-134477Y-326215D01*
X-134692Y-326340D01*
X-134911Y-326460D01*
X-135132Y-326575D01*
X-135356Y-326685D01*
X-135583Y-326788D01*
X-135812Y-326887D01*
X-136043Y-326979D01*
X-136277Y-327066D01*
X-136513Y-327147D01*
X-136751Y-327223D01*
X-136990Y-327292D01*
X-137231Y-327356D01*
X-137474Y-327413D01*
X-137718Y-327465D01*
X-137963Y-327510D01*
X-138209Y-327550D01*
X-138456Y-327584D01*
X-138704Y-327611D01*
X-138953Y-327632D01*
X-139201Y-327648D01*
X-139451Y-327657D01*
X-139700Y-327660D01*
X-139949Y-327657D01*
X-140199Y-327648D01*
X-140447Y-327632D01*
X-140696Y-327611D01*
X-140944Y-327584D01*
X-141191Y-327550D01*
X-141437Y-327510D01*
X-141682Y-327465D01*
X-141926Y-327413D01*
X-142169Y-327356D01*
X-142410Y-327292D01*
X-142649Y-327223D01*
X-142887Y-327147D01*
X-143123Y-327066D01*
X-143357Y-326979D01*
X-143588Y-326887D01*
X-143817Y-326788D01*
X-144044Y-326685D01*
X-144268Y-326575D01*
X-144489Y-326460D01*
X-144708Y-326340D01*
X-144923Y-326215D01*
X-145136Y-326084D01*
X-145345Y-325948D01*
X-145550Y-325807D01*
X-145752Y-325661D01*
X-145951Y-325510D01*
X-146145Y-325354D01*
X-146336Y-325193D01*
X-146523Y-325028D01*
X-146706Y-324858D01*
X-146884Y-324684D01*
X-147058Y-324506D01*
X-147228Y-324323D01*
X-147393Y-324136D01*
X-147554Y-323945D01*
X-147710Y-323751D01*
X-147861Y-323552D01*
X-148007Y-323350D01*
X-148148Y-323145D01*
X-148284Y-322936D01*
X-148415Y-322723D01*
X-148540Y-322508D01*
X-148660Y-322289D01*
X-148775Y-322068D01*
X-148885Y-321844D01*
X-148988Y-321617D01*
X-149087Y-321388D01*
X-149179Y-321157D01*
X-149266Y-320923D01*
X-149347Y-320687D01*
X-149423Y-320449D01*
X-149492Y-320210D01*
X-149556Y-319969D01*
X-149613Y-319726D01*
X-149665Y-319482D01*
X-149710Y-319237D01*
X-149750Y-318991D01*
X-149784Y-318744D01*
X-149811Y-318496D01*
X-149832Y-318247D01*
X-149848Y-317999D01*
X-149857Y-317749D01*
X-149860Y-317500D01*
D10*
X-131064Y-390525D02*
X-131066Y-390625D01*
X-131072Y-390724D01*
X-131082Y-390824D01*
X-131095Y-390922D01*
X-131113Y-391021D01*
X-131134Y-391118D01*
X-131159Y-391214D01*
X-131188Y-391310D01*
X-131221Y-391404D01*
X-131257Y-391497D01*
X-131297Y-391588D01*
X-131341Y-391678D01*
X-131388Y-391766D01*
X-131438Y-391852D01*
X-131492Y-391936D01*
X-131549Y-392018D01*
X-131609Y-392097D01*
X-131673Y-392175D01*
X-131739Y-392249D01*
X-131808Y-392321D01*
X-131880Y-392390D01*
X-131954Y-392456D01*
X-132032Y-392520D01*
X-132111Y-392580D01*
X-132193Y-392637D01*
X-132277Y-392691D01*
X-132363Y-392741D01*
X-132451Y-392788D01*
X-132541Y-392832D01*
X-132632Y-392872D01*
X-132725Y-392908D01*
X-132819Y-392941D01*
X-132915Y-392970D01*
X-133011Y-392995D01*
X-133108Y-393016D01*
X-133207Y-393034D01*
X-133305Y-393047D01*
X-133405Y-393057D01*
X-133504Y-393063D01*
X-133604Y-393065D01*
X-133745Y-393063D01*
X-133886Y-393058D01*
X-134027Y-393048D01*
X-134168Y-393035D01*
X-134308Y-393019D01*
X-134448Y-392998D01*
X-134587Y-392974D01*
X-134726Y-392946D01*
X-134863Y-392915D01*
X-135000Y-392880D01*
X-135136Y-392842D01*
X-135271Y-392800D01*
X-135404Y-392754D01*
X-135537Y-392705D01*
X-135668Y-392652D01*
X-135797Y-392596D01*
X-135926Y-392537D01*
X-136052Y-392474D01*
X-136177Y-392408D01*
X-136300Y-392339D01*
X-136421Y-392266D01*
X-136540Y-392190D01*
X-136658Y-392111D01*
X-136773Y-392030D01*
X-136885Y-391945D01*
X-136996Y-391857D01*
X-137104Y-391766D01*
X-137210Y-391673D01*
X-137313Y-391576D01*
X-137414Y-391477D01*
X-137097Y-384175D02*
X-137095Y-384075D01*
X-137089Y-383976D01*
X-137079Y-383876D01*
X-137066Y-383778D01*
X-137048Y-383679D01*
X-137027Y-383582D01*
X-137002Y-383486D01*
X-136973Y-383390D01*
X-136940Y-383296D01*
X-136904Y-383203D01*
X-136864Y-383112D01*
X-136820Y-383022D01*
X-136773Y-382934D01*
X-136723Y-382848D01*
X-136669Y-382764D01*
X-136612Y-382682D01*
X-136552Y-382603D01*
X-136488Y-382525D01*
X-136422Y-382451D01*
X-136353Y-382379D01*
X-136281Y-382310D01*
X-136207Y-382244D01*
X-136129Y-382180D01*
X-136050Y-382120D01*
X-135968Y-382063D01*
X-135884Y-382009D01*
X-135798Y-381959D01*
X-135710Y-381912D01*
X-135620Y-381868D01*
X-135529Y-381828D01*
X-135436Y-381792D01*
X-135342Y-381759D01*
X-135246Y-381730D01*
X-135150Y-381705D01*
X-135053Y-381684D01*
X-134954Y-381666D01*
X-134856Y-381653D01*
X-134756Y-381643D01*
X-134657Y-381637D01*
X-134557Y-381635D01*
X-134424Y-381637D01*
X-134291Y-381642D01*
X-134158Y-381652D01*
X-134025Y-381665D01*
X-133893Y-381682D01*
X-133761Y-381702D01*
X-133630Y-381726D01*
X-133500Y-381754D01*
X-133370Y-381785D01*
X-133242Y-381820D01*
X-133114Y-381859D01*
X-132988Y-381901D01*
X-132863Y-381947D01*
X-132739Y-381996D01*
X-132616Y-382048D01*
X-132495Y-382104D01*
X-132376Y-382164D01*
X-132258Y-382226D01*
X-132143Y-382292D01*
X-132029Y-382361D01*
X-131917Y-382434D01*
X-131807Y-382509D01*
X-131699Y-382588D01*
X-135827Y-386398D02*
X-135911Y-386346D01*
X-135994Y-386291D01*
X-136074Y-386232D01*
X-136152Y-386171D01*
X-136227Y-386107D01*
X-136300Y-386039D01*
X-136371Y-385969D01*
X-136438Y-385897D01*
X-136503Y-385822D01*
X-136565Y-385744D01*
X-136624Y-385664D01*
X-136680Y-385582D01*
X-136732Y-385498D01*
X-136781Y-385412D01*
X-136827Y-385324D01*
X-136870Y-385234D01*
X-136909Y-385143D01*
X-136944Y-385050D01*
X-136976Y-384956D01*
X-137004Y-384861D01*
X-137029Y-384765D01*
X-137049Y-384668D01*
X-137067Y-384570D01*
X-137080Y-384472D01*
X-137089Y-384373D01*
X-137095Y-384274D01*
X-137097Y-384175D01*
X-132334Y-388302D02*
X-132250Y-388354D01*
X-132167Y-388409D01*
X-132087Y-388468D01*
X-132009Y-388529D01*
X-131934Y-388593D01*
X-131861Y-388661D01*
X-131790Y-388731D01*
X-131723Y-388803D01*
X-131658Y-388878D01*
X-131596Y-388956D01*
X-131537Y-389036D01*
X-131481Y-389118D01*
X-131429Y-389202D01*
X-131380Y-389288D01*
X-131334Y-389376D01*
X-131291Y-389466D01*
X-131252Y-389557D01*
X-131217Y-389650D01*
X-131185Y-389744D01*
X-131157Y-389839D01*
X-131132Y-389935D01*
X-131112Y-390032D01*
X-131094Y-390130D01*
X-131081Y-390228D01*
X-131072Y-390327D01*
X-131066Y-390426D01*
X-131064Y-390525D01*
X-132334Y-388303D02*
X-135827Y-386398D01*
X-125794Y-381635D02*
X-125794Y-393065D01*
X-125794Y-381635D02*
X-122619Y-381635D01*
X-122508Y-381637D01*
X-122398Y-381643D01*
X-122287Y-381652D01*
X-122177Y-381666D01*
X-122068Y-381683D01*
X-121959Y-381704D01*
X-121851Y-381729D01*
X-121744Y-381758D01*
X-121638Y-381790D01*
X-121533Y-381826D01*
X-121430Y-381866D01*
X-121328Y-381909D01*
X-121227Y-381956D01*
X-121128Y-382007D01*
X-121031Y-382060D01*
X-120937Y-382117D01*
X-120844Y-382178D01*
X-120753Y-382241D01*
X-120664Y-382308D01*
X-120578Y-382378D01*
X-120495Y-382451D01*
X-120413Y-382526D01*
X-120335Y-382604D01*
X-120260Y-382686D01*
X-120187Y-382769D01*
X-120117Y-382855D01*
X-120050Y-382944D01*
X-119987Y-383035D01*
X-119926Y-383128D01*
X-119869Y-383223D01*
X-119816Y-383319D01*
X-119765Y-383418D01*
X-119718Y-383519D01*
X-119675Y-383621D01*
X-119635Y-383724D01*
X-119599Y-383829D01*
X-119567Y-383935D01*
X-119538Y-384042D01*
X-119513Y-384150D01*
X-119492Y-384259D01*
X-119475Y-384368D01*
X-119461Y-384478D01*
X-119452Y-384589D01*
X-119446Y-384699D01*
X-119444Y-384810D01*
X-119446Y-384921D01*
X-119452Y-385031D01*
X-119461Y-385142D01*
X-119475Y-385252D01*
X-119492Y-385361D01*
X-119513Y-385470D01*
X-119538Y-385578D01*
X-119567Y-385685D01*
X-119599Y-385791D01*
X-119635Y-385896D01*
X-119675Y-385999D01*
X-119718Y-386101D01*
X-119765Y-386202D01*
X-119816Y-386301D01*
X-119869Y-386398D01*
X-119926Y-386492D01*
X-119987Y-386585D01*
X-120050Y-386676D01*
X-120117Y-386765D01*
X-120187Y-386851D01*
X-120260Y-386934D01*
X-120335Y-387016D01*
X-120413Y-387094D01*
X-120495Y-387169D01*
X-120578Y-387242D01*
X-120664Y-387312D01*
X-120753Y-387379D01*
X-120844Y-387442D01*
X-120937Y-387503D01*
X-121032Y-387560D01*
X-121128Y-387613D01*
X-121227Y-387664D01*
X-121328Y-387711D01*
X-121430Y-387754D01*
X-121533Y-387794D01*
X-121638Y-387830D01*
X-121744Y-387862D01*
X-121851Y-387891D01*
X-121959Y-387916D01*
X-122068Y-387937D01*
X-122177Y-387954D01*
X-122287Y-387968D01*
X-122398Y-387977D01*
X-122508Y-387983D01*
X-122619Y-387985D01*
X-125794Y-387985D01*
X-114935Y-384175D02*
X-111760Y-381635D01*
X-111760Y-393065D01*
X-114935Y-393065D02*
X-108585Y-393065D01*
X-228600Y-71120D02*
X-279400Y-71120D01*
X-279400Y-88900D01*
X-279400Y-104140D01*
X-279400Y-114300D02*
X-279400Y-129540D01*
X-279400Y-147320D01*
X-228600Y-147320D01*
X-228600Y-71120D01*
X-274320Y-88900D02*
X-279400Y-88900D01*
X-279400Y-104140D02*
X-274320Y-104140D01*
X-279400Y-104140D02*
X-279400Y-114300D01*
X-274320Y-114300D01*
X-274320Y-129540D02*
X-279400Y-129540D01*
X-274320Y-104140D02*
X-274320Y-88900D01*
X-274320Y-114300D02*
X-274320Y-129540D01*
D11*
X-225806Y-132414D02*
X-221460Y-132414D01*
X-221390Y-132416D01*
X-221321Y-132422D01*
X-221252Y-132432D01*
X-221184Y-132445D01*
X-221116Y-132463D01*
X-221050Y-132484D01*
X-220985Y-132509D01*
X-220921Y-132537D01*
X-220859Y-132569D01*
X-220799Y-132604D01*
X-220741Y-132643D01*
X-220686Y-132685D01*
X-220632Y-132730D01*
X-220582Y-132778D01*
X-220534Y-132828D01*
X-220489Y-132882D01*
X-220447Y-132937D01*
X-220408Y-132995D01*
X-220373Y-133055D01*
X-220341Y-133117D01*
X-220313Y-133181D01*
X-220288Y-133246D01*
X-220267Y-133312D01*
X-220249Y-133380D01*
X-220236Y-133448D01*
X-220226Y-133517D01*
X-220220Y-133586D01*
X-220218Y-133656D01*
X-220218Y-134277D01*
X-220218Y-128192D02*
X-220220Y-128122D01*
X-220226Y-128053D01*
X-220236Y-127984D01*
X-220249Y-127916D01*
X-220267Y-127848D01*
X-220288Y-127782D01*
X-220313Y-127717D01*
X-220341Y-127653D01*
X-220373Y-127591D01*
X-220408Y-127531D01*
X-220447Y-127473D01*
X-220489Y-127418D01*
X-220534Y-127364D01*
X-220582Y-127314D01*
X-220632Y-127266D01*
X-220686Y-127221D01*
X-220741Y-127179D01*
X-220799Y-127140D01*
X-220859Y-127105D01*
X-220921Y-127073D01*
X-220985Y-127045D01*
X-221050Y-127020D01*
X-221116Y-126999D01*
X-221184Y-126981D01*
X-221252Y-126968D01*
X-221321Y-126958D01*
X-221390Y-126952D01*
X-221460Y-126950D01*
X-220218Y-128192D02*
X-220220Y-128291D01*
X-220225Y-128389D01*
X-220235Y-128487D01*
X-220248Y-128585D01*
X-220264Y-128682D01*
X-220284Y-128779D01*
X-220308Y-128874D01*
X-220336Y-128969D01*
X-220367Y-129063D01*
X-220401Y-129155D01*
X-220439Y-129246D01*
X-220480Y-129336D01*
X-220525Y-129424D01*
X-220573Y-129510D01*
X-220624Y-129594D01*
X-220678Y-129676D01*
X-220736Y-129757D01*
X-220796Y-129835D01*
X-220859Y-129910D01*
X-220925Y-129984D01*
X-220994Y-130054D01*
X-224564Y-129900D02*
X-224634Y-129898D01*
X-224703Y-129892D01*
X-224772Y-129882D01*
X-224840Y-129869D01*
X-224908Y-129851D01*
X-224974Y-129830D01*
X-225039Y-129805D01*
X-225103Y-129777D01*
X-225165Y-129745D01*
X-225225Y-129710D01*
X-225283Y-129671D01*
X-225338Y-129629D01*
X-225392Y-129584D01*
X-225442Y-129536D01*
X-225490Y-129486D01*
X-225535Y-129432D01*
X-225577Y-129377D01*
X-225616Y-129319D01*
X-225651Y-129259D01*
X-225683Y-129197D01*
X-225711Y-129133D01*
X-225736Y-129068D01*
X-225757Y-129002D01*
X-225775Y-128934D01*
X-225788Y-128866D01*
X-225798Y-128797D01*
X-225804Y-128728D01*
X-225806Y-128658D01*
X-225804Y-128564D01*
X-225798Y-128471D01*
X-225789Y-128378D01*
X-225776Y-128285D01*
X-225759Y-128193D01*
X-225739Y-128102D01*
X-225714Y-128011D01*
X-225687Y-127922D01*
X-225655Y-127834D01*
X-225620Y-127747D01*
X-225582Y-127661D01*
X-225540Y-127578D01*
X-225495Y-127495D01*
X-225447Y-127415D01*
X-225395Y-127337D01*
X-225340Y-127261D01*
X-223478Y-129279D02*
X-223514Y-129338D01*
X-223554Y-129394D01*
X-223597Y-129448D01*
X-223642Y-129500D01*
X-223691Y-129549D01*
X-223742Y-129595D01*
X-223795Y-129638D01*
X-223851Y-129679D01*
X-223909Y-129716D01*
X-223969Y-129751D01*
X-224030Y-129781D01*
X-224093Y-129809D01*
X-224158Y-129833D01*
X-224224Y-129853D01*
X-224291Y-129870D01*
X-224358Y-129883D01*
X-224426Y-129892D01*
X-224495Y-129898D01*
X-224564Y-129900D01*
X-222546Y-127572D02*
X-222510Y-127513D01*
X-222470Y-127457D01*
X-222427Y-127403D01*
X-222382Y-127351D01*
X-222333Y-127302D01*
X-222282Y-127256D01*
X-222229Y-127213D01*
X-222173Y-127172D01*
X-222115Y-127135D01*
X-222056Y-127100D01*
X-221994Y-127070D01*
X-221931Y-127042D01*
X-221866Y-127018D01*
X-221800Y-126998D01*
X-221733Y-126981D01*
X-221666Y-126968D01*
X-221598Y-126959D01*
X-221529Y-126953D01*
X-221460Y-126951D01*
X-222546Y-127572D02*
X-223478Y-129279D01*
X-225806Y-123565D02*
X-220218Y-123565D01*
X-225806Y-125117D02*
X-225806Y-122013D01*
X-225806Y-115363D02*
X-225804Y-115290D01*
X-225798Y-115217D01*
X-225789Y-115144D01*
X-225775Y-115073D01*
X-225758Y-115001D01*
X-225738Y-114931D01*
X-225713Y-114862D01*
X-225685Y-114795D01*
X-225654Y-114729D01*
X-225619Y-114665D01*
X-225581Y-114602D01*
X-225539Y-114542D01*
X-225495Y-114484D01*
X-225447Y-114428D01*
X-225397Y-114375D01*
X-225344Y-114325D01*
X-225288Y-114277D01*
X-225230Y-114233D01*
X-225170Y-114191D01*
X-225108Y-114153D01*
X-225043Y-114118D01*
X-224977Y-114087D01*
X-224910Y-114059D01*
X-224841Y-114034D01*
X-224771Y-114014D01*
X-224699Y-113997D01*
X-224628Y-113983D01*
X-224555Y-113974D01*
X-224482Y-113968D01*
X-224409Y-113966D01*
X-225806Y-115363D02*
X-225804Y-115447D01*
X-225798Y-115530D01*
X-225789Y-115613D01*
X-225775Y-115695D01*
X-225758Y-115777D01*
X-225736Y-115858D01*
X-225711Y-115938D01*
X-225683Y-116016D01*
X-225651Y-116094D01*
X-225615Y-116169D01*
X-225576Y-116243D01*
X-225533Y-116315D01*
X-225487Y-116385D01*
X-225438Y-116452D01*
X-225385Y-116518D01*
X-225330Y-116580D01*
X-225272Y-116640D01*
X-225211Y-116698D01*
X-225148Y-116752D01*
X-225082Y-116804D01*
X-225014Y-116852D01*
X-224943Y-116897D01*
X-224871Y-116939D01*
X-224796Y-116977D01*
X-224720Y-117012D01*
X-224643Y-117043D01*
X-224564Y-117071D01*
X-223323Y-114433D02*
X-223376Y-114379D01*
X-223433Y-114328D01*
X-223492Y-114280D01*
X-223553Y-114235D01*
X-223616Y-114194D01*
X-223682Y-114155D01*
X-223749Y-114120D01*
X-223818Y-114088D01*
X-223889Y-114060D01*
X-223960Y-114036D01*
X-224033Y-114015D01*
X-224107Y-113998D01*
X-224182Y-113984D01*
X-224257Y-113975D01*
X-224333Y-113969D01*
X-224409Y-113967D01*
X-223322Y-114432D02*
X-220218Y-117071D01*
X-220218Y-113966D01*
X-220218Y-111833D02*
X-220528Y-111833D01*
X-220528Y-111523D01*
X-220218Y-111523D01*
X-220218Y-111833D01*
X-220218Y-109390D02*
X-220218Y-107527D01*
X-220220Y-107457D01*
X-220226Y-107388D01*
X-220236Y-107319D01*
X-220249Y-107251D01*
X-220267Y-107183D01*
X-220288Y-107117D01*
X-220313Y-107052D01*
X-220341Y-106988D01*
X-220373Y-106926D01*
X-220408Y-106866D01*
X-220447Y-106808D01*
X-220489Y-106753D01*
X-220534Y-106699D01*
X-220582Y-106649D01*
X-220632Y-106601D01*
X-220686Y-106556D01*
X-220741Y-106514D01*
X-220799Y-106475D01*
X-220859Y-106440D01*
X-220921Y-106408D01*
X-220985Y-106380D01*
X-221050Y-106355D01*
X-221116Y-106334D01*
X-221184Y-106316D01*
X-221252Y-106303D01*
X-221321Y-106293D01*
X-221390Y-106287D01*
X-221460Y-106285D01*
X-222081Y-106285D01*
X-222151Y-106287D01*
X-222220Y-106293D01*
X-222289Y-106303D01*
X-222357Y-106316D01*
X-222425Y-106334D01*
X-222491Y-106355D01*
X-222556Y-106380D01*
X-222620Y-106408D01*
X-222682Y-106440D01*
X-222742Y-106475D01*
X-222800Y-106514D01*
X-222855Y-106556D01*
X-222909Y-106601D01*
X-222959Y-106649D01*
X-223007Y-106699D01*
X-223052Y-106753D01*
X-223094Y-106808D01*
X-223133Y-106866D01*
X-223168Y-106926D01*
X-223200Y-106988D01*
X-223228Y-107052D01*
X-223253Y-107117D01*
X-223274Y-107183D01*
X-223292Y-107251D01*
X-223305Y-107319D01*
X-223315Y-107388D01*
X-223321Y-107457D01*
X-223323Y-107527D01*
X-223322Y-107527D02*
X-223322Y-109390D01*
X-225806Y-109390D01*
X-225806Y-106285D01*
X-225806Y-102662D02*
X-221460Y-103903D01*
X-221460Y-100799D01*
X-222702Y-101730D02*
X-220218Y-101730D01*
X-220218Y-98727D02*
X-225806Y-95002D01*
X-225806Y-98727D02*
X-220218Y-95002D01*
X-224409Y-89826D02*
X-224482Y-89828D01*
X-224555Y-89834D01*
X-224628Y-89843D01*
X-224699Y-89857D01*
X-224771Y-89874D01*
X-224841Y-89894D01*
X-224910Y-89919D01*
X-224977Y-89947D01*
X-225043Y-89978D01*
X-225108Y-90013D01*
X-225170Y-90051D01*
X-225230Y-90093D01*
X-225288Y-90137D01*
X-225344Y-90185D01*
X-225397Y-90235D01*
X-225447Y-90288D01*
X-225495Y-90344D01*
X-225539Y-90402D01*
X-225581Y-90462D01*
X-225619Y-90525D01*
X-225654Y-90589D01*
X-225685Y-90655D01*
X-225713Y-90722D01*
X-225738Y-90791D01*
X-225758Y-90861D01*
X-225775Y-90933D01*
X-225789Y-91004D01*
X-225798Y-91077D01*
X-225804Y-91150D01*
X-225806Y-91223D01*
X-225804Y-91307D01*
X-225798Y-91390D01*
X-225789Y-91473D01*
X-225775Y-91555D01*
X-225758Y-91637D01*
X-225736Y-91718D01*
X-225711Y-91798D01*
X-225683Y-91876D01*
X-225651Y-91954D01*
X-225615Y-92029D01*
X-225576Y-92103D01*
X-225533Y-92175D01*
X-225487Y-92245D01*
X-225438Y-92312D01*
X-225385Y-92378D01*
X-225330Y-92440D01*
X-225272Y-92500D01*
X-225211Y-92558D01*
X-225148Y-92612D01*
X-225082Y-92664D01*
X-225014Y-92712D01*
X-224943Y-92757D01*
X-224871Y-92799D01*
X-224796Y-92837D01*
X-224720Y-92872D01*
X-224643Y-92903D01*
X-224564Y-92931D01*
X-223323Y-90293D02*
X-223376Y-90239D01*
X-223433Y-90188D01*
X-223492Y-90140D01*
X-223553Y-90095D01*
X-223616Y-90054D01*
X-223682Y-90015D01*
X-223749Y-89980D01*
X-223818Y-89948D01*
X-223889Y-89920D01*
X-223960Y-89896D01*
X-224033Y-89875D01*
X-224107Y-89858D01*
X-224182Y-89844D01*
X-224257Y-89835D01*
X-224333Y-89829D01*
X-224409Y-89827D01*
X-223322Y-90292D02*
X-220218Y-92931D01*
X-220218Y-89826D01*
X-220218Y-87178D02*
X-225806Y-87178D01*
X-225806Y-85626D01*
X-225804Y-85549D01*
X-225798Y-85471D01*
X-225789Y-85395D01*
X-225775Y-85318D01*
X-225758Y-85243D01*
X-225737Y-85169D01*
X-225712Y-85095D01*
X-225684Y-85023D01*
X-225652Y-84953D01*
X-225617Y-84884D01*
X-225578Y-84817D01*
X-225536Y-84752D01*
X-225491Y-84689D01*
X-225443Y-84628D01*
X-225392Y-84570D01*
X-225338Y-84515D01*
X-225281Y-84462D01*
X-225222Y-84413D01*
X-225160Y-84366D01*
X-225096Y-84322D01*
X-225030Y-84282D01*
X-224962Y-84245D01*
X-224892Y-84211D01*
X-224821Y-84181D01*
X-224748Y-84155D01*
X-224674Y-84132D01*
X-224599Y-84113D01*
X-224524Y-84098D01*
X-224447Y-84086D01*
X-224370Y-84078D01*
X-224293Y-84074D01*
X-224215Y-84074D01*
X-224138Y-84078D01*
X-224061Y-84086D01*
X-223984Y-84098D01*
X-223909Y-84113D01*
X-223834Y-84132D01*
X-223760Y-84155D01*
X-223687Y-84181D01*
X-223616Y-84211D01*
X-223546Y-84245D01*
X-223478Y-84282D01*
X-223412Y-84322D01*
X-223348Y-84366D01*
X-223286Y-84413D01*
X-223227Y-84462D01*
X-223170Y-84515D01*
X-223116Y-84570D01*
X-223065Y-84628D01*
X-223017Y-84689D01*
X-222972Y-84752D01*
X-222930Y-84817D01*
X-222891Y-84884D01*
X-222856Y-84953D01*
X-222824Y-85023D01*
X-222796Y-85095D01*
X-222771Y-85169D01*
X-222750Y-85243D01*
X-222733Y-85318D01*
X-222719Y-85395D01*
X-222710Y-85471D01*
X-222704Y-85549D01*
X-222702Y-85626D01*
X-222702Y-87178D01*
M02*
