M48
;GenerationSoftware,Autodesk,EAGLE,9.6.2*%
;CreationDate,2024-03-03T18:44:25Z*%
FMAT,2
ICI,OFF
METRIC,TZ,000.000
T7C0.813
T6C0.900
T5C1.000
T4C1.016
T3C1.118
T2C3.000
T1C3.302
%
G90
M71
T1
X-15367Y-889
X-3810Y-1016
T2
X-27559Y-37719
X1270Y-37846
X-27940Y5080
X1270Y5207
T3
X-17907Y-18415
X-15367Y-18415
X-12827Y-18415
X-6350Y-18542
X-3810Y-18542
X-1270Y-18542
T4
X-11684Y-31750
X-16256Y-31750
T5
X-10160Y-15240
X-10160Y-7620
T6
X-25400Y-29210
X-25400Y-31750
X-25527Y127
X-25527Y-2413
X-25400Y-21590
X-25400Y-19050
X-25400Y-9652
X-25400Y-12192
T7
X-17780Y-24130
X-10160Y-24130
X-127Y-24130
X-7747Y-24130
M30