G04 EAGLE Gerber RS-274X export*
G75*
%MOMM*%
%FSLAX34Y34*%
%LPD*%
%IN*%
%IPPOS*%
%AMOC8*
5,1,8,0,0,1.08239X$1,22.5*%
G01*
%ADD10C,0.254000*%


D10*
X-38100Y165100D02*
X609000Y165100D01*
X609000Y647600D01*
X-38100Y647600D01*
X-38100Y165100D01*
X12460Y197084D02*
X12384Y196016D01*
X12231Y194955D01*
X12003Y193908D01*
X11701Y192880D01*
X11327Y191876D01*
X10882Y190901D01*
X10368Y189961D01*
X9789Y189060D01*
X9147Y188202D01*
X8445Y187392D01*
X7688Y186635D01*
X6878Y185933D01*
X6020Y185291D01*
X5119Y184712D01*
X4179Y184198D01*
X3204Y183753D01*
X2200Y183379D01*
X1172Y183077D01*
X125Y182849D01*
X-936Y182696D01*
X-2004Y182620D01*
X-3076Y182620D01*
X-4144Y182696D01*
X-5205Y182849D01*
X-6252Y183077D01*
X-7280Y183379D01*
X-8284Y183753D01*
X-9259Y184198D01*
X-10199Y184712D01*
X-11100Y185291D01*
X-11958Y185933D01*
X-12768Y186635D01*
X-13525Y187392D01*
X-14227Y188202D01*
X-14869Y189060D01*
X-15448Y189961D01*
X-15962Y190901D01*
X-16407Y191876D01*
X-16781Y192880D01*
X-17083Y193908D01*
X-17311Y194955D01*
X-17464Y196016D01*
X-17540Y197084D01*
X-17540Y198156D01*
X-17464Y199224D01*
X-17311Y200285D01*
X-17083Y201332D01*
X-16781Y202360D01*
X-16407Y203364D01*
X-15962Y204339D01*
X-15448Y205279D01*
X-14869Y206180D01*
X-14227Y207038D01*
X-13525Y207848D01*
X-12768Y208605D01*
X-11958Y209307D01*
X-11100Y209949D01*
X-10199Y210528D01*
X-9259Y211042D01*
X-8284Y211487D01*
X-7280Y211861D01*
X-6252Y212163D01*
X-5205Y212391D01*
X-4144Y212544D01*
X-3076Y212620D01*
X-2004Y212620D01*
X-936Y212544D01*
X125Y212391D01*
X1172Y212163D01*
X2200Y211861D01*
X3204Y211487D01*
X4179Y211042D01*
X5119Y210528D01*
X6020Y209949D01*
X6878Y209307D01*
X7688Y208605D01*
X8445Y207848D01*
X9147Y207038D01*
X9789Y206180D01*
X10368Y205279D01*
X10882Y204339D01*
X11327Y203364D01*
X11701Y202360D01*
X12003Y201332D01*
X12231Y200285D01*
X12384Y199224D01*
X12460Y198156D01*
X12460Y197084D01*
X597540Y198194D02*
X597464Y197126D01*
X597311Y196065D01*
X597083Y195018D01*
X596781Y193990D01*
X596407Y192986D01*
X595962Y192011D01*
X595448Y191071D01*
X594869Y190170D01*
X594227Y189312D01*
X593525Y188502D01*
X592768Y187745D01*
X591958Y187043D01*
X591100Y186401D01*
X590199Y185822D01*
X589259Y185308D01*
X588284Y184863D01*
X587280Y184489D01*
X586252Y184187D01*
X585205Y183959D01*
X584144Y183806D01*
X583076Y183730D01*
X582004Y183730D01*
X580936Y183806D01*
X579875Y183959D01*
X578828Y184187D01*
X577800Y184489D01*
X576796Y184863D01*
X575821Y185308D01*
X574881Y185822D01*
X573980Y186401D01*
X573122Y187043D01*
X572312Y187745D01*
X571555Y188502D01*
X570853Y189312D01*
X570211Y190170D01*
X569632Y191071D01*
X569118Y192011D01*
X568673Y192986D01*
X568299Y193990D01*
X567997Y195018D01*
X567769Y196065D01*
X567616Y197126D01*
X567540Y198194D01*
X567540Y199266D01*
X567616Y200334D01*
X567769Y201395D01*
X567997Y202442D01*
X568299Y203470D01*
X568673Y204474D01*
X569118Y205449D01*
X569632Y206389D01*
X570211Y207290D01*
X570853Y208148D01*
X571555Y208958D01*
X572312Y209715D01*
X573122Y210417D01*
X573980Y211059D01*
X574881Y211638D01*
X575821Y212152D01*
X576796Y212597D01*
X577800Y212971D01*
X578828Y213273D01*
X579875Y213501D01*
X580936Y213654D01*
X582004Y213730D01*
X583076Y213730D01*
X584144Y213654D01*
X585205Y213501D01*
X586252Y213273D01*
X587280Y212971D01*
X588284Y212597D01*
X589259Y212152D01*
X590199Y211638D01*
X591100Y211059D01*
X591958Y210417D01*
X592768Y209715D01*
X593525Y208958D01*
X594227Y208148D01*
X594869Y207290D01*
X595448Y206389D01*
X595962Y205449D01*
X596407Y204474D01*
X596781Y203470D01*
X597083Y202442D01*
X597311Y201395D01*
X597464Y200334D01*
X597540Y199266D01*
X597540Y198194D01*
X11350Y613114D02*
X11274Y612046D01*
X11121Y610985D01*
X10893Y609938D01*
X10591Y608910D01*
X10217Y607906D01*
X9772Y606931D01*
X9258Y605991D01*
X8679Y605090D01*
X8037Y604232D01*
X7335Y603422D01*
X6578Y602665D01*
X5768Y601963D01*
X4910Y601321D01*
X4009Y600742D01*
X3069Y600228D01*
X2094Y599783D01*
X1090Y599409D01*
X62Y599107D01*
X-985Y598879D01*
X-2046Y598726D01*
X-3114Y598650D01*
X-4186Y598650D01*
X-5254Y598726D01*
X-6315Y598879D01*
X-7362Y599107D01*
X-8390Y599409D01*
X-9394Y599783D01*
X-10369Y600228D01*
X-11309Y600742D01*
X-12210Y601321D01*
X-13068Y601963D01*
X-13878Y602665D01*
X-14635Y603422D01*
X-15337Y604232D01*
X-15979Y605090D01*
X-16558Y605991D01*
X-17072Y606931D01*
X-17517Y607906D01*
X-17891Y608910D01*
X-18193Y609938D01*
X-18421Y610985D01*
X-18574Y612046D01*
X-18650Y613114D01*
X-18650Y614186D01*
X-18574Y615254D01*
X-18421Y616315D01*
X-18193Y617362D01*
X-17891Y618390D01*
X-17517Y619394D01*
X-17072Y620369D01*
X-16558Y621309D01*
X-15979Y622210D01*
X-15337Y623068D01*
X-14635Y623878D01*
X-13878Y624635D01*
X-13068Y625337D01*
X-12210Y625979D01*
X-11309Y626558D01*
X-10369Y627072D01*
X-9394Y627517D01*
X-8390Y627891D01*
X-7362Y628193D01*
X-6315Y628421D01*
X-5254Y628574D01*
X-4186Y628650D01*
X-3114Y628650D01*
X-2046Y628574D01*
X-985Y628421D01*
X62Y628193D01*
X1090Y627891D01*
X2094Y627517D01*
X3069Y627072D01*
X4009Y626558D01*
X4910Y625979D01*
X5768Y625337D01*
X6578Y624635D01*
X7335Y623878D01*
X8037Y623068D01*
X8679Y622210D01*
X9258Y621309D01*
X9772Y620369D01*
X10217Y619394D01*
X10591Y618390D01*
X10893Y617362D01*
X11121Y616315D01*
X11274Y615254D01*
X11350Y614186D01*
X11350Y613114D01*
X598650Y613114D02*
X598574Y612046D01*
X598421Y610985D01*
X598193Y609938D01*
X597891Y608910D01*
X597517Y607906D01*
X597072Y606931D01*
X596558Y605991D01*
X595979Y605090D01*
X595337Y604232D01*
X594635Y603422D01*
X593878Y602665D01*
X593068Y601963D01*
X592210Y601321D01*
X591309Y600742D01*
X590369Y600228D01*
X589394Y599783D01*
X588390Y599409D01*
X587362Y599107D01*
X586315Y598879D01*
X585254Y598726D01*
X584186Y598650D01*
X583114Y598650D01*
X582046Y598726D01*
X580985Y598879D01*
X579938Y599107D01*
X578910Y599409D01*
X577906Y599783D01*
X576931Y600228D01*
X575991Y600742D01*
X575090Y601321D01*
X574232Y601963D01*
X573422Y602665D01*
X572665Y603422D01*
X571963Y604232D01*
X571321Y605090D01*
X570742Y605991D01*
X570228Y606931D01*
X569783Y607906D01*
X569409Y608910D01*
X569107Y609938D01*
X568879Y610985D01*
X568726Y612046D01*
X568650Y613114D01*
X568650Y614186D01*
X568726Y615254D01*
X568879Y616315D01*
X569107Y617362D01*
X569409Y618390D01*
X569783Y619394D01*
X570228Y620369D01*
X570742Y621309D01*
X571321Y622210D01*
X571963Y623068D01*
X572665Y623878D01*
X573422Y624635D01*
X574232Y625337D01*
X575090Y625979D01*
X575991Y626558D01*
X576931Y627072D01*
X577906Y627517D01*
X578910Y627891D01*
X579938Y628193D01*
X580985Y628421D01*
X582046Y628574D01*
X583114Y628650D01*
X584186Y628650D01*
X585254Y628574D01*
X586315Y628421D01*
X587362Y628193D01*
X588390Y627891D01*
X589394Y627517D01*
X590369Y627072D01*
X591309Y626558D01*
X592210Y625979D01*
X593068Y625337D01*
X593878Y624635D01*
X594635Y623878D01*
X595337Y623068D01*
X595979Y622210D01*
X596558Y621309D01*
X597072Y620369D01*
X597517Y619394D01*
X597891Y618390D01*
X598193Y617362D01*
X598421Y616315D01*
X598574Y615254D01*
X598650Y614186D01*
X598650Y613114D01*
X72390Y423632D02*
X72322Y422859D01*
X72188Y422094D01*
X71987Y421344D01*
X71721Y420615D01*
X71393Y419911D01*
X71005Y419239D01*
X70560Y418603D01*
X70061Y418008D01*
X69512Y417459D01*
X68917Y416960D01*
X68281Y416515D01*
X67609Y416127D01*
X66905Y415799D01*
X66176Y415533D01*
X65426Y415332D01*
X64661Y415198D01*
X63888Y415130D01*
X63112Y415130D01*
X62339Y415198D01*
X61574Y415332D01*
X60824Y415533D01*
X60095Y415799D01*
X59391Y416127D01*
X58719Y416515D01*
X58083Y416960D01*
X57488Y417459D01*
X56939Y418008D01*
X56440Y418603D01*
X55995Y419239D01*
X55607Y419911D01*
X55279Y420615D01*
X55013Y421344D01*
X54812Y422094D01*
X54678Y422859D01*
X54610Y423632D01*
X54610Y424408D01*
X54678Y425181D01*
X54812Y425946D01*
X55013Y426696D01*
X55279Y427425D01*
X55607Y428129D01*
X55995Y428801D01*
X56440Y429437D01*
X56939Y430032D01*
X57488Y430581D01*
X58083Y431080D01*
X58719Y431525D01*
X59391Y431913D01*
X60095Y432241D01*
X60824Y432507D01*
X61574Y432708D01*
X62339Y432842D01*
X63112Y432910D01*
X63888Y432910D01*
X64661Y432842D01*
X65426Y432708D01*
X66176Y432507D01*
X66905Y432241D01*
X67609Y431913D01*
X68281Y431525D01*
X68917Y431080D01*
X69512Y430581D01*
X70061Y430032D01*
X70560Y429437D01*
X71005Y428801D01*
X71393Y428129D01*
X71721Y427425D01*
X71987Y426696D01*
X72188Y425946D01*
X72322Y425181D01*
X72390Y424408D01*
X72390Y423632D01*
X72390Y576032D02*
X72322Y575259D01*
X72188Y574494D01*
X71987Y573744D01*
X71721Y573015D01*
X71393Y572311D01*
X71005Y571639D01*
X70560Y571003D01*
X70061Y570408D01*
X69512Y569859D01*
X68917Y569360D01*
X68281Y568915D01*
X67609Y568527D01*
X66905Y568199D01*
X66176Y567933D01*
X65426Y567732D01*
X64661Y567598D01*
X63888Y567530D01*
X63112Y567530D01*
X62339Y567598D01*
X61574Y567732D01*
X60824Y567933D01*
X60095Y568199D01*
X59391Y568527D01*
X58719Y568915D01*
X58083Y569360D01*
X57488Y569859D01*
X56939Y570408D01*
X56440Y571003D01*
X55995Y571639D01*
X55607Y572311D01*
X55279Y573015D01*
X55013Y573744D01*
X54812Y574494D01*
X54678Y575259D01*
X54610Y576032D01*
X54610Y576808D01*
X54678Y577581D01*
X54812Y578346D01*
X55013Y579096D01*
X55279Y579825D01*
X55607Y580529D01*
X55995Y581201D01*
X56440Y581837D01*
X56939Y582432D01*
X57488Y582981D01*
X58083Y583480D01*
X58719Y583925D01*
X59391Y584313D01*
X60095Y584641D01*
X60824Y584907D01*
X61574Y585108D01*
X62339Y585242D01*
X63112Y585310D01*
X63888Y585310D01*
X64661Y585242D01*
X65426Y585108D01*
X66176Y584907D01*
X66905Y584641D01*
X67609Y584313D01*
X68281Y583925D01*
X68917Y583480D01*
X69512Y582981D01*
X70061Y582432D01*
X70560Y581837D01*
X71005Y581201D01*
X71393Y580529D01*
X71721Y579825D01*
X71987Y579096D01*
X72188Y578346D01*
X72322Y577581D01*
X72390Y576808D01*
X72390Y576032D01*
X478790Y576032D02*
X478722Y575259D01*
X478588Y574494D01*
X478387Y573744D01*
X478121Y573015D01*
X477793Y572311D01*
X477405Y571639D01*
X476960Y571003D01*
X476461Y570408D01*
X475912Y569859D01*
X475317Y569360D01*
X474681Y568915D01*
X474009Y568527D01*
X473305Y568199D01*
X472576Y567933D01*
X471826Y567732D01*
X471061Y567598D01*
X470288Y567530D01*
X469512Y567530D01*
X468739Y567598D01*
X467974Y567732D01*
X467224Y567933D01*
X466495Y568199D01*
X465791Y568527D01*
X465119Y568915D01*
X464483Y569360D01*
X463888Y569859D01*
X463339Y570408D01*
X462840Y571003D01*
X462395Y571639D01*
X462007Y572311D01*
X461679Y573015D01*
X461413Y573744D01*
X461212Y574494D01*
X461078Y575259D01*
X461010Y576032D01*
X461010Y576808D01*
X461078Y577581D01*
X461212Y578346D01*
X461413Y579096D01*
X461679Y579825D01*
X462007Y580529D01*
X462395Y581201D01*
X462840Y581837D01*
X463339Y582432D01*
X463888Y582981D01*
X464483Y583480D01*
X465119Y583925D01*
X465791Y584313D01*
X466495Y584641D01*
X467224Y584907D01*
X467974Y585108D01*
X468739Y585242D01*
X469512Y585310D01*
X470288Y585310D01*
X471061Y585242D01*
X471826Y585108D01*
X472576Y584907D01*
X473305Y584641D01*
X474009Y584313D01*
X474681Y583925D01*
X475317Y583480D01*
X475912Y582981D01*
X476461Y582432D01*
X476960Y581837D01*
X477405Y581201D01*
X477793Y580529D01*
X478121Y579825D01*
X478387Y579096D01*
X478588Y578346D01*
X478722Y577581D01*
X478790Y576808D01*
X478790Y576032D01*
X478790Y423632D02*
X478722Y422859D01*
X478588Y422094D01*
X478387Y421344D01*
X478121Y420615D01*
X477793Y419911D01*
X477405Y419239D01*
X476960Y418603D01*
X476461Y418008D01*
X475912Y417459D01*
X475317Y416960D01*
X474681Y416515D01*
X474009Y416127D01*
X473305Y415799D01*
X472576Y415533D01*
X471826Y415332D01*
X471061Y415198D01*
X470288Y415130D01*
X469512Y415130D01*
X468739Y415198D01*
X467974Y415332D01*
X467224Y415533D01*
X466495Y415799D01*
X465791Y416127D01*
X465119Y416515D01*
X464483Y416960D01*
X463888Y417459D01*
X463339Y418008D01*
X462840Y418603D01*
X462395Y419239D01*
X462007Y419911D01*
X461679Y420615D01*
X461413Y421344D01*
X461212Y422094D01*
X461078Y422859D01*
X461010Y423632D01*
X461010Y424408D01*
X461078Y425181D01*
X461212Y425946D01*
X461413Y426696D01*
X461679Y427425D01*
X462007Y428129D01*
X462395Y428801D01*
X462840Y429437D01*
X463339Y430032D01*
X463888Y430581D01*
X464483Y431080D01*
X465119Y431525D01*
X465791Y431913D01*
X466495Y432241D01*
X467224Y432507D01*
X467974Y432708D01*
X468739Y432842D01*
X469512Y432910D01*
X470288Y432910D01*
X471061Y432842D01*
X471826Y432708D01*
X472576Y432507D01*
X473305Y432241D01*
X474009Y431913D01*
X474681Y431525D01*
X475317Y431080D01*
X475912Y430581D01*
X476461Y430032D01*
X476960Y429437D01*
X477405Y428801D01*
X477793Y428129D01*
X478121Y427425D01*
X478387Y426696D01*
X478588Y425946D01*
X478722Y425181D01*
X478790Y424408D01*
X478790Y423632D01*
X454385Y397288D02*
X453930Y397348D01*
X453487Y397467D01*
X453063Y397642D01*
X452665Y397872D01*
X452301Y398151D01*
X451977Y398475D01*
X451698Y398839D01*
X451468Y399237D01*
X451293Y399661D01*
X451174Y400104D01*
X451114Y400559D01*
X451114Y401017D01*
X451174Y401472D01*
X451293Y401915D01*
X451468Y402339D01*
X451698Y402737D01*
X451977Y403101D01*
X452301Y403425D01*
X452665Y403704D01*
X453063Y403934D01*
X453487Y404109D01*
X453930Y404228D01*
X454385Y404288D01*
X454843Y404288D01*
X455298Y404228D01*
X455741Y404109D01*
X456165Y403934D01*
X456563Y403704D01*
X456927Y403425D01*
X457251Y403101D01*
X457530Y402737D01*
X457760Y402339D01*
X457935Y401915D01*
X458054Y401472D01*
X458114Y401017D01*
X458114Y400559D01*
X458054Y400104D01*
X457935Y399661D01*
X457760Y399237D01*
X457530Y398839D01*
X457251Y398475D01*
X456927Y398151D01*
X456563Y397872D01*
X456165Y397642D01*
X455741Y397467D01*
X455298Y397348D01*
X454843Y397288D01*
X454385Y397288D01*
X454385Y276288D02*
X453930Y276348D01*
X453487Y276467D01*
X453063Y276642D01*
X452665Y276872D01*
X452301Y277151D01*
X451977Y277475D01*
X451698Y277839D01*
X451468Y278237D01*
X451293Y278661D01*
X451174Y279104D01*
X451114Y279559D01*
X451114Y280017D01*
X451174Y280472D01*
X451293Y280915D01*
X451468Y281339D01*
X451698Y281737D01*
X451977Y282101D01*
X452301Y282425D01*
X452665Y282704D01*
X453063Y282934D01*
X453487Y283109D01*
X453930Y283228D01*
X454385Y283288D01*
X454843Y283288D01*
X455298Y283228D01*
X455741Y283109D01*
X456165Y282934D01*
X456563Y282704D01*
X456927Y282425D01*
X457251Y282101D01*
X457530Y281737D01*
X457760Y281339D01*
X457935Y280915D01*
X458054Y280472D01*
X458114Y280017D01*
X458114Y279559D01*
X458054Y279104D01*
X457935Y278661D01*
X457760Y278237D01*
X457530Y277839D01*
X457251Y277475D01*
X456927Y277151D01*
X456563Y276872D01*
X456165Y276642D01*
X455741Y276467D01*
X455298Y276348D01*
X454843Y276288D01*
X454385Y276288D01*
M02*
