G04 EAGLE Gerber RS-274X export*
G75*
%MOMM*%
%FSLAX34Y34*%
%LPD*%
%INSilkscreen Top*%
%IPPOS*%
%AMOC8*
5,1,8,0,0,1.08239X$1,22.5*%
G01*
%ADD10C,0.127000*%
%ADD11C,0.076200*%
%ADD12C,0.050800*%
%ADD13C,0.101600*%
%ADD14C,0.203200*%
%ADD15C,0.254000*%
%ADD16C,0.152400*%
%ADD17R,0.609600X0.863600*%


D10*
X50800Y589120D02*
X482600Y589120D01*
X482600Y538320D01*
X482600Y462120D01*
X482600Y411320D01*
X50800Y411320D01*
X50800Y525620D01*
X50800Y589120D01*
X50800Y525620D02*
X38100Y525620D01*
X38100Y474820D01*
X101600Y474820D02*
X101600Y525620D01*
X50800Y525620D01*
X38100Y474820D02*
X101600Y474820D01*
X431800Y538320D02*
X482600Y538320D01*
X431800Y538320D02*
X431800Y462120D01*
X482600Y462120D01*
D11*
X329819Y487901D02*
X322453Y487901D01*
X322453Y489947D01*
X322455Y490036D01*
X322461Y490125D01*
X322471Y490214D01*
X322484Y490302D01*
X322501Y490390D01*
X322523Y490477D01*
X322548Y490562D01*
X322576Y490647D01*
X322609Y490730D01*
X322645Y490812D01*
X322684Y490892D01*
X322727Y490970D01*
X322773Y491046D01*
X322823Y491121D01*
X322876Y491193D01*
X322932Y491262D01*
X322991Y491329D01*
X323052Y491394D01*
X323117Y491455D01*
X323184Y491514D01*
X323253Y491570D01*
X323325Y491623D01*
X323400Y491673D01*
X323476Y491719D01*
X323554Y491762D01*
X323634Y491801D01*
X323716Y491837D01*
X323799Y491870D01*
X323884Y491898D01*
X323969Y491923D01*
X324056Y491945D01*
X324144Y491962D01*
X324232Y491975D01*
X324321Y491985D01*
X324410Y491991D01*
X324499Y491993D01*
X324588Y491991D01*
X324677Y491985D01*
X324766Y491975D01*
X324854Y491962D01*
X324942Y491945D01*
X325029Y491923D01*
X325114Y491898D01*
X325199Y491870D01*
X325282Y491837D01*
X325364Y491801D01*
X325444Y491762D01*
X325522Y491719D01*
X325598Y491673D01*
X325673Y491623D01*
X325745Y491570D01*
X325814Y491514D01*
X325881Y491455D01*
X325946Y491394D01*
X326007Y491329D01*
X326066Y491262D01*
X326122Y491193D01*
X326175Y491121D01*
X326225Y491046D01*
X326271Y490970D01*
X326314Y490892D01*
X326353Y490812D01*
X326389Y490730D01*
X326422Y490647D01*
X326450Y490562D01*
X326475Y490477D01*
X326497Y490390D01*
X326514Y490302D01*
X326527Y490214D01*
X326537Y490125D01*
X326543Y490036D01*
X326545Y489947D01*
X326545Y487901D01*
X326545Y490356D02*
X329819Y491993D01*
X329819Y496314D02*
X329819Y498360D01*
X329819Y496314D02*
X329817Y496245D01*
X329811Y496177D01*
X329802Y496108D01*
X329788Y496041D01*
X329771Y495974D01*
X329750Y495908D01*
X329726Y495844D01*
X329697Y495781D01*
X329666Y495720D01*
X329631Y495661D01*
X329593Y495603D01*
X329551Y495548D01*
X329507Y495496D01*
X329459Y495446D01*
X329409Y495398D01*
X329357Y495354D01*
X329302Y495313D01*
X329244Y495274D01*
X329185Y495239D01*
X329124Y495208D01*
X329061Y495179D01*
X328997Y495155D01*
X328931Y495134D01*
X328864Y495117D01*
X328797Y495103D01*
X328729Y495094D01*
X328660Y495088D01*
X328591Y495086D01*
X328591Y495087D02*
X326545Y495087D01*
X326545Y495086D02*
X326466Y495088D01*
X326387Y495094D01*
X326308Y495103D01*
X326230Y495116D01*
X326153Y495134D01*
X326077Y495154D01*
X326002Y495179D01*
X325928Y495207D01*
X325855Y495238D01*
X325784Y495274D01*
X325715Y495312D01*
X325648Y495354D01*
X325583Y495399D01*
X325520Y495447D01*
X325459Y495498D01*
X325402Y495552D01*
X325346Y495608D01*
X325294Y495667D01*
X325244Y495729D01*
X325198Y495793D01*
X325154Y495859D01*
X325114Y495927D01*
X325078Y495997D01*
X325044Y496069D01*
X325014Y496143D01*
X324988Y496217D01*
X324965Y496293D01*
X324947Y496370D01*
X324931Y496447D01*
X324920Y496526D01*
X324912Y496604D01*
X324908Y496683D01*
X324908Y496763D01*
X324912Y496842D01*
X324920Y496920D01*
X324931Y496999D01*
X324947Y497076D01*
X324965Y497153D01*
X324988Y497229D01*
X325014Y497303D01*
X325044Y497377D01*
X325078Y497449D01*
X325114Y497519D01*
X325154Y497587D01*
X325198Y497653D01*
X325244Y497717D01*
X325294Y497779D01*
X325346Y497838D01*
X325402Y497894D01*
X325459Y497948D01*
X325520Y497999D01*
X325583Y498047D01*
X325648Y498092D01*
X325715Y498134D01*
X325784Y498172D01*
X325855Y498208D01*
X325928Y498239D01*
X326002Y498267D01*
X326077Y498292D01*
X326153Y498312D01*
X326230Y498330D01*
X326308Y498343D01*
X326387Y498352D01*
X326466Y498358D01*
X326545Y498360D01*
X327364Y498360D01*
X327364Y495087D01*
X326954Y502040D02*
X327773Y504086D01*
X326954Y502040D02*
X326929Y501981D01*
X326900Y501924D01*
X326867Y501869D01*
X326831Y501816D01*
X326793Y501765D01*
X326751Y501717D01*
X326706Y501671D01*
X326659Y501628D01*
X326609Y501588D01*
X326557Y501551D01*
X326502Y501517D01*
X326446Y501486D01*
X326388Y501459D01*
X326328Y501436D01*
X326268Y501416D01*
X326206Y501400D01*
X326143Y501387D01*
X326079Y501379D01*
X326016Y501374D01*
X325952Y501373D01*
X325888Y501376D01*
X325824Y501383D01*
X325761Y501394D01*
X325699Y501408D01*
X325637Y501426D01*
X325577Y501448D01*
X325518Y501473D01*
X325461Y501502D01*
X325406Y501535D01*
X325353Y501570D01*
X325302Y501609D01*
X325253Y501651D01*
X325207Y501695D01*
X325164Y501743D01*
X325124Y501792D01*
X325087Y501845D01*
X325053Y501899D01*
X325022Y501955D01*
X324995Y502013D01*
X324971Y502072D01*
X324952Y502133D01*
X324935Y502195D01*
X324923Y502258D01*
X324914Y502321D01*
X324909Y502385D01*
X324908Y502449D01*
X324912Y502585D01*
X324920Y502720D01*
X324932Y502856D01*
X324948Y502990D01*
X324968Y503125D01*
X324991Y503258D01*
X325019Y503391D01*
X325050Y503523D01*
X325085Y503654D01*
X325124Y503784D01*
X325167Y503913D01*
X325214Y504040D01*
X325264Y504166D01*
X325318Y504291D01*
X327773Y504086D02*
X327798Y504145D01*
X327827Y504202D01*
X327860Y504257D01*
X327896Y504310D01*
X327934Y504361D01*
X327976Y504409D01*
X328021Y504455D01*
X328068Y504498D01*
X328118Y504538D01*
X328170Y504575D01*
X328225Y504609D01*
X328281Y504640D01*
X328339Y504667D01*
X328399Y504690D01*
X328459Y504710D01*
X328521Y504726D01*
X328584Y504739D01*
X328648Y504747D01*
X328711Y504752D01*
X328775Y504753D01*
X328839Y504750D01*
X328903Y504743D01*
X328966Y504732D01*
X329028Y504718D01*
X329090Y504700D01*
X329150Y504678D01*
X329209Y504653D01*
X329266Y504624D01*
X329321Y504591D01*
X329374Y504556D01*
X329425Y504517D01*
X329474Y504475D01*
X329520Y504431D01*
X329563Y504383D01*
X329603Y504334D01*
X329640Y504281D01*
X329674Y504227D01*
X329705Y504171D01*
X329732Y504113D01*
X329756Y504054D01*
X329775Y503993D01*
X329792Y503931D01*
X329804Y503868D01*
X329813Y503805D01*
X329818Y503741D01*
X329819Y503677D01*
X329815Y503513D01*
X329807Y503349D01*
X329795Y503185D01*
X329779Y503022D01*
X329759Y502859D01*
X329736Y502696D01*
X329708Y502535D01*
X329677Y502373D01*
X329642Y502213D01*
X329603Y502054D01*
X329560Y501895D01*
X329514Y501738D01*
X329464Y501581D01*
X329410Y501426D01*
X329819Y508994D02*
X329819Y511040D01*
X329819Y508994D02*
X329817Y508925D01*
X329811Y508857D01*
X329802Y508788D01*
X329788Y508721D01*
X329771Y508654D01*
X329750Y508588D01*
X329726Y508524D01*
X329697Y508461D01*
X329666Y508400D01*
X329631Y508341D01*
X329593Y508283D01*
X329551Y508228D01*
X329507Y508176D01*
X329459Y508126D01*
X329409Y508078D01*
X329357Y508034D01*
X329302Y507993D01*
X329244Y507954D01*
X329185Y507919D01*
X329124Y507888D01*
X329061Y507859D01*
X328997Y507835D01*
X328931Y507814D01*
X328864Y507797D01*
X328797Y507783D01*
X328729Y507774D01*
X328660Y507768D01*
X328591Y507766D01*
X326545Y507766D01*
X326466Y507768D01*
X326387Y507774D01*
X326308Y507783D01*
X326230Y507796D01*
X326153Y507814D01*
X326077Y507834D01*
X326002Y507859D01*
X325928Y507887D01*
X325855Y507918D01*
X325784Y507954D01*
X325715Y507992D01*
X325648Y508034D01*
X325583Y508079D01*
X325520Y508127D01*
X325459Y508178D01*
X325402Y508232D01*
X325346Y508288D01*
X325294Y508347D01*
X325244Y508409D01*
X325198Y508473D01*
X325154Y508539D01*
X325114Y508607D01*
X325078Y508677D01*
X325044Y508749D01*
X325014Y508823D01*
X324988Y508897D01*
X324965Y508973D01*
X324947Y509050D01*
X324931Y509127D01*
X324920Y509206D01*
X324912Y509284D01*
X324908Y509363D01*
X324908Y509443D01*
X324912Y509522D01*
X324920Y509600D01*
X324931Y509679D01*
X324947Y509756D01*
X324965Y509833D01*
X324988Y509909D01*
X325014Y509983D01*
X325044Y510057D01*
X325078Y510129D01*
X325114Y510199D01*
X325154Y510267D01*
X325198Y510333D01*
X325244Y510397D01*
X325294Y510459D01*
X325346Y510518D01*
X325402Y510574D01*
X325459Y510628D01*
X325520Y510679D01*
X325583Y510727D01*
X325648Y510772D01*
X325715Y510814D01*
X325784Y510852D01*
X325855Y510888D01*
X325928Y510919D01*
X326002Y510947D01*
X326077Y510972D01*
X326153Y510992D01*
X326230Y511010D01*
X326308Y511023D01*
X326387Y511032D01*
X326466Y511038D01*
X326545Y511040D01*
X327364Y511040D01*
X327364Y507766D01*
X324908Y513476D02*
X324908Y515931D01*
X322453Y514294D02*
X328591Y514294D01*
X328660Y514296D01*
X328728Y514302D01*
X328797Y514311D01*
X328864Y514325D01*
X328931Y514342D01*
X328997Y514363D01*
X329061Y514387D01*
X329124Y514416D01*
X329185Y514447D01*
X329244Y514482D01*
X329302Y514520D01*
X329357Y514562D01*
X329409Y514606D01*
X329459Y514654D01*
X329507Y514704D01*
X329551Y514756D01*
X329593Y514811D01*
X329631Y514869D01*
X329666Y514928D01*
X329697Y514989D01*
X329726Y515052D01*
X329750Y515116D01*
X329771Y515182D01*
X329788Y515249D01*
X329802Y515316D01*
X329811Y515385D01*
X329817Y515453D01*
X329819Y515522D01*
X329819Y515931D01*
X91892Y446499D02*
X89281Y444411D01*
X91892Y446499D02*
X91892Y437101D01*
X94502Y437101D02*
X89281Y437101D01*
D12*
X69218Y532478D02*
X69218Y538066D01*
X71080Y534962D01*
X72943Y538066D01*
X72943Y532478D01*
X75469Y532478D02*
X75469Y536203D01*
X75314Y537756D02*
X75314Y538066D01*
X75625Y538066D01*
X75625Y537756D01*
X75314Y537756D01*
X77885Y536203D02*
X77885Y532478D01*
X77885Y536203D02*
X79437Y536203D01*
X79495Y536201D01*
X79554Y536196D01*
X79611Y536187D01*
X79669Y536174D01*
X79725Y536157D01*
X79780Y536138D01*
X79833Y536114D01*
X79886Y536088D01*
X79936Y536058D01*
X79984Y536025D01*
X80030Y535989D01*
X80074Y535951D01*
X80116Y535909D01*
X80154Y535865D01*
X80190Y535819D01*
X80223Y535771D01*
X80253Y535721D01*
X80279Y535668D01*
X80303Y535615D01*
X80322Y535560D01*
X80339Y535504D01*
X80352Y535446D01*
X80361Y535389D01*
X80366Y535330D01*
X80368Y535272D01*
X80369Y535272D02*
X80369Y532478D01*
X82785Y532478D02*
X82785Y536203D01*
X82629Y537756D02*
X82629Y538066D01*
X82940Y538066D01*
X82940Y537756D01*
X82629Y537756D01*
X85128Y534651D02*
X88853Y534651D01*
X91556Y535582D02*
X93109Y535582D01*
X93186Y535580D01*
X93264Y535574D01*
X93340Y535565D01*
X93417Y535551D01*
X93492Y535534D01*
X93566Y535513D01*
X93640Y535488D01*
X93712Y535460D01*
X93782Y535428D01*
X93851Y535393D01*
X93918Y535354D01*
X93983Y535312D01*
X94046Y535267D01*
X94107Y535219D01*
X94165Y535168D01*
X94220Y535114D01*
X94273Y535057D01*
X94322Y534998D01*
X94369Y534936D01*
X94413Y534872D01*
X94453Y534806D01*
X94490Y534738D01*
X94524Y534668D01*
X94554Y534597D01*
X94580Y534524D01*
X94603Y534450D01*
X94622Y534375D01*
X94637Y534300D01*
X94649Y534223D01*
X94657Y534146D01*
X94661Y534069D01*
X94661Y533991D01*
X94657Y533914D01*
X94649Y533837D01*
X94637Y533760D01*
X94622Y533685D01*
X94603Y533610D01*
X94580Y533536D01*
X94554Y533463D01*
X94524Y533392D01*
X94490Y533322D01*
X94453Y533254D01*
X94413Y533188D01*
X94369Y533124D01*
X94322Y533062D01*
X94273Y533003D01*
X94220Y532946D01*
X94165Y532892D01*
X94107Y532841D01*
X94046Y532793D01*
X93983Y532748D01*
X93918Y532706D01*
X93851Y532667D01*
X93782Y532632D01*
X93712Y532600D01*
X93640Y532572D01*
X93566Y532547D01*
X93492Y532526D01*
X93417Y532509D01*
X93340Y532495D01*
X93264Y532486D01*
X93186Y532480D01*
X93109Y532478D01*
X91556Y532478D01*
X91556Y538066D01*
X93109Y538066D01*
X93179Y538064D01*
X93248Y538058D01*
X93317Y538048D01*
X93385Y538035D01*
X93453Y538017D01*
X93519Y537996D01*
X93584Y537971D01*
X93648Y537943D01*
X93710Y537911D01*
X93770Y537876D01*
X93828Y537837D01*
X93883Y537795D01*
X93937Y537750D01*
X93987Y537702D01*
X94035Y537652D01*
X94080Y537598D01*
X94122Y537543D01*
X94161Y537485D01*
X94196Y537425D01*
X94228Y537363D01*
X94256Y537299D01*
X94281Y537234D01*
X94302Y537168D01*
X94320Y537100D01*
X94333Y537032D01*
X94343Y536963D01*
X94349Y536894D01*
X94351Y536824D01*
X94349Y536754D01*
X94343Y536685D01*
X94333Y536616D01*
X94320Y536548D01*
X94302Y536480D01*
X94281Y536414D01*
X94256Y536349D01*
X94228Y536285D01*
X94196Y536223D01*
X94161Y536163D01*
X94122Y536105D01*
X94080Y536050D01*
X94035Y535996D01*
X93987Y535946D01*
X93937Y535898D01*
X93883Y535853D01*
X93828Y535811D01*
X93770Y535772D01*
X93710Y535737D01*
X93648Y535705D01*
X93584Y535677D01*
X93519Y535652D01*
X93453Y535631D01*
X93385Y535613D01*
X93317Y535600D01*
X93248Y535590D01*
X93179Y535584D01*
X93109Y535582D01*
X99886Y534030D02*
X99886Y538066D01*
X99886Y534030D02*
X99888Y533953D01*
X99894Y533875D01*
X99903Y533799D01*
X99917Y533722D01*
X99934Y533647D01*
X99955Y533573D01*
X99980Y533499D01*
X100008Y533427D01*
X100040Y533357D01*
X100075Y533288D01*
X100114Y533221D01*
X100156Y533156D01*
X100201Y533093D01*
X100249Y533032D01*
X100300Y532974D01*
X100354Y532919D01*
X100411Y532866D01*
X100470Y532817D01*
X100532Y532770D01*
X100596Y532726D01*
X100662Y532686D01*
X100730Y532649D01*
X100800Y532615D01*
X100871Y532585D01*
X100944Y532559D01*
X101018Y532536D01*
X101093Y532517D01*
X101168Y532502D01*
X101245Y532490D01*
X101322Y532482D01*
X101399Y532478D01*
X101477Y532478D01*
X101554Y532482D01*
X101631Y532490D01*
X101708Y532502D01*
X101783Y532517D01*
X101858Y532536D01*
X101932Y532559D01*
X102005Y532585D01*
X102076Y532615D01*
X102146Y532649D01*
X102214Y532686D01*
X102280Y532726D01*
X102344Y532770D01*
X102406Y532817D01*
X102465Y532866D01*
X102522Y532919D01*
X102576Y532974D01*
X102627Y533032D01*
X102675Y533093D01*
X102720Y533156D01*
X102762Y533221D01*
X102801Y533288D01*
X102836Y533357D01*
X102868Y533427D01*
X102896Y533499D01*
X102921Y533573D01*
X102942Y533647D01*
X102959Y533722D01*
X102973Y533799D01*
X102982Y533875D01*
X102988Y533953D01*
X102990Y534030D01*
X102990Y538066D01*
X108477Y533720D02*
X108475Y533650D01*
X108469Y533581D01*
X108459Y533512D01*
X108446Y533444D01*
X108428Y533376D01*
X108407Y533310D01*
X108382Y533245D01*
X108354Y533181D01*
X108322Y533119D01*
X108287Y533059D01*
X108248Y533001D01*
X108206Y532946D01*
X108161Y532892D01*
X108113Y532842D01*
X108063Y532794D01*
X108009Y532749D01*
X107954Y532707D01*
X107896Y532668D01*
X107836Y532633D01*
X107774Y532601D01*
X107710Y532573D01*
X107645Y532548D01*
X107579Y532527D01*
X107511Y532509D01*
X107443Y532496D01*
X107374Y532486D01*
X107305Y532480D01*
X107235Y532478D01*
X107136Y532480D01*
X107038Y532485D01*
X106940Y532495D01*
X106842Y532508D01*
X106745Y532524D01*
X106648Y532544D01*
X106553Y532568D01*
X106458Y532596D01*
X106364Y532627D01*
X106272Y532661D01*
X106181Y532699D01*
X106091Y532740D01*
X106003Y532785D01*
X105917Y532833D01*
X105833Y532884D01*
X105751Y532938D01*
X105670Y532996D01*
X105592Y533056D01*
X105517Y533119D01*
X105443Y533185D01*
X105373Y533254D01*
X105527Y536824D02*
X105529Y536894D01*
X105535Y536963D01*
X105545Y537032D01*
X105558Y537100D01*
X105576Y537168D01*
X105597Y537234D01*
X105622Y537299D01*
X105650Y537363D01*
X105682Y537425D01*
X105717Y537485D01*
X105756Y537543D01*
X105798Y537598D01*
X105843Y537652D01*
X105891Y537702D01*
X105941Y537750D01*
X105995Y537795D01*
X106050Y537837D01*
X106108Y537876D01*
X106168Y537911D01*
X106230Y537943D01*
X106294Y537971D01*
X106359Y537996D01*
X106425Y538017D01*
X106493Y538035D01*
X106561Y538048D01*
X106630Y538058D01*
X106699Y538064D01*
X106769Y538066D01*
X106863Y538064D01*
X106956Y538058D01*
X107049Y538049D01*
X107142Y538036D01*
X107234Y538019D01*
X107325Y537999D01*
X107416Y537974D01*
X107505Y537947D01*
X107593Y537915D01*
X107680Y537880D01*
X107766Y537842D01*
X107849Y537800D01*
X107931Y537755D01*
X108012Y537707D01*
X108090Y537655D01*
X108166Y537600D01*
X106149Y535738D02*
X106090Y535774D01*
X106034Y535814D01*
X105980Y535857D01*
X105928Y535902D01*
X105879Y535951D01*
X105833Y536002D01*
X105790Y536055D01*
X105749Y536111D01*
X105712Y536169D01*
X105677Y536229D01*
X105647Y536290D01*
X105619Y536353D01*
X105595Y536418D01*
X105575Y536484D01*
X105558Y536551D01*
X105545Y536618D01*
X105536Y536686D01*
X105530Y536755D01*
X105528Y536824D01*
X107855Y534806D02*
X107914Y534770D01*
X107970Y534730D01*
X108024Y534687D01*
X108076Y534642D01*
X108125Y534593D01*
X108171Y534542D01*
X108214Y534489D01*
X108255Y534433D01*
X108292Y534375D01*
X108327Y534315D01*
X108357Y534254D01*
X108385Y534191D01*
X108409Y534126D01*
X108429Y534060D01*
X108446Y533993D01*
X108459Y533926D01*
X108468Y533858D01*
X108474Y533789D01*
X108476Y533720D01*
X107856Y534806D02*
X106148Y535738D01*
X110942Y535582D02*
X112494Y535582D01*
X112571Y535580D01*
X112649Y535574D01*
X112725Y535565D01*
X112802Y535551D01*
X112877Y535534D01*
X112951Y535513D01*
X113025Y535488D01*
X113097Y535460D01*
X113167Y535428D01*
X113236Y535393D01*
X113303Y535354D01*
X113368Y535312D01*
X113431Y535267D01*
X113492Y535219D01*
X113550Y535168D01*
X113605Y535114D01*
X113658Y535057D01*
X113707Y534998D01*
X113754Y534936D01*
X113798Y534872D01*
X113838Y534806D01*
X113875Y534738D01*
X113909Y534668D01*
X113939Y534597D01*
X113965Y534524D01*
X113988Y534450D01*
X114007Y534375D01*
X114022Y534300D01*
X114034Y534223D01*
X114042Y534146D01*
X114046Y534069D01*
X114046Y533991D01*
X114042Y533914D01*
X114034Y533837D01*
X114022Y533760D01*
X114007Y533685D01*
X113988Y533610D01*
X113965Y533536D01*
X113939Y533463D01*
X113909Y533392D01*
X113875Y533322D01*
X113838Y533254D01*
X113798Y533188D01*
X113754Y533124D01*
X113707Y533062D01*
X113658Y533003D01*
X113605Y532946D01*
X113550Y532892D01*
X113492Y532841D01*
X113431Y532793D01*
X113368Y532748D01*
X113303Y532706D01*
X113236Y532667D01*
X113167Y532632D01*
X113097Y532600D01*
X113025Y532572D01*
X112951Y532547D01*
X112877Y532526D01*
X112802Y532509D01*
X112725Y532495D01*
X112649Y532486D01*
X112571Y532480D01*
X112494Y532478D01*
X110942Y532478D01*
X110942Y538066D01*
X112494Y538066D01*
X112564Y538064D01*
X112633Y538058D01*
X112702Y538048D01*
X112770Y538035D01*
X112838Y538017D01*
X112904Y537996D01*
X112969Y537971D01*
X113033Y537943D01*
X113095Y537911D01*
X113155Y537876D01*
X113213Y537837D01*
X113268Y537795D01*
X113322Y537750D01*
X113372Y537702D01*
X113420Y537652D01*
X113465Y537598D01*
X113507Y537543D01*
X113546Y537485D01*
X113581Y537425D01*
X113613Y537363D01*
X113641Y537299D01*
X113666Y537234D01*
X113687Y537168D01*
X113705Y537100D01*
X113718Y537032D01*
X113728Y536963D01*
X113734Y536894D01*
X113736Y536824D01*
X113734Y536754D01*
X113728Y536685D01*
X113718Y536616D01*
X113705Y536548D01*
X113687Y536480D01*
X113666Y536414D01*
X113641Y536349D01*
X113613Y536285D01*
X113581Y536223D01*
X113546Y536163D01*
X113507Y536105D01*
X113465Y536050D01*
X113420Y535996D01*
X113372Y535946D01*
X113322Y535898D01*
X113268Y535853D01*
X113213Y535811D01*
X113155Y535772D01*
X113095Y535737D01*
X113033Y535705D01*
X112969Y535677D01*
X112904Y535652D01*
X112838Y535631D01*
X112770Y535613D01*
X112702Y535600D01*
X112633Y535590D01*
X112564Y535584D01*
X112494Y535582D01*
D11*
X419481Y511721D02*
X426847Y511721D01*
X419481Y512539D02*
X419481Y510902D01*
X426847Y510902D02*
X426847Y512539D01*
X419481Y506301D02*
X419481Y504664D01*
X419481Y506301D02*
X419483Y506379D01*
X419488Y506457D01*
X419498Y506534D01*
X419511Y506611D01*
X419527Y506687D01*
X419547Y506762D01*
X419571Y506836D01*
X419598Y506909D01*
X419629Y506981D01*
X419663Y507051D01*
X419700Y507120D01*
X419741Y507186D01*
X419785Y507251D01*
X419831Y507313D01*
X419881Y507373D01*
X419933Y507431D01*
X419988Y507486D01*
X420046Y507538D01*
X420106Y507588D01*
X420168Y507634D01*
X420233Y507678D01*
X420300Y507719D01*
X420368Y507756D01*
X420438Y507790D01*
X420510Y507821D01*
X420583Y507848D01*
X420657Y507872D01*
X420732Y507892D01*
X420808Y507908D01*
X420885Y507921D01*
X420962Y507931D01*
X421040Y507936D01*
X421118Y507938D01*
X425210Y507938D01*
X425288Y507936D01*
X425366Y507931D01*
X425443Y507921D01*
X425520Y507908D01*
X425596Y507892D01*
X425671Y507872D01*
X425745Y507848D01*
X425818Y507821D01*
X425890Y507790D01*
X425960Y507756D01*
X426029Y507719D01*
X426095Y507678D01*
X426160Y507634D01*
X426222Y507588D01*
X426282Y507538D01*
X426340Y507486D01*
X426395Y507431D01*
X426447Y507373D01*
X426497Y507313D01*
X426543Y507251D01*
X426587Y507186D01*
X426628Y507120D01*
X426665Y507051D01*
X426699Y506981D01*
X426730Y506909D01*
X426757Y506836D01*
X426781Y506762D01*
X426801Y506687D01*
X426817Y506611D01*
X426830Y506534D01*
X426840Y506457D01*
X426845Y506379D01*
X426847Y506301D01*
X426847Y504664D01*
X421118Y497970D02*
X421040Y497972D01*
X420962Y497977D01*
X420885Y497987D01*
X420808Y498000D01*
X420732Y498016D01*
X420657Y498036D01*
X420583Y498060D01*
X420510Y498087D01*
X420438Y498118D01*
X420368Y498152D01*
X420299Y498189D01*
X420233Y498230D01*
X420168Y498274D01*
X420106Y498320D01*
X420046Y498370D01*
X419988Y498422D01*
X419933Y498477D01*
X419881Y498535D01*
X419831Y498595D01*
X419785Y498657D01*
X419741Y498722D01*
X419700Y498789D01*
X419663Y498857D01*
X419629Y498927D01*
X419598Y498999D01*
X419571Y499072D01*
X419547Y499146D01*
X419527Y499221D01*
X419511Y499297D01*
X419498Y499374D01*
X419488Y499451D01*
X419483Y499529D01*
X419481Y499607D01*
X419483Y499721D01*
X419488Y499834D01*
X419498Y499948D01*
X419511Y500061D01*
X419528Y500173D01*
X419548Y500285D01*
X419572Y500396D01*
X419600Y500507D01*
X419631Y500616D01*
X419666Y500724D01*
X419705Y500831D01*
X419747Y500937D01*
X419792Y501041D01*
X419841Y501144D01*
X419894Y501245D01*
X419949Y501344D01*
X420008Y501442D01*
X420070Y501537D01*
X420135Y501630D01*
X420203Y501722D01*
X420274Y501810D01*
X420348Y501897D01*
X420425Y501981D01*
X420504Y502062D01*
X425210Y501858D02*
X425288Y501856D01*
X425366Y501851D01*
X425443Y501841D01*
X425520Y501828D01*
X425596Y501812D01*
X425671Y501792D01*
X425745Y501768D01*
X425818Y501741D01*
X425890Y501710D01*
X425960Y501676D01*
X426029Y501639D01*
X426095Y501598D01*
X426160Y501554D01*
X426222Y501508D01*
X426282Y501458D01*
X426340Y501406D01*
X426395Y501351D01*
X426447Y501293D01*
X426497Y501233D01*
X426543Y501171D01*
X426587Y501106D01*
X426628Y501040D01*
X426665Y500971D01*
X426699Y500901D01*
X426730Y500829D01*
X426757Y500756D01*
X426781Y500682D01*
X426801Y500607D01*
X426817Y500531D01*
X426830Y500454D01*
X426840Y500377D01*
X426845Y500299D01*
X426847Y500221D01*
X426845Y500111D01*
X426839Y500002D01*
X426829Y499892D01*
X426816Y499784D01*
X426798Y499675D01*
X426777Y499568D01*
X426751Y499461D01*
X426722Y499355D01*
X426690Y499250D01*
X426653Y499147D01*
X426613Y499045D01*
X426569Y498944D01*
X426521Y498845D01*
X426471Y498748D01*
X426416Y498653D01*
X426358Y498560D01*
X426297Y498469D01*
X426233Y498380D01*
X423777Y501039D02*
X423819Y501106D01*
X423863Y501171D01*
X423911Y501233D01*
X423961Y501293D01*
X424014Y501351D01*
X424070Y501406D01*
X424129Y501458D01*
X424189Y501508D01*
X424253Y501555D01*
X424318Y501598D01*
X424385Y501639D01*
X424454Y501676D01*
X424525Y501710D01*
X424597Y501741D01*
X424671Y501768D01*
X424745Y501792D01*
X424821Y501812D01*
X424898Y501828D01*
X424975Y501841D01*
X425053Y501851D01*
X425132Y501856D01*
X425210Y501858D01*
X422550Y498789D02*
X422509Y498723D01*
X422464Y498658D01*
X422417Y498596D01*
X422366Y498536D01*
X422313Y498478D01*
X422257Y498423D01*
X422199Y498370D01*
X422138Y498321D01*
X422075Y498274D01*
X422010Y498231D01*
X421943Y498190D01*
X421874Y498153D01*
X421803Y498119D01*
X421731Y498088D01*
X421657Y498061D01*
X421582Y498037D01*
X421507Y498017D01*
X421430Y498001D01*
X421353Y497988D01*
X421275Y497978D01*
X421196Y497973D01*
X421118Y497971D01*
X422550Y498789D02*
X423778Y501039D01*
X426847Y494630D02*
X419481Y494630D01*
X426847Y494630D02*
X426847Y492583D01*
X426845Y492494D01*
X426839Y492405D01*
X426829Y492316D01*
X426816Y492228D01*
X426799Y492140D01*
X426777Y492053D01*
X426752Y491968D01*
X426724Y491883D01*
X426691Y491800D01*
X426655Y491718D01*
X426616Y491638D01*
X426573Y491560D01*
X426527Y491484D01*
X426477Y491409D01*
X426424Y491337D01*
X426368Y491268D01*
X426309Y491201D01*
X426248Y491136D01*
X426183Y491075D01*
X426116Y491016D01*
X426047Y490960D01*
X425975Y490907D01*
X425900Y490857D01*
X425824Y490811D01*
X425746Y490768D01*
X425666Y490729D01*
X425584Y490693D01*
X425501Y490660D01*
X425416Y490632D01*
X425331Y490607D01*
X425244Y490585D01*
X425156Y490568D01*
X425068Y490555D01*
X424979Y490545D01*
X424890Y490539D01*
X424801Y490537D01*
X424712Y490539D01*
X424623Y490545D01*
X424534Y490555D01*
X424446Y490568D01*
X424358Y490585D01*
X424271Y490607D01*
X424186Y490632D01*
X424101Y490660D01*
X424018Y490693D01*
X423936Y490729D01*
X423856Y490768D01*
X423778Y490811D01*
X423702Y490857D01*
X423627Y490907D01*
X423555Y490960D01*
X423486Y491016D01*
X423419Y491075D01*
X423354Y491136D01*
X423293Y491201D01*
X423234Y491268D01*
X423178Y491337D01*
X423125Y491409D01*
X423075Y491484D01*
X423029Y491560D01*
X422986Y491638D01*
X422947Y491718D01*
X422911Y491800D01*
X422878Y491883D01*
X422850Y491968D01*
X422825Y492053D01*
X422803Y492140D01*
X422786Y492228D01*
X422773Y492316D01*
X422763Y492405D01*
X422757Y492494D01*
X422755Y492583D01*
X422755Y494630D01*
D10*
X274139Y500220D02*
X274144Y500661D01*
X274161Y501101D01*
X274188Y501541D01*
X274225Y501980D01*
X274274Y502419D01*
X274333Y502855D01*
X274403Y503291D01*
X274484Y503724D01*
X274575Y504155D01*
X274677Y504584D01*
X274790Y505010D01*
X274912Y505434D01*
X275046Y505854D01*
X275189Y506271D01*
X275343Y506684D01*
X275506Y507093D01*
X275680Y507499D01*
X275863Y507899D01*
X276057Y508295D01*
X276260Y508687D01*
X276472Y509073D01*
X276694Y509454D01*
X276926Y509829D01*
X277166Y510199D01*
X277415Y510562D01*
X277674Y510919D01*
X277941Y511270D01*
X278216Y511614D01*
X278500Y511952D01*
X278792Y512282D01*
X279092Y512605D01*
X279400Y512920D01*
X279715Y513228D01*
X280038Y513528D01*
X280368Y513820D01*
X280706Y514104D01*
X281050Y514379D01*
X281401Y514646D01*
X281758Y514905D01*
X282121Y515154D01*
X282491Y515394D01*
X282866Y515626D01*
X283247Y515848D01*
X283633Y516060D01*
X284025Y516263D01*
X284421Y516457D01*
X284821Y516640D01*
X285227Y516814D01*
X285636Y516977D01*
X286049Y517131D01*
X286466Y517274D01*
X286886Y517408D01*
X287310Y517530D01*
X287736Y517643D01*
X288165Y517745D01*
X288596Y517836D01*
X289029Y517917D01*
X289465Y517987D01*
X289901Y518046D01*
X290340Y518095D01*
X290779Y518132D01*
X291219Y518159D01*
X291659Y518176D01*
X292100Y518181D01*
X292541Y518176D01*
X292981Y518159D01*
X293421Y518132D01*
X293860Y518095D01*
X294299Y518046D01*
X294735Y517987D01*
X295171Y517917D01*
X295604Y517836D01*
X296035Y517745D01*
X296464Y517643D01*
X296890Y517530D01*
X297314Y517408D01*
X297734Y517274D01*
X298151Y517131D01*
X298564Y516977D01*
X298973Y516814D01*
X299379Y516640D01*
X299779Y516457D01*
X300175Y516263D01*
X300567Y516060D01*
X300953Y515848D01*
X301334Y515626D01*
X301709Y515394D01*
X302079Y515154D01*
X302442Y514905D01*
X302799Y514646D01*
X303150Y514379D01*
X303494Y514104D01*
X303832Y513820D01*
X304162Y513528D01*
X304485Y513228D01*
X304800Y512920D01*
X305108Y512605D01*
X305408Y512282D01*
X305700Y511952D01*
X305984Y511614D01*
X306259Y511270D01*
X306526Y510919D01*
X306785Y510562D01*
X307034Y510199D01*
X307274Y509829D01*
X307506Y509454D01*
X307728Y509073D01*
X307940Y508687D01*
X308143Y508295D01*
X308337Y507899D01*
X308520Y507499D01*
X308694Y507093D01*
X308857Y506684D01*
X309011Y506271D01*
X309154Y505854D01*
X309288Y505434D01*
X309410Y505010D01*
X309523Y504584D01*
X309625Y504155D01*
X309716Y503724D01*
X309797Y503291D01*
X309867Y502855D01*
X309926Y502419D01*
X309975Y501980D01*
X310012Y501541D01*
X310039Y501101D01*
X310056Y500661D01*
X310061Y500220D01*
X310056Y499779D01*
X310039Y499339D01*
X310012Y498899D01*
X309975Y498460D01*
X309926Y498021D01*
X309867Y497585D01*
X309797Y497149D01*
X309716Y496716D01*
X309625Y496285D01*
X309523Y495856D01*
X309410Y495430D01*
X309288Y495006D01*
X309154Y494586D01*
X309011Y494169D01*
X308857Y493756D01*
X308694Y493347D01*
X308520Y492941D01*
X308337Y492541D01*
X308143Y492145D01*
X307940Y491753D01*
X307728Y491367D01*
X307506Y490986D01*
X307274Y490611D01*
X307034Y490241D01*
X306785Y489878D01*
X306526Y489521D01*
X306259Y489170D01*
X305984Y488826D01*
X305700Y488488D01*
X305408Y488158D01*
X305108Y487835D01*
X304800Y487520D01*
X304485Y487212D01*
X304162Y486912D01*
X303832Y486620D01*
X303494Y486336D01*
X303150Y486061D01*
X302799Y485794D01*
X302442Y485535D01*
X302079Y485286D01*
X301709Y485046D01*
X301334Y484814D01*
X300953Y484592D01*
X300567Y484380D01*
X300175Y484177D01*
X299779Y483983D01*
X299379Y483800D01*
X298973Y483626D01*
X298564Y483463D01*
X298151Y483309D01*
X297734Y483166D01*
X297314Y483032D01*
X296890Y482910D01*
X296464Y482797D01*
X296035Y482695D01*
X295604Y482604D01*
X295171Y482523D01*
X294735Y482453D01*
X294299Y482394D01*
X293860Y482345D01*
X293421Y482308D01*
X292981Y482281D01*
X292541Y482264D01*
X292100Y482259D01*
X291659Y482264D01*
X291219Y482281D01*
X290779Y482308D01*
X290340Y482345D01*
X289901Y482394D01*
X289465Y482453D01*
X289029Y482523D01*
X288596Y482604D01*
X288165Y482695D01*
X287736Y482797D01*
X287310Y482910D01*
X286886Y483032D01*
X286466Y483166D01*
X286049Y483309D01*
X285636Y483463D01*
X285227Y483626D01*
X284821Y483800D01*
X284421Y483983D01*
X284025Y484177D01*
X283633Y484380D01*
X283247Y484592D01*
X282866Y484814D01*
X282491Y485046D01*
X282121Y485286D01*
X281758Y485535D01*
X281401Y485794D01*
X281050Y486061D01*
X280706Y486336D01*
X280368Y486620D01*
X280038Y486912D01*
X279715Y487212D01*
X279400Y487520D01*
X279092Y487835D01*
X278792Y488158D01*
X278500Y488488D01*
X278216Y488826D01*
X277941Y489170D01*
X277674Y489521D01*
X277415Y489878D01*
X277166Y490241D01*
X276926Y490611D01*
X276694Y490986D01*
X276472Y491367D01*
X276260Y491753D01*
X276057Y492145D01*
X275863Y492541D01*
X275680Y492941D01*
X275506Y493347D01*
X275343Y493756D01*
X275189Y494169D01*
X275046Y494586D01*
X274912Y495006D01*
X274790Y495430D01*
X274677Y495856D01*
X274575Y496285D01*
X274484Y496716D01*
X274403Y497149D01*
X274333Y497585D01*
X274274Y498021D01*
X274225Y498460D01*
X274188Y498899D01*
X274161Y499339D01*
X274144Y499779D01*
X274139Y500220D01*
X461900Y474820D02*
X461902Y475016D01*
X461910Y475213D01*
X461922Y475409D01*
X461939Y475604D01*
X461960Y475799D01*
X461987Y475994D01*
X462018Y476188D01*
X462054Y476381D01*
X462094Y476573D01*
X462140Y476764D01*
X462190Y476954D01*
X462244Y477142D01*
X462304Y477329D01*
X462368Y477515D01*
X462436Y477699D01*
X462509Y477881D01*
X462586Y478062D01*
X462668Y478240D01*
X462754Y478417D01*
X462845Y478591D01*
X462939Y478763D01*
X463038Y478933D01*
X463141Y479100D01*
X463248Y479265D01*
X463359Y479426D01*
X463474Y479586D01*
X463593Y479742D01*
X463716Y479895D01*
X463842Y480045D01*
X463972Y480192D01*
X464106Y480336D01*
X464243Y480477D01*
X464384Y480614D01*
X464528Y480748D01*
X464675Y480878D01*
X464825Y481004D01*
X464978Y481127D01*
X465134Y481246D01*
X465294Y481361D01*
X465455Y481472D01*
X465620Y481579D01*
X465787Y481682D01*
X465957Y481781D01*
X466129Y481875D01*
X466303Y481966D01*
X466480Y482052D01*
X466658Y482134D01*
X466839Y482211D01*
X467021Y482284D01*
X467205Y482352D01*
X467391Y482416D01*
X467578Y482476D01*
X467766Y482530D01*
X467956Y482580D01*
X468147Y482626D01*
X468339Y482666D01*
X468532Y482702D01*
X468726Y482733D01*
X468921Y482760D01*
X469116Y482781D01*
X469311Y482798D01*
X469507Y482810D01*
X469704Y482818D01*
X469900Y482820D01*
X470096Y482818D01*
X470293Y482810D01*
X470489Y482798D01*
X470684Y482781D01*
X470879Y482760D01*
X471074Y482733D01*
X471268Y482702D01*
X471461Y482666D01*
X471653Y482626D01*
X471844Y482580D01*
X472034Y482530D01*
X472222Y482476D01*
X472409Y482416D01*
X472595Y482352D01*
X472779Y482284D01*
X472961Y482211D01*
X473142Y482134D01*
X473320Y482052D01*
X473497Y481966D01*
X473671Y481875D01*
X473843Y481781D01*
X474013Y481682D01*
X474180Y481579D01*
X474345Y481472D01*
X474506Y481361D01*
X474666Y481246D01*
X474822Y481127D01*
X474975Y481004D01*
X475125Y480878D01*
X475272Y480748D01*
X475416Y480614D01*
X475557Y480477D01*
X475694Y480336D01*
X475828Y480192D01*
X475958Y480045D01*
X476084Y479895D01*
X476207Y479742D01*
X476326Y479586D01*
X476441Y479426D01*
X476552Y479265D01*
X476659Y479100D01*
X476762Y478933D01*
X476861Y478763D01*
X476955Y478591D01*
X477046Y478417D01*
X477132Y478240D01*
X477214Y478062D01*
X477291Y477881D01*
X477364Y477699D01*
X477432Y477515D01*
X477496Y477329D01*
X477556Y477142D01*
X477610Y476954D01*
X477660Y476764D01*
X477706Y476573D01*
X477746Y476381D01*
X477782Y476188D01*
X477813Y475994D01*
X477840Y475799D01*
X477861Y475604D01*
X477878Y475409D01*
X477890Y475213D01*
X477898Y475016D01*
X477900Y474820D01*
X477898Y474624D01*
X477890Y474427D01*
X477878Y474231D01*
X477861Y474036D01*
X477840Y473841D01*
X477813Y473646D01*
X477782Y473452D01*
X477746Y473259D01*
X477706Y473067D01*
X477660Y472876D01*
X477610Y472686D01*
X477556Y472498D01*
X477496Y472311D01*
X477432Y472125D01*
X477364Y471941D01*
X477291Y471759D01*
X477214Y471578D01*
X477132Y471400D01*
X477046Y471223D01*
X476955Y471049D01*
X476861Y470877D01*
X476762Y470707D01*
X476659Y470540D01*
X476552Y470375D01*
X476441Y470214D01*
X476326Y470054D01*
X476207Y469898D01*
X476084Y469745D01*
X475958Y469595D01*
X475828Y469448D01*
X475694Y469304D01*
X475557Y469163D01*
X475416Y469026D01*
X475272Y468892D01*
X475125Y468762D01*
X474975Y468636D01*
X474822Y468513D01*
X474666Y468394D01*
X474506Y468279D01*
X474345Y468168D01*
X474180Y468061D01*
X474013Y467958D01*
X473843Y467859D01*
X473671Y467765D01*
X473497Y467674D01*
X473320Y467588D01*
X473142Y467506D01*
X472961Y467429D01*
X472779Y467356D01*
X472595Y467288D01*
X472409Y467224D01*
X472222Y467164D01*
X472034Y467110D01*
X471844Y467060D01*
X471653Y467014D01*
X471461Y466974D01*
X471268Y466938D01*
X471074Y466907D01*
X470879Y466880D01*
X470684Y466859D01*
X470489Y466842D01*
X470293Y466830D01*
X470096Y466822D01*
X469900Y466820D01*
X469704Y466822D01*
X469507Y466830D01*
X469311Y466842D01*
X469116Y466859D01*
X468921Y466880D01*
X468726Y466907D01*
X468532Y466938D01*
X468339Y466974D01*
X468147Y467014D01*
X467956Y467060D01*
X467766Y467110D01*
X467578Y467164D01*
X467391Y467224D01*
X467205Y467288D01*
X467021Y467356D01*
X466839Y467429D01*
X466658Y467506D01*
X466480Y467588D01*
X466303Y467674D01*
X466129Y467765D01*
X465957Y467859D01*
X465787Y467958D01*
X465620Y468061D01*
X465455Y468168D01*
X465294Y468279D01*
X465134Y468394D01*
X464978Y468513D01*
X464825Y468636D01*
X464675Y468762D01*
X464528Y468892D01*
X464384Y469026D01*
X464243Y469163D01*
X464106Y469304D01*
X463972Y469448D01*
X463842Y469595D01*
X463716Y469745D01*
X463593Y469898D01*
X463474Y470054D01*
X463359Y470214D01*
X463248Y470375D01*
X463141Y470540D01*
X463038Y470707D01*
X462939Y470877D01*
X462845Y471049D01*
X462754Y471223D01*
X462668Y471400D01*
X462586Y471578D01*
X462509Y471759D01*
X462436Y471941D01*
X462368Y472125D01*
X462304Y472311D01*
X462244Y472498D01*
X462190Y472686D01*
X462140Y472876D01*
X462094Y473067D01*
X462054Y473259D01*
X462018Y473452D01*
X461987Y473646D01*
X461960Y473841D01*
X461939Y474036D01*
X461922Y474231D01*
X461910Y474427D01*
X461902Y474624D01*
X461900Y474820D01*
X461900Y500220D02*
X461902Y500416D01*
X461910Y500613D01*
X461922Y500809D01*
X461939Y501004D01*
X461960Y501199D01*
X461987Y501394D01*
X462018Y501588D01*
X462054Y501781D01*
X462094Y501973D01*
X462140Y502164D01*
X462190Y502354D01*
X462244Y502542D01*
X462304Y502729D01*
X462368Y502915D01*
X462436Y503099D01*
X462509Y503281D01*
X462586Y503462D01*
X462668Y503640D01*
X462754Y503817D01*
X462845Y503991D01*
X462939Y504163D01*
X463038Y504333D01*
X463141Y504500D01*
X463248Y504665D01*
X463359Y504826D01*
X463474Y504986D01*
X463593Y505142D01*
X463716Y505295D01*
X463842Y505445D01*
X463972Y505592D01*
X464106Y505736D01*
X464243Y505877D01*
X464384Y506014D01*
X464528Y506148D01*
X464675Y506278D01*
X464825Y506404D01*
X464978Y506527D01*
X465134Y506646D01*
X465294Y506761D01*
X465455Y506872D01*
X465620Y506979D01*
X465787Y507082D01*
X465957Y507181D01*
X466129Y507275D01*
X466303Y507366D01*
X466480Y507452D01*
X466658Y507534D01*
X466839Y507611D01*
X467021Y507684D01*
X467205Y507752D01*
X467391Y507816D01*
X467578Y507876D01*
X467766Y507930D01*
X467956Y507980D01*
X468147Y508026D01*
X468339Y508066D01*
X468532Y508102D01*
X468726Y508133D01*
X468921Y508160D01*
X469116Y508181D01*
X469311Y508198D01*
X469507Y508210D01*
X469704Y508218D01*
X469900Y508220D01*
X470096Y508218D01*
X470293Y508210D01*
X470489Y508198D01*
X470684Y508181D01*
X470879Y508160D01*
X471074Y508133D01*
X471268Y508102D01*
X471461Y508066D01*
X471653Y508026D01*
X471844Y507980D01*
X472034Y507930D01*
X472222Y507876D01*
X472409Y507816D01*
X472595Y507752D01*
X472779Y507684D01*
X472961Y507611D01*
X473142Y507534D01*
X473320Y507452D01*
X473497Y507366D01*
X473671Y507275D01*
X473843Y507181D01*
X474013Y507082D01*
X474180Y506979D01*
X474345Y506872D01*
X474506Y506761D01*
X474666Y506646D01*
X474822Y506527D01*
X474975Y506404D01*
X475125Y506278D01*
X475272Y506148D01*
X475416Y506014D01*
X475557Y505877D01*
X475694Y505736D01*
X475828Y505592D01*
X475958Y505445D01*
X476084Y505295D01*
X476207Y505142D01*
X476326Y504986D01*
X476441Y504826D01*
X476552Y504665D01*
X476659Y504500D01*
X476762Y504333D01*
X476861Y504163D01*
X476955Y503991D01*
X477046Y503817D01*
X477132Y503640D01*
X477214Y503462D01*
X477291Y503281D01*
X477364Y503099D01*
X477432Y502915D01*
X477496Y502729D01*
X477556Y502542D01*
X477610Y502354D01*
X477660Y502164D01*
X477706Y501973D01*
X477746Y501781D01*
X477782Y501588D01*
X477813Y501394D01*
X477840Y501199D01*
X477861Y501004D01*
X477878Y500809D01*
X477890Y500613D01*
X477898Y500416D01*
X477900Y500220D01*
X477898Y500024D01*
X477890Y499827D01*
X477878Y499631D01*
X477861Y499436D01*
X477840Y499241D01*
X477813Y499046D01*
X477782Y498852D01*
X477746Y498659D01*
X477706Y498467D01*
X477660Y498276D01*
X477610Y498086D01*
X477556Y497898D01*
X477496Y497711D01*
X477432Y497525D01*
X477364Y497341D01*
X477291Y497159D01*
X477214Y496978D01*
X477132Y496800D01*
X477046Y496623D01*
X476955Y496449D01*
X476861Y496277D01*
X476762Y496107D01*
X476659Y495940D01*
X476552Y495775D01*
X476441Y495614D01*
X476326Y495454D01*
X476207Y495298D01*
X476084Y495145D01*
X475958Y494995D01*
X475828Y494848D01*
X475694Y494704D01*
X475557Y494563D01*
X475416Y494426D01*
X475272Y494292D01*
X475125Y494162D01*
X474975Y494036D01*
X474822Y493913D01*
X474666Y493794D01*
X474506Y493679D01*
X474345Y493568D01*
X474180Y493461D01*
X474013Y493358D01*
X473843Y493259D01*
X473671Y493165D01*
X473497Y493074D01*
X473320Y492988D01*
X473142Y492906D01*
X472961Y492829D01*
X472779Y492756D01*
X472595Y492688D01*
X472409Y492624D01*
X472222Y492564D01*
X472034Y492510D01*
X471844Y492460D01*
X471653Y492414D01*
X471461Y492374D01*
X471268Y492338D01*
X471074Y492307D01*
X470879Y492280D01*
X470684Y492259D01*
X470489Y492242D01*
X470293Y492230D01*
X470096Y492222D01*
X469900Y492220D01*
X469704Y492222D01*
X469507Y492230D01*
X469311Y492242D01*
X469116Y492259D01*
X468921Y492280D01*
X468726Y492307D01*
X468532Y492338D01*
X468339Y492374D01*
X468147Y492414D01*
X467956Y492460D01*
X467766Y492510D01*
X467578Y492564D01*
X467391Y492624D01*
X467205Y492688D01*
X467021Y492756D01*
X466839Y492829D01*
X466658Y492906D01*
X466480Y492988D01*
X466303Y493074D01*
X466129Y493165D01*
X465957Y493259D01*
X465787Y493358D01*
X465620Y493461D01*
X465455Y493568D01*
X465294Y493679D01*
X465134Y493794D01*
X464978Y493913D01*
X464825Y494036D01*
X464675Y494162D01*
X464528Y494292D01*
X464384Y494426D01*
X464243Y494563D01*
X464106Y494704D01*
X463972Y494848D01*
X463842Y494995D01*
X463716Y495145D01*
X463593Y495298D01*
X463474Y495454D01*
X463359Y495614D01*
X463248Y495775D01*
X463141Y495940D01*
X463038Y496107D01*
X462939Y496277D01*
X462845Y496449D01*
X462754Y496623D01*
X462668Y496800D01*
X462586Y496978D01*
X462509Y497159D01*
X462436Y497341D01*
X462368Y497525D01*
X462304Y497711D01*
X462244Y497898D01*
X462190Y498086D01*
X462140Y498276D01*
X462094Y498467D01*
X462054Y498659D01*
X462018Y498852D01*
X461987Y499046D01*
X461960Y499241D01*
X461939Y499436D01*
X461922Y499631D01*
X461910Y499827D01*
X461902Y500024D01*
X461900Y500220D01*
X461900Y525620D02*
X461902Y525816D01*
X461910Y526013D01*
X461922Y526209D01*
X461939Y526404D01*
X461960Y526599D01*
X461987Y526794D01*
X462018Y526988D01*
X462054Y527181D01*
X462094Y527373D01*
X462140Y527564D01*
X462190Y527754D01*
X462244Y527942D01*
X462304Y528129D01*
X462368Y528315D01*
X462436Y528499D01*
X462509Y528681D01*
X462586Y528862D01*
X462668Y529040D01*
X462754Y529217D01*
X462845Y529391D01*
X462939Y529563D01*
X463038Y529733D01*
X463141Y529900D01*
X463248Y530065D01*
X463359Y530226D01*
X463474Y530386D01*
X463593Y530542D01*
X463716Y530695D01*
X463842Y530845D01*
X463972Y530992D01*
X464106Y531136D01*
X464243Y531277D01*
X464384Y531414D01*
X464528Y531548D01*
X464675Y531678D01*
X464825Y531804D01*
X464978Y531927D01*
X465134Y532046D01*
X465294Y532161D01*
X465455Y532272D01*
X465620Y532379D01*
X465787Y532482D01*
X465957Y532581D01*
X466129Y532675D01*
X466303Y532766D01*
X466480Y532852D01*
X466658Y532934D01*
X466839Y533011D01*
X467021Y533084D01*
X467205Y533152D01*
X467391Y533216D01*
X467578Y533276D01*
X467766Y533330D01*
X467956Y533380D01*
X468147Y533426D01*
X468339Y533466D01*
X468532Y533502D01*
X468726Y533533D01*
X468921Y533560D01*
X469116Y533581D01*
X469311Y533598D01*
X469507Y533610D01*
X469704Y533618D01*
X469900Y533620D01*
X470096Y533618D01*
X470293Y533610D01*
X470489Y533598D01*
X470684Y533581D01*
X470879Y533560D01*
X471074Y533533D01*
X471268Y533502D01*
X471461Y533466D01*
X471653Y533426D01*
X471844Y533380D01*
X472034Y533330D01*
X472222Y533276D01*
X472409Y533216D01*
X472595Y533152D01*
X472779Y533084D01*
X472961Y533011D01*
X473142Y532934D01*
X473320Y532852D01*
X473497Y532766D01*
X473671Y532675D01*
X473843Y532581D01*
X474013Y532482D01*
X474180Y532379D01*
X474345Y532272D01*
X474506Y532161D01*
X474666Y532046D01*
X474822Y531927D01*
X474975Y531804D01*
X475125Y531678D01*
X475272Y531548D01*
X475416Y531414D01*
X475557Y531277D01*
X475694Y531136D01*
X475828Y530992D01*
X475958Y530845D01*
X476084Y530695D01*
X476207Y530542D01*
X476326Y530386D01*
X476441Y530226D01*
X476552Y530065D01*
X476659Y529900D01*
X476762Y529733D01*
X476861Y529563D01*
X476955Y529391D01*
X477046Y529217D01*
X477132Y529040D01*
X477214Y528862D01*
X477291Y528681D01*
X477364Y528499D01*
X477432Y528315D01*
X477496Y528129D01*
X477556Y527942D01*
X477610Y527754D01*
X477660Y527564D01*
X477706Y527373D01*
X477746Y527181D01*
X477782Y526988D01*
X477813Y526794D01*
X477840Y526599D01*
X477861Y526404D01*
X477878Y526209D01*
X477890Y526013D01*
X477898Y525816D01*
X477900Y525620D01*
X477898Y525424D01*
X477890Y525227D01*
X477878Y525031D01*
X477861Y524836D01*
X477840Y524641D01*
X477813Y524446D01*
X477782Y524252D01*
X477746Y524059D01*
X477706Y523867D01*
X477660Y523676D01*
X477610Y523486D01*
X477556Y523298D01*
X477496Y523111D01*
X477432Y522925D01*
X477364Y522741D01*
X477291Y522559D01*
X477214Y522378D01*
X477132Y522200D01*
X477046Y522023D01*
X476955Y521849D01*
X476861Y521677D01*
X476762Y521507D01*
X476659Y521340D01*
X476552Y521175D01*
X476441Y521014D01*
X476326Y520854D01*
X476207Y520698D01*
X476084Y520545D01*
X475958Y520395D01*
X475828Y520248D01*
X475694Y520104D01*
X475557Y519963D01*
X475416Y519826D01*
X475272Y519692D01*
X475125Y519562D01*
X474975Y519436D01*
X474822Y519313D01*
X474666Y519194D01*
X474506Y519079D01*
X474345Y518968D01*
X474180Y518861D01*
X474013Y518758D01*
X473843Y518659D01*
X473671Y518565D01*
X473497Y518474D01*
X473320Y518388D01*
X473142Y518306D01*
X472961Y518229D01*
X472779Y518156D01*
X472595Y518088D01*
X472409Y518024D01*
X472222Y517964D01*
X472034Y517910D01*
X471844Y517860D01*
X471653Y517814D01*
X471461Y517774D01*
X471268Y517738D01*
X471074Y517707D01*
X470879Y517680D01*
X470684Y517659D01*
X470489Y517642D01*
X470293Y517630D01*
X470096Y517622D01*
X469900Y517620D01*
X469704Y517622D01*
X469507Y517630D01*
X469311Y517642D01*
X469116Y517659D01*
X468921Y517680D01*
X468726Y517707D01*
X468532Y517738D01*
X468339Y517774D01*
X468147Y517814D01*
X467956Y517860D01*
X467766Y517910D01*
X467578Y517964D01*
X467391Y518024D01*
X467205Y518088D01*
X467021Y518156D01*
X466839Y518229D01*
X466658Y518306D01*
X466480Y518388D01*
X466303Y518474D01*
X466129Y518565D01*
X465957Y518659D01*
X465787Y518758D01*
X465620Y518861D01*
X465455Y518968D01*
X465294Y519079D01*
X465134Y519194D01*
X464978Y519313D01*
X464825Y519436D01*
X464675Y519562D01*
X464528Y519692D01*
X464384Y519826D01*
X464243Y519963D01*
X464106Y520104D01*
X463972Y520248D01*
X463842Y520395D01*
X463716Y520545D01*
X463593Y520698D01*
X463474Y520854D01*
X463359Y521014D01*
X463248Y521175D01*
X463141Y521340D01*
X463038Y521507D01*
X462939Y521677D01*
X462845Y521849D01*
X462754Y522023D01*
X462668Y522200D01*
X462586Y522378D01*
X462509Y522559D01*
X462436Y522741D01*
X462368Y522925D01*
X462304Y523111D01*
X462244Y523298D01*
X462190Y523486D01*
X462140Y523676D01*
X462094Y523867D01*
X462054Y524059D01*
X462018Y524252D01*
X461987Y524446D01*
X461960Y524641D01*
X461939Y524836D01*
X461922Y525031D01*
X461910Y525227D01*
X461902Y525424D01*
X461900Y525620D01*
X436500Y525620D02*
X436502Y525816D01*
X436510Y526013D01*
X436522Y526209D01*
X436539Y526404D01*
X436560Y526599D01*
X436587Y526794D01*
X436618Y526988D01*
X436654Y527181D01*
X436694Y527373D01*
X436740Y527564D01*
X436790Y527754D01*
X436844Y527942D01*
X436904Y528129D01*
X436968Y528315D01*
X437036Y528499D01*
X437109Y528681D01*
X437186Y528862D01*
X437268Y529040D01*
X437354Y529217D01*
X437445Y529391D01*
X437539Y529563D01*
X437638Y529733D01*
X437741Y529900D01*
X437848Y530065D01*
X437959Y530226D01*
X438074Y530386D01*
X438193Y530542D01*
X438316Y530695D01*
X438442Y530845D01*
X438572Y530992D01*
X438706Y531136D01*
X438843Y531277D01*
X438984Y531414D01*
X439128Y531548D01*
X439275Y531678D01*
X439425Y531804D01*
X439578Y531927D01*
X439734Y532046D01*
X439894Y532161D01*
X440055Y532272D01*
X440220Y532379D01*
X440387Y532482D01*
X440557Y532581D01*
X440729Y532675D01*
X440903Y532766D01*
X441080Y532852D01*
X441258Y532934D01*
X441439Y533011D01*
X441621Y533084D01*
X441805Y533152D01*
X441991Y533216D01*
X442178Y533276D01*
X442366Y533330D01*
X442556Y533380D01*
X442747Y533426D01*
X442939Y533466D01*
X443132Y533502D01*
X443326Y533533D01*
X443521Y533560D01*
X443716Y533581D01*
X443911Y533598D01*
X444107Y533610D01*
X444304Y533618D01*
X444500Y533620D01*
X444696Y533618D01*
X444893Y533610D01*
X445089Y533598D01*
X445284Y533581D01*
X445479Y533560D01*
X445674Y533533D01*
X445868Y533502D01*
X446061Y533466D01*
X446253Y533426D01*
X446444Y533380D01*
X446634Y533330D01*
X446822Y533276D01*
X447009Y533216D01*
X447195Y533152D01*
X447379Y533084D01*
X447561Y533011D01*
X447742Y532934D01*
X447920Y532852D01*
X448097Y532766D01*
X448271Y532675D01*
X448443Y532581D01*
X448613Y532482D01*
X448780Y532379D01*
X448945Y532272D01*
X449106Y532161D01*
X449266Y532046D01*
X449422Y531927D01*
X449575Y531804D01*
X449725Y531678D01*
X449872Y531548D01*
X450016Y531414D01*
X450157Y531277D01*
X450294Y531136D01*
X450428Y530992D01*
X450558Y530845D01*
X450684Y530695D01*
X450807Y530542D01*
X450926Y530386D01*
X451041Y530226D01*
X451152Y530065D01*
X451259Y529900D01*
X451362Y529733D01*
X451461Y529563D01*
X451555Y529391D01*
X451646Y529217D01*
X451732Y529040D01*
X451814Y528862D01*
X451891Y528681D01*
X451964Y528499D01*
X452032Y528315D01*
X452096Y528129D01*
X452156Y527942D01*
X452210Y527754D01*
X452260Y527564D01*
X452306Y527373D01*
X452346Y527181D01*
X452382Y526988D01*
X452413Y526794D01*
X452440Y526599D01*
X452461Y526404D01*
X452478Y526209D01*
X452490Y526013D01*
X452498Y525816D01*
X452500Y525620D01*
X452498Y525424D01*
X452490Y525227D01*
X452478Y525031D01*
X452461Y524836D01*
X452440Y524641D01*
X452413Y524446D01*
X452382Y524252D01*
X452346Y524059D01*
X452306Y523867D01*
X452260Y523676D01*
X452210Y523486D01*
X452156Y523298D01*
X452096Y523111D01*
X452032Y522925D01*
X451964Y522741D01*
X451891Y522559D01*
X451814Y522378D01*
X451732Y522200D01*
X451646Y522023D01*
X451555Y521849D01*
X451461Y521677D01*
X451362Y521507D01*
X451259Y521340D01*
X451152Y521175D01*
X451041Y521014D01*
X450926Y520854D01*
X450807Y520698D01*
X450684Y520545D01*
X450558Y520395D01*
X450428Y520248D01*
X450294Y520104D01*
X450157Y519963D01*
X450016Y519826D01*
X449872Y519692D01*
X449725Y519562D01*
X449575Y519436D01*
X449422Y519313D01*
X449266Y519194D01*
X449106Y519079D01*
X448945Y518968D01*
X448780Y518861D01*
X448613Y518758D01*
X448443Y518659D01*
X448271Y518565D01*
X448097Y518474D01*
X447920Y518388D01*
X447742Y518306D01*
X447561Y518229D01*
X447379Y518156D01*
X447195Y518088D01*
X447009Y518024D01*
X446822Y517964D01*
X446634Y517910D01*
X446444Y517860D01*
X446253Y517814D01*
X446061Y517774D01*
X445868Y517738D01*
X445674Y517707D01*
X445479Y517680D01*
X445284Y517659D01*
X445089Y517642D01*
X444893Y517630D01*
X444696Y517622D01*
X444500Y517620D01*
X444304Y517622D01*
X444107Y517630D01*
X443911Y517642D01*
X443716Y517659D01*
X443521Y517680D01*
X443326Y517707D01*
X443132Y517738D01*
X442939Y517774D01*
X442747Y517814D01*
X442556Y517860D01*
X442366Y517910D01*
X442178Y517964D01*
X441991Y518024D01*
X441805Y518088D01*
X441621Y518156D01*
X441439Y518229D01*
X441258Y518306D01*
X441080Y518388D01*
X440903Y518474D01*
X440729Y518565D01*
X440557Y518659D01*
X440387Y518758D01*
X440220Y518861D01*
X440055Y518968D01*
X439894Y519079D01*
X439734Y519194D01*
X439578Y519313D01*
X439425Y519436D01*
X439275Y519562D01*
X439128Y519692D01*
X438984Y519826D01*
X438843Y519963D01*
X438706Y520104D01*
X438572Y520248D01*
X438442Y520395D01*
X438316Y520545D01*
X438193Y520698D01*
X438074Y520854D01*
X437959Y521014D01*
X437848Y521175D01*
X437741Y521340D01*
X437638Y521507D01*
X437539Y521677D01*
X437445Y521849D01*
X437354Y522023D01*
X437268Y522200D01*
X437186Y522378D01*
X437109Y522559D01*
X437036Y522741D01*
X436968Y522925D01*
X436904Y523111D01*
X436844Y523298D01*
X436790Y523486D01*
X436740Y523676D01*
X436694Y523867D01*
X436654Y524059D01*
X436618Y524252D01*
X436587Y524446D01*
X436560Y524641D01*
X436539Y524836D01*
X436522Y525031D01*
X436510Y525227D01*
X436502Y525424D01*
X436500Y525620D01*
X461900Y500220D02*
X461902Y500416D01*
X461910Y500613D01*
X461922Y500809D01*
X461939Y501004D01*
X461960Y501199D01*
X461987Y501394D01*
X462018Y501588D01*
X462054Y501781D01*
X462094Y501973D01*
X462140Y502164D01*
X462190Y502354D01*
X462244Y502542D01*
X462304Y502729D01*
X462368Y502915D01*
X462436Y503099D01*
X462509Y503281D01*
X462586Y503462D01*
X462668Y503640D01*
X462754Y503817D01*
X462845Y503991D01*
X462939Y504163D01*
X463038Y504333D01*
X463141Y504500D01*
X463248Y504665D01*
X463359Y504826D01*
X463474Y504986D01*
X463593Y505142D01*
X463716Y505295D01*
X463842Y505445D01*
X463972Y505592D01*
X464106Y505736D01*
X464243Y505877D01*
X464384Y506014D01*
X464528Y506148D01*
X464675Y506278D01*
X464825Y506404D01*
X464978Y506527D01*
X465134Y506646D01*
X465294Y506761D01*
X465455Y506872D01*
X465620Y506979D01*
X465787Y507082D01*
X465957Y507181D01*
X466129Y507275D01*
X466303Y507366D01*
X466480Y507452D01*
X466658Y507534D01*
X466839Y507611D01*
X467021Y507684D01*
X467205Y507752D01*
X467391Y507816D01*
X467578Y507876D01*
X467766Y507930D01*
X467956Y507980D01*
X468147Y508026D01*
X468339Y508066D01*
X468532Y508102D01*
X468726Y508133D01*
X468921Y508160D01*
X469116Y508181D01*
X469311Y508198D01*
X469507Y508210D01*
X469704Y508218D01*
X469900Y508220D01*
X470096Y508218D01*
X470293Y508210D01*
X470489Y508198D01*
X470684Y508181D01*
X470879Y508160D01*
X471074Y508133D01*
X471268Y508102D01*
X471461Y508066D01*
X471653Y508026D01*
X471844Y507980D01*
X472034Y507930D01*
X472222Y507876D01*
X472409Y507816D01*
X472595Y507752D01*
X472779Y507684D01*
X472961Y507611D01*
X473142Y507534D01*
X473320Y507452D01*
X473497Y507366D01*
X473671Y507275D01*
X473843Y507181D01*
X474013Y507082D01*
X474180Y506979D01*
X474345Y506872D01*
X474506Y506761D01*
X474666Y506646D01*
X474822Y506527D01*
X474975Y506404D01*
X475125Y506278D01*
X475272Y506148D01*
X475416Y506014D01*
X475557Y505877D01*
X475694Y505736D01*
X475828Y505592D01*
X475958Y505445D01*
X476084Y505295D01*
X476207Y505142D01*
X476326Y504986D01*
X476441Y504826D01*
X476552Y504665D01*
X476659Y504500D01*
X476762Y504333D01*
X476861Y504163D01*
X476955Y503991D01*
X477046Y503817D01*
X477132Y503640D01*
X477214Y503462D01*
X477291Y503281D01*
X477364Y503099D01*
X477432Y502915D01*
X477496Y502729D01*
X477556Y502542D01*
X477610Y502354D01*
X477660Y502164D01*
X477706Y501973D01*
X477746Y501781D01*
X477782Y501588D01*
X477813Y501394D01*
X477840Y501199D01*
X477861Y501004D01*
X477878Y500809D01*
X477890Y500613D01*
X477898Y500416D01*
X477900Y500220D01*
X477898Y500024D01*
X477890Y499827D01*
X477878Y499631D01*
X477861Y499436D01*
X477840Y499241D01*
X477813Y499046D01*
X477782Y498852D01*
X477746Y498659D01*
X477706Y498467D01*
X477660Y498276D01*
X477610Y498086D01*
X477556Y497898D01*
X477496Y497711D01*
X477432Y497525D01*
X477364Y497341D01*
X477291Y497159D01*
X477214Y496978D01*
X477132Y496800D01*
X477046Y496623D01*
X476955Y496449D01*
X476861Y496277D01*
X476762Y496107D01*
X476659Y495940D01*
X476552Y495775D01*
X476441Y495614D01*
X476326Y495454D01*
X476207Y495298D01*
X476084Y495145D01*
X475958Y494995D01*
X475828Y494848D01*
X475694Y494704D01*
X475557Y494563D01*
X475416Y494426D01*
X475272Y494292D01*
X475125Y494162D01*
X474975Y494036D01*
X474822Y493913D01*
X474666Y493794D01*
X474506Y493679D01*
X474345Y493568D01*
X474180Y493461D01*
X474013Y493358D01*
X473843Y493259D01*
X473671Y493165D01*
X473497Y493074D01*
X473320Y492988D01*
X473142Y492906D01*
X472961Y492829D01*
X472779Y492756D01*
X472595Y492688D01*
X472409Y492624D01*
X472222Y492564D01*
X472034Y492510D01*
X471844Y492460D01*
X471653Y492414D01*
X471461Y492374D01*
X471268Y492338D01*
X471074Y492307D01*
X470879Y492280D01*
X470684Y492259D01*
X470489Y492242D01*
X470293Y492230D01*
X470096Y492222D01*
X469900Y492220D01*
X469704Y492222D01*
X469507Y492230D01*
X469311Y492242D01*
X469116Y492259D01*
X468921Y492280D01*
X468726Y492307D01*
X468532Y492338D01*
X468339Y492374D01*
X468147Y492414D01*
X467956Y492460D01*
X467766Y492510D01*
X467578Y492564D01*
X467391Y492624D01*
X467205Y492688D01*
X467021Y492756D01*
X466839Y492829D01*
X466658Y492906D01*
X466480Y492988D01*
X466303Y493074D01*
X466129Y493165D01*
X465957Y493259D01*
X465787Y493358D01*
X465620Y493461D01*
X465455Y493568D01*
X465294Y493679D01*
X465134Y493794D01*
X464978Y493913D01*
X464825Y494036D01*
X464675Y494162D01*
X464528Y494292D01*
X464384Y494426D01*
X464243Y494563D01*
X464106Y494704D01*
X463972Y494848D01*
X463842Y494995D01*
X463716Y495145D01*
X463593Y495298D01*
X463474Y495454D01*
X463359Y495614D01*
X463248Y495775D01*
X463141Y495940D01*
X463038Y496107D01*
X462939Y496277D01*
X462845Y496449D01*
X462754Y496623D01*
X462668Y496800D01*
X462586Y496978D01*
X462509Y497159D01*
X462436Y497341D01*
X462368Y497525D01*
X462304Y497711D01*
X462244Y497898D01*
X462190Y498086D01*
X462140Y498276D01*
X462094Y498467D01*
X462054Y498659D01*
X462018Y498852D01*
X461987Y499046D01*
X461960Y499241D01*
X461939Y499436D01*
X461922Y499631D01*
X461910Y499827D01*
X461902Y500024D01*
X461900Y500220D01*
X436500Y500220D02*
X436502Y500416D01*
X436510Y500613D01*
X436522Y500809D01*
X436539Y501004D01*
X436560Y501199D01*
X436587Y501394D01*
X436618Y501588D01*
X436654Y501781D01*
X436694Y501973D01*
X436740Y502164D01*
X436790Y502354D01*
X436844Y502542D01*
X436904Y502729D01*
X436968Y502915D01*
X437036Y503099D01*
X437109Y503281D01*
X437186Y503462D01*
X437268Y503640D01*
X437354Y503817D01*
X437445Y503991D01*
X437539Y504163D01*
X437638Y504333D01*
X437741Y504500D01*
X437848Y504665D01*
X437959Y504826D01*
X438074Y504986D01*
X438193Y505142D01*
X438316Y505295D01*
X438442Y505445D01*
X438572Y505592D01*
X438706Y505736D01*
X438843Y505877D01*
X438984Y506014D01*
X439128Y506148D01*
X439275Y506278D01*
X439425Y506404D01*
X439578Y506527D01*
X439734Y506646D01*
X439894Y506761D01*
X440055Y506872D01*
X440220Y506979D01*
X440387Y507082D01*
X440557Y507181D01*
X440729Y507275D01*
X440903Y507366D01*
X441080Y507452D01*
X441258Y507534D01*
X441439Y507611D01*
X441621Y507684D01*
X441805Y507752D01*
X441991Y507816D01*
X442178Y507876D01*
X442366Y507930D01*
X442556Y507980D01*
X442747Y508026D01*
X442939Y508066D01*
X443132Y508102D01*
X443326Y508133D01*
X443521Y508160D01*
X443716Y508181D01*
X443911Y508198D01*
X444107Y508210D01*
X444304Y508218D01*
X444500Y508220D01*
X444696Y508218D01*
X444893Y508210D01*
X445089Y508198D01*
X445284Y508181D01*
X445479Y508160D01*
X445674Y508133D01*
X445868Y508102D01*
X446061Y508066D01*
X446253Y508026D01*
X446444Y507980D01*
X446634Y507930D01*
X446822Y507876D01*
X447009Y507816D01*
X447195Y507752D01*
X447379Y507684D01*
X447561Y507611D01*
X447742Y507534D01*
X447920Y507452D01*
X448097Y507366D01*
X448271Y507275D01*
X448443Y507181D01*
X448613Y507082D01*
X448780Y506979D01*
X448945Y506872D01*
X449106Y506761D01*
X449266Y506646D01*
X449422Y506527D01*
X449575Y506404D01*
X449725Y506278D01*
X449872Y506148D01*
X450016Y506014D01*
X450157Y505877D01*
X450294Y505736D01*
X450428Y505592D01*
X450558Y505445D01*
X450684Y505295D01*
X450807Y505142D01*
X450926Y504986D01*
X451041Y504826D01*
X451152Y504665D01*
X451259Y504500D01*
X451362Y504333D01*
X451461Y504163D01*
X451555Y503991D01*
X451646Y503817D01*
X451732Y503640D01*
X451814Y503462D01*
X451891Y503281D01*
X451964Y503099D01*
X452032Y502915D01*
X452096Y502729D01*
X452156Y502542D01*
X452210Y502354D01*
X452260Y502164D01*
X452306Y501973D01*
X452346Y501781D01*
X452382Y501588D01*
X452413Y501394D01*
X452440Y501199D01*
X452461Y501004D01*
X452478Y500809D01*
X452490Y500613D01*
X452498Y500416D01*
X452500Y500220D01*
X452498Y500024D01*
X452490Y499827D01*
X452478Y499631D01*
X452461Y499436D01*
X452440Y499241D01*
X452413Y499046D01*
X452382Y498852D01*
X452346Y498659D01*
X452306Y498467D01*
X452260Y498276D01*
X452210Y498086D01*
X452156Y497898D01*
X452096Y497711D01*
X452032Y497525D01*
X451964Y497341D01*
X451891Y497159D01*
X451814Y496978D01*
X451732Y496800D01*
X451646Y496623D01*
X451555Y496449D01*
X451461Y496277D01*
X451362Y496107D01*
X451259Y495940D01*
X451152Y495775D01*
X451041Y495614D01*
X450926Y495454D01*
X450807Y495298D01*
X450684Y495145D01*
X450558Y494995D01*
X450428Y494848D01*
X450294Y494704D01*
X450157Y494563D01*
X450016Y494426D01*
X449872Y494292D01*
X449725Y494162D01*
X449575Y494036D01*
X449422Y493913D01*
X449266Y493794D01*
X449106Y493679D01*
X448945Y493568D01*
X448780Y493461D01*
X448613Y493358D01*
X448443Y493259D01*
X448271Y493165D01*
X448097Y493074D01*
X447920Y492988D01*
X447742Y492906D01*
X447561Y492829D01*
X447379Y492756D01*
X447195Y492688D01*
X447009Y492624D01*
X446822Y492564D01*
X446634Y492510D01*
X446444Y492460D01*
X446253Y492414D01*
X446061Y492374D01*
X445868Y492338D01*
X445674Y492307D01*
X445479Y492280D01*
X445284Y492259D01*
X445089Y492242D01*
X444893Y492230D01*
X444696Y492222D01*
X444500Y492220D01*
X444304Y492222D01*
X444107Y492230D01*
X443911Y492242D01*
X443716Y492259D01*
X443521Y492280D01*
X443326Y492307D01*
X443132Y492338D01*
X442939Y492374D01*
X442747Y492414D01*
X442556Y492460D01*
X442366Y492510D01*
X442178Y492564D01*
X441991Y492624D01*
X441805Y492688D01*
X441621Y492756D01*
X441439Y492829D01*
X441258Y492906D01*
X441080Y492988D01*
X440903Y493074D01*
X440729Y493165D01*
X440557Y493259D01*
X440387Y493358D01*
X440220Y493461D01*
X440055Y493568D01*
X439894Y493679D01*
X439734Y493794D01*
X439578Y493913D01*
X439425Y494036D01*
X439275Y494162D01*
X439128Y494292D01*
X438984Y494426D01*
X438843Y494563D01*
X438706Y494704D01*
X438572Y494848D01*
X438442Y494995D01*
X438316Y495145D01*
X438193Y495298D01*
X438074Y495454D01*
X437959Y495614D01*
X437848Y495775D01*
X437741Y495940D01*
X437638Y496107D01*
X437539Y496277D01*
X437445Y496449D01*
X437354Y496623D01*
X437268Y496800D01*
X437186Y496978D01*
X437109Y497159D01*
X437036Y497341D01*
X436968Y497525D01*
X436904Y497711D01*
X436844Y497898D01*
X436790Y498086D01*
X436740Y498276D01*
X436694Y498467D01*
X436654Y498659D01*
X436618Y498852D01*
X436587Y499046D01*
X436560Y499241D01*
X436539Y499436D01*
X436522Y499631D01*
X436510Y499827D01*
X436502Y500024D01*
X436500Y500220D01*
X436500Y474820D02*
X436502Y475016D01*
X436510Y475213D01*
X436522Y475409D01*
X436539Y475604D01*
X436560Y475799D01*
X436587Y475994D01*
X436618Y476188D01*
X436654Y476381D01*
X436694Y476573D01*
X436740Y476764D01*
X436790Y476954D01*
X436844Y477142D01*
X436904Y477329D01*
X436968Y477515D01*
X437036Y477699D01*
X437109Y477881D01*
X437186Y478062D01*
X437268Y478240D01*
X437354Y478417D01*
X437445Y478591D01*
X437539Y478763D01*
X437638Y478933D01*
X437741Y479100D01*
X437848Y479265D01*
X437959Y479426D01*
X438074Y479586D01*
X438193Y479742D01*
X438316Y479895D01*
X438442Y480045D01*
X438572Y480192D01*
X438706Y480336D01*
X438843Y480477D01*
X438984Y480614D01*
X439128Y480748D01*
X439275Y480878D01*
X439425Y481004D01*
X439578Y481127D01*
X439734Y481246D01*
X439894Y481361D01*
X440055Y481472D01*
X440220Y481579D01*
X440387Y481682D01*
X440557Y481781D01*
X440729Y481875D01*
X440903Y481966D01*
X441080Y482052D01*
X441258Y482134D01*
X441439Y482211D01*
X441621Y482284D01*
X441805Y482352D01*
X441991Y482416D01*
X442178Y482476D01*
X442366Y482530D01*
X442556Y482580D01*
X442747Y482626D01*
X442939Y482666D01*
X443132Y482702D01*
X443326Y482733D01*
X443521Y482760D01*
X443716Y482781D01*
X443911Y482798D01*
X444107Y482810D01*
X444304Y482818D01*
X444500Y482820D01*
X444696Y482818D01*
X444893Y482810D01*
X445089Y482798D01*
X445284Y482781D01*
X445479Y482760D01*
X445674Y482733D01*
X445868Y482702D01*
X446061Y482666D01*
X446253Y482626D01*
X446444Y482580D01*
X446634Y482530D01*
X446822Y482476D01*
X447009Y482416D01*
X447195Y482352D01*
X447379Y482284D01*
X447561Y482211D01*
X447742Y482134D01*
X447920Y482052D01*
X448097Y481966D01*
X448271Y481875D01*
X448443Y481781D01*
X448613Y481682D01*
X448780Y481579D01*
X448945Y481472D01*
X449106Y481361D01*
X449266Y481246D01*
X449422Y481127D01*
X449575Y481004D01*
X449725Y480878D01*
X449872Y480748D01*
X450016Y480614D01*
X450157Y480477D01*
X450294Y480336D01*
X450428Y480192D01*
X450558Y480045D01*
X450684Y479895D01*
X450807Y479742D01*
X450926Y479586D01*
X451041Y479426D01*
X451152Y479265D01*
X451259Y479100D01*
X451362Y478933D01*
X451461Y478763D01*
X451555Y478591D01*
X451646Y478417D01*
X451732Y478240D01*
X451814Y478062D01*
X451891Y477881D01*
X451964Y477699D01*
X452032Y477515D01*
X452096Y477329D01*
X452156Y477142D01*
X452210Y476954D01*
X452260Y476764D01*
X452306Y476573D01*
X452346Y476381D01*
X452382Y476188D01*
X452413Y475994D01*
X452440Y475799D01*
X452461Y475604D01*
X452478Y475409D01*
X452490Y475213D01*
X452498Y475016D01*
X452500Y474820D01*
X452498Y474624D01*
X452490Y474427D01*
X452478Y474231D01*
X452461Y474036D01*
X452440Y473841D01*
X452413Y473646D01*
X452382Y473452D01*
X452346Y473259D01*
X452306Y473067D01*
X452260Y472876D01*
X452210Y472686D01*
X452156Y472498D01*
X452096Y472311D01*
X452032Y472125D01*
X451964Y471941D01*
X451891Y471759D01*
X451814Y471578D01*
X451732Y471400D01*
X451646Y471223D01*
X451555Y471049D01*
X451461Y470877D01*
X451362Y470707D01*
X451259Y470540D01*
X451152Y470375D01*
X451041Y470214D01*
X450926Y470054D01*
X450807Y469898D01*
X450684Y469745D01*
X450558Y469595D01*
X450428Y469448D01*
X450294Y469304D01*
X450157Y469163D01*
X450016Y469026D01*
X449872Y468892D01*
X449725Y468762D01*
X449575Y468636D01*
X449422Y468513D01*
X449266Y468394D01*
X449106Y468279D01*
X448945Y468168D01*
X448780Y468061D01*
X448613Y467958D01*
X448443Y467859D01*
X448271Y467765D01*
X448097Y467674D01*
X447920Y467588D01*
X447742Y467506D01*
X447561Y467429D01*
X447379Y467356D01*
X447195Y467288D01*
X447009Y467224D01*
X446822Y467164D01*
X446634Y467110D01*
X446444Y467060D01*
X446253Y467014D01*
X446061Y466974D01*
X445868Y466938D01*
X445674Y466907D01*
X445479Y466880D01*
X445284Y466859D01*
X445089Y466842D01*
X444893Y466830D01*
X444696Y466822D01*
X444500Y466820D01*
X444304Y466822D01*
X444107Y466830D01*
X443911Y466842D01*
X443716Y466859D01*
X443521Y466880D01*
X443326Y466907D01*
X443132Y466938D01*
X442939Y466974D01*
X442747Y467014D01*
X442556Y467060D01*
X442366Y467110D01*
X442178Y467164D01*
X441991Y467224D01*
X441805Y467288D01*
X441621Y467356D01*
X441439Y467429D01*
X441258Y467506D01*
X441080Y467588D01*
X440903Y467674D01*
X440729Y467765D01*
X440557Y467859D01*
X440387Y467958D01*
X440220Y468061D01*
X440055Y468168D01*
X439894Y468279D01*
X439734Y468394D01*
X439578Y468513D01*
X439425Y468636D01*
X439275Y468762D01*
X439128Y468892D01*
X438984Y469026D01*
X438843Y469163D01*
X438706Y469304D01*
X438572Y469448D01*
X438442Y469595D01*
X438316Y469745D01*
X438193Y469898D01*
X438074Y470054D01*
X437959Y470214D01*
X437848Y470375D01*
X437741Y470540D01*
X437638Y470707D01*
X437539Y470877D01*
X437445Y471049D01*
X437354Y471223D01*
X437268Y471400D01*
X437186Y471578D01*
X437109Y471759D01*
X437036Y471941D01*
X436968Y472125D01*
X436904Y472311D01*
X436844Y472498D01*
X436790Y472686D01*
X436740Y472876D01*
X436694Y473067D01*
X436654Y473259D01*
X436618Y473452D01*
X436587Y473646D01*
X436560Y473841D01*
X436539Y474036D01*
X436522Y474231D01*
X436510Y474427D01*
X436502Y474624D01*
X436500Y474820D01*
D13*
X118703Y512412D02*
X114808Y500728D01*
X122597Y500728D02*
X118703Y512412D01*
X121624Y503649D02*
X115782Y503649D01*
X127342Y500728D02*
X127342Y512412D01*
X130587Y512412D01*
X130700Y512410D01*
X130813Y512404D01*
X130926Y512394D01*
X131039Y512380D01*
X131151Y512363D01*
X131262Y512341D01*
X131372Y512316D01*
X131482Y512286D01*
X131590Y512253D01*
X131697Y512216D01*
X131803Y512176D01*
X131907Y512131D01*
X132010Y512083D01*
X132111Y512032D01*
X132210Y511977D01*
X132307Y511919D01*
X132402Y511857D01*
X132495Y511792D01*
X132585Y511724D01*
X132673Y511653D01*
X132759Y511578D01*
X132842Y511501D01*
X132922Y511421D01*
X132999Y511338D01*
X133074Y511252D01*
X133145Y511164D01*
X133213Y511074D01*
X133278Y510981D01*
X133340Y510886D01*
X133398Y510789D01*
X133453Y510690D01*
X133504Y510589D01*
X133552Y510486D01*
X133597Y510382D01*
X133637Y510276D01*
X133674Y510169D01*
X133707Y510061D01*
X133737Y509951D01*
X133762Y509841D01*
X133784Y509730D01*
X133801Y509618D01*
X133815Y509505D01*
X133825Y509392D01*
X133831Y509279D01*
X133833Y509166D01*
X133831Y509053D01*
X133825Y508940D01*
X133815Y508827D01*
X133801Y508714D01*
X133784Y508602D01*
X133762Y508491D01*
X133737Y508381D01*
X133707Y508271D01*
X133674Y508163D01*
X133637Y508056D01*
X133597Y507950D01*
X133552Y507846D01*
X133504Y507743D01*
X133453Y507642D01*
X133398Y507543D01*
X133340Y507446D01*
X133278Y507351D01*
X133213Y507258D01*
X133145Y507168D01*
X133074Y507080D01*
X132999Y506994D01*
X132922Y506911D01*
X132842Y506831D01*
X132759Y506754D01*
X132673Y506679D01*
X132585Y506608D01*
X132495Y506540D01*
X132402Y506475D01*
X132307Y506413D01*
X132210Y506355D01*
X132111Y506300D01*
X132010Y506249D01*
X131907Y506201D01*
X131803Y506156D01*
X131697Y506116D01*
X131590Y506079D01*
X131482Y506046D01*
X131372Y506016D01*
X131262Y505991D01*
X131151Y505969D01*
X131039Y505952D01*
X130926Y505938D01*
X130813Y505928D01*
X130700Y505922D01*
X130587Y505920D01*
X130587Y505921D02*
X127342Y505921D01*
X131236Y505921D02*
X133833Y500728D01*
X139079Y500728D02*
X139079Y512412D01*
X142325Y512412D01*
X142438Y512410D01*
X142551Y512404D01*
X142664Y512394D01*
X142777Y512380D01*
X142889Y512363D01*
X143000Y512341D01*
X143110Y512316D01*
X143220Y512286D01*
X143328Y512253D01*
X143435Y512216D01*
X143541Y512176D01*
X143645Y512131D01*
X143748Y512083D01*
X143849Y512032D01*
X143948Y511977D01*
X144045Y511919D01*
X144140Y511857D01*
X144233Y511792D01*
X144323Y511724D01*
X144411Y511653D01*
X144497Y511578D01*
X144580Y511501D01*
X144660Y511421D01*
X144737Y511338D01*
X144812Y511252D01*
X144883Y511164D01*
X144951Y511074D01*
X145016Y510981D01*
X145078Y510886D01*
X145136Y510789D01*
X145191Y510690D01*
X145242Y510589D01*
X145290Y510486D01*
X145335Y510382D01*
X145375Y510276D01*
X145412Y510169D01*
X145445Y510061D01*
X145475Y509951D01*
X145500Y509841D01*
X145522Y509730D01*
X145539Y509618D01*
X145553Y509505D01*
X145563Y509392D01*
X145569Y509279D01*
X145571Y509166D01*
X145570Y509166D02*
X145570Y503974D01*
X145571Y503974D02*
X145569Y503861D01*
X145563Y503748D01*
X145553Y503635D01*
X145539Y503522D01*
X145522Y503410D01*
X145500Y503299D01*
X145475Y503189D01*
X145445Y503079D01*
X145412Y502971D01*
X145375Y502864D01*
X145335Y502758D01*
X145290Y502654D01*
X145242Y502551D01*
X145191Y502450D01*
X145136Y502351D01*
X145078Y502254D01*
X145016Y502159D01*
X144951Y502066D01*
X144883Y501976D01*
X144812Y501888D01*
X144737Y501802D01*
X144660Y501719D01*
X144580Y501639D01*
X144497Y501562D01*
X144411Y501487D01*
X144323Y501416D01*
X144233Y501348D01*
X144140Y501283D01*
X144045Y501221D01*
X143948Y501163D01*
X143849Y501108D01*
X143748Y501057D01*
X143645Y501009D01*
X143541Y500964D01*
X143435Y500924D01*
X143328Y500887D01*
X143220Y500854D01*
X143110Y500824D01*
X143000Y500799D01*
X142889Y500777D01*
X142777Y500760D01*
X142664Y500746D01*
X142551Y500736D01*
X142438Y500730D01*
X142325Y500728D01*
X139079Y500728D01*
X151271Y503974D02*
X151271Y512412D01*
X151271Y503974D02*
X151273Y503861D01*
X151279Y503748D01*
X151289Y503635D01*
X151303Y503522D01*
X151320Y503410D01*
X151342Y503299D01*
X151367Y503189D01*
X151397Y503079D01*
X151430Y502971D01*
X151467Y502864D01*
X151507Y502758D01*
X151552Y502654D01*
X151600Y502551D01*
X151651Y502450D01*
X151706Y502351D01*
X151764Y502254D01*
X151826Y502159D01*
X151891Y502066D01*
X151959Y501976D01*
X152030Y501888D01*
X152105Y501802D01*
X152182Y501719D01*
X152262Y501639D01*
X152345Y501562D01*
X152431Y501487D01*
X152519Y501416D01*
X152609Y501348D01*
X152702Y501283D01*
X152797Y501221D01*
X152894Y501163D01*
X152993Y501108D01*
X153094Y501057D01*
X153197Y501009D01*
X153301Y500964D01*
X153407Y500924D01*
X153514Y500887D01*
X153622Y500854D01*
X153732Y500824D01*
X153842Y500799D01*
X153953Y500777D01*
X154065Y500760D01*
X154178Y500746D01*
X154291Y500736D01*
X154404Y500730D01*
X154517Y500728D01*
X154630Y500730D01*
X154743Y500736D01*
X154856Y500746D01*
X154969Y500760D01*
X155081Y500777D01*
X155192Y500799D01*
X155302Y500824D01*
X155412Y500854D01*
X155520Y500887D01*
X155627Y500924D01*
X155733Y500964D01*
X155837Y501009D01*
X155940Y501057D01*
X156041Y501108D01*
X156140Y501163D01*
X156237Y501221D01*
X156332Y501283D01*
X156425Y501348D01*
X156515Y501416D01*
X156603Y501487D01*
X156689Y501562D01*
X156772Y501639D01*
X156852Y501719D01*
X156929Y501802D01*
X157004Y501888D01*
X157075Y501976D01*
X157143Y502066D01*
X157208Y502159D01*
X157270Y502254D01*
X157328Y502351D01*
X157383Y502450D01*
X157434Y502551D01*
X157482Y502654D01*
X157527Y502758D01*
X157567Y502864D01*
X157604Y502971D01*
X157637Y503079D01*
X157667Y503189D01*
X157692Y503299D01*
X157714Y503410D01*
X157731Y503522D01*
X157745Y503635D01*
X157755Y503748D01*
X157761Y503861D01*
X157763Y503974D01*
X157762Y503974D02*
X157762Y512412D01*
X164042Y512412D02*
X164042Y500728D01*
X165340Y500728D02*
X162743Y500728D01*
X162743Y512412D02*
X165340Y512412D01*
X170321Y512412D02*
X170321Y500728D01*
X176812Y500728D02*
X170321Y512412D01*
X176812Y512412D02*
X176812Y500728D01*
X182132Y503974D02*
X182132Y509166D01*
X182134Y509279D01*
X182140Y509392D01*
X182150Y509505D01*
X182164Y509618D01*
X182181Y509730D01*
X182203Y509841D01*
X182228Y509951D01*
X182258Y510061D01*
X182291Y510169D01*
X182328Y510276D01*
X182368Y510382D01*
X182413Y510486D01*
X182461Y510589D01*
X182512Y510690D01*
X182567Y510789D01*
X182625Y510886D01*
X182687Y510981D01*
X182752Y511074D01*
X182820Y511164D01*
X182891Y511252D01*
X182966Y511338D01*
X183043Y511421D01*
X183123Y511501D01*
X183206Y511578D01*
X183292Y511653D01*
X183380Y511724D01*
X183470Y511792D01*
X183563Y511857D01*
X183658Y511919D01*
X183755Y511977D01*
X183854Y512032D01*
X183955Y512083D01*
X184058Y512131D01*
X184162Y512176D01*
X184268Y512216D01*
X184375Y512253D01*
X184483Y512286D01*
X184593Y512316D01*
X184703Y512341D01*
X184814Y512363D01*
X184926Y512380D01*
X185039Y512394D01*
X185152Y512404D01*
X185265Y512410D01*
X185378Y512412D01*
X185491Y512410D01*
X185604Y512404D01*
X185717Y512394D01*
X185830Y512380D01*
X185942Y512363D01*
X186053Y512341D01*
X186163Y512316D01*
X186273Y512286D01*
X186381Y512253D01*
X186488Y512216D01*
X186594Y512176D01*
X186698Y512131D01*
X186801Y512083D01*
X186902Y512032D01*
X187001Y511977D01*
X187098Y511919D01*
X187193Y511857D01*
X187286Y511792D01*
X187376Y511724D01*
X187464Y511653D01*
X187550Y511578D01*
X187633Y511501D01*
X187713Y511421D01*
X187790Y511338D01*
X187865Y511252D01*
X187936Y511164D01*
X188004Y511074D01*
X188069Y510981D01*
X188131Y510886D01*
X188189Y510789D01*
X188244Y510690D01*
X188295Y510589D01*
X188343Y510486D01*
X188388Y510382D01*
X188428Y510276D01*
X188465Y510169D01*
X188498Y510061D01*
X188528Y509951D01*
X188553Y509841D01*
X188575Y509730D01*
X188592Y509618D01*
X188606Y509505D01*
X188616Y509392D01*
X188622Y509279D01*
X188624Y509166D01*
X188623Y509166D02*
X188623Y503974D01*
X188624Y503974D02*
X188622Y503861D01*
X188616Y503748D01*
X188606Y503635D01*
X188592Y503522D01*
X188575Y503410D01*
X188553Y503299D01*
X188528Y503189D01*
X188498Y503079D01*
X188465Y502971D01*
X188428Y502864D01*
X188388Y502758D01*
X188343Y502654D01*
X188295Y502551D01*
X188244Y502450D01*
X188189Y502351D01*
X188131Y502254D01*
X188069Y502159D01*
X188004Y502066D01*
X187936Y501976D01*
X187865Y501888D01*
X187790Y501802D01*
X187713Y501719D01*
X187633Y501639D01*
X187550Y501562D01*
X187464Y501487D01*
X187376Y501416D01*
X187286Y501348D01*
X187193Y501283D01*
X187098Y501221D01*
X187001Y501163D01*
X186902Y501108D01*
X186801Y501057D01*
X186698Y501009D01*
X186594Y500964D01*
X186488Y500924D01*
X186381Y500887D01*
X186273Y500854D01*
X186163Y500824D01*
X186053Y500799D01*
X185942Y500777D01*
X185830Y500760D01*
X185717Y500746D01*
X185604Y500736D01*
X185491Y500730D01*
X185378Y500728D01*
X185265Y500730D01*
X185152Y500736D01*
X185039Y500746D01*
X184926Y500760D01*
X184814Y500777D01*
X184703Y500799D01*
X184593Y500824D01*
X184483Y500854D01*
X184375Y500887D01*
X184268Y500924D01*
X184162Y500964D01*
X184058Y501009D01*
X183955Y501057D01*
X183854Y501108D01*
X183755Y501163D01*
X183658Y501221D01*
X183563Y501283D01*
X183470Y501348D01*
X183380Y501416D01*
X183292Y501487D01*
X183206Y501562D01*
X183123Y501639D01*
X183043Y501719D01*
X182966Y501802D01*
X182891Y501888D01*
X182820Y501976D01*
X182752Y502066D01*
X182687Y502159D01*
X182625Y502254D01*
X182567Y502351D01*
X182512Y502450D01*
X182461Y502551D01*
X182413Y502654D01*
X182368Y502758D01*
X182328Y502864D01*
X182291Y502971D01*
X182258Y503079D01*
X182228Y503189D01*
X182203Y503299D01*
X182181Y503410D01*
X182164Y503522D01*
X182150Y503635D01*
X182140Y503748D01*
X182134Y503861D01*
X182132Y503974D01*
X193068Y499430D02*
X198261Y499430D01*
X203087Y500728D02*
X203087Y512412D01*
X209578Y500728D01*
X209578Y512412D01*
X218143Y512412D02*
X214249Y500728D01*
X222038Y500728D02*
X218143Y512412D01*
X221064Y503649D02*
X215222Y503649D01*
X226709Y500728D02*
X226709Y512412D01*
X233200Y500728D01*
X233200Y512412D01*
X238520Y509166D02*
X238520Y503974D01*
X238519Y509166D02*
X238521Y509279D01*
X238527Y509392D01*
X238537Y509505D01*
X238551Y509618D01*
X238568Y509730D01*
X238590Y509841D01*
X238615Y509951D01*
X238645Y510061D01*
X238678Y510169D01*
X238715Y510276D01*
X238755Y510382D01*
X238800Y510486D01*
X238848Y510589D01*
X238899Y510690D01*
X238954Y510789D01*
X239012Y510886D01*
X239074Y510981D01*
X239139Y511074D01*
X239207Y511164D01*
X239278Y511252D01*
X239353Y511338D01*
X239430Y511421D01*
X239510Y511501D01*
X239593Y511578D01*
X239679Y511653D01*
X239767Y511724D01*
X239857Y511792D01*
X239950Y511857D01*
X240045Y511919D01*
X240142Y511977D01*
X240241Y512032D01*
X240342Y512083D01*
X240445Y512131D01*
X240549Y512176D01*
X240655Y512216D01*
X240762Y512253D01*
X240870Y512286D01*
X240980Y512316D01*
X241090Y512341D01*
X241201Y512363D01*
X241313Y512380D01*
X241426Y512394D01*
X241539Y512404D01*
X241652Y512410D01*
X241765Y512412D01*
X241878Y512410D01*
X241991Y512404D01*
X242104Y512394D01*
X242217Y512380D01*
X242329Y512363D01*
X242440Y512341D01*
X242550Y512316D01*
X242660Y512286D01*
X242768Y512253D01*
X242875Y512216D01*
X242981Y512176D01*
X243085Y512131D01*
X243188Y512083D01*
X243289Y512032D01*
X243388Y511977D01*
X243485Y511919D01*
X243580Y511857D01*
X243673Y511792D01*
X243763Y511724D01*
X243851Y511653D01*
X243937Y511578D01*
X244020Y511501D01*
X244100Y511421D01*
X244177Y511338D01*
X244252Y511252D01*
X244323Y511164D01*
X244391Y511074D01*
X244456Y510981D01*
X244518Y510886D01*
X244576Y510789D01*
X244631Y510690D01*
X244682Y510589D01*
X244730Y510486D01*
X244775Y510382D01*
X244815Y510276D01*
X244852Y510169D01*
X244885Y510061D01*
X244915Y509951D01*
X244940Y509841D01*
X244962Y509730D01*
X244979Y509618D01*
X244993Y509505D01*
X245003Y509392D01*
X245009Y509279D01*
X245011Y509166D01*
X245011Y503974D01*
X245009Y503861D01*
X245003Y503748D01*
X244993Y503635D01*
X244979Y503522D01*
X244962Y503410D01*
X244940Y503299D01*
X244915Y503189D01*
X244885Y503079D01*
X244852Y502971D01*
X244815Y502864D01*
X244775Y502758D01*
X244730Y502654D01*
X244682Y502551D01*
X244631Y502450D01*
X244576Y502351D01*
X244518Y502254D01*
X244456Y502159D01*
X244391Y502066D01*
X244323Y501976D01*
X244252Y501888D01*
X244177Y501802D01*
X244100Y501719D01*
X244020Y501639D01*
X243937Y501562D01*
X243851Y501487D01*
X243763Y501416D01*
X243673Y501348D01*
X243580Y501283D01*
X243485Y501221D01*
X243388Y501163D01*
X243289Y501108D01*
X243188Y501057D01*
X243085Y501009D01*
X242981Y500964D01*
X242875Y500924D01*
X242768Y500887D01*
X242660Y500854D01*
X242550Y500824D01*
X242440Y500799D01*
X242329Y500777D01*
X242217Y500760D01*
X242104Y500746D01*
X241991Y500736D01*
X241878Y500730D01*
X241765Y500728D01*
X241652Y500730D01*
X241539Y500736D01*
X241426Y500746D01*
X241313Y500760D01*
X241201Y500777D01*
X241090Y500799D01*
X240980Y500824D01*
X240870Y500854D01*
X240762Y500887D01*
X240655Y500924D01*
X240549Y500964D01*
X240445Y501009D01*
X240342Y501057D01*
X240241Y501108D01*
X240142Y501163D01*
X240045Y501221D01*
X239950Y501283D01*
X239857Y501348D01*
X239767Y501416D01*
X239679Y501487D01*
X239593Y501562D01*
X239510Y501639D01*
X239430Y501719D01*
X239353Y501802D01*
X239278Y501888D01*
X239207Y501976D01*
X239139Y502066D01*
X239074Y502159D01*
X239012Y502254D01*
X238954Y502351D01*
X238899Y502450D01*
X238848Y502551D01*
X238800Y502654D01*
X238755Y502758D01*
X238715Y502864D01*
X238678Y502971D01*
X238645Y503079D01*
X238615Y503189D01*
X238590Y503299D01*
X238568Y503410D01*
X238551Y503522D01*
X238537Y503635D01*
X238527Y503748D01*
X238521Y503861D01*
X238519Y503974D01*
X249950Y509816D02*
X253195Y512412D01*
X253195Y500728D01*
X249950Y500728D02*
X256441Y500728D01*
D14*
X523580Y414700D02*
X523580Y376600D01*
D15*
X524054Y375984D01*
X524543Y375379D01*
X525047Y374787D01*
X525565Y374207D01*
X526097Y373640D01*
X526643Y373086D01*
X527202Y372546D01*
X527775Y372020D01*
X528360Y371507D01*
X528957Y371010D01*
X529566Y370527D01*
X530187Y370059D01*
X530820Y369606D01*
X531463Y369169D01*
X532117Y368748D01*
X532781Y368344D01*
X533454Y367955D01*
X534137Y367583D01*
X534829Y367228D01*
X535529Y366890D01*
X536237Y366569D01*
X536953Y366266D01*
X537677Y365980D01*
X538406Y365712D01*
X539143Y365462D01*
X539885Y365231D01*
X540633Y365017D01*
X541385Y364822D01*
X542143Y364645D01*
X542904Y364487D01*
X543669Y364347D01*
X544437Y364227D01*
X545208Y364125D01*
X545981Y364042D01*
X546756Y363978D01*
X547532Y363933D01*
X548309Y363907D01*
X549087Y363900D01*
X549864Y363912D01*
X550641Y363943D01*
X551417Y363994D01*
X552192Y364063D01*
X552964Y364151D01*
X553734Y364258D01*
X554502Y364384D01*
X555266Y364528D01*
X556026Y364692D01*
X556782Y364874D01*
X557533Y365074D01*
X558280Y365292D01*
X559020Y365529D01*
X559755Y365784D01*
X560483Y366057D01*
X561204Y366348D01*
X561918Y366656D01*
X562624Y366981D01*
X563322Y367324D01*
X564012Y367684D01*
X564692Y368060D01*
X565363Y368453D01*
X566024Y368863D01*
X566675Y369288D01*
X567315Y369729D01*
X567944Y370186D01*
X568562Y370658D01*
X569168Y371145D01*
X569762Y371647D01*
X570344Y372163D01*
X570913Y372693D01*
X571468Y373237D01*
X572011Y373795D01*
X572539Y374365D01*
X573053Y374948D01*
X573553Y375544D01*
X574038Y376152D01*
X574508Y376771D01*
X574962Y377402D01*
X575401Y378044D01*
X575825Y378696D01*
X576232Y379359D01*
X576623Y380031D01*
X576997Y380713D01*
X577354Y381403D01*
X577694Y382102D01*
X578018Y382810D01*
X578323Y383524D01*
X578612Y384247D01*
X578882Y384976D01*
X579134Y385711D01*
X579369Y386453D01*
X579585Y387200D01*
X579783Y387952D01*
X579962Y388708D01*
X580123Y389469D01*
X580265Y390233D01*
X580388Y391001D01*
X580492Y391772D01*
X580578Y392545D01*
X580644Y393319D01*
X580692Y394095D01*
X580720Y394872D01*
X580730Y395650D01*
X580720Y396428D01*
X580692Y397205D01*
X580644Y397981D01*
X580578Y398755D01*
X580492Y399528D01*
X580388Y400299D01*
X580265Y401067D01*
X580123Y401831D01*
X579962Y402592D01*
X579783Y403348D01*
X579585Y404100D01*
X579369Y404847D01*
X579134Y405589D01*
X578882Y406324D01*
X578612Y407053D01*
X578323Y407776D01*
X578018Y408490D01*
X577694Y409198D01*
X577354Y409897D01*
X576997Y410587D01*
X576623Y411269D01*
X576232Y411941D01*
X575825Y412604D01*
X575401Y413256D01*
X574962Y413898D01*
X574508Y414529D01*
X574038Y415148D01*
X573553Y415756D01*
X573053Y416352D01*
X572539Y416935D01*
X572011Y417505D01*
X571468Y418063D01*
X570913Y418607D01*
X570344Y419137D01*
X569762Y419653D01*
X569168Y420155D01*
X568562Y420642D01*
X567944Y421114D01*
X567315Y421571D01*
X566675Y422012D01*
X566024Y422437D01*
X565363Y422847D01*
X564692Y423240D01*
X564012Y423616D01*
X563322Y423976D01*
X562624Y424319D01*
X561918Y424644D01*
X561204Y424952D01*
X560483Y425243D01*
X559755Y425516D01*
X559020Y425771D01*
X558280Y426008D01*
X557533Y426226D01*
X556782Y426426D01*
X556026Y426608D01*
X555266Y426772D01*
X554502Y426916D01*
X553734Y427042D01*
X552964Y427149D01*
X552192Y427237D01*
X551417Y427306D01*
X550641Y427357D01*
X549864Y427388D01*
X549087Y427400D01*
X548309Y427393D01*
X547532Y427367D01*
X546756Y427322D01*
X545981Y427258D01*
X545208Y427175D01*
X544437Y427073D01*
X543669Y426953D01*
X542904Y426813D01*
X542143Y426655D01*
X541385Y426478D01*
X540633Y426283D01*
X539885Y426069D01*
X539143Y425838D01*
X538406Y425588D01*
X537677Y425320D01*
X536953Y425034D01*
X536237Y424731D01*
X535529Y424410D01*
X534829Y424072D01*
X534137Y423717D01*
X533454Y423345D01*
X532781Y422956D01*
X532117Y422552D01*
X531463Y422131D01*
X530820Y421694D01*
X530187Y421241D01*
X529566Y420773D01*
X528957Y420290D01*
X528360Y419793D01*
X527775Y419280D01*
X527202Y418754D01*
X526643Y418214D01*
X526097Y417660D01*
X525565Y417093D01*
X525047Y416513D01*
X524543Y415921D01*
X524054Y415316D01*
X523580Y414700D01*
D16*
X523580Y395650D02*
X523588Y396273D01*
X523611Y396896D01*
X523649Y397519D01*
X523702Y398140D01*
X523771Y398759D01*
X523855Y399377D01*
X523954Y399992D01*
X524068Y400605D01*
X524197Y401215D01*
X524341Y401822D01*
X524500Y402425D01*
X524674Y403023D01*
X524862Y403618D01*
X525065Y404207D01*
X525282Y404791D01*
X525513Y405370D01*
X525759Y405943D01*
X526019Y406510D01*
X526292Y407070D01*
X526579Y407623D01*
X526880Y408170D01*
X527194Y408708D01*
X527521Y409239D01*
X527861Y409761D01*
X528213Y410276D01*
X528579Y410781D01*
X528956Y411277D01*
X529346Y411764D01*
X529747Y412241D01*
X530160Y412708D01*
X530584Y413164D01*
X531019Y413611D01*
X531466Y414046D01*
X531922Y414470D01*
X532389Y414883D01*
X532866Y415284D01*
X533353Y415674D01*
X533849Y416051D01*
X534354Y416417D01*
X534869Y416769D01*
X535391Y417109D01*
X535922Y417436D01*
X536460Y417750D01*
X537007Y418051D01*
X537560Y418338D01*
X538120Y418611D01*
X538687Y418871D01*
X539260Y419117D01*
X539839Y419348D01*
X540423Y419565D01*
X541012Y419768D01*
X541607Y419956D01*
X542205Y420130D01*
X542808Y420289D01*
X543415Y420433D01*
X544025Y420562D01*
X544638Y420676D01*
X545253Y420775D01*
X545871Y420859D01*
X546490Y420928D01*
X547111Y420981D01*
X547734Y421019D01*
X548357Y421042D01*
X548980Y421050D01*
X549603Y421042D01*
X550226Y421019D01*
X550849Y420981D01*
X551470Y420928D01*
X552089Y420859D01*
X552707Y420775D01*
X553322Y420676D01*
X553935Y420562D01*
X554545Y420433D01*
X555152Y420289D01*
X555755Y420130D01*
X556353Y419956D01*
X556948Y419768D01*
X557537Y419565D01*
X558121Y419348D01*
X558700Y419117D01*
X559273Y418871D01*
X559840Y418611D01*
X560400Y418338D01*
X560953Y418051D01*
X561500Y417750D01*
X562038Y417436D01*
X562569Y417109D01*
X563091Y416769D01*
X563606Y416417D01*
X564111Y416051D01*
X564607Y415674D01*
X565094Y415284D01*
X565571Y414883D01*
X566038Y414470D01*
X566494Y414046D01*
X566941Y413611D01*
X567376Y413164D01*
X567800Y412708D01*
X568213Y412241D01*
X568614Y411764D01*
X569004Y411277D01*
X569381Y410781D01*
X569747Y410276D01*
X570099Y409761D01*
X570439Y409239D01*
X570766Y408708D01*
X571080Y408170D01*
X571381Y407623D01*
X571668Y407070D01*
X571941Y406510D01*
X572201Y405943D01*
X572447Y405370D01*
X572678Y404791D01*
X572895Y404207D01*
X573098Y403618D01*
X573286Y403023D01*
X573460Y402425D01*
X573619Y401822D01*
X573763Y401215D01*
X573892Y400605D01*
X574006Y399992D01*
X574105Y399377D01*
X574189Y398759D01*
X574258Y398140D01*
X574311Y397519D01*
X574349Y396896D01*
X574372Y396273D01*
X574380Y395650D01*
X574372Y395027D01*
X574349Y394404D01*
X574311Y393781D01*
X574258Y393160D01*
X574189Y392541D01*
X574105Y391923D01*
X574006Y391308D01*
X573892Y390695D01*
X573763Y390085D01*
X573619Y389478D01*
X573460Y388875D01*
X573286Y388277D01*
X573098Y387682D01*
X572895Y387093D01*
X572678Y386509D01*
X572447Y385930D01*
X572201Y385357D01*
X571941Y384790D01*
X571668Y384230D01*
X571381Y383677D01*
X571080Y383130D01*
X570766Y382592D01*
X570439Y382061D01*
X570099Y381539D01*
X569747Y381024D01*
X569381Y380519D01*
X569004Y380023D01*
X568614Y379536D01*
X568213Y379059D01*
X567800Y378592D01*
X567376Y378136D01*
X566941Y377689D01*
X566494Y377254D01*
X566038Y376830D01*
X565571Y376417D01*
X565094Y376016D01*
X564607Y375626D01*
X564111Y375249D01*
X563606Y374883D01*
X563091Y374531D01*
X562569Y374191D01*
X562038Y373864D01*
X561500Y373550D01*
X560953Y373249D01*
X560400Y372962D01*
X559840Y372689D01*
X559273Y372429D01*
X558700Y372183D01*
X558121Y371952D01*
X557537Y371735D01*
X556948Y371532D01*
X556353Y371344D01*
X555755Y371170D01*
X555152Y371011D01*
X554545Y370867D01*
X553935Y370738D01*
X553322Y370624D01*
X552707Y370525D01*
X552089Y370441D01*
X551470Y370372D01*
X550849Y370319D01*
X550226Y370281D01*
X549603Y370258D01*
X548980Y370250D01*
X548357Y370258D01*
X547734Y370281D01*
X547111Y370319D01*
X546490Y370372D01*
X545871Y370441D01*
X545253Y370525D01*
X544638Y370624D01*
X544025Y370738D01*
X543415Y370867D01*
X542808Y371011D01*
X542205Y371170D01*
X541607Y371344D01*
X541012Y371532D01*
X540423Y371735D01*
X539839Y371952D01*
X539260Y372183D01*
X538687Y372429D01*
X538120Y372689D01*
X537560Y372962D01*
X537007Y373249D01*
X536460Y373550D01*
X535922Y373864D01*
X535391Y374191D01*
X534869Y374531D01*
X534354Y374883D01*
X533849Y375249D01*
X533353Y375626D01*
X532866Y376016D01*
X532389Y376417D01*
X531922Y376830D01*
X531466Y377254D01*
X531019Y377689D01*
X530584Y378136D01*
X530160Y378592D01*
X529747Y379059D01*
X529346Y379536D01*
X528956Y380023D01*
X528579Y380519D01*
X528213Y381024D01*
X527861Y381539D01*
X527521Y382061D01*
X527194Y382592D01*
X526880Y383130D01*
X526579Y383677D01*
X526292Y384230D01*
X526019Y384790D01*
X525759Y385357D01*
X525513Y385930D01*
X525282Y386509D01*
X525065Y387093D01*
X524862Y387682D01*
X524674Y388277D01*
X524500Y388875D01*
X524341Y389478D01*
X524197Y390085D01*
X524068Y390695D01*
X523954Y391308D01*
X523855Y391923D01*
X523771Y392541D01*
X523702Y393160D01*
X523649Y393781D01*
X523611Y394404D01*
X523588Y395027D01*
X523580Y395650D01*
D10*
X478647Y389681D02*
X478647Y378251D01*
X483727Y378251D01*
X488553Y378251D02*
X493633Y378251D01*
X488553Y378251D02*
X488553Y389681D01*
X493633Y389681D01*
X492363Y384601D02*
X488553Y384601D01*
X498434Y389681D02*
X498434Y378251D01*
X498434Y389681D02*
X501609Y389681D01*
X501720Y389679D01*
X501830Y389673D01*
X501941Y389664D01*
X502051Y389650D01*
X502160Y389633D01*
X502269Y389612D01*
X502377Y389587D01*
X502484Y389558D01*
X502590Y389526D01*
X502695Y389490D01*
X502798Y389450D01*
X502900Y389407D01*
X503001Y389360D01*
X503100Y389309D01*
X503197Y389256D01*
X503291Y389199D01*
X503384Y389138D01*
X503475Y389075D01*
X503564Y389008D01*
X503650Y388938D01*
X503733Y388865D01*
X503815Y388790D01*
X503893Y388712D01*
X503968Y388630D01*
X504041Y388547D01*
X504111Y388461D01*
X504178Y388372D01*
X504241Y388281D01*
X504302Y388188D01*
X504359Y388094D01*
X504412Y387997D01*
X504463Y387898D01*
X504510Y387797D01*
X504553Y387695D01*
X504593Y387592D01*
X504629Y387487D01*
X504661Y387381D01*
X504690Y387274D01*
X504715Y387166D01*
X504736Y387057D01*
X504753Y386948D01*
X504767Y386838D01*
X504776Y386727D01*
X504782Y386617D01*
X504784Y386506D01*
X504784Y381426D01*
X504782Y381315D01*
X504776Y381205D01*
X504767Y381094D01*
X504753Y380984D01*
X504736Y380875D01*
X504715Y380766D01*
X504690Y380658D01*
X504661Y380551D01*
X504629Y380445D01*
X504593Y380340D01*
X504553Y380237D01*
X504510Y380135D01*
X504463Y380034D01*
X504412Y379935D01*
X504359Y379838D01*
X504302Y379744D01*
X504241Y379651D01*
X504178Y379560D01*
X504111Y379471D01*
X504041Y379385D01*
X503968Y379302D01*
X503893Y379220D01*
X503815Y379142D01*
X503733Y379067D01*
X503650Y378994D01*
X503564Y378924D01*
X503475Y378857D01*
X503384Y378794D01*
X503291Y378733D01*
X503197Y378676D01*
X503100Y378623D01*
X503001Y378572D01*
X502900Y378525D01*
X502798Y378482D01*
X502695Y378442D01*
X502590Y378406D01*
X502484Y378374D01*
X502377Y378345D01*
X502269Y378320D01*
X502160Y378299D01*
X502051Y378282D01*
X501941Y378268D01*
X501830Y378259D01*
X501720Y378253D01*
X501609Y378251D01*
X498434Y378251D01*
X510245Y387141D02*
X513420Y389681D01*
X513420Y378251D01*
X510245Y378251D02*
X516595Y378251D01*
D16*
X547370Y269890D02*
X547372Y269790D01*
X547378Y269691D01*
X547388Y269591D01*
X547401Y269493D01*
X547419Y269394D01*
X547440Y269297D01*
X547465Y269201D01*
X547494Y269105D01*
X547527Y269011D01*
X547563Y268918D01*
X547603Y268827D01*
X547647Y268737D01*
X547694Y268649D01*
X547744Y268563D01*
X547798Y268479D01*
X547855Y268397D01*
X547915Y268318D01*
X547979Y268240D01*
X548045Y268166D01*
X548114Y268094D01*
X548186Y268025D01*
X548260Y267959D01*
X548338Y267895D01*
X548417Y267835D01*
X548499Y267778D01*
X548583Y267724D01*
X548669Y267674D01*
X548757Y267627D01*
X548847Y267583D01*
X548938Y267543D01*
X549031Y267507D01*
X549125Y267474D01*
X549221Y267445D01*
X549317Y267420D01*
X549414Y267399D01*
X549513Y267381D01*
X549611Y267368D01*
X549711Y267358D01*
X549810Y267352D01*
X549910Y267350D01*
X567690Y267350D02*
X567790Y267352D01*
X567889Y267358D01*
X567989Y267368D01*
X568087Y267381D01*
X568186Y267399D01*
X568283Y267420D01*
X568379Y267445D01*
X568475Y267474D01*
X568569Y267507D01*
X568662Y267543D01*
X568753Y267583D01*
X568843Y267627D01*
X568931Y267674D01*
X569017Y267724D01*
X569101Y267778D01*
X569183Y267835D01*
X569262Y267895D01*
X569340Y267959D01*
X569414Y268025D01*
X569486Y268094D01*
X569555Y268166D01*
X569621Y268240D01*
X569685Y268318D01*
X569745Y268397D01*
X569802Y268479D01*
X569856Y268563D01*
X569906Y268649D01*
X569953Y268737D01*
X569997Y268827D01*
X570037Y268918D01*
X570073Y269011D01*
X570106Y269105D01*
X570135Y269201D01*
X570160Y269297D01*
X570181Y269394D01*
X570199Y269493D01*
X570212Y269591D01*
X570222Y269691D01*
X570228Y269790D01*
X570230Y269890D01*
X570230Y328310D02*
X570228Y328410D01*
X570222Y328509D01*
X570212Y328609D01*
X570199Y328707D01*
X570181Y328806D01*
X570160Y328903D01*
X570135Y328999D01*
X570106Y329095D01*
X570073Y329189D01*
X570037Y329282D01*
X569997Y329373D01*
X569953Y329463D01*
X569906Y329551D01*
X569856Y329637D01*
X569802Y329721D01*
X569745Y329803D01*
X569685Y329882D01*
X569621Y329960D01*
X569555Y330034D01*
X569486Y330106D01*
X569414Y330175D01*
X569340Y330241D01*
X569262Y330305D01*
X569183Y330365D01*
X569101Y330422D01*
X569017Y330476D01*
X568931Y330526D01*
X568843Y330573D01*
X568753Y330617D01*
X568662Y330657D01*
X568569Y330693D01*
X568475Y330726D01*
X568379Y330755D01*
X568283Y330780D01*
X568186Y330801D01*
X568087Y330819D01*
X567989Y330832D01*
X567889Y330842D01*
X567790Y330848D01*
X567690Y330850D01*
X549910Y330850D02*
X549810Y330848D01*
X549711Y330842D01*
X549611Y330832D01*
X549513Y330819D01*
X549414Y330801D01*
X549317Y330780D01*
X549221Y330755D01*
X549125Y330726D01*
X549031Y330693D01*
X548938Y330657D01*
X548847Y330617D01*
X548757Y330573D01*
X548669Y330526D01*
X548583Y330476D01*
X548499Y330422D01*
X548417Y330365D01*
X548338Y330305D01*
X548260Y330241D01*
X548186Y330175D01*
X548114Y330106D01*
X548045Y330034D01*
X547979Y329960D01*
X547915Y329882D01*
X547855Y329803D01*
X547798Y329721D01*
X547744Y329637D01*
X547694Y329551D01*
X547647Y329463D01*
X547603Y329373D01*
X547563Y329282D01*
X547527Y329189D01*
X547494Y329095D01*
X547465Y328999D01*
X547440Y328903D01*
X547419Y328806D01*
X547401Y328707D01*
X547388Y328609D01*
X547378Y328509D01*
X547372Y328410D01*
X547370Y328310D01*
X549910Y267350D02*
X567690Y267350D01*
X547370Y269890D02*
X547370Y273700D01*
X548640Y274970D01*
X570230Y273700D02*
X570230Y269890D01*
X570230Y273700D02*
X568960Y274970D01*
X548640Y323230D02*
X547370Y324500D01*
X548640Y323230D02*
X548640Y274970D01*
X568960Y323230D02*
X570230Y324500D01*
X568960Y323230D02*
X568960Y274970D01*
X547370Y324500D02*
X547370Y328310D01*
X570230Y328310D02*
X570230Y324500D01*
X567690Y330850D02*
X549910Y330850D01*
D17*
X558800Y335168D03*
X558800Y263032D03*
D10*
X542925Y269255D02*
X531495Y269255D01*
X531495Y272430D01*
X531497Y272541D01*
X531503Y272651D01*
X531512Y272762D01*
X531526Y272872D01*
X531543Y272981D01*
X531564Y273090D01*
X531589Y273198D01*
X531618Y273305D01*
X531650Y273411D01*
X531686Y273516D01*
X531726Y273619D01*
X531769Y273721D01*
X531816Y273822D01*
X531867Y273921D01*
X531920Y274018D01*
X531977Y274112D01*
X532038Y274205D01*
X532101Y274296D01*
X532168Y274385D01*
X532238Y274471D01*
X532311Y274554D01*
X532386Y274636D01*
X532464Y274714D01*
X532546Y274789D01*
X532629Y274862D01*
X532715Y274932D01*
X532804Y274999D01*
X532895Y275062D01*
X532988Y275123D01*
X533083Y275180D01*
X533179Y275233D01*
X533278Y275284D01*
X533379Y275331D01*
X533481Y275374D01*
X533584Y275414D01*
X533689Y275450D01*
X533795Y275482D01*
X533902Y275511D01*
X534010Y275536D01*
X534119Y275557D01*
X534228Y275574D01*
X534338Y275588D01*
X534449Y275597D01*
X534559Y275603D01*
X534670Y275605D01*
X534781Y275603D01*
X534891Y275597D01*
X535002Y275588D01*
X535112Y275574D01*
X535221Y275557D01*
X535330Y275536D01*
X535438Y275511D01*
X535545Y275482D01*
X535651Y275450D01*
X535756Y275414D01*
X535859Y275374D01*
X535961Y275331D01*
X536062Y275284D01*
X536161Y275233D01*
X536258Y275180D01*
X536352Y275123D01*
X536445Y275062D01*
X536536Y274999D01*
X536625Y274932D01*
X536711Y274862D01*
X536794Y274789D01*
X536876Y274714D01*
X536954Y274636D01*
X537029Y274554D01*
X537102Y274471D01*
X537172Y274385D01*
X537239Y274296D01*
X537302Y274205D01*
X537363Y274112D01*
X537420Y274018D01*
X537473Y273921D01*
X537524Y273822D01*
X537571Y273721D01*
X537614Y273619D01*
X537654Y273516D01*
X537690Y273411D01*
X537722Y273305D01*
X537751Y273198D01*
X537776Y273090D01*
X537797Y272981D01*
X537814Y272872D01*
X537828Y272762D01*
X537837Y272651D01*
X537843Y272541D01*
X537845Y272430D01*
X537845Y269255D01*
X537845Y273065D02*
X542925Y275605D01*
X534035Y280602D02*
X531495Y283777D01*
X542925Y283777D01*
X542925Y280602D02*
X542925Y286952D01*
X202090Y389450D02*
X202090Y181450D01*
X202090Y389450D02*
X46090Y389450D01*
X46090Y181450D01*
X202090Y181450D01*
X52090Y201450D02*
X52093Y201695D01*
X52102Y201941D01*
X52117Y202186D01*
X52138Y202430D01*
X52165Y202674D01*
X52198Y202917D01*
X52237Y203160D01*
X52282Y203401D01*
X52333Y203641D01*
X52390Y203880D01*
X52452Y204117D01*
X52521Y204353D01*
X52595Y204587D01*
X52675Y204819D01*
X52760Y205049D01*
X52851Y205277D01*
X52948Y205502D01*
X53050Y205726D01*
X53158Y205946D01*
X53271Y206164D01*
X53389Y206379D01*
X53513Y206591D01*
X53641Y206800D01*
X53775Y207006D01*
X53914Y207208D01*
X54058Y207407D01*
X54207Y207602D01*
X54360Y207794D01*
X54518Y207982D01*
X54680Y208166D01*
X54848Y208345D01*
X55019Y208521D01*
X55195Y208692D01*
X55374Y208860D01*
X55558Y209022D01*
X55746Y209180D01*
X55938Y209333D01*
X56133Y209482D01*
X56332Y209626D01*
X56534Y209765D01*
X56740Y209899D01*
X56949Y210027D01*
X57161Y210151D01*
X57376Y210269D01*
X57594Y210382D01*
X57814Y210490D01*
X58038Y210592D01*
X58263Y210689D01*
X58491Y210780D01*
X58721Y210865D01*
X58953Y210945D01*
X59187Y211019D01*
X59423Y211088D01*
X59660Y211150D01*
X59899Y211207D01*
X60139Y211258D01*
X60380Y211303D01*
X60623Y211342D01*
X60866Y211375D01*
X61110Y211402D01*
X61354Y211423D01*
X61599Y211438D01*
X61845Y211447D01*
X62090Y211450D01*
X62335Y211447D01*
X62581Y211438D01*
X62826Y211423D01*
X63070Y211402D01*
X63314Y211375D01*
X63557Y211342D01*
X63800Y211303D01*
X64041Y211258D01*
X64281Y211207D01*
X64520Y211150D01*
X64757Y211088D01*
X64993Y211019D01*
X65227Y210945D01*
X65459Y210865D01*
X65689Y210780D01*
X65917Y210689D01*
X66142Y210592D01*
X66366Y210490D01*
X66586Y210382D01*
X66804Y210269D01*
X67019Y210151D01*
X67231Y210027D01*
X67440Y209899D01*
X67646Y209765D01*
X67848Y209626D01*
X68047Y209482D01*
X68242Y209333D01*
X68434Y209180D01*
X68622Y209022D01*
X68806Y208860D01*
X68985Y208692D01*
X69161Y208521D01*
X69332Y208345D01*
X69500Y208166D01*
X69662Y207982D01*
X69820Y207794D01*
X69973Y207602D01*
X70122Y207407D01*
X70266Y207208D01*
X70405Y207006D01*
X70539Y206800D01*
X70667Y206591D01*
X70791Y206379D01*
X70909Y206164D01*
X71022Y205946D01*
X71130Y205726D01*
X71232Y205502D01*
X71329Y205277D01*
X71420Y205049D01*
X71505Y204819D01*
X71585Y204587D01*
X71659Y204353D01*
X71728Y204117D01*
X71790Y203880D01*
X71847Y203641D01*
X71898Y203401D01*
X71943Y203160D01*
X71982Y202917D01*
X72015Y202674D01*
X72042Y202430D01*
X72063Y202186D01*
X72078Y201941D01*
X72087Y201695D01*
X72090Y201450D01*
X72087Y201205D01*
X72078Y200959D01*
X72063Y200714D01*
X72042Y200470D01*
X72015Y200226D01*
X71982Y199983D01*
X71943Y199740D01*
X71898Y199499D01*
X71847Y199259D01*
X71790Y199020D01*
X71728Y198783D01*
X71659Y198547D01*
X71585Y198313D01*
X71505Y198081D01*
X71420Y197851D01*
X71329Y197623D01*
X71232Y197398D01*
X71130Y197174D01*
X71022Y196954D01*
X70909Y196736D01*
X70791Y196521D01*
X70667Y196309D01*
X70539Y196100D01*
X70405Y195894D01*
X70266Y195692D01*
X70122Y195493D01*
X69973Y195298D01*
X69820Y195106D01*
X69662Y194918D01*
X69500Y194734D01*
X69332Y194555D01*
X69161Y194379D01*
X68985Y194208D01*
X68806Y194040D01*
X68622Y193878D01*
X68434Y193720D01*
X68242Y193567D01*
X68047Y193418D01*
X67848Y193274D01*
X67646Y193135D01*
X67440Y193001D01*
X67231Y192873D01*
X67019Y192749D01*
X66804Y192631D01*
X66586Y192518D01*
X66366Y192410D01*
X66142Y192308D01*
X65917Y192211D01*
X65689Y192120D01*
X65459Y192035D01*
X65227Y191955D01*
X64993Y191881D01*
X64757Y191812D01*
X64520Y191750D01*
X64281Y191693D01*
X64041Y191642D01*
X63800Y191597D01*
X63557Y191558D01*
X63314Y191525D01*
X63070Y191498D01*
X62826Y191477D01*
X62581Y191462D01*
X62335Y191453D01*
X62090Y191450D01*
X61845Y191453D01*
X61599Y191462D01*
X61354Y191477D01*
X61110Y191498D01*
X60866Y191525D01*
X60623Y191558D01*
X60380Y191597D01*
X60139Y191642D01*
X59899Y191693D01*
X59660Y191750D01*
X59423Y191812D01*
X59187Y191881D01*
X58953Y191955D01*
X58721Y192035D01*
X58491Y192120D01*
X58263Y192211D01*
X58038Y192308D01*
X57814Y192410D01*
X57594Y192518D01*
X57376Y192631D01*
X57161Y192749D01*
X56949Y192873D01*
X56740Y193001D01*
X56534Y193135D01*
X56332Y193274D01*
X56133Y193418D01*
X55938Y193567D01*
X55746Y193720D01*
X55558Y193878D01*
X55374Y194040D01*
X55195Y194208D01*
X55019Y194379D01*
X54848Y194555D01*
X54680Y194734D01*
X54518Y194918D01*
X54360Y195106D01*
X54207Y195298D01*
X54058Y195493D01*
X53914Y195692D01*
X53775Y195894D01*
X53641Y196100D01*
X53513Y196309D01*
X53389Y196521D01*
X53271Y196736D01*
X53158Y196954D01*
X53050Y197174D01*
X52948Y197398D01*
X52851Y197623D01*
X52760Y197851D01*
X52675Y198081D01*
X52595Y198313D01*
X52521Y198547D01*
X52452Y198783D01*
X52390Y199020D01*
X52333Y199259D01*
X52282Y199499D01*
X52237Y199740D01*
X52198Y199983D01*
X52165Y200226D01*
X52138Y200470D01*
X52117Y200714D01*
X52102Y200959D01*
X52093Y201205D01*
X52090Y201450D01*
X52090Y371450D02*
X52093Y371695D01*
X52102Y371941D01*
X52117Y372186D01*
X52138Y372430D01*
X52165Y372674D01*
X52198Y372917D01*
X52237Y373160D01*
X52282Y373401D01*
X52333Y373641D01*
X52390Y373880D01*
X52452Y374117D01*
X52521Y374353D01*
X52595Y374587D01*
X52675Y374819D01*
X52760Y375049D01*
X52851Y375277D01*
X52948Y375502D01*
X53050Y375726D01*
X53158Y375946D01*
X53271Y376164D01*
X53389Y376379D01*
X53513Y376591D01*
X53641Y376800D01*
X53775Y377006D01*
X53914Y377208D01*
X54058Y377407D01*
X54207Y377602D01*
X54360Y377794D01*
X54518Y377982D01*
X54680Y378166D01*
X54848Y378345D01*
X55019Y378521D01*
X55195Y378692D01*
X55374Y378860D01*
X55558Y379022D01*
X55746Y379180D01*
X55938Y379333D01*
X56133Y379482D01*
X56332Y379626D01*
X56534Y379765D01*
X56740Y379899D01*
X56949Y380027D01*
X57161Y380151D01*
X57376Y380269D01*
X57594Y380382D01*
X57814Y380490D01*
X58038Y380592D01*
X58263Y380689D01*
X58491Y380780D01*
X58721Y380865D01*
X58953Y380945D01*
X59187Y381019D01*
X59423Y381088D01*
X59660Y381150D01*
X59899Y381207D01*
X60139Y381258D01*
X60380Y381303D01*
X60623Y381342D01*
X60866Y381375D01*
X61110Y381402D01*
X61354Y381423D01*
X61599Y381438D01*
X61845Y381447D01*
X62090Y381450D01*
X62335Y381447D01*
X62581Y381438D01*
X62826Y381423D01*
X63070Y381402D01*
X63314Y381375D01*
X63557Y381342D01*
X63800Y381303D01*
X64041Y381258D01*
X64281Y381207D01*
X64520Y381150D01*
X64757Y381088D01*
X64993Y381019D01*
X65227Y380945D01*
X65459Y380865D01*
X65689Y380780D01*
X65917Y380689D01*
X66142Y380592D01*
X66366Y380490D01*
X66586Y380382D01*
X66804Y380269D01*
X67019Y380151D01*
X67231Y380027D01*
X67440Y379899D01*
X67646Y379765D01*
X67848Y379626D01*
X68047Y379482D01*
X68242Y379333D01*
X68434Y379180D01*
X68622Y379022D01*
X68806Y378860D01*
X68985Y378692D01*
X69161Y378521D01*
X69332Y378345D01*
X69500Y378166D01*
X69662Y377982D01*
X69820Y377794D01*
X69973Y377602D01*
X70122Y377407D01*
X70266Y377208D01*
X70405Y377006D01*
X70539Y376800D01*
X70667Y376591D01*
X70791Y376379D01*
X70909Y376164D01*
X71022Y375946D01*
X71130Y375726D01*
X71232Y375502D01*
X71329Y375277D01*
X71420Y375049D01*
X71505Y374819D01*
X71585Y374587D01*
X71659Y374353D01*
X71728Y374117D01*
X71790Y373880D01*
X71847Y373641D01*
X71898Y373401D01*
X71943Y373160D01*
X71982Y372917D01*
X72015Y372674D01*
X72042Y372430D01*
X72063Y372186D01*
X72078Y371941D01*
X72087Y371695D01*
X72090Y371450D01*
X72087Y371205D01*
X72078Y370959D01*
X72063Y370714D01*
X72042Y370470D01*
X72015Y370226D01*
X71982Y369983D01*
X71943Y369740D01*
X71898Y369499D01*
X71847Y369259D01*
X71790Y369020D01*
X71728Y368783D01*
X71659Y368547D01*
X71585Y368313D01*
X71505Y368081D01*
X71420Y367851D01*
X71329Y367623D01*
X71232Y367398D01*
X71130Y367174D01*
X71022Y366954D01*
X70909Y366736D01*
X70791Y366521D01*
X70667Y366309D01*
X70539Y366100D01*
X70405Y365894D01*
X70266Y365692D01*
X70122Y365493D01*
X69973Y365298D01*
X69820Y365106D01*
X69662Y364918D01*
X69500Y364734D01*
X69332Y364555D01*
X69161Y364379D01*
X68985Y364208D01*
X68806Y364040D01*
X68622Y363878D01*
X68434Y363720D01*
X68242Y363567D01*
X68047Y363418D01*
X67848Y363274D01*
X67646Y363135D01*
X67440Y363001D01*
X67231Y362873D01*
X67019Y362749D01*
X66804Y362631D01*
X66586Y362518D01*
X66366Y362410D01*
X66142Y362308D01*
X65917Y362211D01*
X65689Y362120D01*
X65459Y362035D01*
X65227Y361955D01*
X64993Y361881D01*
X64757Y361812D01*
X64520Y361750D01*
X64281Y361693D01*
X64041Y361642D01*
X63800Y361597D01*
X63557Y361558D01*
X63314Y361525D01*
X63070Y361498D01*
X62826Y361477D01*
X62581Y361462D01*
X62335Y361453D01*
X62090Y361450D01*
X61845Y361453D01*
X61599Y361462D01*
X61354Y361477D01*
X61110Y361498D01*
X60866Y361525D01*
X60623Y361558D01*
X60380Y361597D01*
X60139Y361642D01*
X59899Y361693D01*
X59660Y361750D01*
X59423Y361812D01*
X59187Y361881D01*
X58953Y361955D01*
X58721Y362035D01*
X58491Y362120D01*
X58263Y362211D01*
X58038Y362308D01*
X57814Y362410D01*
X57594Y362518D01*
X57376Y362631D01*
X57161Y362749D01*
X56949Y362873D01*
X56740Y363001D01*
X56534Y363135D01*
X56332Y363274D01*
X56133Y363418D01*
X55938Y363567D01*
X55746Y363720D01*
X55558Y363878D01*
X55374Y364040D01*
X55195Y364208D01*
X55019Y364379D01*
X54848Y364555D01*
X54680Y364734D01*
X54518Y364918D01*
X54360Y365106D01*
X54207Y365298D01*
X54058Y365493D01*
X53914Y365692D01*
X53775Y365894D01*
X53641Y366100D01*
X53513Y366309D01*
X53389Y366521D01*
X53271Y366736D01*
X53158Y366954D01*
X53050Y367174D01*
X52948Y367398D01*
X52851Y367623D01*
X52760Y367851D01*
X52675Y368081D01*
X52595Y368313D01*
X52521Y368547D01*
X52452Y368783D01*
X52390Y369020D01*
X52333Y369259D01*
X52282Y369499D01*
X52237Y369740D01*
X52198Y369983D01*
X52165Y370226D01*
X52138Y370470D01*
X52117Y370714D01*
X52102Y370959D01*
X52093Y371205D01*
X52090Y371450D01*
D13*
X114898Y246958D02*
X126582Y246958D01*
X121389Y250853D02*
X114898Y246958D01*
X121389Y250853D02*
X114898Y254747D01*
X126582Y254747D01*
X126582Y260730D02*
X114898Y260730D01*
X114898Y263976D01*
X114900Y264089D01*
X114906Y264202D01*
X114916Y264315D01*
X114930Y264428D01*
X114947Y264540D01*
X114969Y264651D01*
X114994Y264761D01*
X115024Y264871D01*
X115057Y264979D01*
X115094Y265086D01*
X115134Y265192D01*
X115179Y265296D01*
X115227Y265399D01*
X115278Y265500D01*
X115333Y265599D01*
X115391Y265696D01*
X115453Y265791D01*
X115518Y265884D01*
X115586Y265974D01*
X115657Y266062D01*
X115732Y266148D01*
X115809Y266231D01*
X115889Y266311D01*
X115972Y266388D01*
X116058Y266463D01*
X116146Y266534D01*
X116236Y266602D01*
X116329Y266667D01*
X116424Y266729D01*
X116521Y266787D01*
X116620Y266842D01*
X116721Y266893D01*
X116824Y266941D01*
X116928Y266986D01*
X117034Y267026D01*
X117141Y267063D01*
X117249Y267096D01*
X117359Y267126D01*
X117469Y267151D01*
X117580Y267173D01*
X117692Y267190D01*
X117805Y267204D01*
X117918Y267214D01*
X118031Y267220D01*
X118144Y267222D01*
X118257Y267220D01*
X118370Y267214D01*
X118483Y267204D01*
X118596Y267190D01*
X118708Y267173D01*
X118819Y267151D01*
X118929Y267126D01*
X119039Y267096D01*
X119147Y267063D01*
X119254Y267026D01*
X119360Y266986D01*
X119464Y266941D01*
X119567Y266893D01*
X119668Y266842D01*
X119767Y266787D01*
X119864Y266729D01*
X119959Y266667D01*
X120052Y266602D01*
X120142Y266534D01*
X120230Y266463D01*
X120316Y266388D01*
X120399Y266311D01*
X120479Y266231D01*
X120556Y266148D01*
X120631Y266062D01*
X120702Y265974D01*
X120770Y265884D01*
X120835Y265791D01*
X120897Y265696D01*
X120955Y265599D01*
X121010Y265500D01*
X121061Y265399D01*
X121109Y265296D01*
X121154Y265192D01*
X121194Y265086D01*
X121231Y264979D01*
X121264Y264871D01*
X121294Y264761D01*
X121319Y264651D01*
X121341Y264540D01*
X121358Y264428D01*
X121372Y264315D01*
X121382Y264202D01*
X121388Y264089D01*
X121390Y263976D01*
X121389Y263976D02*
X121389Y260730D01*
X123336Y271991D02*
X114898Y271991D01*
X123336Y271991D02*
X123449Y271993D01*
X123562Y271999D01*
X123675Y272009D01*
X123788Y272023D01*
X123900Y272040D01*
X124011Y272062D01*
X124121Y272087D01*
X124231Y272117D01*
X124339Y272150D01*
X124446Y272187D01*
X124552Y272227D01*
X124656Y272272D01*
X124759Y272320D01*
X124860Y272371D01*
X124959Y272426D01*
X125056Y272484D01*
X125151Y272546D01*
X125244Y272611D01*
X125334Y272679D01*
X125422Y272750D01*
X125508Y272825D01*
X125591Y272902D01*
X125671Y272982D01*
X125748Y273065D01*
X125823Y273151D01*
X125894Y273239D01*
X125962Y273329D01*
X126027Y273422D01*
X126089Y273517D01*
X126147Y273614D01*
X126202Y273713D01*
X126253Y273814D01*
X126301Y273917D01*
X126346Y274021D01*
X126386Y274127D01*
X126423Y274234D01*
X126456Y274342D01*
X126486Y274452D01*
X126511Y274562D01*
X126533Y274673D01*
X126550Y274785D01*
X126564Y274898D01*
X126574Y275011D01*
X126580Y275124D01*
X126582Y275237D01*
X126580Y275350D01*
X126574Y275463D01*
X126564Y275576D01*
X126550Y275689D01*
X126533Y275801D01*
X126511Y275912D01*
X126486Y276022D01*
X126456Y276132D01*
X126423Y276240D01*
X126386Y276347D01*
X126346Y276453D01*
X126301Y276557D01*
X126253Y276660D01*
X126202Y276761D01*
X126147Y276860D01*
X126089Y276957D01*
X126027Y277052D01*
X125962Y277145D01*
X125894Y277235D01*
X125823Y277323D01*
X125748Y277409D01*
X125671Y277492D01*
X125591Y277572D01*
X125508Y277649D01*
X125422Y277724D01*
X125334Y277795D01*
X125244Y277863D01*
X125151Y277928D01*
X125056Y277990D01*
X124959Y278048D01*
X124860Y278103D01*
X124759Y278154D01*
X124656Y278202D01*
X124552Y278247D01*
X124446Y278287D01*
X124339Y278324D01*
X124231Y278357D01*
X124121Y278387D01*
X124011Y278412D01*
X123900Y278434D01*
X123788Y278451D01*
X123675Y278465D01*
X123562Y278475D01*
X123449Y278481D01*
X123336Y278483D01*
X123336Y278482D02*
X114898Y278482D01*
X120091Y283802D02*
X120091Y287697D01*
X120093Y287796D01*
X120099Y287896D01*
X120108Y287995D01*
X120121Y288093D01*
X120138Y288191D01*
X120159Y288289D01*
X120184Y288385D01*
X120212Y288480D01*
X120244Y288574D01*
X120279Y288667D01*
X120318Y288759D01*
X120361Y288849D01*
X120406Y288937D01*
X120456Y289024D01*
X120508Y289108D01*
X120564Y289191D01*
X120622Y289271D01*
X120684Y289349D01*
X120749Y289424D01*
X120817Y289497D01*
X120887Y289567D01*
X120960Y289635D01*
X121035Y289700D01*
X121113Y289762D01*
X121193Y289820D01*
X121276Y289876D01*
X121360Y289928D01*
X121447Y289978D01*
X121535Y290023D01*
X121625Y290066D01*
X121717Y290105D01*
X121810Y290140D01*
X121904Y290172D01*
X121999Y290200D01*
X122095Y290225D01*
X122193Y290246D01*
X122291Y290263D01*
X122389Y290276D01*
X122488Y290285D01*
X122588Y290291D01*
X122687Y290293D01*
X123336Y290293D01*
X123336Y290294D02*
X123449Y290292D01*
X123562Y290286D01*
X123675Y290276D01*
X123788Y290262D01*
X123900Y290245D01*
X124011Y290223D01*
X124121Y290198D01*
X124231Y290168D01*
X124339Y290135D01*
X124446Y290098D01*
X124552Y290058D01*
X124656Y290013D01*
X124759Y289965D01*
X124860Y289914D01*
X124959Y289859D01*
X125056Y289801D01*
X125151Y289739D01*
X125244Y289674D01*
X125334Y289606D01*
X125422Y289535D01*
X125508Y289460D01*
X125591Y289383D01*
X125671Y289303D01*
X125748Y289220D01*
X125823Y289134D01*
X125894Y289046D01*
X125962Y288956D01*
X126027Y288863D01*
X126089Y288768D01*
X126147Y288671D01*
X126202Y288572D01*
X126253Y288471D01*
X126301Y288368D01*
X126346Y288264D01*
X126386Y288158D01*
X126423Y288051D01*
X126456Y287943D01*
X126486Y287833D01*
X126511Y287723D01*
X126533Y287612D01*
X126550Y287500D01*
X126564Y287387D01*
X126574Y287274D01*
X126580Y287161D01*
X126582Y287048D01*
X126580Y286935D01*
X126574Y286822D01*
X126564Y286709D01*
X126550Y286596D01*
X126533Y286484D01*
X126511Y286373D01*
X126486Y286263D01*
X126456Y286153D01*
X126423Y286045D01*
X126386Y285938D01*
X126346Y285832D01*
X126301Y285728D01*
X126253Y285625D01*
X126202Y285524D01*
X126147Y285425D01*
X126089Y285328D01*
X126027Y285233D01*
X125962Y285140D01*
X125894Y285050D01*
X125823Y284962D01*
X125748Y284876D01*
X125671Y284793D01*
X125591Y284713D01*
X125508Y284636D01*
X125422Y284561D01*
X125334Y284490D01*
X125244Y284422D01*
X125151Y284357D01*
X125056Y284295D01*
X124959Y284237D01*
X124860Y284182D01*
X124759Y284131D01*
X124656Y284083D01*
X124552Y284038D01*
X124446Y283998D01*
X124339Y283961D01*
X124231Y283928D01*
X124121Y283898D01*
X124011Y283873D01*
X123900Y283851D01*
X123788Y283834D01*
X123675Y283820D01*
X123562Y283810D01*
X123449Y283804D01*
X123336Y283802D01*
X120091Y283802D01*
X119948Y283804D01*
X119805Y283810D01*
X119662Y283820D01*
X119520Y283834D01*
X119378Y283851D01*
X119236Y283873D01*
X119095Y283898D01*
X118955Y283928D01*
X118816Y283961D01*
X118678Y283998D01*
X118541Y284039D01*
X118405Y284083D01*
X118270Y284132D01*
X118137Y284184D01*
X118005Y284239D01*
X117875Y284299D01*
X117746Y284362D01*
X117619Y284428D01*
X117495Y284498D01*
X117372Y284571D01*
X117251Y284648D01*
X117132Y284727D01*
X117016Y284811D01*
X116901Y284897D01*
X116790Y284986D01*
X116681Y285079D01*
X116574Y285174D01*
X116470Y285273D01*
X116369Y285374D01*
X116270Y285478D01*
X116175Y285584D01*
X116082Y285694D01*
X115993Y285805D01*
X115907Y285919D01*
X115824Y286036D01*
X115744Y286155D01*
X115667Y286276D01*
X115594Y286398D01*
X115524Y286523D01*
X115458Y286650D01*
X115395Y286779D01*
X115335Y286909D01*
X115280Y287041D01*
X115228Y287174D01*
X115179Y287309D01*
X115135Y287445D01*
X115094Y287582D01*
X115057Y287720D01*
X115024Y287859D01*
X114994Y287999D01*
X114969Y288140D01*
X114947Y288282D01*
X114930Y288424D01*
X114916Y288566D01*
X114906Y288709D01*
X114900Y288852D01*
X114898Y288995D01*
X116521Y296206D02*
X116728Y296107D01*
X116939Y296014D01*
X117151Y295926D01*
X117365Y295843D01*
X117581Y295765D01*
X117799Y295692D01*
X118019Y295624D01*
X118240Y295562D01*
X118463Y295505D01*
X118687Y295453D01*
X118912Y295407D01*
X119138Y295366D01*
X119365Y295331D01*
X119593Y295301D01*
X119822Y295276D01*
X120051Y295257D01*
X120280Y295243D01*
X120510Y295235D01*
X120740Y295232D01*
X116521Y296206D02*
X116431Y296239D01*
X116342Y296275D01*
X116254Y296315D01*
X116169Y296359D01*
X116085Y296406D01*
X116003Y296456D01*
X115923Y296510D01*
X115846Y296566D01*
X115770Y296626D01*
X115697Y296689D01*
X115627Y296754D01*
X115559Y296823D01*
X115495Y296894D01*
X115433Y296967D01*
X115374Y297043D01*
X115318Y297121D01*
X115265Y297202D01*
X115216Y297284D01*
X115170Y297368D01*
X115127Y297455D01*
X115088Y297542D01*
X115052Y297632D01*
X115020Y297722D01*
X114992Y297814D01*
X114967Y297907D01*
X114946Y298001D01*
X114929Y298095D01*
X114915Y298190D01*
X114906Y298286D01*
X114900Y298382D01*
X114898Y298478D01*
X114900Y298574D01*
X114906Y298670D01*
X114915Y298766D01*
X114929Y298861D01*
X114946Y298955D01*
X114967Y299049D01*
X114992Y299142D01*
X115020Y299234D01*
X115052Y299324D01*
X115088Y299414D01*
X115127Y299502D01*
X115170Y299588D01*
X115216Y299672D01*
X115265Y299754D01*
X115318Y299835D01*
X115374Y299913D01*
X115433Y299989D01*
X115495Y300062D01*
X115559Y300133D01*
X115627Y300202D01*
X115697Y300267D01*
X115770Y300330D01*
X115846Y300390D01*
X115923Y300446D01*
X116003Y300500D01*
X116085Y300550D01*
X116169Y300597D01*
X116254Y300641D01*
X116342Y300681D01*
X116431Y300717D01*
X116521Y300750D01*
X116521Y300749D02*
X116728Y300848D01*
X116939Y300941D01*
X117151Y301029D01*
X117365Y301112D01*
X117581Y301190D01*
X117799Y301263D01*
X118019Y301331D01*
X118240Y301393D01*
X118463Y301450D01*
X118687Y301502D01*
X118912Y301548D01*
X119138Y301589D01*
X119365Y301624D01*
X119593Y301654D01*
X119822Y301679D01*
X120051Y301698D01*
X120280Y301712D01*
X120510Y301720D01*
X120740Y301723D01*
X120740Y295232D02*
X120970Y295235D01*
X121200Y295243D01*
X121429Y295257D01*
X121658Y295276D01*
X121887Y295301D01*
X122115Y295331D01*
X122342Y295366D01*
X122568Y295407D01*
X122793Y295453D01*
X123017Y295505D01*
X123240Y295562D01*
X123461Y295624D01*
X123681Y295692D01*
X123899Y295765D01*
X124115Y295843D01*
X124329Y295926D01*
X124541Y296014D01*
X124752Y296107D01*
X124959Y296206D01*
X125049Y296239D01*
X125138Y296275D01*
X125226Y296316D01*
X125311Y296359D01*
X125395Y296406D01*
X125477Y296456D01*
X125557Y296510D01*
X125634Y296566D01*
X125710Y296626D01*
X125783Y296689D01*
X125853Y296754D01*
X125921Y296823D01*
X125985Y296894D01*
X126047Y296967D01*
X126106Y297043D01*
X126162Y297121D01*
X126215Y297202D01*
X126264Y297284D01*
X126310Y297368D01*
X126353Y297455D01*
X126392Y297542D01*
X126428Y297632D01*
X126460Y297722D01*
X126488Y297814D01*
X126513Y297907D01*
X126534Y298001D01*
X126551Y298095D01*
X126565Y298190D01*
X126574Y298286D01*
X126580Y298382D01*
X126582Y298478D01*
X124959Y300749D02*
X124752Y300848D01*
X124541Y300941D01*
X124329Y301029D01*
X124115Y301112D01*
X123899Y301190D01*
X123681Y301263D01*
X123461Y301331D01*
X123240Y301393D01*
X123017Y301450D01*
X122793Y301502D01*
X122568Y301548D01*
X122342Y301589D01*
X122115Y301624D01*
X121887Y301654D01*
X121658Y301679D01*
X121429Y301698D01*
X121200Y301712D01*
X120970Y301720D01*
X120740Y301723D01*
X124959Y300750D02*
X125049Y300717D01*
X125138Y300681D01*
X125226Y300641D01*
X125311Y300597D01*
X125395Y300550D01*
X125477Y300500D01*
X125557Y300446D01*
X125634Y300390D01*
X125710Y300330D01*
X125783Y300267D01*
X125853Y300202D01*
X125921Y300133D01*
X125985Y300062D01*
X126047Y299989D01*
X126106Y299913D01*
X126162Y299835D01*
X126215Y299754D01*
X126264Y299672D01*
X126310Y299588D01*
X126353Y299501D01*
X126392Y299414D01*
X126428Y299324D01*
X126460Y299234D01*
X126488Y299142D01*
X126513Y299049D01*
X126534Y298955D01*
X126551Y298861D01*
X126565Y298766D01*
X126574Y298670D01*
X126580Y298574D01*
X126582Y298478D01*
X123986Y295881D02*
X117494Y301074D01*
X126582Y306662D02*
X126582Y310557D01*
X126580Y310656D01*
X126574Y310756D01*
X126565Y310855D01*
X126552Y310953D01*
X126535Y311051D01*
X126514Y311149D01*
X126489Y311245D01*
X126461Y311340D01*
X126429Y311434D01*
X126394Y311527D01*
X126355Y311619D01*
X126312Y311709D01*
X126267Y311797D01*
X126217Y311884D01*
X126165Y311968D01*
X126109Y312051D01*
X126051Y312131D01*
X125989Y312209D01*
X125924Y312284D01*
X125856Y312357D01*
X125786Y312427D01*
X125713Y312495D01*
X125638Y312560D01*
X125560Y312622D01*
X125480Y312680D01*
X125397Y312736D01*
X125313Y312788D01*
X125226Y312838D01*
X125138Y312883D01*
X125048Y312926D01*
X124956Y312965D01*
X124863Y313000D01*
X124769Y313032D01*
X124674Y313060D01*
X124578Y313085D01*
X124480Y313106D01*
X124382Y313123D01*
X124284Y313136D01*
X124185Y313145D01*
X124085Y313151D01*
X123986Y313153D01*
X122687Y313153D01*
X122588Y313151D01*
X122488Y313145D01*
X122389Y313136D01*
X122291Y313123D01*
X122193Y313106D01*
X122095Y313085D01*
X121999Y313060D01*
X121904Y313032D01*
X121810Y313000D01*
X121717Y312965D01*
X121625Y312926D01*
X121535Y312883D01*
X121447Y312838D01*
X121360Y312788D01*
X121276Y312736D01*
X121193Y312680D01*
X121113Y312622D01*
X121035Y312560D01*
X120960Y312495D01*
X120887Y312427D01*
X120817Y312357D01*
X120749Y312284D01*
X120684Y312209D01*
X120622Y312131D01*
X120564Y312051D01*
X120508Y311968D01*
X120456Y311884D01*
X120406Y311797D01*
X120361Y311709D01*
X120318Y311619D01*
X120279Y311527D01*
X120244Y311434D01*
X120212Y311340D01*
X120184Y311245D01*
X120159Y311149D01*
X120138Y311051D01*
X120121Y310953D01*
X120108Y310855D01*
X120099Y310756D01*
X120093Y310656D01*
X120091Y310557D01*
X120091Y306662D01*
X114898Y306662D01*
X114898Y313153D01*
X116521Y319066D02*
X116728Y318967D01*
X116939Y318874D01*
X117151Y318786D01*
X117365Y318703D01*
X117581Y318625D01*
X117799Y318552D01*
X118019Y318484D01*
X118240Y318422D01*
X118463Y318365D01*
X118687Y318313D01*
X118912Y318267D01*
X119138Y318226D01*
X119365Y318191D01*
X119593Y318161D01*
X119822Y318136D01*
X120051Y318117D01*
X120280Y318103D01*
X120510Y318095D01*
X120740Y318092D01*
X116521Y319065D02*
X116431Y319098D01*
X116342Y319134D01*
X116254Y319174D01*
X116169Y319218D01*
X116085Y319265D01*
X116003Y319315D01*
X115923Y319369D01*
X115846Y319425D01*
X115770Y319485D01*
X115697Y319548D01*
X115627Y319613D01*
X115559Y319682D01*
X115495Y319753D01*
X115433Y319826D01*
X115374Y319902D01*
X115318Y319980D01*
X115265Y320061D01*
X115216Y320143D01*
X115170Y320227D01*
X115127Y320314D01*
X115088Y320401D01*
X115052Y320491D01*
X115020Y320581D01*
X114992Y320673D01*
X114967Y320766D01*
X114946Y320860D01*
X114929Y320954D01*
X114915Y321049D01*
X114906Y321145D01*
X114900Y321241D01*
X114898Y321337D01*
X114900Y321433D01*
X114906Y321529D01*
X114915Y321625D01*
X114929Y321720D01*
X114946Y321814D01*
X114967Y321908D01*
X114992Y322001D01*
X115020Y322093D01*
X115052Y322183D01*
X115088Y322273D01*
X115127Y322361D01*
X115170Y322447D01*
X115216Y322531D01*
X115265Y322613D01*
X115318Y322694D01*
X115374Y322772D01*
X115433Y322848D01*
X115495Y322921D01*
X115559Y322992D01*
X115627Y323061D01*
X115697Y323126D01*
X115770Y323189D01*
X115846Y323249D01*
X115923Y323305D01*
X116003Y323359D01*
X116085Y323409D01*
X116169Y323456D01*
X116254Y323500D01*
X116342Y323540D01*
X116431Y323576D01*
X116521Y323609D01*
X116728Y323708D01*
X116939Y323801D01*
X117151Y323889D01*
X117365Y323972D01*
X117581Y324050D01*
X117799Y324123D01*
X118019Y324191D01*
X118240Y324253D01*
X118463Y324310D01*
X118687Y324362D01*
X118912Y324408D01*
X119138Y324449D01*
X119365Y324484D01*
X119593Y324514D01*
X119822Y324539D01*
X120051Y324558D01*
X120280Y324572D01*
X120510Y324580D01*
X120740Y324583D01*
X120740Y318092D02*
X120970Y318095D01*
X121200Y318103D01*
X121429Y318117D01*
X121658Y318136D01*
X121887Y318161D01*
X122115Y318191D01*
X122342Y318226D01*
X122568Y318267D01*
X122793Y318313D01*
X123017Y318365D01*
X123240Y318422D01*
X123461Y318484D01*
X123681Y318552D01*
X123899Y318625D01*
X124115Y318703D01*
X124329Y318786D01*
X124541Y318874D01*
X124752Y318967D01*
X124959Y319066D01*
X124959Y319065D02*
X125049Y319098D01*
X125138Y319134D01*
X125226Y319175D01*
X125311Y319218D01*
X125395Y319265D01*
X125477Y319315D01*
X125557Y319369D01*
X125634Y319425D01*
X125710Y319485D01*
X125783Y319548D01*
X125853Y319613D01*
X125921Y319682D01*
X125985Y319753D01*
X126047Y319826D01*
X126106Y319902D01*
X126162Y319980D01*
X126215Y320061D01*
X126264Y320143D01*
X126310Y320227D01*
X126353Y320314D01*
X126392Y320401D01*
X126428Y320491D01*
X126460Y320581D01*
X126488Y320673D01*
X126513Y320766D01*
X126534Y320860D01*
X126551Y320954D01*
X126565Y321049D01*
X126574Y321145D01*
X126580Y321241D01*
X126582Y321337D01*
X124959Y323609D02*
X124752Y323708D01*
X124541Y323801D01*
X124329Y323889D01*
X124115Y323972D01*
X123899Y324050D01*
X123681Y324123D01*
X123461Y324191D01*
X123240Y324253D01*
X123017Y324310D01*
X122793Y324362D01*
X122568Y324408D01*
X122342Y324449D01*
X122115Y324484D01*
X121887Y324514D01*
X121658Y324539D01*
X121429Y324558D01*
X121200Y324572D01*
X120970Y324580D01*
X120740Y324583D01*
X124959Y323609D02*
X125049Y323576D01*
X125138Y323540D01*
X125226Y323500D01*
X125311Y323456D01*
X125395Y323409D01*
X125477Y323359D01*
X125557Y323305D01*
X125634Y323249D01*
X125710Y323189D01*
X125783Y323126D01*
X125853Y323061D01*
X125921Y322992D01*
X125985Y322921D01*
X126047Y322848D01*
X126106Y322772D01*
X126162Y322694D01*
X126215Y322613D01*
X126264Y322531D01*
X126310Y322447D01*
X126353Y322360D01*
X126392Y322273D01*
X126428Y322183D01*
X126460Y322093D01*
X126488Y322001D01*
X126513Y321908D01*
X126534Y321814D01*
X126551Y321720D01*
X126565Y321625D01*
X126574Y321529D01*
X126580Y321433D01*
X126582Y321337D01*
X123986Y318741D02*
X117494Y323934D01*
D10*
X572000Y527700D02*
X572000Y578500D01*
X554220Y578500D01*
X538980Y578500D01*
X528820Y578500D02*
X513580Y578500D01*
X495800Y578500D01*
X495800Y527700D01*
X572000Y527700D01*
X554220Y573420D02*
X554220Y578500D01*
X538980Y578500D02*
X538980Y573420D01*
X538980Y578500D02*
X528820Y578500D01*
X528820Y573420D01*
X513580Y573420D02*
X513580Y578500D01*
X538980Y573420D02*
X554220Y573420D01*
X528820Y573420D02*
X513580Y573420D01*
D12*
X510706Y524906D02*
X510706Y520560D01*
X510704Y520490D01*
X510698Y520421D01*
X510688Y520352D01*
X510675Y520284D01*
X510657Y520216D01*
X510636Y520150D01*
X510611Y520085D01*
X510583Y520021D01*
X510551Y519959D01*
X510516Y519899D01*
X510477Y519841D01*
X510435Y519786D01*
X510390Y519732D01*
X510342Y519682D01*
X510292Y519634D01*
X510238Y519589D01*
X510183Y519547D01*
X510125Y519508D01*
X510065Y519473D01*
X510003Y519441D01*
X509939Y519413D01*
X509874Y519388D01*
X509808Y519367D01*
X509740Y519349D01*
X509672Y519336D01*
X509603Y519326D01*
X509534Y519320D01*
X509464Y519318D01*
X508843Y519318D01*
X514928Y519318D02*
X514998Y519320D01*
X515067Y519326D01*
X515136Y519336D01*
X515204Y519349D01*
X515272Y519367D01*
X515338Y519388D01*
X515403Y519413D01*
X515467Y519441D01*
X515529Y519473D01*
X515589Y519508D01*
X515647Y519547D01*
X515702Y519589D01*
X515756Y519634D01*
X515806Y519682D01*
X515854Y519732D01*
X515899Y519786D01*
X515941Y519841D01*
X515980Y519899D01*
X516015Y519959D01*
X516047Y520021D01*
X516075Y520085D01*
X516100Y520150D01*
X516121Y520216D01*
X516139Y520284D01*
X516152Y520352D01*
X516162Y520421D01*
X516168Y520490D01*
X516170Y520560D01*
X514928Y519318D02*
X514829Y519320D01*
X514731Y519325D01*
X514633Y519335D01*
X514535Y519348D01*
X514438Y519364D01*
X514341Y519384D01*
X514246Y519408D01*
X514151Y519436D01*
X514057Y519467D01*
X513965Y519501D01*
X513874Y519539D01*
X513784Y519580D01*
X513696Y519625D01*
X513610Y519673D01*
X513526Y519724D01*
X513444Y519778D01*
X513363Y519836D01*
X513285Y519896D01*
X513210Y519959D01*
X513136Y520025D01*
X513066Y520094D01*
X513220Y523664D02*
X513222Y523734D01*
X513228Y523803D01*
X513238Y523872D01*
X513251Y523940D01*
X513269Y524008D01*
X513290Y524074D01*
X513315Y524139D01*
X513343Y524203D01*
X513375Y524265D01*
X513410Y524325D01*
X513449Y524383D01*
X513491Y524438D01*
X513536Y524492D01*
X513584Y524542D01*
X513634Y524590D01*
X513688Y524635D01*
X513743Y524677D01*
X513801Y524716D01*
X513861Y524751D01*
X513923Y524783D01*
X513987Y524811D01*
X514052Y524836D01*
X514118Y524857D01*
X514186Y524875D01*
X514254Y524888D01*
X514323Y524898D01*
X514392Y524904D01*
X514462Y524906D01*
X514556Y524904D01*
X514649Y524898D01*
X514742Y524889D01*
X514835Y524876D01*
X514927Y524859D01*
X515018Y524839D01*
X515109Y524814D01*
X515198Y524787D01*
X515286Y524755D01*
X515373Y524720D01*
X515459Y524682D01*
X515542Y524640D01*
X515624Y524595D01*
X515705Y524547D01*
X515783Y524495D01*
X515859Y524440D01*
X513841Y522578D02*
X513782Y522614D01*
X513726Y522654D01*
X513672Y522697D01*
X513620Y522742D01*
X513571Y522791D01*
X513525Y522842D01*
X513482Y522895D01*
X513441Y522951D01*
X513404Y523009D01*
X513369Y523069D01*
X513339Y523130D01*
X513311Y523193D01*
X513287Y523258D01*
X513267Y523324D01*
X513250Y523391D01*
X513237Y523458D01*
X513228Y523526D01*
X513222Y523595D01*
X513220Y523664D01*
X515548Y521646D02*
X515607Y521610D01*
X515663Y521570D01*
X515717Y521527D01*
X515769Y521482D01*
X515818Y521433D01*
X515864Y521382D01*
X515907Y521329D01*
X515948Y521273D01*
X515985Y521215D01*
X516020Y521155D01*
X516050Y521094D01*
X516078Y521031D01*
X516102Y520966D01*
X516122Y520900D01*
X516139Y520833D01*
X516152Y520766D01*
X516161Y520698D01*
X516167Y520629D01*
X516169Y520560D01*
X515548Y521646D02*
X513841Y522578D01*
X519555Y524906D02*
X519555Y519318D01*
X518003Y524906D02*
X521107Y524906D01*
X527757Y524906D02*
X527830Y524904D01*
X527903Y524898D01*
X527976Y524889D01*
X528047Y524875D01*
X528119Y524858D01*
X528189Y524838D01*
X528258Y524813D01*
X528325Y524785D01*
X528391Y524754D01*
X528456Y524719D01*
X528518Y524681D01*
X528578Y524639D01*
X528636Y524595D01*
X528692Y524547D01*
X528745Y524497D01*
X528795Y524444D01*
X528843Y524388D01*
X528887Y524330D01*
X528929Y524270D01*
X528967Y524208D01*
X529002Y524143D01*
X529033Y524077D01*
X529061Y524010D01*
X529086Y523941D01*
X529106Y523871D01*
X529123Y523799D01*
X529137Y523728D01*
X529146Y523655D01*
X529152Y523582D01*
X529154Y523509D01*
X527757Y524906D02*
X527673Y524904D01*
X527590Y524898D01*
X527507Y524889D01*
X527425Y524875D01*
X527343Y524858D01*
X527262Y524836D01*
X527182Y524811D01*
X527104Y524783D01*
X527026Y524751D01*
X526951Y524715D01*
X526877Y524676D01*
X526805Y524633D01*
X526735Y524587D01*
X526668Y524538D01*
X526602Y524485D01*
X526540Y524430D01*
X526480Y524372D01*
X526422Y524311D01*
X526368Y524248D01*
X526316Y524182D01*
X526268Y524114D01*
X526223Y524043D01*
X526181Y523971D01*
X526143Y523896D01*
X526108Y523820D01*
X526077Y523743D01*
X526049Y523664D01*
X528687Y522423D02*
X528741Y522476D01*
X528792Y522533D01*
X528840Y522592D01*
X528885Y522653D01*
X528926Y522716D01*
X528965Y522782D01*
X529000Y522849D01*
X529032Y522918D01*
X529060Y522989D01*
X529084Y523060D01*
X529105Y523133D01*
X529122Y523207D01*
X529136Y523282D01*
X529145Y523357D01*
X529151Y523433D01*
X529153Y523509D01*
X528688Y522422D02*
X526049Y519318D01*
X529154Y519318D01*
X531287Y519318D02*
X531287Y519628D01*
X531597Y519628D01*
X531597Y519318D01*
X531287Y519318D01*
X533730Y519318D02*
X535593Y519318D01*
X535663Y519320D01*
X535732Y519326D01*
X535801Y519336D01*
X535869Y519349D01*
X535937Y519367D01*
X536003Y519388D01*
X536068Y519413D01*
X536132Y519441D01*
X536194Y519473D01*
X536254Y519508D01*
X536312Y519547D01*
X536367Y519589D01*
X536421Y519634D01*
X536471Y519682D01*
X536519Y519732D01*
X536564Y519786D01*
X536606Y519841D01*
X536645Y519899D01*
X536680Y519959D01*
X536712Y520021D01*
X536740Y520085D01*
X536765Y520150D01*
X536786Y520216D01*
X536804Y520284D01*
X536817Y520352D01*
X536827Y520421D01*
X536833Y520490D01*
X536835Y520560D01*
X536835Y521181D01*
X536833Y521251D01*
X536827Y521320D01*
X536817Y521389D01*
X536804Y521457D01*
X536786Y521525D01*
X536765Y521591D01*
X536740Y521656D01*
X536712Y521720D01*
X536680Y521782D01*
X536645Y521842D01*
X536606Y521900D01*
X536564Y521955D01*
X536519Y522009D01*
X536471Y522059D01*
X536421Y522107D01*
X536367Y522152D01*
X536312Y522194D01*
X536254Y522233D01*
X536194Y522268D01*
X536132Y522300D01*
X536068Y522328D01*
X536003Y522353D01*
X535937Y522374D01*
X535869Y522392D01*
X535801Y522405D01*
X535732Y522415D01*
X535663Y522421D01*
X535593Y522423D01*
X535593Y522422D02*
X533730Y522422D01*
X533730Y524906D01*
X536835Y524906D01*
X540458Y524906D02*
X539217Y520560D01*
X542321Y520560D01*
X541390Y521802D02*
X541390Y519318D01*
X544393Y519318D02*
X548118Y524906D01*
X544393Y524906D02*
X548118Y519318D01*
X553294Y523509D02*
X553292Y523582D01*
X553286Y523655D01*
X553277Y523728D01*
X553263Y523799D01*
X553246Y523871D01*
X553226Y523941D01*
X553201Y524010D01*
X553173Y524077D01*
X553142Y524143D01*
X553107Y524208D01*
X553069Y524270D01*
X553027Y524330D01*
X552983Y524388D01*
X552935Y524444D01*
X552885Y524497D01*
X552832Y524547D01*
X552776Y524595D01*
X552718Y524639D01*
X552658Y524681D01*
X552596Y524719D01*
X552531Y524754D01*
X552465Y524785D01*
X552398Y524813D01*
X552329Y524838D01*
X552259Y524858D01*
X552187Y524875D01*
X552116Y524889D01*
X552043Y524898D01*
X551970Y524904D01*
X551897Y524906D01*
X551813Y524904D01*
X551730Y524898D01*
X551647Y524889D01*
X551565Y524875D01*
X551483Y524858D01*
X551402Y524836D01*
X551322Y524811D01*
X551244Y524783D01*
X551166Y524751D01*
X551091Y524715D01*
X551017Y524676D01*
X550945Y524633D01*
X550875Y524587D01*
X550808Y524538D01*
X550742Y524485D01*
X550680Y524430D01*
X550620Y524372D01*
X550562Y524311D01*
X550508Y524248D01*
X550456Y524182D01*
X550408Y524114D01*
X550363Y524043D01*
X550321Y523971D01*
X550283Y523896D01*
X550248Y523820D01*
X550217Y523743D01*
X550189Y523664D01*
X552827Y522423D02*
X552881Y522476D01*
X552932Y522533D01*
X552980Y522592D01*
X553025Y522653D01*
X553066Y522716D01*
X553105Y522782D01*
X553140Y522849D01*
X553172Y522918D01*
X553200Y522989D01*
X553224Y523060D01*
X553245Y523133D01*
X553262Y523207D01*
X553276Y523282D01*
X553285Y523357D01*
X553291Y523433D01*
X553293Y523509D01*
X552828Y522422D02*
X550189Y519318D01*
X553294Y519318D01*
X555942Y519318D02*
X555942Y524906D01*
X557494Y524906D01*
X557571Y524904D01*
X557649Y524898D01*
X557725Y524889D01*
X557802Y524875D01*
X557877Y524858D01*
X557951Y524837D01*
X558025Y524812D01*
X558097Y524784D01*
X558167Y524752D01*
X558236Y524717D01*
X558303Y524678D01*
X558368Y524636D01*
X558431Y524591D01*
X558492Y524543D01*
X558550Y524492D01*
X558605Y524438D01*
X558658Y524381D01*
X558707Y524322D01*
X558754Y524260D01*
X558798Y524196D01*
X558838Y524130D01*
X558875Y524062D01*
X558909Y523992D01*
X558939Y523921D01*
X558965Y523848D01*
X558988Y523774D01*
X559007Y523699D01*
X559022Y523624D01*
X559034Y523547D01*
X559042Y523470D01*
X559046Y523393D01*
X559046Y523315D01*
X559042Y523238D01*
X559034Y523161D01*
X559022Y523084D01*
X559007Y523009D01*
X558988Y522934D01*
X558965Y522860D01*
X558939Y522787D01*
X558909Y522716D01*
X558875Y522646D01*
X558838Y522578D01*
X558798Y522512D01*
X558754Y522448D01*
X558707Y522386D01*
X558658Y522327D01*
X558605Y522270D01*
X558550Y522216D01*
X558492Y522165D01*
X558431Y522117D01*
X558368Y522072D01*
X558303Y522030D01*
X558236Y521991D01*
X558167Y521956D01*
X558097Y521924D01*
X558025Y521896D01*
X557951Y521871D01*
X557877Y521850D01*
X557802Y521833D01*
X557725Y521819D01*
X557649Y521810D01*
X557571Y521804D01*
X557494Y521802D01*
X555942Y521802D01*
D10*
X572320Y503140D02*
X572320Y452340D01*
X572320Y503140D02*
X554540Y503140D01*
X539300Y503140D01*
X529140Y503140D02*
X513900Y503140D01*
X496120Y503140D01*
X496120Y452340D01*
X572320Y452340D01*
X554540Y498060D02*
X554540Y503140D01*
X539300Y503140D02*
X539300Y498060D01*
X539300Y503140D02*
X529140Y503140D01*
X529140Y498060D01*
X513900Y498060D02*
X513900Y503140D01*
X539300Y498060D02*
X554540Y498060D01*
X529140Y498060D02*
X513900Y498060D01*
D12*
X511026Y449546D02*
X511026Y445200D01*
X511024Y445130D01*
X511018Y445061D01*
X511008Y444992D01*
X510995Y444924D01*
X510977Y444856D01*
X510956Y444790D01*
X510931Y444725D01*
X510903Y444661D01*
X510871Y444599D01*
X510836Y444539D01*
X510797Y444481D01*
X510755Y444426D01*
X510710Y444372D01*
X510662Y444322D01*
X510612Y444274D01*
X510558Y444229D01*
X510503Y444187D01*
X510445Y444148D01*
X510385Y444113D01*
X510323Y444081D01*
X510259Y444053D01*
X510194Y444028D01*
X510128Y444007D01*
X510060Y443989D01*
X509992Y443976D01*
X509923Y443966D01*
X509854Y443960D01*
X509784Y443958D01*
X509163Y443958D01*
X515248Y443958D02*
X515318Y443960D01*
X515387Y443966D01*
X515456Y443976D01*
X515524Y443989D01*
X515592Y444007D01*
X515658Y444028D01*
X515723Y444053D01*
X515787Y444081D01*
X515849Y444113D01*
X515909Y444148D01*
X515967Y444187D01*
X516022Y444229D01*
X516076Y444274D01*
X516126Y444322D01*
X516174Y444372D01*
X516219Y444426D01*
X516261Y444481D01*
X516300Y444539D01*
X516335Y444599D01*
X516367Y444661D01*
X516395Y444725D01*
X516420Y444790D01*
X516441Y444856D01*
X516459Y444924D01*
X516472Y444992D01*
X516482Y445061D01*
X516488Y445130D01*
X516490Y445200D01*
X515248Y443958D02*
X515149Y443960D01*
X515051Y443965D01*
X514953Y443975D01*
X514855Y443988D01*
X514758Y444004D01*
X514661Y444024D01*
X514566Y444048D01*
X514471Y444076D01*
X514377Y444107D01*
X514285Y444141D01*
X514194Y444179D01*
X514104Y444220D01*
X514016Y444265D01*
X513930Y444313D01*
X513846Y444364D01*
X513764Y444418D01*
X513683Y444476D01*
X513605Y444536D01*
X513530Y444599D01*
X513456Y444665D01*
X513386Y444734D01*
X513540Y448304D02*
X513542Y448374D01*
X513548Y448443D01*
X513558Y448512D01*
X513571Y448580D01*
X513589Y448648D01*
X513610Y448714D01*
X513635Y448779D01*
X513663Y448843D01*
X513695Y448905D01*
X513730Y448965D01*
X513769Y449023D01*
X513811Y449078D01*
X513856Y449132D01*
X513904Y449182D01*
X513954Y449230D01*
X514008Y449275D01*
X514063Y449317D01*
X514121Y449356D01*
X514181Y449391D01*
X514243Y449423D01*
X514307Y449451D01*
X514372Y449476D01*
X514438Y449497D01*
X514506Y449515D01*
X514574Y449528D01*
X514643Y449538D01*
X514712Y449544D01*
X514782Y449546D01*
X514876Y449544D01*
X514969Y449538D01*
X515062Y449529D01*
X515155Y449516D01*
X515247Y449499D01*
X515338Y449479D01*
X515429Y449454D01*
X515518Y449427D01*
X515606Y449395D01*
X515693Y449360D01*
X515779Y449322D01*
X515862Y449280D01*
X515944Y449235D01*
X516025Y449187D01*
X516103Y449135D01*
X516179Y449080D01*
X514161Y447218D02*
X514102Y447254D01*
X514046Y447294D01*
X513992Y447337D01*
X513940Y447382D01*
X513891Y447431D01*
X513845Y447482D01*
X513802Y447535D01*
X513761Y447591D01*
X513724Y447649D01*
X513689Y447709D01*
X513659Y447770D01*
X513631Y447833D01*
X513607Y447898D01*
X513587Y447964D01*
X513570Y448031D01*
X513557Y448098D01*
X513548Y448166D01*
X513542Y448235D01*
X513540Y448304D01*
X515868Y446286D02*
X515927Y446250D01*
X515983Y446210D01*
X516037Y446167D01*
X516089Y446122D01*
X516138Y446073D01*
X516184Y446022D01*
X516227Y445969D01*
X516268Y445913D01*
X516305Y445855D01*
X516340Y445795D01*
X516370Y445734D01*
X516398Y445671D01*
X516422Y445606D01*
X516442Y445540D01*
X516459Y445473D01*
X516472Y445406D01*
X516481Y445338D01*
X516487Y445269D01*
X516489Y445200D01*
X515868Y446286D02*
X514161Y447218D01*
X519875Y449546D02*
X519875Y443958D01*
X518323Y449546D02*
X521427Y449546D01*
X528077Y449546D02*
X528150Y449544D01*
X528223Y449538D01*
X528296Y449529D01*
X528367Y449515D01*
X528439Y449498D01*
X528509Y449478D01*
X528578Y449453D01*
X528645Y449425D01*
X528711Y449394D01*
X528776Y449359D01*
X528838Y449321D01*
X528898Y449279D01*
X528956Y449235D01*
X529012Y449187D01*
X529065Y449137D01*
X529115Y449084D01*
X529163Y449028D01*
X529207Y448970D01*
X529249Y448910D01*
X529287Y448848D01*
X529322Y448783D01*
X529353Y448717D01*
X529381Y448650D01*
X529406Y448581D01*
X529426Y448511D01*
X529443Y448439D01*
X529457Y448368D01*
X529466Y448295D01*
X529472Y448222D01*
X529474Y448149D01*
X528077Y449546D02*
X527993Y449544D01*
X527910Y449538D01*
X527827Y449529D01*
X527745Y449515D01*
X527663Y449498D01*
X527582Y449476D01*
X527502Y449451D01*
X527424Y449423D01*
X527346Y449391D01*
X527271Y449355D01*
X527197Y449316D01*
X527125Y449273D01*
X527055Y449227D01*
X526988Y449178D01*
X526922Y449125D01*
X526860Y449070D01*
X526800Y449012D01*
X526742Y448951D01*
X526688Y448888D01*
X526636Y448822D01*
X526588Y448754D01*
X526543Y448683D01*
X526501Y448611D01*
X526463Y448536D01*
X526428Y448460D01*
X526397Y448383D01*
X526369Y448304D01*
X529007Y447063D02*
X529061Y447116D01*
X529112Y447173D01*
X529160Y447232D01*
X529205Y447293D01*
X529246Y447356D01*
X529285Y447422D01*
X529320Y447489D01*
X529352Y447558D01*
X529380Y447629D01*
X529404Y447700D01*
X529425Y447773D01*
X529442Y447847D01*
X529456Y447922D01*
X529465Y447997D01*
X529471Y448073D01*
X529473Y448149D01*
X529008Y447062D02*
X526369Y443958D01*
X529474Y443958D01*
X531607Y443958D02*
X531607Y444268D01*
X531917Y444268D01*
X531917Y443958D01*
X531607Y443958D01*
X534050Y443958D02*
X535913Y443958D01*
X535983Y443960D01*
X536052Y443966D01*
X536121Y443976D01*
X536189Y443989D01*
X536257Y444007D01*
X536323Y444028D01*
X536388Y444053D01*
X536452Y444081D01*
X536514Y444113D01*
X536574Y444148D01*
X536632Y444187D01*
X536687Y444229D01*
X536741Y444274D01*
X536791Y444322D01*
X536839Y444372D01*
X536884Y444426D01*
X536926Y444481D01*
X536965Y444539D01*
X537000Y444599D01*
X537032Y444661D01*
X537060Y444725D01*
X537085Y444790D01*
X537106Y444856D01*
X537124Y444924D01*
X537137Y444992D01*
X537147Y445061D01*
X537153Y445130D01*
X537155Y445200D01*
X537155Y445821D01*
X537153Y445891D01*
X537147Y445960D01*
X537137Y446029D01*
X537124Y446097D01*
X537106Y446165D01*
X537085Y446231D01*
X537060Y446296D01*
X537032Y446360D01*
X537000Y446422D01*
X536965Y446482D01*
X536926Y446540D01*
X536884Y446595D01*
X536839Y446649D01*
X536791Y446699D01*
X536741Y446747D01*
X536687Y446792D01*
X536632Y446834D01*
X536574Y446873D01*
X536514Y446908D01*
X536452Y446940D01*
X536388Y446968D01*
X536323Y446993D01*
X536257Y447014D01*
X536189Y447032D01*
X536121Y447045D01*
X536052Y447055D01*
X535983Y447061D01*
X535913Y447063D01*
X535913Y447062D02*
X534050Y447062D01*
X534050Y449546D01*
X537155Y449546D01*
X540778Y449546D02*
X539537Y445200D01*
X542641Y445200D01*
X541710Y446442D02*
X541710Y443958D01*
X544713Y443958D02*
X548438Y449546D01*
X544713Y449546D02*
X548438Y443958D01*
X553614Y448149D02*
X553612Y448222D01*
X553606Y448295D01*
X553597Y448368D01*
X553583Y448439D01*
X553566Y448511D01*
X553546Y448581D01*
X553521Y448650D01*
X553493Y448717D01*
X553462Y448783D01*
X553427Y448848D01*
X553389Y448910D01*
X553347Y448970D01*
X553303Y449028D01*
X553255Y449084D01*
X553205Y449137D01*
X553152Y449187D01*
X553096Y449235D01*
X553038Y449279D01*
X552978Y449321D01*
X552916Y449359D01*
X552851Y449394D01*
X552785Y449425D01*
X552718Y449453D01*
X552649Y449478D01*
X552579Y449498D01*
X552507Y449515D01*
X552436Y449529D01*
X552363Y449538D01*
X552290Y449544D01*
X552217Y449546D01*
X552133Y449544D01*
X552050Y449538D01*
X551967Y449529D01*
X551885Y449515D01*
X551803Y449498D01*
X551722Y449476D01*
X551642Y449451D01*
X551564Y449423D01*
X551486Y449391D01*
X551411Y449355D01*
X551337Y449316D01*
X551265Y449273D01*
X551195Y449227D01*
X551128Y449178D01*
X551062Y449125D01*
X551000Y449070D01*
X550940Y449012D01*
X550882Y448951D01*
X550828Y448888D01*
X550776Y448822D01*
X550728Y448754D01*
X550683Y448683D01*
X550641Y448611D01*
X550603Y448536D01*
X550568Y448460D01*
X550537Y448383D01*
X550509Y448304D01*
X553147Y447063D02*
X553201Y447116D01*
X553252Y447173D01*
X553300Y447232D01*
X553345Y447293D01*
X553386Y447356D01*
X553425Y447422D01*
X553460Y447489D01*
X553492Y447558D01*
X553520Y447629D01*
X553544Y447700D01*
X553565Y447773D01*
X553582Y447847D01*
X553596Y447922D01*
X553605Y447997D01*
X553611Y448073D01*
X553613Y448149D01*
X553148Y447062D02*
X550509Y443958D01*
X553614Y443958D01*
X556262Y443958D02*
X556262Y449546D01*
X557814Y449546D01*
X557891Y449544D01*
X557969Y449538D01*
X558045Y449529D01*
X558122Y449515D01*
X558197Y449498D01*
X558271Y449477D01*
X558345Y449452D01*
X558417Y449424D01*
X558487Y449392D01*
X558556Y449357D01*
X558623Y449318D01*
X558688Y449276D01*
X558751Y449231D01*
X558812Y449183D01*
X558870Y449132D01*
X558925Y449078D01*
X558978Y449021D01*
X559027Y448962D01*
X559074Y448900D01*
X559118Y448836D01*
X559158Y448770D01*
X559195Y448702D01*
X559229Y448632D01*
X559259Y448561D01*
X559285Y448488D01*
X559308Y448414D01*
X559327Y448339D01*
X559342Y448264D01*
X559354Y448187D01*
X559362Y448110D01*
X559366Y448033D01*
X559366Y447955D01*
X559362Y447878D01*
X559354Y447801D01*
X559342Y447724D01*
X559327Y447649D01*
X559308Y447574D01*
X559285Y447500D01*
X559259Y447427D01*
X559229Y447356D01*
X559195Y447286D01*
X559158Y447218D01*
X559118Y447152D01*
X559074Y447088D01*
X559027Y447026D01*
X558978Y446967D01*
X558925Y446910D01*
X558870Y446856D01*
X558812Y446805D01*
X558751Y446757D01*
X558688Y446712D01*
X558623Y446670D01*
X558556Y446631D01*
X558487Y446596D01*
X558417Y446564D01*
X558345Y446536D01*
X558271Y446511D01*
X558197Y446490D01*
X558122Y446473D01*
X558045Y446459D01*
X557969Y446450D01*
X557891Y446444D01*
X557814Y446442D01*
X556262Y446442D01*
X458706Y201949D02*
X453118Y201949D01*
X453118Y203501D01*
X453120Y203578D01*
X453126Y203656D01*
X453135Y203732D01*
X453149Y203809D01*
X453166Y203884D01*
X453187Y203958D01*
X453212Y204032D01*
X453240Y204104D01*
X453272Y204174D01*
X453307Y204243D01*
X453346Y204310D01*
X453388Y204375D01*
X453433Y204438D01*
X453481Y204499D01*
X453532Y204557D01*
X453586Y204612D01*
X453643Y204665D01*
X453702Y204714D01*
X453764Y204761D01*
X453828Y204805D01*
X453894Y204845D01*
X453962Y204882D01*
X454032Y204916D01*
X454103Y204946D01*
X454176Y204972D01*
X454250Y204995D01*
X454325Y205014D01*
X454400Y205029D01*
X454477Y205041D01*
X454554Y205049D01*
X454631Y205053D01*
X454709Y205053D01*
X454786Y205049D01*
X454863Y205041D01*
X454940Y205029D01*
X455015Y205014D01*
X455090Y204995D01*
X455164Y204972D01*
X455237Y204946D01*
X455308Y204916D01*
X455378Y204882D01*
X455446Y204845D01*
X455512Y204805D01*
X455576Y204761D01*
X455638Y204714D01*
X455697Y204665D01*
X455754Y204612D01*
X455808Y204557D01*
X455859Y204499D01*
X455907Y204438D01*
X455952Y204375D01*
X455994Y204310D01*
X456033Y204243D01*
X456068Y204174D01*
X456100Y204104D01*
X456128Y204032D01*
X456153Y203958D01*
X456174Y203884D01*
X456191Y203809D01*
X456205Y203732D01*
X456214Y203656D01*
X456220Y203578D01*
X456222Y203501D01*
X456222Y201949D01*
X454981Y207329D02*
X458706Y207329D01*
X454981Y207329D02*
X454981Y209192D01*
X455602Y209192D01*
X458706Y211886D02*
X458706Y213438D01*
X458706Y211886D02*
X458704Y211828D01*
X458699Y211769D01*
X458690Y211712D01*
X458677Y211654D01*
X458660Y211598D01*
X458641Y211543D01*
X458617Y211490D01*
X458591Y211437D01*
X458561Y211387D01*
X458528Y211339D01*
X458492Y211293D01*
X458454Y211249D01*
X458412Y211207D01*
X458368Y211169D01*
X458322Y211133D01*
X458274Y211100D01*
X458224Y211070D01*
X458171Y211044D01*
X458118Y211020D01*
X458063Y211001D01*
X458007Y210984D01*
X457949Y210971D01*
X457892Y210962D01*
X457833Y210957D01*
X457775Y210955D01*
X457775Y210954D02*
X456222Y210954D01*
X456152Y210956D01*
X456083Y210962D01*
X456014Y210972D01*
X455946Y210985D01*
X455878Y211003D01*
X455812Y211024D01*
X455747Y211049D01*
X455683Y211077D01*
X455621Y211109D01*
X455561Y211144D01*
X455503Y211183D01*
X455448Y211225D01*
X455394Y211270D01*
X455344Y211318D01*
X455296Y211368D01*
X455251Y211422D01*
X455209Y211477D01*
X455170Y211535D01*
X455135Y211595D01*
X455103Y211657D01*
X455075Y211721D01*
X455050Y211786D01*
X455029Y211852D01*
X455011Y211920D01*
X454998Y211988D01*
X454988Y212057D01*
X454982Y212126D01*
X454980Y212196D01*
X454982Y212266D01*
X454988Y212335D01*
X454998Y212404D01*
X455011Y212472D01*
X455029Y212540D01*
X455050Y212606D01*
X455075Y212671D01*
X455103Y212735D01*
X455135Y212797D01*
X455170Y212857D01*
X455209Y212915D01*
X455251Y212970D01*
X455296Y213024D01*
X455344Y213074D01*
X455394Y213122D01*
X455448Y213167D01*
X455503Y213209D01*
X455561Y213248D01*
X455621Y213283D01*
X455683Y213315D01*
X455747Y213343D01*
X455812Y213368D01*
X455878Y213389D01*
X455946Y213407D01*
X456014Y213420D01*
X456083Y213430D01*
X456152Y213436D01*
X456222Y213438D01*
X456843Y213438D01*
X456843Y210954D01*
X456533Y216175D02*
X457154Y217727D01*
X456533Y216175D02*
X456511Y216124D01*
X456485Y216075D01*
X456456Y216027D01*
X456423Y215982D01*
X456387Y215939D01*
X456349Y215898D01*
X456307Y215861D01*
X456264Y215826D01*
X456218Y215794D01*
X456169Y215766D01*
X456119Y215741D01*
X456068Y215720D01*
X456015Y215702D01*
X455961Y215688D01*
X455906Y215678D01*
X455850Y215672D01*
X455795Y215669D01*
X455739Y215670D01*
X455683Y215676D01*
X455628Y215685D01*
X455574Y215697D01*
X455520Y215714D01*
X455468Y215734D01*
X455418Y215758D01*
X455369Y215785D01*
X455322Y215816D01*
X455278Y215850D01*
X455236Y215886D01*
X455196Y215926D01*
X455160Y215968D01*
X455126Y216013D01*
X455096Y216060D01*
X455069Y216108D01*
X455045Y216159D01*
X455025Y216211D01*
X455009Y216265D01*
X454996Y216319D01*
X454987Y216374D01*
X454982Y216430D01*
X454981Y216486D01*
X454980Y216485D02*
X454984Y216596D01*
X454990Y216707D01*
X455001Y216817D01*
X455015Y216927D01*
X455032Y217037D01*
X455052Y217146D01*
X455076Y217254D01*
X455104Y217361D01*
X455135Y217468D01*
X455169Y217573D01*
X455206Y217678D01*
X455247Y217781D01*
X455291Y217883D01*
X457154Y217727D02*
X457176Y217778D01*
X457202Y217827D01*
X457231Y217875D01*
X457264Y217920D01*
X457300Y217963D01*
X457338Y218004D01*
X457380Y218041D01*
X457423Y218076D01*
X457469Y218108D01*
X457518Y218136D01*
X457568Y218161D01*
X457619Y218182D01*
X457672Y218200D01*
X457726Y218214D01*
X457781Y218224D01*
X457837Y218230D01*
X457892Y218233D01*
X457948Y218232D01*
X458004Y218226D01*
X458059Y218217D01*
X458113Y218205D01*
X458167Y218188D01*
X458219Y218168D01*
X458269Y218144D01*
X458318Y218117D01*
X458365Y218086D01*
X458409Y218052D01*
X458451Y218016D01*
X458491Y217976D01*
X458527Y217934D01*
X458561Y217889D01*
X458591Y217842D01*
X458618Y217794D01*
X458642Y217743D01*
X458662Y217691D01*
X458678Y217637D01*
X458691Y217583D01*
X458700Y217528D01*
X458705Y217472D01*
X458706Y217416D01*
X458706Y217417D02*
X458703Y217283D01*
X458696Y217149D01*
X458685Y217015D01*
X458672Y216882D01*
X458654Y216749D01*
X458634Y216616D01*
X458610Y216484D01*
X458582Y216353D01*
X458552Y216222D01*
X458518Y216093D01*
X458480Y215964D01*
X458440Y215836D01*
X458396Y215709D01*
X456533Y220930D02*
X457154Y222482D01*
X456533Y220930D02*
X456511Y220879D01*
X456485Y220830D01*
X456456Y220782D01*
X456423Y220737D01*
X456387Y220694D01*
X456349Y220653D01*
X456307Y220616D01*
X456264Y220581D01*
X456218Y220549D01*
X456169Y220521D01*
X456119Y220496D01*
X456068Y220475D01*
X456015Y220457D01*
X455961Y220443D01*
X455906Y220433D01*
X455850Y220427D01*
X455795Y220424D01*
X455739Y220425D01*
X455683Y220431D01*
X455628Y220440D01*
X455574Y220452D01*
X455520Y220469D01*
X455468Y220489D01*
X455418Y220513D01*
X455369Y220540D01*
X455322Y220571D01*
X455278Y220605D01*
X455236Y220641D01*
X455196Y220681D01*
X455160Y220723D01*
X455126Y220768D01*
X455096Y220815D01*
X455069Y220863D01*
X455045Y220914D01*
X455025Y220966D01*
X455009Y221020D01*
X454996Y221074D01*
X454987Y221129D01*
X454982Y221185D01*
X454981Y221241D01*
X454980Y221240D02*
X454984Y221351D01*
X454990Y221462D01*
X455001Y221572D01*
X455015Y221682D01*
X455032Y221792D01*
X455052Y221901D01*
X455076Y222009D01*
X455104Y222116D01*
X455135Y222223D01*
X455169Y222328D01*
X455206Y222433D01*
X455247Y222536D01*
X455291Y222638D01*
X457154Y222482D02*
X457176Y222533D01*
X457202Y222582D01*
X457231Y222630D01*
X457264Y222675D01*
X457300Y222718D01*
X457338Y222759D01*
X457380Y222796D01*
X457423Y222831D01*
X457469Y222863D01*
X457518Y222891D01*
X457568Y222916D01*
X457619Y222937D01*
X457672Y222955D01*
X457726Y222969D01*
X457781Y222979D01*
X457837Y222985D01*
X457892Y222988D01*
X457948Y222987D01*
X458004Y222981D01*
X458059Y222972D01*
X458113Y222960D01*
X458167Y222943D01*
X458219Y222923D01*
X458269Y222899D01*
X458318Y222872D01*
X458365Y222841D01*
X458409Y222807D01*
X458451Y222771D01*
X458491Y222731D01*
X458527Y222689D01*
X458561Y222644D01*
X458591Y222597D01*
X458618Y222549D01*
X458642Y222498D01*
X458662Y222446D01*
X458678Y222392D01*
X458691Y222338D01*
X458700Y222283D01*
X458705Y222227D01*
X458706Y222171D01*
X458706Y222172D02*
X458703Y222038D01*
X458696Y221904D01*
X458685Y221770D01*
X458672Y221637D01*
X458654Y221504D01*
X458634Y221371D01*
X458610Y221239D01*
X458582Y221108D01*
X458552Y220977D01*
X458518Y220848D01*
X458480Y220719D01*
X458440Y220591D01*
X458396Y220464D01*
X458706Y225181D02*
X454981Y225181D01*
X453428Y225025D02*
X453118Y225025D01*
X453118Y225336D01*
X453428Y225336D01*
X453428Y225025D01*
X456222Y227414D02*
X457464Y227414D01*
X456222Y227413D02*
X456152Y227415D01*
X456083Y227421D01*
X456014Y227431D01*
X455946Y227444D01*
X455878Y227462D01*
X455812Y227483D01*
X455747Y227508D01*
X455683Y227536D01*
X455621Y227568D01*
X455561Y227603D01*
X455503Y227642D01*
X455448Y227684D01*
X455394Y227729D01*
X455344Y227777D01*
X455296Y227827D01*
X455251Y227881D01*
X455209Y227936D01*
X455170Y227994D01*
X455135Y228054D01*
X455103Y228116D01*
X455075Y228180D01*
X455050Y228245D01*
X455029Y228311D01*
X455011Y228379D01*
X454998Y228447D01*
X454988Y228516D01*
X454982Y228585D01*
X454980Y228655D01*
X454982Y228725D01*
X454988Y228794D01*
X454998Y228863D01*
X455011Y228931D01*
X455029Y228999D01*
X455050Y229065D01*
X455075Y229130D01*
X455103Y229194D01*
X455135Y229256D01*
X455170Y229316D01*
X455209Y229374D01*
X455251Y229429D01*
X455296Y229483D01*
X455344Y229533D01*
X455394Y229581D01*
X455448Y229626D01*
X455503Y229668D01*
X455561Y229707D01*
X455621Y229742D01*
X455683Y229774D01*
X455747Y229802D01*
X455812Y229827D01*
X455878Y229848D01*
X455946Y229866D01*
X456014Y229879D01*
X456083Y229889D01*
X456152Y229895D01*
X456222Y229897D01*
X457464Y229897D01*
X457534Y229895D01*
X457603Y229889D01*
X457672Y229879D01*
X457740Y229866D01*
X457808Y229848D01*
X457874Y229827D01*
X457939Y229802D01*
X458003Y229774D01*
X458065Y229742D01*
X458125Y229707D01*
X458183Y229668D01*
X458238Y229626D01*
X458292Y229581D01*
X458342Y229533D01*
X458390Y229483D01*
X458435Y229429D01*
X458477Y229374D01*
X458516Y229316D01*
X458551Y229256D01*
X458583Y229194D01*
X458611Y229130D01*
X458636Y229065D01*
X458657Y228999D01*
X458675Y228931D01*
X458688Y228863D01*
X458698Y228794D01*
X458704Y228725D01*
X458706Y228655D01*
X458704Y228585D01*
X458698Y228516D01*
X458688Y228447D01*
X458675Y228379D01*
X458657Y228311D01*
X458636Y228245D01*
X458611Y228180D01*
X458583Y228116D01*
X458551Y228054D01*
X458516Y227994D01*
X458477Y227936D01*
X458435Y227881D01*
X458390Y227827D01*
X458342Y227777D01*
X458292Y227729D01*
X458238Y227684D01*
X458183Y227642D01*
X458125Y227603D01*
X458065Y227568D01*
X458003Y227536D01*
X457939Y227508D01*
X457874Y227483D01*
X457808Y227462D01*
X457740Y227444D01*
X457672Y227431D01*
X457603Y227421D01*
X457534Y227415D01*
X457464Y227413D01*
X458706Y232351D02*
X454981Y232351D01*
X454981Y233904D01*
X454983Y233962D01*
X454988Y234021D01*
X454997Y234078D01*
X455010Y234136D01*
X455027Y234192D01*
X455046Y234247D01*
X455070Y234300D01*
X455096Y234353D01*
X455126Y234403D01*
X455159Y234451D01*
X455195Y234497D01*
X455233Y234541D01*
X455275Y234583D01*
X455319Y234621D01*
X455365Y234657D01*
X455413Y234690D01*
X455463Y234720D01*
X455516Y234746D01*
X455569Y234770D01*
X455624Y234789D01*
X455680Y234806D01*
X455738Y234819D01*
X455795Y234828D01*
X455854Y234833D01*
X455912Y234835D01*
X458706Y234835D01*
X458706Y240427D02*
X453118Y240427D01*
X458706Y240427D02*
X458706Y241979D01*
X458704Y242037D01*
X458699Y242096D01*
X458690Y242153D01*
X458677Y242211D01*
X458660Y242267D01*
X458641Y242322D01*
X458617Y242375D01*
X458591Y242428D01*
X458561Y242478D01*
X458528Y242526D01*
X458492Y242572D01*
X458454Y242616D01*
X458412Y242658D01*
X458368Y242696D01*
X458322Y242732D01*
X458274Y242765D01*
X458224Y242795D01*
X458171Y242821D01*
X458118Y242845D01*
X458063Y242864D01*
X458007Y242881D01*
X457949Y242894D01*
X457892Y242903D01*
X457833Y242908D01*
X457775Y242910D01*
X455912Y242910D01*
X455854Y242908D01*
X455795Y242903D01*
X455738Y242894D01*
X455680Y242881D01*
X455624Y242864D01*
X455569Y242845D01*
X455516Y242821D01*
X455463Y242795D01*
X455413Y242765D01*
X455365Y242732D01*
X455319Y242696D01*
X455275Y242658D01*
X455233Y242616D01*
X455195Y242572D01*
X455159Y242526D01*
X455126Y242478D01*
X455096Y242428D01*
X455070Y242375D01*
X455046Y242322D01*
X455027Y242267D01*
X455010Y242211D01*
X454997Y242153D01*
X454988Y242096D01*
X454983Y242037D01*
X454981Y241979D01*
X454981Y240427D01*
X454981Y245336D02*
X457775Y245336D01*
X457833Y245338D01*
X457892Y245343D01*
X457949Y245352D01*
X458007Y245365D01*
X458063Y245382D01*
X458118Y245401D01*
X458171Y245425D01*
X458224Y245451D01*
X458274Y245481D01*
X458322Y245514D01*
X458368Y245550D01*
X458412Y245588D01*
X458454Y245630D01*
X458492Y245674D01*
X458528Y245720D01*
X458561Y245768D01*
X458591Y245818D01*
X458617Y245871D01*
X458641Y245924D01*
X458660Y245979D01*
X458677Y246035D01*
X458690Y246093D01*
X458699Y246150D01*
X458704Y246209D01*
X458706Y246267D01*
X458706Y247819D01*
X454981Y247819D01*
X454981Y249807D02*
X454981Y251670D01*
X453118Y250428D02*
X457775Y250428D01*
X457833Y250430D01*
X457892Y250435D01*
X457949Y250444D01*
X458007Y250457D01*
X458063Y250474D01*
X458118Y250493D01*
X458171Y250517D01*
X458224Y250543D01*
X458274Y250573D01*
X458322Y250606D01*
X458368Y250642D01*
X458412Y250680D01*
X458454Y250722D01*
X458492Y250766D01*
X458528Y250812D01*
X458561Y250860D01*
X458591Y250911D01*
X458617Y250963D01*
X458641Y251016D01*
X458660Y251071D01*
X458677Y251127D01*
X458690Y251185D01*
X458699Y251242D01*
X458704Y251301D01*
X458706Y251359D01*
X458706Y251670D01*
X454981Y253282D02*
X454981Y255144D01*
X453118Y253903D02*
X457775Y253903D01*
X457833Y253905D01*
X457892Y253910D01*
X457949Y253919D01*
X458007Y253932D01*
X458063Y253949D01*
X458118Y253968D01*
X458171Y253992D01*
X458224Y254018D01*
X458274Y254048D01*
X458322Y254081D01*
X458368Y254117D01*
X458412Y254155D01*
X458454Y254197D01*
X458492Y254241D01*
X458528Y254287D01*
X458561Y254335D01*
X458591Y254386D01*
X458617Y254438D01*
X458641Y254491D01*
X458660Y254546D01*
X458677Y254602D01*
X458690Y254660D01*
X458699Y254717D01*
X458704Y254776D01*
X458706Y254834D01*
X458706Y255144D01*
X457464Y257223D02*
X456222Y257223D01*
X456222Y257222D02*
X456152Y257224D01*
X456083Y257230D01*
X456014Y257240D01*
X455946Y257253D01*
X455878Y257271D01*
X455812Y257292D01*
X455747Y257317D01*
X455683Y257345D01*
X455621Y257377D01*
X455561Y257412D01*
X455503Y257451D01*
X455448Y257493D01*
X455394Y257538D01*
X455344Y257586D01*
X455296Y257636D01*
X455251Y257690D01*
X455209Y257745D01*
X455170Y257803D01*
X455135Y257863D01*
X455103Y257925D01*
X455075Y257989D01*
X455050Y258054D01*
X455029Y258120D01*
X455011Y258188D01*
X454998Y258256D01*
X454988Y258325D01*
X454982Y258394D01*
X454980Y258464D01*
X454982Y258534D01*
X454988Y258603D01*
X454998Y258672D01*
X455011Y258740D01*
X455029Y258808D01*
X455050Y258874D01*
X455075Y258939D01*
X455103Y259003D01*
X455135Y259065D01*
X455170Y259125D01*
X455209Y259183D01*
X455251Y259238D01*
X455296Y259292D01*
X455344Y259342D01*
X455394Y259390D01*
X455448Y259435D01*
X455503Y259477D01*
X455561Y259516D01*
X455621Y259551D01*
X455683Y259583D01*
X455747Y259611D01*
X455812Y259636D01*
X455878Y259657D01*
X455946Y259675D01*
X456014Y259688D01*
X456083Y259698D01*
X456152Y259704D01*
X456222Y259706D01*
X457464Y259706D01*
X457534Y259704D01*
X457603Y259698D01*
X457672Y259688D01*
X457740Y259675D01*
X457808Y259657D01*
X457874Y259636D01*
X457939Y259611D01*
X458003Y259583D01*
X458065Y259551D01*
X458125Y259516D01*
X458183Y259477D01*
X458238Y259435D01*
X458292Y259390D01*
X458342Y259342D01*
X458390Y259292D01*
X458435Y259238D01*
X458477Y259183D01*
X458516Y259125D01*
X458551Y259065D01*
X458583Y259003D01*
X458611Y258939D01*
X458636Y258874D01*
X458657Y258808D01*
X458675Y258740D01*
X458688Y258672D01*
X458698Y258603D01*
X458704Y258534D01*
X458706Y258464D01*
X458704Y258394D01*
X458698Y258325D01*
X458688Y258256D01*
X458675Y258188D01*
X458657Y258120D01*
X458636Y258054D01*
X458611Y257989D01*
X458583Y257925D01*
X458551Y257863D01*
X458516Y257803D01*
X458477Y257745D01*
X458435Y257690D01*
X458390Y257636D01*
X458342Y257586D01*
X458292Y257538D01*
X458238Y257493D01*
X458183Y257451D01*
X458125Y257412D01*
X458065Y257377D01*
X458003Y257345D01*
X457939Y257317D01*
X457874Y257292D01*
X457808Y257271D01*
X457740Y257253D01*
X457672Y257240D01*
X457603Y257230D01*
X457534Y257224D01*
X457464Y257222D01*
X458706Y262160D02*
X454981Y262160D01*
X454981Y263713D01*
X454983Y263771D01*
X454988Y263830D01*
X454997Y263887D01*
X455010Y263945D01*
X455027Y264001D01*
X455046Y264056D01*
X455070Y264109D01*
X455096Y264162D01*
X455126Y264212D01*
X455159Y264260D01*
X455195Y264306D01*
X455233Y264350D01*
X455275Y264392D01*
X455319Y264430D01*
X455365Y264466D01*
X455413Y264499D01*
X455463Y264529D01*
X455516Y264555D01*
X455569Y264579D01*
X455624Y264598D01*
X455680Y264615D01*
X455738Y264628D01*
X455795Y264637D01*
X455854Y264642D01*
X455912Y264644D01*
X458706Y264644D01*
D10*
X411114Y153788D02*
X411114Y400788D01*
X411114Y153788D02*
X491114Y153788D01*
X491114Y400788D01*
X411114Y400788D01*
M02*
