G04 EAGLE Gerber RS-274X export*
G75*
%MOMM*%
%FSLAX34Y34*%
%LPD*%
%INSoldermask Bottom*%
%IPPOS*%
%AMOC8*
5,1,8,0,0,1.08239X$1,22.5*%
G01*
%ADD10C,3.203200*%
%ADD11C,1.981200*%
%ADD12R,2.283200X2.283200*%
%ADD13C,2.283200*%
%ADD14P,2.507336X8X202.500000*%
%ADD15P,2.507336X8X112.500000*%
%ADD16C,2.519800*%
%ADD17C,2.543200*%
%ADD18C,2.023200*%
%ADD19C,0.903200*%


D10*
X-2540Y197620D03*
X582540Y198730D03*
X-3650Y613650D03*
X583650Y613650D03*
D11*
X63500Y424020D03*
X63500Y576420D03*
X469900Y576420D03*
X469900Y424020D03*
D12*
X88900Y424020D03*
D13*
X114300Y424020D03*
X139700Y424020D03*
X165100Y424020D03*
X190500Y424020D03*
X215900Y424020D03*
X241300Y424020D03*
X266700Y424020D03*
X292100Y424020D03*
X317500Y424020D03*
X342900Y424020D03*
X368300Y424020D03*
X393700Y424020D03*
X419100Y424020D03*
X444500Y424020D03*
X444500Y576420D03*
X419100Y576420D03*
X393700Y576420D03*
X368300Y576420D03*
X342900Y576420D03*
X317500Y576420D03*
X292100Y576420D03*
X266700Y576420D03*
X241300Y576420D03*
X215900Y576420D03*
X190500Y576420D03*
X165100Y576420D03*
X139700Y576420D03*
X114300Y576420D03*
X88900Y576420D03*
D14*
X561680Y395650D03*
X536280Y395650D03*
D15*
X558800Y248300D03*
X558800Y349900D03*
D16*
X235455Y337900D03*
X260855Y337900D03*
X286255Y337900D03*
X311655Y337900D03*
X337055Y337900D03*
X362455Y337900D03*
X189635Y193905D03*
X189635Y219905D03*
X189635Y245905D03*
X189635Y271905D03*
X189635Y297905D03*
X189635Y323905D03*
X189635Y349905D03*
X189635Y375905D03*
D17*
X546600Y553100D03*
X521200Y553100D03*
X546920Y477740D03*
X521520Y477740D03*
D18*
X441114Y365788D03*
X441114Y338788D03*
X441114Y311788D03*
X466114Y365788D03*
X466114Y338788D03*
X466114Y311788D03*
D19*
X454614Y400788D03*
X454614Y279788D03*
M02*
